<?xml version="1.0" encoding="UTF-8"?>
<!DOCTYPE svg PUBLIC "-//W3C//DTD SVG 1.0//EN" "http://www.w3.org/TR/2001/REC-SVG-20010904/DTD/svg10.dtd">
<!-- Creator: CorelDRAW 2020 (64 Bit) -->
<svg xmlns="http://www.w3.org/2000/svg" xml:space="preserve" width="339px" height="360px" version="1.0" shape-rendering="geometricPrecision" text-rendering="geometricPrecision" image-rendering="optimizeQuality" fill-rule="evenodd" clip-rule="evenodd"
viewBox="0 0 92.89 98.85"
 xmlns:xlink="http://www.w3.org/1999/xlink"
 xmlns:xodm="http://www.corel.com/coreldraw/odm/2003">
 <g id="Camada_x0020_1">
  <metadata id="CorelCorpID_0Corel-Layer"/>
  <path fill="#6E4439" fill-rule="nonzero" d="M46.44 80.62c-5.62,0 -10.61,-2.93 -12.14,-7.12 -0.26,-0.73 0.12,-1.53 0.84,-1.8 0.73,-0.26 1.53,0.11 1.8,0.84 1.13,3.11 5.04,5.27 9.5,5.27 4.45,0 8.35,-2.15 9.5,-5.24 0.27,-0.72 1.08,-1.09 1.8,-0.82 0.72,0.27 1.09,1.07 0.83,1.8 -1.55,4.16 -6.53,7.07 -12.13,7.07z"/>
  <circle fill="#FF6473" fill-rule="nonzero" cx="46.44" cy="82.02" r="2.8"/>
  <path fill="#F05467" fill-rule="nonzero" d="M45.04 82.02c0,-1.3 0.9,-2.39 2.1,-2.7 -0.22,-0.06 -0.45,-0.1 -0.7,-0.1 -1.54,0 -2.8,1.25 -2.8,2.8 0,1.55 1.26,2.8 2.8,2.8 0.25,0 0.48,-0.04 0.7,-0.09 -1.2,-0.32 -2.1,-1.4 -2.1,-2.71z"/>
  <circle fill="#FFA0B5" fill-rule="nonzero" cx="47.14" cy="81.32" r="0.7"/>
  <rect fill="none" width="92.89" height="98.85"/>
 </g>
</svg>
