<?xml version="1.0" encoding="UTF-8"?>
<!DOCTYPE svg PUBLIC "-//W3C//DTD SVG 1.0//EN" "http://www.w3.org/TR/2001/REC-SVG-20010904/DTD/svg10.dtd">
<!-- Creator: CorelDRAW 2020 (64 Bit) -->
<svg xmlns="http://www.w3.org/2000/svg" xml:space="preserve" width="339px" height="360px" version="1.0" shape-rendering="geometricPrecision" text-rendering="geometricPrecision" image-rendering="optimizeQuality" fill-rule="evenodd" clip-rule="evenodd"
viewBox="0 0 205.51 218.69"
 xmlns:xlink="http://www.w3.org/1999/xlink"
 xmlns:xodm="http://www.corel.com/coreldraw/odm/2003">
 <g id="Camada_x0020_1">
  <metadata id="CorelCorpID_0Corel-Layer"/>
  <g id="_1774312135872">
   <path fill="#BD445A" fill-rule="nonzero" d="M135.32 57.26c0,4.18 -8.42,7.56 -12.6,7.56 -4.17,0 -7.56,-3.38 -7.56,-7.56 0,-4.17 3.39,-7.56 7.56,-7.56 4.18,0 12.6,3.39 12.6,7.56z"/>
   <path fill="#BD445A" fill-rule="nonzero" d="M135.32 57.26c0,-4.17 8.43,-7.56 12.6,-7.56 4.18,0 7.56,3.39 7.56,7.56 0,4.18 -3.38,7.56 -7.56,7.56 -4.17,0 -12.6,-3.38 -12.6,-7.56z"/>
   <path fill="#FF6473" fill-rule="nonzero" d="M135.32 57.26c3.62,2.09 2.34,11.08 0.25,14.7 -2.09,3.61 -6.71,4.85 -10.33,2.76 -3.62,-2.08 -4.85,-6.71 -2.77,-10.32 2.09,-3.62 9.24,-9.22 12.85,-7.14z"/>
   <path fill="#FF6473" fill-rule="nonzero" d="M135.32 57.26c-3.61,-2.08 -2.33,-11.07 -0.25,-14.69 2.09,-3.61 6.72,-4.85 10.33,-2.77 3.62,2.09 4.86,6.72 2.77,10.33 -2.09,3.62 -9.23,9.22 -12.85,7.13z"/>
   <path fill="#F05467" fill-rule="nonzero" d="M135.32 57.26c-3.61,2.09 -2.33,11.08 -0.25,14.7 2.09,3.61 6.72,4.85 10.33,2.76 3.62,-2.08 4.86,-6.71 2.77,-10.32 -2.09,-3.62 -9.23,-9.22 -12.85,-7.14z"/>
   <path fill="#F05467" fill-rule="nonzero" d="M135.32 57.26c3.62,-2.08 2.34,-11.07 0.25,-14.69 -2.09,-3.62 -6.71,-4.85 -10.33,-2.77 -3.62,2.09 -4.85,6.72 -2.77,10.33 2.09,3.62 9.24,9.22 12.85,7.13z"/>
   <circle fill="white" fill-rule="nonzero" cx="135.32" cy="57.26" r="5.04"/>
  </g>
  <rect fill="none" width="205.51" height="218.69"/>
 </g>
</svg>
