<?xml version="1.0" encoding="UTF-8"?>
<!DOCTYPE svg PUBLIC "-//W3C//DTD SVG 1.0//EN" "http://www.w3.org/TR/2001/REC-SVG-20010904/DTD/svg10.dtd">
<!-- Creator: CorelDRAW 2020 (64 Bit) -->
<svg xmlns="http://www.w3.org/2000/svg" xml:space="preserve" width="339px" height="360px" version="1.0" shape-rendering="geometricPrecision" text-rendering="geometricPrecision" image-rendering="optimizeQuality" fill-rule="evenodd" clip-rule="evenodd"
viewBox="0 0 967.36 1029.42"
 xmlns:xlink="http://www.w3.org/1999/xlink"
 xmlns:xodm="http://www.corel.com/coreldraw/odm/2003">
 <g id="Camada_x0020_1">
  <metadata id="CorelCorpID_0Corel-Layer"/>
  <path fill="#623F33" fill-rule="nonzero" d="M691.73 467.28l-149.65 0c-12.08,0 -21.9,9.83 -21.9,21.91l0 0.78c-9.28,-9.48 -22.21,-15.39 -36.5,-15.39 -14.29,0 -27.22,5.91 -36.5,15.39l0 -0.78c0,-12.08 -9.82,-21.91 -21.9,-21.91l-149.65 0c-4.03,0 -7.3,3.27 -7.3,7.3 0,4.04 3.27,7.31 7.3,7.31l41.43 0c-0.81,2.28 -1.28,4.73 -1.28,7.3l0 43.8c0,12.07 9.83,21.89 21.9,21.89l87.6 0c12.08,0 21.9,-9.82 21.9,-21.89l0 -7.3c0,-20.13 16.38,-36.5 36.5,-36.5 20.12,0 36.5,16.37 36.5,36.5l0 7.3c0,12.07 9.82,21.89 21.9,21.89l87.6 0c12.07,0 21.9,-9.82 21.9,-21.89l0 -43.8c0,-2.57 -0.47,-5.02 -1.28,-7.3l41.43 0c4.03,0 7.3,-3.27 7.3,-7.31 0,-4.03 -3.27,-7.3 -7.3,-7.3zm-259.15 65.71c0,4.01 -3.27,7.29 -7.3,7.29l-87.6 0c-4.03,0 -7.3,-3.28 -7.3,-7.29l0 -43.8c0,-4.03 3.27,-7.3 7.3,-7.3l87.6 0c4.03,0 7.3,3.27 7.3,7.3l0 43.8zm204.4 -43.8l0 43.8c0,4.01 -3.27,7.29 -7.3,7.29l-87.6 0c-4.03,0 -7.3,-3.28 -7.3,-7.29l0 -43.8c0,-4.03 3.27,-7.3 7.3,-7.3l87.6 0c4.03,0 7.3,3.27 7.3,7.3z"/>
  <rect fill="none" width="967.36" height="1029.42"/>
 </g>
</svg>
