<?xml version="1.0" encoding="UTF-8"?>
<!DOCTYPE svg PUBLIC "-//W3C//DTD SVG 1.0//EN" "http://www.w3.org/TR/2001/REC-SVG-20010904/DTD/svg10.dtd">
<!-- Creator: CorelDRAW 2020 (64 Bit) -->
<svg xmlns="http://www.w3.org/2000/svg" xml:space="preserve" width="339px" height="360px" version="1.0" shape-rendering="geometricPrecision" text-rendering="geometricPrecision" image-rendering="optimizeQuality" fill-rule="evenodd" clip-rule="evenodd"
viewBox="0 0 144.23 153.48"
 xmlns:xlink="http://www.w3.org/1999/xlink"
 xmlns:xodm="http://www.corel.com/coreldraw/odm/2003">
 <g id="Camada_x0020_1">
  <metadata id="CorelCorpID_0Corel-Layer"/>
  <path fill="#734A3E" fill-rule="nonzero" d="M102.63 68.57l-11.1 0c-0.01,0 -0.02,0 -0.02,0 -1.25,-0.68 -2.68,-1.08 -4.2,-1.08 -4.02,0 -7.4,2.73 -8.4,6.44 -1.25,-2.52 -3.84,-4.26 -6.84,-4.26 -2.99,0 -5.59,1.74 -6.83,4.26 -1.01,-3.71 -4.39,-6.44 -8.41,-6.44 -1.51,0 -2.94,0.4 -4.19,1.08l-11.04 0c-0.6,0 -1.09,0.49 -1.09,1.09 0,0.6 0.49,1.09 1.09,1.09l8.45 0c-1.2,1.49 -1.92,3.39 -1.92,5.45 0,4.8 3.9,8.71 8.7,8.71 4.07,0 7.49,-2.8 8.44,-6.57 0.09,0.02 0.18,0.04 0.27,0.04 0.6,0 1.09,-0.49 1.09,-1.09 0,-3 2.44,-5.44 5.44,-5.44 3,0 5.44,2.44 5.44,5.44 0,0.6 0.49,1.09 1.09,1.09 0.09,0 0.18,-0.02 0.27,-0.04 0.95,3.77 4.38,6.57 8.44,6.57 4.8,0 8.71,-3.91 8.71,-8.71 0,-2.06 -0.73,-3.96 -1.93,-5.45l8.54 0c0.6,0 1.09,-0.49 1.09,-1.09 0,-0.6 -0.49,-1.09 -1.09,-1.09zm-45.8 14.16c-3.6,0 -6.53,-2.93 -6.53,-6.53 0,-3.6 2.93,-6.53 6.53,-6.53 3.61,0 6.53,2.93 6.53,6.53 0,3.6 -2.92,6.53 -6.53,6.53zm30.48 0c-3.6,0 -6.53,-2.93 -6.53,-6.53 0,-3.6 2.93,-6.53 6.53,-6.53 3.6,0 6.53,2.93 6.53,6.53 0,3.6 -2.93,6.53 -6.53,6.53z"/>
  <rect fill="none" width="144.23" height="153.48"/>
 </g>
</svg>
