<?xml version="1.0" encoding="UTF-8"?>
<!DOCTYPE svg PUBLIC "-//W3C//DTD SVG 1.0//EN" "http://www.w3.org/TR/2001/REC-SVG-20010904/DTD/svg10.dtd">
<!-- Creator: CorelDRAW 2020 (64 Bit) -->
<svg xmlns="http://www.w3.org/2000/svg" xml:space="preserve" width="339px" height="360px" version="1.0" shape-rendering="geometricPrecision" text-rendering="geometricPrecision" image-rendering="optimizeQuality" fill-rule="evenodd" clip-rule="evenodd"
viewBox="0 0 59.39 63.2"
 xmlns:xlink="http://www.w3.org/1999/xlink"
 xmlns:xodm="http://www.corel.com/coreldraw/odm/2003">
 <g id="Camada_x0020_1">
  <metadata id="CorelCorpID_0Corel-Layer"/>
  <rect fill="none" width="59.39" height="63.2"/>
  <g id="_1774302123376">
   <path fill="#C38762" fill-rule="nonzero" d="M44.01 12.49c-1.22,-1.22 -3.21,-1.22 -4.43,0 -0.65,0.65 -1.45,2 -1.89,3.31 -2.32,-1.56 -5.09,-2.43 -7.99,-2.43 -2.91,0 -5.68,0.87 -8,2.43 -0.44,-1.31 -1.24,-2.66 -1.89,-3.31 -1.22,-1.22 -3.21,-1.22 -4.43,0 -1.23,1.23 -1.23,3.22 0,4.44 0.61,0.61 1.87,1.37 3.13,1.83 -0.33,0.41 -0.64,0.84 -0.93,1.3 -0.27,0.42 -0.14,0.97 0.28,1.24 0.41,0.26 0.97,0.14 1.23,-0.28 2.32,-3.67 6.29,-5.86 10.61,-5.86 4.31,0 8.28,2.19 10.6,5.86 0.17,0.27 0.46,0.42 0.76,0.42 0.16,0 0.33,-0.05 0.47,-0.14 0.42,-0.27 0.55,-0.82 0.28,-1.24 -0.29,-0.45 -0.6,-0.89 -0.93,-1.3 1.26,-0.46 2.52,-1.22 3.13,-1.83 1.23,-1.22 1.23,-3.21 0,-4.44z"/>
   <g>
    <path fill="#8D5F3D" fill-rule="nonzero" d="M17.59 13.37c0.36,0 0.7,0.14 0.96,0.39 0.37,0.38 0.96,1.32 1.34,2.3 -0.35,0.29 -0.69,0.6 -1.01,0.93 -0.96,-0.39 -1.87,-0.96 -2.24,-1.33 -0.25,-0.25 -0.39,-0.59 -0.39,-0.95 0,-0.36 0.14,-0.69 0.39,-0.95 0.26,-0.25 0.6,-0.39 0.95,-0.39z"/>
   </g>
   <g>
    <path fill="#8D5F3D" fill-rule="nonzero" d="M41.8 13.37c0.35,0 0.69,0.14 0.95,0.39 0.25,0.26 0.39,0.59 0.39,0.95 0,0.36 -0.14,0.7 -0.39,0.95 -0.37,0.37 -1.28,0.94 -2.24,1.33 -0.32,-0.33 -0.66,-0.64 -1.01,-0.93 0.38,-0.98 0.97,-1.92 1.34,-2.3 0.26,-0.25 0.6,-0.39 0.96,-0.39z"/>
   </g>
  </g>
 </g>
</svg>
