<?xml version="1.0" encoding="UTF-8"?>
<!DOCTYPE svg PUBLIC "-//W3C//DTD SVG 1.0//EN" "http://www.w3.org/TR/2001/REC-SVG-20010904/DTD/svg10.dtd">
<!-- Creator: CorelDRAW 2020 (64 Bit) -->
<svg xmlns="http://www.w3.org/2000/svg" xml:space="preserve" width="339px" height="360px" version="1.0" shape-rendering="geometricPrecision" text-rendering="geometricPrecision" image-rendering="optimizeQuality" fill-rule="evenodd" clip-rule="evenodd"
viewBox="0 0 60 63.85"
 xmlns:xlink="http://www.w3.org/1999/xlink"
 xmlns:xodm="http://www.corel.com/coreldraw/odm/2003">
 <g id="Camada_x0020_1">
  <metadata id="CorelCorpID_0Corel-Layer"/>
  <rect fill="none" width="60" height="63.85"/>
  <g id="_1774360492208">
   <path fill="#FFC84A" fill-rule="nonzero" d="M44.5 24.91l-29 0c-0.45,0 -0.79,-0.43 -0.68,-0.87l0.56 -2.22c0.08,-0.31 0.36,-0.53 0.68,-0.53l27.89 0c0.32,0 0.6,0.22 0.67,0.53l0.56 2.22c0.11,0.44 -0.22,0.87 -0.68,0.87z"/>
  </g>
  <g id="_1774360492928">
   <path fill="#FFB04D" fill-rule="nonzero" d="M21.36 24.04l0.56 -2.22c0.07,-0.31 0.35,-0.53 0.68,-0.53l-6.54 0c-0.32,0 -0.6,0.22 -0.68,0.53l-0.56 2.22c-0.11,0.44 0.23,0.87 0.68,0.87l6.54 0c-0.46,0 -0.79,-0.43 -0.68,-0.87z"/>
  </g>
  <g id="_1774360494896">
   <g>
    <g>
     <path fill="#FFB04D" fill-rule="nonzero" d="M40.42 23.06c0,1.22 -2.46,2.21 -3.68,2.21 -1.22,0 -2.21,-0.99 -2.21,-2.21 0,-1.22 0.99,-2.21 2.21,-2.21 1.22,0 3.68,0.99 3.68,2.21z"/>
    </g>
   </g>
   <g>
    <g>
     <path fill="#FFB04D" fill-rule="nonzero" d="M40.42 23.06c0,-1.22 2.46,-2.21 3.68,-2.21 1.22,0 2.2,0.99 2.2,2.21 0,1.22 -0.98,2.21 -2.2,2.21 -1.22,0 -3.68,-0.99 -3.68,-2.21z"/>
    </g>
   </g>
   <g>
    <g>
     <path fill="#FFDC46" fill-rule="nonzero" d="M40.42 23.06c1.05,0.61 0.68,3.23 0.07,4.29 -0.61,1.05 -1.96,1.42 -3.02,0.81 -1.05,-0.61 -1.41,-1.96 -0.8,-3.02 0.61,-1.05 2.69,-2.69 3.75,-2.08z"/>
    </g>
   </g>
   <g>
    <g>
     <path fill="#FFDC46" fill-rule="nonzero" d="M40.42 23.06c-1.06,-0.61 -0.68,-3.24 -0.08,-4.29 0.61,-1.06 1.96,-1.42 3.02,-0.81 1.06,0.61 1.42,1.96 0.81,3.02 -0.61,1.05 -2.7,2.69 -3.75,2.08z"/>
    </g>
   </g>
   <g>
    <g>
     <path fill="#FFC84A" fill-rule="nonzero" d="M40.42 23.06c-1.06,0.61 -0.68,3.23 -0.08,4.29 0.61,1.05 1.96,1.42 3.02,0.81 1.06,-0.61 1.42,-1.96 0.81,-3.02 -0.61,-1.05 -2.7,-2.69 -3.75,-2.08z"/>
    </g>
   </g>
   <g>
    <g>
     <path fill="#FFC84A" fill-rule="nonzero" d="M40.42 23.06c1.05,-0.61 0.68,-3.24 0.07,-4.29 -0.61,-1.06 -1.96,-1.42 -3.02,-0.81 -1.05,0.61 -1.41,1.96 -0.8,3.02 0.61,1.05 2.69,2.69 3.75,2.08z"/>
    </g>
   </g>
   <g>
    <g>
     <circle fill="white" fill-rule="nonzero" cx="40.42" cy="23.06" r="1.47"/>
    </g>
   </g>
  </g>
 </g>
</svg>
