<?xml version="1.0" encoding="UTF-8"?>
<!DOCTYPE svg PUBLIC "-//W3C//DTD SVG 1.0//EN" "http://www.w3.org/TR/2001/REC-SVG-20010904/DTD/svg10.dtd">
<!-- Creator: CorelDRAW 2020 (64 Bit) -->
<svg xmlns="http://www.w3.org/2000/svg" xml:space="preserve" width="339px" height="360px" version="1.0" shape-rendering="geometricPrecision" text-rendering="geometricPrecision" image-rendering="optimizeQuality" fill-rule="evenodd" clip-rule="evenodd"
viewBox="0 0 60 63.85"
 xmlns:xlink="http://www.w3.org/1999/xlink"
 xmlns:xodm="http://www.corel.com/coreldraw/odm/2003">
 <g id="Camada_x0020_1">
  <metadata id="CorelCorpID_0Corel-Layer"/>
  <g id="_1774312137312">
   <path fill="#A63F44" fill-rule="nonzero" d="M15.52 34.87l-0.9 0c-0.5,0 -0.9,-0.41 -0.9,-0.91l0 -2.71c0,-0.5 0.4,-0.91 0.9,-0.91l0.9 0c0.5,0 0.91,0.41 0.91,0.91l0 2.71c0,0.5 -0.41,0.91 -0.91,0.91z"/>
  </g>
  <g id="_1774312136784">
   <path fill="#A63F44" fill-rule="nonzero" d="M44.46 30.34l0.91 0c0.5,0 0.9,0.41 0.9,0.91l0 2.71c0,0.5 -0.4,0.91 -0.9,0.91l-0.91 0c-0.5,0 -0.9,-0.41 -0.9,-0.91l0 -2.71c0,-0.5 0.4,-0.91 0.9,-0.91z"/>
  </g>
  <g id="_1774312137840">
   <path fill="#A63F44" fill-rule="nonzero" d="M44.46 30.34l-1.81 0 0 -9.94c0,-3.99 -3.24,-7.24 -7.23,-7.24l-10.85 0c-3.99,0 -7.24,3.25 -7.24,7.24l0 9.94 -1.81 0 0 -9.94c0,-4.99 4.06,-9.05 9.05,-9.05l10.85 0c4.99,0 9.04,4.06 9.04,9.05l0 9.94z"/>
  </g>
  <g id="_1774312137888">
   <path fill="#F23F44" fill-rule="nonzero" d="M15.98 36.67l0 0c-0.75,0 -1.36,-0.6 -1.36,-1.35l0 -5.43c0,-0.75 0.61,-1.36 1.36,-1.36l0 0c0.75,0 1.35,0.61 1.35,1.36l0 5.43c0,0.75 -0.6,1.35 -1.35,1.35z"/>
  </g>
  <g id="_1774312138944">
   <path fill="#F23F44" fill-rule="nonzero" d="M44.01 28.53l0 0c0.75,0 1.36,0.61 1.36,1.36l0 5.43c0,0.75 -0.61,1.35 -1.36,1.35l0 0c-0.75,0 -1.36,-0.6 -1.36,-1.35l0 -5.43c0,-0.75 0.61,-1.36 1.36,-1.36z"/>
  </g>
  <rect fill="none" width="60" height="63.85"/>
 </g>
</svg>
