<?xml version="1.0" encoding="utf-8"?>
<!-- Generator: Adobe Illustrator 25.4.1, SVG Export Plug-In . SVG Version: 6.00 Build 0)  -->
<svg version="1.1" id="Camada_1" xmlns="http://www.w3.org/2000/svg" xmlns:xlink="http://www.w3.org/1999/xlink" x="0px" y="0px"
	 viewBox="0 0 500 130.34" style="enable-background:new 0 0 500 130.34;" xml:space="preserve" fill="#444">
<path d="M293.83,102.52c1.44-2.63,3.33-5.11,4.24-7.91c6.13-18.87,11.96-37.84,18.08-56.71c2.52-7.78,5.52-15.41,8.59-23.9
	c3.42,3.09,6.17,5.02,8.12,7.57c0.96,1.25,0.85,3.72,0.49,5.49c-4.39,21.54-6.69,43.17-3.41,65.1c1.12,7.47,3.15,14.52,9.29,19.77
	c-0.25,0.47-0.5,0.93-0.75,1.4c-2.5-0.7-5.28-0.92-7.45-2.18c-7.69-4.49-11.94-11.63-12.85-20.23c-1.14-10.83-1.44-21.75-2.04-32.63
	c-0.14-2.46-0.02-4.93-0.76-7.65c-1.01,3.16-2,6.33-3.04,9.48c-4.42,13.34-8.77,26.7-13.35,39.99c-1.01,2.94-2.54,5.8-4.33,8.35
	c-3.8,5.42-9.13,5.23-11.26-1.02c-2.59-7.58-4.5-15.62-5.1-23.59c-1-13.35-0.74-26.8-1-40.2c-0.03-1.61,0-3.22-0.89-4.96
	c-1.75,6.98-3.02,14.13-5.34,20.92c-4.93,14.36-9.95,28.72-15.88,42.68c-2.45,5.77-6.84,10.99-11.22,15.64
	c-6.63,7.04-14.99,10.71-24.79,7.34c-10-3.44-14.91-11.18-16.1-21.35c-1.46-12.48,3.52-22.75,10.91-32.11
	c0.47,0.18,0.94,0.37,1.41,0.55c-0.72,1.42-1.41,2.86-2.16,4.26c-5.16,9.67-6.65,19.72-2.8,30.17c5.18,14.06,18.64,17.72,29.01,6.95
	c6.43-6.67,11.68-14.87,15.89-23.18c10.77-21.23,16.92-44.12,22.08-67.25c0.65-2.94,1.4-5.34,5.12-5.57
	c4.98-0.31,7.11,1.39,7.05,6.45c-0.19,14.57-0.67,29.14-0.64,43.71c0.02,9.26,0.66,18.52,1.23,27.76c0.13,2.18,1.1,4.31,1.68,6.46
	C292.51,102.24,293.17,102.38,293.83,102.52z"/>
<path d="M39.75,110.4c-0.58,1.39-1.24,3-2.08,5.03c-5.34-2.49-7.17-6.72-7-11.73c0.37-10.91,1.11-21.81,1.69-32.72
	c0.12-2.3,0.24-4.6,0.37-7.18c-3.27-0.76-6.35-1.3-9.33-2.19C6.6,56.63,2.07,40.07,15,28.25c5.41-4.94,12.71-8.57,19.78-10.8
	c13.91-4.38,28.19-3.79,42.24,0.44c32.77,9.86,40.3,38.06,29.08,64.04c-9.2,21.31-32.26,34.27-55.46,31.56
	C47.1,113.09,43.7,111.55,39.75,110.4z M46.76,92.73c-2.72,8.42-2.2,9.43,4.27,9.73c22.84,1.03,42.28-13.35,47.53-35.15
	c4.19-17.42-1.99-31.22-17.95-39.34c-13.15-6.7-27.26-8.77-41.68-6.17c-6.18,1.11-12.42,3.74-17.76,7.07
	c-6.24,3.88-7.65,11.71-4.17,17.04c3.77,5.78,9.58,8.14,16.46,9.24c1.02-6.68,2.09-12.85,2.85-19.06c0.48-3.87,2.52-4.94,6.47-4.4
	c-0.42,8.31-0.82,16.44-1.29,25.71c7.15-1.36,13.12-2.49,19.4-3.69c-4.98,6.72-12.31,8.4-19.86,10.2c0,10.62,0,21.09,0,31.94
	C42.93,94.82,44.47,93.98,46.76,92.73z"/>
<path d="M380.28,62.51c-15.06-2.14-15.95-2.81-14.11-9.94c5.02,0.55,10.03,1.11,15.38,1.7c1.2-6.86,2.28-12.98,3.34-19.03
	c8.25-0.07,9.55,1.41,8.02,8.58c-0.65,3.02-1.2,6.07-1.93,9.8c9.15-1.1,17.73-2.14,26.31-3.17c0.24,0.6,0.48,1.19,0.72,1.79
	c-1.87,1.22-3.59,3-5.64,3.54c-6.09,1.61-12.27,2.94-18.49,3.97c-3.29,0.55-4.99,1.82-5.27,5.24c-0.84,10.21-2.04,20.4-2.66,30.63
	c-0.13,2.22,1.55,4.54,2.4,6.82c1.93-1.52,3.9-2.99,5.77-4.58c0.57-0.48,0.86-1.28,1.52-2.31c0.45,5.68-2.37,10.98-6.23,12.05
	c-5.73,1.59-7.45-2.85-9.67-7.03c-2.75,4.41-6.1,9.15-11.17,7.02c-3.81-1.59-6.33-6.25-9.4-9.52c-0.75,1.22-1.62,3.76-3.39,5.25
	c-2.34,1.98-5.64,4.67-8.05,4.27c-2.79-0.48-6.68-3.63-7.25-6.24c-1.35-6.14-2.11-12.84-1.03-18.96c1.05-5.95,3.79-12.09,7.37-17.01
	c5.45-7.49,13.35-6.15,17.51,2.09c0.22,0.44,0.33,1.17,0.66,1.29c6.59,2.47,3.82,7.71,3.67,12.16c-0.16,4.8-0.56,9.59-0.5,14.39
	c0.04,2.79-0.54,6.45,3.7,6.98c2.82,0.36,7.1-4.42,7.16-7.77c0.1-5.96-0.11-11.93,0.1-17.88C379.28,71.9,379.88,67.19,380.28,62.51z
	 M343.73,94.08c0.39,0.12,0.78,0.23,1.17,0.35c0,0.82-0.24,1.74,0.05,2.46c0.75,1.87,1.73,3.66,2.62,5.48
	c1.94-1.02,4.11-1.78,5.76-3.15c1.19-0.98,2.03-2.69,2.44-4.23c1.63-6.03,3.02-12.12,4.53-18.19c0.74-2.99,0.69-5.69-2.74-6.95
	c-3.66-1.34-6.03,0.96-7.09,3.75C347.91,80.31,345.94,87.24,343.73,94.08z"/>
<path d="M449.73,72.77c-7.13,9.04-8.72,14.84-11.02,38.72c-3.49-2.13-8.17-2.16-7.71-7.99c2.17-27.55,4.26-55.11,6.4-82.67
	c0.09-1.14,0.36-2.26,0.55-3.43c5.71,2.38,7.34,5.27,6.76,11.01c-1.62,15.97-3.15,31.94-4.68,47.92c-0.16,1.63-0.02,3.29,0.79,5.36
	c1.71-2.98,3.37-5.99,5.15-8.92c1.37-2.26,2.96-4.4,4.36-6.64c1.92-3.08,4.79-2.36,6.9-0.99c1.33,0.86,2.26,3.37,2.21,5.11
	c-0.24,8.25-1.15,16.49-1.23,24.74c-0.02,2.46,1.86,4.93,2.87,7.4c2.09-1.61,4.24-3.15,6.25-4.87c0.84-0.72,1.35-1.81,2.09-2.82
	c2.05,4.13-0.38,9.39-5.53,12.42c-4.33,2.55-8.81,1.78-11.12-2.6c-1.57-2.99-2.69-6.5-2.9-9.85
	C449.43,87.79,449.73,80.86,449.73,72.77z"/>
<path d="M184.13,96.08c-0.47,5.93-4.8,11.45-9.12,11.28c-8.8-0.34-8.07-8.11-10.18-14.3c-2.08,3.91-3.45,7.74-5.9,10.67
	c-2.03,2.42-5.29,5.2-8.09,5.29c-4.19,0.13-5.54-4.33-6.13-7.94c-1.91-11.61-0.49-23.09,2.19-34.42c0.8-3.38,2.01-3.65,9.6-3.19
	c-2.75,12.82-6.05,25.59-3.85,39.96c1.93-1.26,3.55-1.73,4.07-2.76c3.09-6.13,6.39-12.23,8.69-18.66c1.82-5.07,2.02-10.7,3.56-15.9
	c0.49-1.64,3.05-3.86,4.54-3.77c3.04,0.19,2.4,2.79,2.17,5.32c-0.83,9.02-1.38,18.09-1.56,27.14c-0.04,2.16,1.75,4.36,2.71,6.54
	c1.9-1.33,3.8-2.66,5.69-4C182.92,97.06,183.28,96.74,184.13,96.08z"/>
<path d="M134.84,84.97c3.86-0.69,5.02,1.62,5.63,4.27c1.86,8.11-2.82,16.37-10.36,18.49c-7.66,2.16-15.08-2.05-17.59-10.54
	c-3.15-10.7-1.65-21,4.45-30.38c4.07-6.25,10.64-8.58,15.2-5.94c4.38,2.54,5.51,9.72,1.39,16.06c-2.99,4.6-7.29,8.4-11.31,12.25
	c-2.57,2.47-2.59,8.08,0.5,11.71c2.66,3.12,6.34,3.05,9.39-0.34C136.2,96.06,135.78,90.62,134.84,84.97z M118.89,84.52
	c0.5,0.21,0.99,0.42,1.49,0.63c4.31-3.58,6.99-8.31,8.49-13.69c0.4-1.43-0.42-3.19-0.68-4.8c-1.45,0.9-3.69,1.48-4.21,2.75
	C121.98,74.33,120.54,79.46,118.89,84.52z"/>
<path d="M421.64,84.58c1.59,1.19,3.12,1.87,3.97,3.04c3.3,4.55,2.42,13.31-1.56,17.62c-3.79,4.1-10.61,5.09-16.08,2.08
	c-7.39-4.07-9.92-10.96-9.76-18.81c0.17-8.06,2.34-15.7,7.31-22.27c1.28-1.69,2.84-3.28,4.57-4.49c3.46-2.43,7.24-3.52,11.05-0.68
	c2.95,2.2,4.83,10.08,3.35,13.3c-1.4,3.06-3.98,3.92-8.3,2.77c0.77-2.72,1.54-5.45,2.31-8.18c-0.43-0.33-0.85-0.66-1.28-0.99
	c-1.56,1.16-3.47,2.05-4.61,3.52c-5.29,6.84-7.46,14.67-6.52,23.27c0.16,1.44,0.72,2.91,1.42,4.19c1.7,3.11,4.44,5.92,7.91,4.38
	c2.58-1.14,5.12-4.17,5.98-6.88C422.43,93.21,421.64,89.39,421.64,84.58z"/>
<path d="M481.42,14.66c9.23,4.23,11.78,8.69,10.88,16.86c-1.85,16.74-3.52,33.5-5.43,50.24c-0.14,1.25-1.59,2.35-2.43,3.51
	c-1.01-1.02-2.88-2.03-2.89-3.05C481.38,59.95,481.42,37.67,481.42,14.66z"/>
<path d="M483.58,106.09c-3.91,0.13-6.77-2.48-6.85-6.23c-0.09-4.11,3.03-7.8,6.69-7.9c3.49-0.1,6.33,2.87,6.47,6.76
	C490.04,102.93,487.44,105.97,483.58,106.09z"/>
</svg>