<svg xmlns="http://www.w3.org/2000/svg" xmlns:xlink="http://www.w3.org/1999/xlink" xmlns:xodm="http://www.corel.com/coreldraw/odm/2003" xml:space="preserve" width="361.05mm" height="235.331mm" style="shape-rendering:geometricPrecision; text-rendering:geometricPrecision; image-rendering:optimizeQuality; fill-rule:evenodd; clip-rule:evenodd" viewBox="0 0 5930.37 3865.4">
 <defs>
  <style type="text/css">
   <![CDATA[
    .fil0 {fill:black}
    .fil14 {fill:#0548A3}
    .fil25 {fill:#0F2432}
    .fil13 {fill:#152539}
    .fil11 {fill:#1B2748}
    .fil22 {fill:#2097DF}
    .fil16 {fill:#243264}
    .fil21 {fill:#253973}
    .fil20 {fill:#264383}
    .fil19 {fill:#28478B}
    .fil17 {fill:#294A94}
    .fil5 {fill:#2D51FF}
    .fil18 {fill:#3593D1}
    .fil4 {fill:#5580FF}
    .fil2 {fill:#7B8CBD}
    .fil3 {fill:#94B7C8}
    .fil12 {fill:#94C7CD}
    .fil6 {fill:#9C9FA4}
    .fil26 {fill:#AACDD5}
    .fil28 {fill:#C8DEEC}
    .fil15 {fill:#CAD3D7}
    .fil23 {fill:#CCD4DB}
    .fil24 {fill:#D6DBE8}
    .fil7 {fill:#D9D8D6}
    .fil8 {fill:#DCE1E5}
    .fil9 {fill:#E4ECF4}
    .fil10 {fill:#F1F7FB}
    .fil27 {fill:url(#id2)}
    .fil1 {fill:white}
   ]]>
  </style>
    <mask id="id0">
  <linearGradient id="id1" gradientUnits="userSpaceOnUse" x1="3676.59" y1="4140.35" x2="184.16" y2="552.08">
   <stop offset="0" style="stop-opacity:0; stop-color:white"></stop>
   <stop offset="0.878431" style="stop-opacity:0.247059; stop-color:white"></stop>
   <stop offset="1" style="stop-opacity:0.490196; stop-color:white"></stop>
  </linearGradient>
     <rect style="fill:url(#id1)" x="375.6" y="550.98" width="5556.42" height="3316.06"></rect>
    </mask>
  <linearGradient id="id2" gradientUnits="userSpaceOnUse" x1="981.45" y1="1529.69" x2="813.7" y2="1529.69">
   <stop offset="0" style="stop-opacity:1; stop-color:#86F18E"></stop>
   <stop offset="1" style="stop-opacity:1; stop-color:#339966"></stop>
  </linearGradient>
  <linearGradient id="id3" gradientUnits="userSpaceOnUse" x1="3.88" y1="1616.11" x2="5534.05" y2="1616.11">
   <stop offset="0" style="stop-opacity:1; stop-color:white"></stop>
   <stop offset="1" style="stop-opacity:1; stop-color:#E4EBFF"></stop>
  </linearGradient>
 </defs>
 <g id="Camada_x0020_1">
  <metadata id="CorelCorpID_0Corel-Layer"></metadata>
  <g id="_2781713984864">
   <path class="fil0" style="mask:url(#id0)" d="M482.61 2281.31l2665.46 1584.09 2782.3 -1685.74 -2766.52 -1587.19c-86.35,-43.27 -208.44,-60.34 -300.24,-4.48l-2465.85 1479.67c-63.03,126.67 34.66,185.38 84.85,213.66z"></path>
   <path class="fil1" style="fill:#f0f3ff !important;" d="M3.88 1597.81l2747.87 1634.41 2782.3 -1685.74 -2626.11 -1506.63c-86.35,-43.27 -208.44,-60.34 -300.24,-4.48l-2603.81 1562.45z"></path>
   <path class="fil2" d="M254.49 1897.19c154.13,57.88 579.75,333.59 749,433.59 254.63,150.45 -40.84,-20.24 217.98,133.27 289.36,171.62 1286.42,822.62 1544.6,821.97 93.85,-1.04 580.75,-310.64 705.67,-383.65 229.98,-134.39 459.27,-269.92 689.71,-403.46 230.18,-133.38 460.69,-268.03 689.55,-403.55 119.96,-71.03 621.85,-338.12 677.1,-419.22l5.94 -129.68c-345.37,201.11 -691.68,411.44 -1037.38,614.57 -20.09,24.48 -188.07,117.01 -226.16,130.68 -54.22,50.58 -344.84,203.31 -430.64,254.53l-872.54 511.32c-233.97,135.42 -271.27,126.92 -501.34,-5.55l-1231.57 -723.16c-17.4,-12.16 -48.84,-28.46 -71.89,-39.55 -55.52,-46.37 -214.99,-126.43 -286.55,-168.45 -97.31,-57.14 -194.88,-115.44 -293.25,-170.85 -146.82,-82.7 -466.68,-251.36 -578.86,-352.22 -6.01,111.41 -17.73,141.77 79.44,198.4 56.57,32.96 116.19,69 171.17,100.98z"></path>
  </g>
  <g id="_2781713984336">
   <path class="fil3" d="M2809.78 682.21c-20.99,5.95 -32.75,12.34 -46.68,28.41 -9.89,-7.04 -20.86,-11.32 -35.23,-20.02l25.81 -9.51 53.79 -27.74c37.6,-14.61 76.7,0.79 95.36,33.8 14.39,25.45 3.18,30.89 1.13,34.42 -20.61,-9.52 -5.36,2.92 -21.91,-20.58 -31.74,-45.06 -68.14,-28.61 -72.27,-18.77z"></path>
   <path class="fil4" d="M3105.87 574.79l-2.06 24.75 -6.09 104.21 0 0.01 0 0.03 -0.26 4.49 -0.66 -0.08 -3.79 18.26 -1.44 15.94 0.04 0 1.16 32.23 0.1 47.21c-15.59,-7.71 -11.88,-4.21 -20.01,-19.5 -6.33,-3.39 -3.52,-1.61 -10.07,-9.71 -6.95,-8.6 -6.53,-10.76 -14.39,-18.41 -30.21,-29.44 -26.94,-2.3 -41.11,-22.83l-50.14 17.98c-10.61,10.45 16.56,10.37 -21.06,7.06l-31.77 16.49c-16.59,-7.04 -33.42,-18.83 -49.42,-27.64 -32.34,-17.82 -30.89,-15.87 -24.48,-61.59l28.44 -2.53c-0.5,-73.79 8.38,-137.34 11.15,-209.02 5.76,-37.32 6.74,-103.72 37.59,-128.08 28.94,-5.41 122.87,52.66 147.3,70.32 20.4,11.79 33.23,21.22 51.82,29.84l1.86 24.51 -2.73 86.06z"></path>
   <path class="fil5" d="M3074.45 823.25c-0.01,0.27 -0.02,0.51 -0.04,0.73 0.02,-0.22 0.03,-0.47 0.04,-0.73zm-0.08 1.05c-0.02,0.2 -0.06,0.38 -0.09,0.54 0.03,-0.16 0.07,-0.34 0.09,-0.54zm-0.56 1.55c-0.07,0.07 -0.14,0.13 -0.22,0.18 0.08,-0.05 0.15,-0.11 0.22,-0.18zm-0.22 0.18c-0.08,0.05 -0.17,0.09 -0.26,0.12 0.09,-0.03 0.18,-0.08 0.26,-0.12zm-2.34 0.46c-0.19,0.04 -0.4,0.09 -0.61,0.15 0.21,-0.06 0.42,-0.11 0.61,-0.15zm-1.02 0.29c-0.16,0.06 -0.32,0.12 -0.48,0.2 0.16,-0.08 0.32,-0.14 0.48,-0.2zm-3.8 2.81c-10.72,-4.69 -16.35,-10.67 -20.5,-16.85 4.15,6.17 9.78,12.16 20.5,16.85zm-20.5 -16.85c-0.57,-0.84 -1.11,-1.69 -1.63,-2.53 0.52,0.85 1.06,1.69 1.63,2.53zm-1.63 -2.53c-0.35,-0.56 -0.69,-1.13 -1.02,-1.7 0.33,0.56 0.68,1.13 1.02,1.7zm-1.02 -1.7c-0.83,-1.41 -1.63,-2.81 -2.44,-4.2 0.81,1.39 1.61,2.79 2.44,4.2zm-2.44 -4.2c-0.48,-0.83 -0.97,-1.66 -1.47,-2.48 0.5,0.82 0.99,1.65 1.47,2.48zm-1.47 -2.48c-0.33,-0.55 -0.67,-1.09 -1.02,-1.62 0.35,0.54 0.69,1.08 1.02,1.62zm-1.55 -2.43c-0.89,-1.33 -1.84,-2.63 -2.89,-3.88 1.05,1.25 2,2.55 2.89,3.88zm-77.04 -6.25c-1.35,0.62 -2.58,1.19 -3.71,1.74 1.13,-0.54 2.36,-1.12 3.71,-1.74zm-3.71 1.74c-1.41,0.68 -2.66,1.31 -3.76,1.91 1.1,-0.6 2.35,-1.23 3.76,-1.91zm-4.4 2.27c-0.42,0.23 -0.82,0.46 -1.19,0.69 0.38,-0.23 0.77,-0.46 1.19,-0.69zm-1.19 0.69c-1.5,0.91 -2.67,1.77 -3.6,2.65 0.92,-0.88 2.09,-1.74 3.6,-2.65zm-3.6 2.65c-4.28,4.08 -3.29,8.69 -5.66,21.33l-37.87 -28.93 31.77 -16.48c37.61,3.32 10.44,3.4 21.06,-7.05l50.14 -17.98c14.16,20.53 10.88,-6.6 41.11,22.83 7.85,7.65 7.43,9.82 14.38,18.42 6.55,8.1 3.74,6.33 10.07,9.71 8.12,15.28 4.41,11.79 20.01,19.5 22.51,1.66 4.21,-3.88 21.16,19.22l-21.55 39.99c-54.59,2.56 -45.37,-2.21 -85.07,-26.26 -17.55,-10.64 -41.35,-30.9 -65.2,-32.95 2.37,-12.64 1.39,-17.24 5.66,-21.33z"></path>
   <path class="fil3" d="M2984 784.48c-20.99,5.95 -32.75,12.34 -46.68,28.41 -9.89,-7.04 -20.86,-11.31 -35.23,-20.02l25.81 -9.51 53.79 -27.74c37.6,-14.61 76.7,0.79 95.36,33.8 14.39,25.45 3.18,30.89 1.13,34.42 -20.61,-9.52 -5.36,2.92 -21.91,-20.58 -31.74,-45.06 -68.14,-28.61 -72.27,-18.77z"></path>
  </g>
  <g id="_2781713995376">
   <path class="fil3" d="M3278.27 953.39c-20.99,5.95 -32.75,12.34 -46.68,28.41 -9.89,-7.04 -20.86,-11.32 -35.23,-20.02l25.81 -9.51 53.79 -27.74c37.6,-14.61 76.7,0.79 95.36,33.8 14.39,25.45 3.18,30.89 1.13,34.42 -20.61,-9.52 -5.36,2.92 -21.91,-20.58 -31.74,-45.06 -68.14,-28.61 -72.27,-18.77z"></path>
   <path class="fil4" d="M3574.36 845.97l-2.06 24.75 -6.09 104.21 0 0.01 0 0.03 -0.26 4.49 -0.66 -0.08 -3.79 18.26 -1.44 15.94 0.04 0 1.16 32.23 0.1 47.21c-15.59,-7.71 -11.88,-4.21 -20.01,-19.5 -6.33,-3.39 -3.52,-1.61 -10.07,-9.71 -6.95,-8.6 -6.53,-10.76 -14.39,-18.41 -30.21,-29.44 -26.94,-2.3 -41.11,-22.83l-50.14 17.98c-10.61,10.45 16.56,10.37 -21.06,7.06l-31.77 16.49c-16.59,-7.04 -33.42,-18.83 -49.42,-27.64 -32.34,-17.82 -30.89,-15.87 -24.48,-61.59l28.44 -2.53c-0.5,-73.79 8.38,-137.34 11.15,-209.02 5.76,-37.32 6.74,-103.72 37.59,-128.08 28.94,-5.41 122.87,52.66 147.3,70.32 20.4,11.79 33.23,21.22 51.82,29.84l1.86 24.51 -2.73 86.06z"></path>
   <path class="fil5" d="M3542.94 1094.44c-0.01,0.27 -0.02,0.51 -0.04,0.73 0.02,-0.22 0.03,-0.47 0.04,-0.73zm-0.08 1.05c-0.02,0.2 -0.06,0.38 -0.09,0.54 0.03,-0.16 0.07,-0.34 0.09,-0.54zm-0.56 1.55c-0.07,0.07 -0.14,0.13 -0.22,0.18 0.08,-0.05 0.15,-0.11 0.22,-0.18zm-0.22 0.18c-0.08,0.05 -0.17,0.09 -0.26,0.12 0.09,-0.03 0.18,-0.08 0.26,-0.12zm-2.34 0.46c-0.19,0.04 -0.4,0.09 -0.61,0.15 0.21,-0.06 0.42,-0.11 0.61,-0.15zm-1.02 0.29c-0.16,0.06 -0.32,0.12 -0.48,0.2 0.16,-0.08 0.32,-0.14 0.48,-0.2zm-3.8 2.81c-10.72,-4.69 -16.35,-10.67 -20.5,-16.85 4.15,6.17 9.78,12.16 20.5,16.85zm-20.5 -16.85c-0.57,-0.84 -1.11,-1.69 -1.63,-2.53 0.52,0.85 1.06,1.69 1.63,2.53zm-1.63 -2.53c-0.35,-0.56 -0.69,-1.13 -1.02,-1.7 0.33,0.56 0.68,1.13 1.02,1.7zm-1.02 -1.7c-0.83,-1.41 -1.63,-2.81 -2.44,-4.2 0.81,1.39 1.61,2.79 2.44,4.2zm-2.44 -4.2c-0.48,-0.83 -0.97,-1.66 -1.47,-2.48 0.5,0.82 0.99,1.65 1.47,2.48zm-1.47 -2.48c-0.33,-0.55 -0.67,-1.09 -1.02,-1.62 0.35,0.54 0.69,1.08 1.02,1.62zm-1.55 -2.43c-0.89,-1.33 -1.84,-2.63 -2.89,-3.88 1.05,1.25 2,2.55 2.89,3.88zm-77.04 -6.25c-1.35,0.62 -2.58,1.19 -3.71,1.74 1.13,-0.54 2.36,-1.12 3.71,-1.74zm-3.71 1.74c-1.41,0.68 -2.66,1.31 -3.76,1.91 1.1,-0.6 2.35,-1.23 3.76,-1.91zm-4.4 2.27c-0.42,0.23 -0.82,0.46 -1.19,0.69 0.38,-0.23 0.77,-0.46 1.19,-0.69zm-1.19 0.69c-1.5,0.91 -2.67,1.77 -3.6,2.65 0.92,-0.88 2.09,-1.74 3.6,-2.65zm-3.6 2.65c-4.28,4.08 -3.29,8.69 -5.66,21.33l-37.87 -28.93 31.77 -16.48c37.61,3.32 10.44,3.4 21.06,-7.05l50.14 -17.98c14.16,20.53 10.88,-6.6 41.11,22.83 7.85,7.65 7.43,9.82 14.38,18.42 6.55,8.1 3.74,6.33 10.07,9.71 8.12,15.28 4.41,11.79 20.01,19.5 22.51,1.66 4.21,-3.88 21.16,19.22l-21.55 39.99c-54.59,2.56 -45.37,-2.21 -85.07,-26.26 -17.55,-10.64 -41.35,-30.9 -65.2,-32.95 2.37,-12.64 1.39,-17.24 5.66,-21.33z"></path>
   <path class="fil3" d="M3452.48 1055.66c-20.99,5.95 -32.75,12.34 -46.68,28.41 -9.89,-7.04 -20.86,-11.31 -35.23,-20.02l25.81 -9.51 53.79 -27.74c37.6,-14.61 76.7,0.79 95.36,33.8 14.39,25.45 3.18,30.89 1.13,34.42 -20.61,-9.52 -5.36,2.92 -21.91,-20.58 -31.74,-45.06 -68.14,-28.61 -72.27,-18.77z"></path>
  </g>
  <g id="_2781713997632">
   <path class="fil6" d="M2388.86 536.55l1351.36 739.23c70.87,41 68.21,154.41 -29.31,211.88l-477.24 296.46c-109.97,68.31 -208.1,72.97 -299.96,17.85l-1276 -765.54c-90.18,-56.77 -86.49,-181.7 -5.86,-228.08 177.92,-104.59 364.65,-156.46 542.57,-261.05 47.22,-29.2 131.94,-43.08 194.45,-10.77z"></path>
   <path class="fil7" d="M2388.86 478.49l1336.9 788.01c70.87,41 82.67,105.63 -14.86,163.11l-477.24 296.46c-109.97,68.31 -208.1,72.97 -299.96,17.85l-1276 -765.54c-90.18,-56.77 -77.68,-128.99 2.95,-175.36 177.92,-104.59 355.84,-209.17 533.76,-313.76 47.22,-29.2 131.94,-43.08 194.45,-10.77z"></path>
  </g>
  <g id="_2781713996864">
   <path class="fil8" d="M3393.65 2122.08c-20.97,26.65 4.81,-11.48 -14.19,11.91 -1.01,-1.36 -2.7,-5.06 -3.29,-3.88l-66.37 -32.02c-106.43,-42.27 -77.39,-67.73 -23.57,-110.81 5.38,-4.31 12.76,-8.8 15.59,-11.03 15.89,-12.55 6.38,-2.3 18.95,-22.29l72.46 -14.16 6.12 37c32.46,13.15 52.35,-29.18 99.03,25.45 -14.56,12.99 -54.54,35.36 -73.31,45.7 -33.64,18.52 -56.73,32.63 -31.4,74.13z"></path>
   <path class="fil9" d="M3399.96 1919.99l-6.75 19.81 -72.46 14.16c-12.56,19.99 -3.06,9.74 -18.95,22.29 -2.84,2.23 -10.21,6.72 -15.59,11.03 -53.82,43.09 -82.86,68.54 23.57,110.81l66.37 32.02c0.59,-1.18 2.28,2.52 3.29,3.88 19,-23.39 -6.77,14.74 14.19,-11.91l-1.12 -2.09c2.03,1.66 4.2,1.89 5.97,5.09 4.07,7.38 21.77,6.89 30.88,6.48 -39.6,3.3 -4.1,-1.82 -19.73,11.81 -52.5,10.21 -219.36,-24.98 -250.88,-70.46 -2.51,-3.63 -5.44,-9.37 -9.95,-16.13 -5.76,-8.62 -5.29,-6.33 -11.11,-15.4 49.76,-96.79 3.33,-27.78 145.36,-96.65 20.5,-9.94 15.35,-7.82 40.65,-11.13l54.13 -10.11c1.81,-0.41 17.65,-2.5 22.11,-3.5z"></path>
   <path class="fil5" d="M3538.02 1878.37l7.03 11.78c0.93,1.52 2.76,6.3 3.46,5.32 0.66,-0.94 2.35,3.25 3.38,4.97 -13.07,13.91 -25.12,25.97 -48.03,33.46l-6.01 -6.87 14.21 -0.97c-26.99,-38.82 -102.88,-71.26 -156.67,-101.63 -22.15,-12.51 -30.15,-20.65 -48.7,-33.83 12.81,-33.46 57.15,-53.89 86.22,-65.66 32.93,-0.23 68.38,34.85 85.67,60.11 22.13,32.33 29.06,85.89 44.36,105.58 26.8,1.63 6.12,3.9 15.1,-12.25z"></path>
   <path class="fil10" d="M3574.57 1605.95l-9 79.34c-32.96,-4.98 -37.69,-19.52 -73.52,-14.19 -29.02,4.32 -37.4,21.12 -60.57,25.25 -23.08,11.85 -51.33,-10.84 -62.64,-25.38 54.35,-30.32 106.29,-63.49 168.89,-97.56 32.3,-8.06 38.83,0.59 36.85,32.54z"></path>
   <path class="fil8" d="M3578.25 2047.39l-29.14 39.64c29,16.66 12.67,-10.46 32.77,0 -5.35,22.92 4.91,8.11 -19.11,16.41l-19 4.54c-1.24,-1.8 -4.07,1.16 -5.98,2.08 25.7,0.72 26.29,-1.03 49.06,-5.15 19.27,-3.49 19.15,5.15 38.13,3.78l-10.78 9.69c-33.88,7.12 -130.76,27.23 -166.92,23.42l-22.23 -0.6c-1.62,0.23 -13.22,2.07 -15.39,2.16 15.62,-13.63 -19.88,-8.5 19.73,-11.81 -9.11,0.41 -26.81,0.89 -30.88,-6.48 -1.76,-3.2 -3.94,-3.44 -5.97,-5.09l31.79 -1.54c23.05,-53.1 -9.7,-29.49 48.45,-61.94 29.62,-16.54 41.86,-30.86 76.2,-33.73l26.68 21.88c0.37,-0.94 1.8,1.75 2.6,2.72z"></path>
   <path class="fil11" d="M3515.17 1965.19c27.48,-6.79 13.76,-6.89 41.62,0.8l11.75 1.7 -33 14.07c-16.75,9.27 -20.73,27.78 -21.85,26.3 -0.92,-1.22 -2.49,4.81 -3.77,7.19 31.48,-11.41 23.05,-5.6 39.06,7.53 -34.34,2.87 -46.58,17.19 -76.2,33.73 -58.15,32.45 -25.4,8.84 -48.45,61.94l-31.79 1.54 1.12 2.09c-25.32,-41.5 -2.24,-55.61 31.4,-74.13 18.77,-10.34 58.75,-32.7 73.31,-45.7 -46.68,-54.63 -66.57,-12.3 -99.03,-25.45l-6.12 -37 6.75 -19.81c36.21,-10.9 75.56,36.09 115.2,45.2z"></path>
   <path class="fil5" d="M3565.56 1685.29c-14.24,29.01 -17.23,59.04 -23.04,98.02l-4.5 95.06c-16.51,-10.42 -50.91,-122.85 -66.71,-137.33 -11.2,-10.26 -15.06,-10.8 -22.26,-16.65 -22.91,-18.63 -13.15,4.91 -17.58,-28.05 23.18,-4.13 31.55,-20.93 60.57,-25.25 35.82,-5.33 40.56,9.22 73.52,14.19z"></path>
   <path class="fil8" d="M3685.92 1971.89c-10.17,26.42 -7.9,4.73 1.66,21.81l43.11 41.85c-27.8,8.25 -19.2,12.42 -38.8,26.89l-14.46 8.83 -8.03 -12.08 -30.36 -14.02 -65.79 -45.44 47.65 -30.97 19.41 -4.38c13.41,13.21 22.99,21.77 45.61,7.51z"></path>
   <path class="fil12" d="M3368.83 1670.96c11.32,14.54 39.57,37.22 62.64,25.38 4.43,32.97 -5.33,9.42 17.58,28.05 7.2,5.85 11.06,6.39 22.26,16.65 15.8,14.47 22.38,29.82 38.89,40.25 -7.32,13.26 8.77,7.26 -8.53,11.5 18.95,-1.53 9.52,2.6 16.48,23.34 5.51,16.45 10.47,32.5 17.36,44.87l2.51 17.37c-8.97,16.14 11.71,13.87 -15.1,12.25 -15.31,-19.69 -22.24,-73.25 -44.36,-105.58 -17.28,-25.26 -52.74,-60.34 -85.67,-60.11 -9.08,-21.35 4.55,-9.37 -24.12,-25.66 -18.19,-10.34 -12.66,-9.64 -33.56,-8.02 -5.65,-15.34 -0.01,-7.66 -11.08,-18.78 -10.27,-10.32 -5.8,-8.06 -20.76,-10.6l20.92 -11.49c8.93,7.03 25.51,16.14 44.54,20.57z"></path>
   <path class="fil13" d="M3620.9 1968.77l-47.65 30.97 65.79 45.44 5.4 20.67 -16.61 -1.3c-24.75,-1.86 -2.9,1.58 -22.84,-7.32 -16.09,-7.18 -8.4,-5.19 -26.74,-9.84 -0.79,-0.97 -2.23,-3.66 -2.6,-2.72l-26.68 -21.88c-16,-13.13 -7.58,-18.94 -39.06,-7.53 1.29,-2.38 2.86,-8.41 3.77,-7.19 1.12,1.49 5.1,-17.03 21.85,-26.3l33 -14.07 50.76 -30.96c6.76,4.98 27.02,-1.39 1.6,32.03z"></path>
   <path class="fil14" d="M3497.84 1927.02c-19.48,-2.41 -31.97,-12.8 -51.28,-24.28 -21.02,-12.49 -34.41,-19.61 -54.01,-31.16 -32.49,-19.16 -89.76,-34.87 -85.87,-80.99 18.55,13.18 26.55,21.32 48.7,33.83 53.79,30.37 129.68,62.81 156.67,101.63l-14.21 0.97z"></path>
   <path class="fil15" d="M3627.83 2064.55l13.59 51.67 -16.45 -7.52c-18.98,1.37 -18.86,-7.27 -38.13,-3.78 -22.77,4.12 -23.36,5.87 -49.06,5.15 1.9,-0.92 4.74,-3.87 5.98,-2.08l19 -4.54c24.02,-8.3 13.76,6.5 19.11,-16.41 -20.09,-10.46 -3.77,16.66 -32.77,0l29.14 -39.64c18.35,4.65 10.65,2.67 26.74,9.84 19.94,8.9 -1.91,5.46 22.84,7.32z"></path>
   <path class="fil13" d="M3685.92 1971.89c-22.62,14.26 -32.21,5.7 -45.61,-7.51l-19.41 4.38c25.42,-33.42 5.16,-27.05 -1.6,-32.03 3.43,-2.78 5.74,-4.96 11.82,-8.78 17.27,-10.85 27.78,-15.84 48.93,-15.43 9.23,19.4 8.78,36.67 5.87,59.36z"></path>
   <path class="fil5" d="M3780.2 1792.27l-3.14 36.25 -22.89 14.35c-8.96,4.71 -13.24,6.01 -24.36,9.88l10.61 -14.77c-18.86,-7.25 -18.49,-5.32 -32.07,-24.85 19.22,-24.31 21.78,-22.51 57.64,-34.17l14.2 13.32zm-93.6 84.49c-27.32,25.58 -119.57,66.21 -129.82,89.24 -27.86,-7.69 -14.13,-7.59 -41.62,-0.8 -0.8,-14.87 2.01,-6.18 -3.02,-18.5 -1.49,-3.65 -6.44,-10.39 -8.3,-12.8 22.92,-7.49 34.96,-19.55 48.04,-33.46 13.05,-16.91 11.98,-20.82 28.82,-35.13 -8.49,-16.79 -4.36,-7.74 -7.62,-22.89 -4.39,-28.52 -3.09,-17.94 2.44,-48.17 40.67,16.74 18.83,26.99 55.47,41.53l2.78 -134.47 47.83 -0.03c-4.47,30.01 -2.66,61.57 -2.64,92.28 0.02,26.2 -5.62,66.49 7.63,83.19zm91.35 -216.67l-11.19 56.47c-1.64,23.38 -3.28,38.84 -0.77,62.39 -35.86,11.66 -38.42,9.86 -57.64,34.17 13.58,19.52 13.21,17.6 32.07,24.85l-10.61 14.77 -43.22 24.02c-13.26,-16.7 -7.62,-57 -7.63,-83.19 -0.02,-30.71 -1.82,-62.27 2.64,-92.28 -13.23,-15.36 33.45,-12.03 -47.85,-12.03l48 -1.27c-1.5,-0.82 -4.24,-4.32 -4.72,-2.78 -0.56,1.81 -4.35,-2.81 -6.86,-4.51 -3.13,-2.12 -13,-1.13 -0.93,-0.89l0.34 -82.14c-3.73,-29.94 3.61,-11.15 -9.66,-25.9 1.06,-0.5 3.15,-1.03 3.52,0.04 0.38,1.07 3,-0.01 3.51,-0.22 17.94,-7.31 13.81,12.33 16.17,-27.84l-36.31 12.63c14.7,-25.12 118.21,-81.6 140.76,-84.51 -12,-20.72 -11,-0.71 -2.16,-13.83 12.33,-18.31 9.68,20.11 9.03,-12.45 12.25,11.51 3.89,-1.64 8.96,16.3l-3.62 41.05c-8.93,38.85 -28.39,125.69 -21.85,157.14zm-96.34 41.19l-47.83 0.03 -2.78 134.47c-36.63,-14.54 -14.8,-24.79 -55.47,-41.53l1.08 -6.95c14.39,-60.68 22.01,-212.3 70.23,-230.92l36.31 -12.63c-2.36,40.17 1.77,20.53 -16.17,27.84 -0.51,0.21 -3.13,1.29 -3.51,0.22 -0.37,-1.08 -2.46,-0.54 -3.52,-0.04 13.26,14.74 5.93,-4.04 9.66,25.9l-0.34 82.14c-12.07,-0.24 -2.21,-1.23 0.93,0.89 2.5,1.7 6.3,6.31 6.86,4.51 0.48,-1.55 3.22,1.95 4.72,2.78l-48 1.27c81.29,0 34.62,-3.33 47.85,12.03z"></path>
   <path class="fil14" d="M3576.61 1787.29l-1.08 6.95c-5.53,30.23 -6.84,19.66 -2.44,48.17l-41.12 -21.81 3.55 40.4 7.01 -77.7 34.08 3.98zm217.86 -341.7c0.66,32.56 3.3,-5.86 -9.03,12.45 -8.84,13.12 -9.84,-6.89 2.16,13.83 -22.55,2.91 -126.06,59.39 -140.76,84.51 -48.22,18.61 -55.84,170.23 -70.23,230.92l-34.08 -3.98c5.81,-38.98 8.8,-69.01 23.04,-98.02l9 -79.34c13.74,-21.07 4.06,-10.47 11.09,-31.32 3.68,-10.93 7.6,-14.98 13.89,-27.86 11.65,-27.44 40.92,-38.28 70.56,-55.63l84.48 -49.05c8.36,-4.81 38.83,-17.73 39.88,3.5z"></path>
   <path class="fil12" d="M3599.55 1546.77c-6.29,12.88 -10.21,16.93 -13.89,27.86 -7.03,20.85 2.66,10.25 -11.08,31.32 1.98,-31.95 -4.55,-40.61 -36.85,-32.54 -3.79,-17.47 -4.17,-9.55 -8.8,-20.24 -4.61,-10.66 -3.91,-2.2 -6.56,-19.81l12.06 -10.3 25.53 20.19c9.26,2.37 11.48,9.06 21.69,-10.51 23.86,0 20.3,-6.96 17.9,14.03z"></path>
   <path class="fil14" d="M3573.09 1842.42c3.25,15.14 -0.88,6.09 7.61,22.88 -16.84,14.3 -15.76,18.22 -28.82,35.13 -1.03,-1.72 -2.72,-5.91 -3.38,-4.97 -0.7,0.99 -2.53,-3.8 -3.46,-5.32l-7.03 -11.78 -2.51 -17.37 -3.55 -40.4c30.35,7.7 17.83,9.15 41.13,21.81z"></path>
   <path class="fil13" d="M3669.41 2059.19c-25.26,17.26 -5.01,13.33 -12.98,45.31l-7.2 17.58 -7.81 -5.87 -13.59 -51.67 16.61 1.3 -5.4 -20.67 30.36 14.02z"></path>
   <path class="fil13" d="M3677.44 2071.27c5.99,30.31 8.53,28.21 -3.91,51.36l-24.3 -0.55 7.2 -17.58c7.97,-31.97 -12.28,-28.04 12.98,-45.31l8.03 12.08z"></path>
  </g>
  <path class="fil16" d="M3098.36 1290.96c-21.68,9.33 -8.76,3.53 -25.85,14.29 -5.7,3.59 -11.83,8.03 -20.17,12.49l21.46 101.47 10.91 44.51 59.82 -24.71 43.37 -29.36 43.77 -16.14c12.93,-2.13 21.16,-4.51 35.28,-11.18 33.91,-16.01 11.01,3.2 24.27,-20.99l41.1 19.68c6.6,22.54 -3.14,8.73 21.52,27.43 17.12,12.98 17.15,6.79 28.41,26.45 -14.1,13.49 -33.54,29.51 -52.7,34.3 -36.35,4.73 -8.05,-6.69 -34.26,17.84 12.58,-34.43 -2.89,-1.73 9.31,-14.36 10.57,-10.94 -5.32,3.83 7.6,-6.66l8.41 -5.04c-8.16,-63.04 9.53,-44.79 -15.1,-57.51 -31.62,-16.32 -43.77,-4.04 -58.38,4.07 -28.06,15.56 -20.17,4.75 -36.13,25.19l-79.08 34.76c-25.5,13.93 -12.79,0.67 -20.02,19.57l97.98 44.72 21.23 -11.62c-1.28,31.58 -4.67,31.17 8.5,54.3 0.56,0.98 2.18,2.66 2.9,4.19 -18.32,2.13 -135.56,-63.52 -155.16,-79.71 -20.7,-17.1 -49.44,-163.11 -44.54,-192.62l106.08 -63.04 1.44 14.65c-2.42,1.04 -43.73,25.79 -52.01,33.04z"></path>
  <path class="fil17" d="M3291.23 1361.33c-13.26,24.19 9.64,4.98 -24.27,20.99 -14.13,6.68 -22.35,9.05 -35.28,11.18 5.99,-9.51 1.32,-8.63 16.3,-17.8 9.3,-5.69 19.83,-7.62 30.35,-10.6 3.01,-31.47 -5.72,-61.6 -15.98,-93.32l-19.85 -64.82c-14.31,5.91 -19.46,10.25 -33.29,19.07 -9.85,6.28 -20.85,13.29 -30.08,15.37l-28.77 16.53 -1.44 -14.65 100.1 -52.35c22.78,33.32 35.04,123.52 42.21,170.41z"></path>
  <path class="fil18" d="M3144.53 1439.01l-59.83 24.72 -10.9 -44.51 -21.46 -101.47c8.33,-4.47 14.46,-8.9 20.16,-12.49 17.09,-10.76 4.17,-4.96 25.85,-14.29 8.28,-7.25 49.59,-31.99 52.01,-33.03l28.77 -16.53c9.23,-2.07 20.23,-9.07 30.08,-15.37 13.82,-8.82 18.97,-13.15 33.28,-19.07l19.85 64.83c10.26,31.72 18.99,61.85 15.98,93.33 -10.52,2.98 -21.05,4.9 -30.35,10.59 -14.98,9.18 -10.32,8.3 -16.29,17.8l-43.78 16.15 -43.37 29.36z"></path>
  <path class="fil11" d="M3231.13 1519.08l0 1.08 -21.23 11.62 -97.98 -44.72c7.22,-18.89 -5.49,-5.64 20.02,-19.57l79.08 -34.76c15.96,-20.45 8.08,-9.63 36.13,-25.19 14.61,-8.11 26.76,-20.4 58.37,-4.07 24.65,12.72 6.95,-5.52 15.11,57.52l-8.41 5.03c-12.92,10.48 2.96,-4.28 -7.6,6.65 -12.2,12.63 3.26,-20.07 -9.31,14.36 -22.33,1.88 -34.5,23.23 -64.17,32.05z"></path>
  <path class="fil19" d="M3329.56 1469.19c19.16,-4.78 38.6,-20.8 52.7,-34.3 -11.26,-19.66 -11.28,-13.47 -28.4,-26.45 -24.66,-18.7 -14.92,-4.89 -21.53,-27.43 27.63,9.59 44.66,20.3 67.84,32.92 20.22,11.01 47.81,21.18 58.22,42.6l-91.98 52.87 -123.87 69.24c-0.73,-1.53 -2.35,-3.2 -2.91,-4.19 -13.18,-23.12 -9.78,-22.72 -8.5,-54.29l0 -1.08c29.67,-8.83 41.84,-30.17 64.17,-32.05 26.21,-24.52 -2.09,-13.11 34.26,-17.84z"></path>
  <path class="fil20" d="M2215.5 859.07l-26.76 -8.49c-24.25,-12.51 -33.23,-25.57 -64.68,-35.46l-20.09 100.88 -9.81 22.69c-1.3,7.05 -2.35,12.12 -1.61,18.6 2.47,21.31 -3.05,7.77 6.67,10.44 6.6,8.26 2.08,3.65 11.04,11.03 1.51,1.24 6.38,4.63 8.03,5.79 5.35,3.72 15.73,9.82 20.31,12.6 15.25,9.24 24.33,13.35 43.07,20.02 5.04,4.87 6.04,5.21 11.09,9.92 1.71,1.59 4.46,13.4 7.68,7.57 0.67,-1.21 2.65,2.61 3.91,3.97 8.04,3.48 15.38,7 21.61,10.22l60.57 26.53 13.13 -45.45 6.54 -54.86 10.64 -41.48c-0.11,-1.06 -1.49,-2.25 -1.62,-4.62 -0.14,-2.4 -1.25,-3.04 -2,-4.51l-33.91 -21.38c-15.28,-13 -47.38,-24.02 -63.81,-44.01zm-206.8 246.84l-5.04 10.07c-29.7,-9.93 -72.78,-32.65 -89.38,-53.43 13.68,-24.26 133.37,-79.54 166.16,-95.26l36.08 -167.83c24.72,5.01 35.84,14.18 55.67,25.74l36.86 23.72c0.9,0.77 3.07,5 3.71,3.81 0.66,-1.21 2.55,2.57 3.68,3.97 20.38,2.92 98.17,49.86 114.24,62.97 -0.03,17.94 -28.91,162.43 -36.54,176.9 -8.02,15.22 -112.29,71.44 -129.87,74.29l-88.81 -57.7c-4.95,5.1 -5.97,11.92 -24.54,7.51 -23.78,-5.65 -17.71,-14.1 -42.21,-14.75z"></path>
  <path class="fil21" d="M2164.26 1170.85c-6.34,8.23 -2.06,10.11 -19.33,17.28 -19.85,8.25 -36.3,-7.17 -63.74,-23.75l-77.52 -48.41 5.04 -10.07c24.5,0.66 18.43,9.1 42.22,14.75 29.12,6.92 15.09,-13.81 40.72,-12.15 26.8,1.74 57.92,42.2 72.63,62.34z"></path>
  <path class="fil22" d="M2099.22 967.73c-9.72,-2.67 -4.2,10.87 -6.67,-10.44 -0.74,-6.48 0.31,-11.55 1.61,-18.6l9.81 -22.69 20.09 -100.88c31.45,9.88 40.42,22.95 64.68,35.47l26.76 8.48c16.43,19.99 48.53,31 63.81,44.01l33.91 21.38c0.74,1.47 1.86,2.11 2,4.51 0.13,2.37 1.51,3.56 1.62,4.62l-10.64 41.48 -6.54 54.86 -13.13 45.45 -60.57 -26.53c-6.23,-3.22 -13.57,-6.73 -21.61,-10.22 -1.25,-1.37 -3.25,-5.18 -3.91,-3.97 -3.21,5.83 -5.97,-5.97 -7.67,-7.57 -5.05,-4.71 -6.05,-5.05 -11.1,-9.92 -18.73,-6.66 -27.81,-10.78 -43.06,-20.02 -4.57,-2.77 -14.96,-8.88 -20.31,-12.6 -1.65,-1.16 -6.52,-4.55 -8.04,-5.79 -8.95,-7.38 -4.43,-2.77 -11.03,-11.03z"></path>
  <g id="_2781714006464">
   <path class="fil5" d="M2600.18 1719.56c-9.14,6.17 -5.24,3.51 -13,10.16 -50.41,43.19 -125.46,70.89 -185.06,109.97l-0.87 22.4c-5.45,8.8 -7.11,11.62 -11.6,22.78l-14.7 -2.55c-27.86,0.09 -14.54,8.87 -14.84,-21.59 -0.24,-24.58 -7.26,-36.81 10.41,-61 -1.48,22.15 -8.31,8.53 5.51,22.61 15.81,-3.48 3.77,11.87 15.32,-14.38 7.71,-17.52 1.1,-37.96 31.09,-85.46 16.71,-26.48 51.42,-67.72 96.89,-66.83 27.91,27.47 62.88,24.04 80.86,63.88z"></path>
   <path class="fil5" d="M2314.62 1487.29c8.46,19.78 3.52,9.61 8.11,26.91 6.27,23.65 -1.96,9.51 10.57,23.31l7.32 79.41c0.68,1.83 1.67,4.08 2.2,5.42 0.52,1.32 1.49,3.75 2.12,5.37 13.9,35.86 9.26,32.3 15.51,70.9 4.98,30.8 7.93,54.7 9.87,84.28l0.19 16.84c-17.66,24.19 -10.65,36.42 -10.41,61 0.3,30.46 -13.02,21.68 14.84,21.59l-14.88 11.58c-14.45,9.36 -0.16,2.7 -15.06,8.02l-6.28 -6.23c22.16,4.66 4.62,2.6 11.73,-4.31 -0.94,-1.27 -6.69,-11.83 -7.07,-12.67 -5.99,-20.56 6.75,-37.73 -8.39,-127.61 -7.57,-44.97 -15.04,-84.49 -23.59,-128.77 -36.84,-190.88 -35.42,-111.18 -120.72,-183.06 -1.29,-1.19 -3.15,-2.59 -4.1,-3.3 -72.68,-54.93 -78.73,-58.21 -77.91,-5.36 -12.89,-21.93 -14.38,-36.12 -3.62,-59.99l38.81 -1.31c30.38,16.48 65.48,38.41 93.47,54.55 32.3,18.62 60.51,28.8 77.27,63.41z"></path>
   <path class="fil23" d="M2220.97 2078.56c-6.96,-11.85 -0.16,4.03 -3.03,-14.42 -3,-19.32 0.94,-12.96 -27.53,-51.88 -6.59,-9.01 -0.44,1.77 -7.55,-11.47l-4.41 -9.77 32.88 -43.58c2.88,-31.4 17.48,-21.44 11.45,-44.04l41.83 -4.62c9.24,31.71 15.31,61.94 38.4,69.17l-51.79 13.92c-15.83,9.78 -32.72,25.52 -30.2,46.65 2.45,20.64 3.77,14.46 16.73,17.78 33.82,13.51 28.67,-7.27 32.07,-38.78l17.34 -6.56 62.84 -43.16c37.22,-7.53 52.47,13.97 84.94,31.4 172.82,92.75 -24.12,93.13 -213.96,89.37z"></path>
   <path class="fil11" d="M2515.39 1898.08l-21.31 16.37c-24.24,-7.44 -24.07,-17.6 -45.54,-9.23 -10.44,4.07 -34.9,20.19 -44,26.77 59.02,57.69 126.02,31.57 114.93,115.87l-32.17 9.2c-28.19,-46.83 5.15,-37 -52.38,-67.87 -32.47,-17.43 -47.72,-38.93 -84.94,-31.4 14.93,-18.91 8.54,-14.8 26.02,-21.98l-30.99 -33.88c14.9,-5.31 0.61,1.34 15.06,-8.02l14.88 -11.58 14.7 2.55c-1.09,27.51 -1.86,6.96 5.95,12.88 23.22,-15.39 76.07,-48.32 103.8,-50.37l16 50.7z"></path>
   <path class="fil24" d="M2519.47 2047.86c11.09,-84.3 -55.9,-58.18 -114.93,-115.87 9.1,-6.59 33.56,-22.71 44,-26.77 21.47,-8.37 21.3,1.79 45.54,9.23l21.31 -16.37 17.12 17.25c0.56,0.43 2.19,1.52 2.8,1.99 0.66,0.51 2.3,1.66 3,2.22 80.64,64.07 8.67,92.2 -2.55,104.06l-16.3 24.27z"></path>
   <path class="fil5" d="M2473.03 1629.31c-5.14,28.24 -19.41,17.22 -59.02,65.09 -29.95,36.19 -26.26,53.42 -43.7,88.5 -1.95,-29.58 -4.89,-53.48 -9.87,-84.28 -6.25,-38.6 -1.62,-35.04 -15.51,-70.9 -0.62,-1.62 -1.59,-4.04 -2.12,-5.37 -0.53,-1.34 -1.52,-3.59 -2.2,-5.42 26.36,-4.77 42.22,-19.38 74.04,-14.47 22.27,3.43 39.88,19.23 58.38,26.85z"></path>
   <path class="fil12" d="M2599.5 1609.45c-32.46,-2.03 -28.66,1.77 -52.42,16.08 -3.86,2.33 -19.46,10.82 -20.64,11.89 -12.07,10.91 -10.59,1.81 -7.13,18.26 -45.47,-0.89 -80.17,40.35 -96.89,66.83 -29.98,47.5 -23.38,67.94 -31.09,85.46 -11.55,26.25 0.49,10.9 -15.32,14.38 -13.83,-14.08 -6.99,-0.46 -5.51,-22.61l-0.19 -16.84c17.44,-35.08 13.75,-52.31 43.7,-88.5 39.6,-47.86 53.88,-36.85 59.02,-65.09 25.14,8.85 22.61,2.5 46.95,-11.12 5.25,-2.94 22.03,-11.69 24.87,-14.01 11.11,-9.06 8.95,-4.86 11.53,-17.93l28.33 0.52c9.97,19.71 1.6,7.84 14.79,22.68z"></path>
   <path class="fil25" d="M2338.73 1895.7l6.28 6.23 30.99 33.88c-17.48,7.18 -11.09,3.07 -26.02,21.98l-62.84 43.16 -17.34 6.56 -2.83 26.2 -14.85 -9.15 -14.39 21.74c-12.95,-3.32 -14.28,2.86 -16.73,-17.78 -2.52,-21.13 14.37,-36.86 30.2,-46.65l24.26 -16.45c28.41,-6.41 35.82,-17.38 58.26,-31.7l-18.65 -15.82c-5.73,-17.93 -12.79,-23.01 1.82,-30.58l21.84 8.38z"></path>
   <path class="fil14" d="M2401.24 1862.1l0.87 -22.4c59.6,-39.09 134.65,-66.79 185.06,-109.97 7.76,-6.65 3.87,-3.99 13,-10.16 0.11,49.43 -95.65,88.12 -168.1,130.66 -22.5,13.21 -8.91,9.86 -30.84,11.88z"></path>
   <path class="fil23" d="M2315.08 1917.89l18.65 15.82c-22.44,14.31 -29.85,25.29 -58.26,31.7 -23.09,-7.23 -8.87,-32.39 -18.12,-64.1l4.07 -4.96c19.75,-0.5 34.83,11.82 53.65,21.54z"></path>
   <path class="fil13" d="M2258.17 1851.68l3.27 44.67 -4.07 4.96 -34.58 2.09c-2.15,-9.53 -5.25,-25.88 -2.83,-44.59 7.88,-13.13 4.68,-11.06 19.45,-18.04l18.77 10.91z"></path>
   <path class="fil25" d="M2316.9 1887.32c-14.6,7.57 -7.55,12.65 -1.82,30.58 -18.82,-9.73 -33.9,-22.04 -53.65,-21.54l-3.27 -44.67c13.19,5.69 16.37,8.7 30.62,16.19 8.37,4.41 9.38,3.52 16.98,8.63 11.37,7.64 2.77,1.21 11.13,10.82z"></path>
   <path class="fil26" d="M2384.17 1487.78c-28.26,4.49 -30,14.08 -56.21,23.55l5.34 26.2c-12.52,-13.8 -4.3,0.33 -10.57,-23.31 -4.59,-17.31 0.35,-7.13 -8.11,-26.91 22.02,-1.96 26.52,0.21 36.69,-22.18l26.96 2.35c3.04,13.3 0.61,7.8 5.91,20.32z"></path>
   <path class="fil14" d="M2167.73 1777.43c-19.22,-6.58 -33.02,-8.54 -41.18,-36.01l7.32 -22.84c-11.17,-12.91 19.29,-3.14 3.87,-12.1 -4.04,-2.35 -0.92,-17.53 2.05,-33.34 -0.89,-2.78 -2.36,-6.2 -4.72,-12.22 3.32,-6.79 4.8,-15.6 5.04,-25.63l0 -0.01c0.88,-36.58 -14.68,-89.46 -17.3,-120.47l0 0 -13.58 -46.94 -0.54 -37.24c-0.82,-52.86 5.23,-49.58 77.92,5.36 0.95,0.71 2.8,2.11 4.1,3.29 85.3,71.88 83.88,-7.82 120.72,183.07 8.55,44.28 16.01,83.8 23.59,128.77 15.14,89.87 2.41,107.05 8.39,127.61l-33.27 -16.26c-20.92,-11.32 -50,-21.71 -61.72,-40.92l-24.37 -5.04 -56.31 -39.08z"></path>
   <path class="fil25" d="M2266.98 2033.71c-6.72,17.4 3.86,3.37 -8.84,20.74l-20.4 -8.15 14.39 -21.74 14.85 9.15z"></path>
  </g>
  <g id="_2781713953040">
   <path class="fil5" d="M2101.41 1428.21c-9.14,6.17 -5.24,3.51 -13,10.16 -50.41,43.19 -125.46,70.89 -185.06,109.97l-0.87 22.4c-5.45,8.8 -7.11,11.62 -11.6,22.78l-14.7 -2.55c-27.86,0.09 -14.54,8.87 -14.84,-21.59 -0.24,-24.58 -7.26,-36.81 10.41,-61 -1.48,22.15 -8.31,8.53 5.51,22.61 15.81,-3.48 3.77,11.87 15.32,-14.38 7.71,-17.52 1.1,-37.96 31.09,-85.46 16.71,-26.48 51.42,-67.72 96.89,-66.83 27.91,27.47 62.88,24.04 80.86,63.88z"></path>
   <path class="fil5" d="M1815.84 1195.94c8.46,19.78 3.52,9.61 8.11,26.91 6.27,23.65 -1.96,9.51 10.57,23.31l7.32 79.41c0.68,1.83 1.67,4.08 2.2,5.42 0.52,1.32 1.49,3.75 2.12,5.37 13.9,35.86 9.26,32.3 15.51,70.9 4.98,30.8 7.93,54.7 9.87,84.28l0.19 16.84c-17.66,24.19 -10.65,36.42 -10.41,61 0.3,30.46 -13.02,21.68 14.84,21.59l-14.88 11.58c-14.45,9.36 -0.16,2.7 -15.06,8.02l-6.28 -6.23c22.16,4.66 4.62,2.6 11.73,-4.31 -0.94,-1.27 -6.69,-11.83 -7.07,-12.67 -5.99,-20.56 6.75,-37.73 -8.39,-127.61 -7.57,-44.97 -15.04,-84.49 -23.59,-128.77 -36.84,-190.88 -35.42,-111.18 -120.72,-183.06 -1.29,-1.19 -3.15,-2.59 -4.1,-3.3 -72.68,-54.93 -78.73,-58.21 -77.91,-5.36 -12.89,-21.93 -14.38,-36.12 -3.62,-59.99l38.81 -1.31c30.38,16.48 65.48,38.41 93.47,54.55 32.3,18.62 60.51,28.8 77.27,63.41z"></path>
   <path class="fil23" d="M1722.19 1787.21c-6.96,-11.85 -0.16,4.03 -3.03,-14.42 -3,-19.32 0.94,-12.96 -27.53,-51.88 -6.59,-9.01 -0.44,1.77 -7.55,-11.47l-4.41 -9.77 32.88 -43.58c2.88,-31.4 17.48,-21.44 11.45,-44.04l41.83 -4.62c9.24,31.71 15.31,61.94 38.4,69.17l-51.79 13.92c-15.83,9.78 -32.72,25.52 -30.2,46.65 2.45,20.64 3.77,14.46 16.73,17.78 33.82,13.51 28.67,-7.27 32.07,-38.78l17.34 -6.56 62.84 -43.16c37.22,-7.53 52.47,13.97 84.94,31.4 172.82,92.75 -24.12,93.13 -213.96,89.37z"></path>
   <path class="fil11" d="M2016.62 1606.72l-21.31 16.37c-24.24,-7.44 -24.07,-17.6 -45.54,-9.23 -10.44,4.07 -34.9,20.19 -44,26.77 59.02,57.69 126.02,31.57 114.93,115.87l-32.17 9.2c-28.19,-46.83 5.15,-37 -52.38,-67.87 -32.47,-17.43 -47.72,-38.93 -84.94,-31.4 14.93,-18.91 8.54,-14.8 26.02,-21.98l-30.99 -33.88c14.9,-5.31 0.61,1.34 15.06,-8.02l14.88 -11.58 14.7 2.55c-1.09,27.51 -1.86,6.96 5.95,12.88 23.22,-15.39 76.07,-48.32 103.8,-50.37l16 50.7z"></path>
   <path class="fil24" d="M2020.7 1756.51c11.09,-84.3 -55.9,-58.18 -114.93,-115.87 9.1,-6.59 33.56,-22.71 44,-26.77 21.47,-8.37 21.3,1.79 45.54,9.23l21.31 -16.37 17.12 17.25c0.56,0.43 2.19,1.52 2.8,1.99 0.66,0.51 2.3,1.66 3,2.22 80.64,64.07 8.67,92.2 -2.55,104.06l-16.3 24.27z"></path>
   <path class="fil5" d="M1974.26 1337.96c-5.14,28.24 -19.41,17.22 -59.02,65.09 -29.95,36.19 -26.26,53.42 -43.7,88.5 -1.95,-29.58 -4.89,-53.48 -9.87,-84.28 -6.25,-38.6 -1.62,-35.04 -15.51,-70.9 -0.62,-1.62 -1.59,-4.04 -2.12,-5.37 -0.53,-1.34 -1.52,-3.59 -2.2,-5.42 26.36,-4.77 42.22,-19.38 74.04,-14.47 22.27,3.43 39.88,19.23 58.38,26.85z"></path>
   <path class="fil12" d="M2100.73 1318.1c-32.46,-2.03 -28.66,1.77 -52.42,16.08 -3.86,2.33 -19.46,10.82 -20.64,11.89 -12.07,10.91 -10.59,1.81 -7.13,18.26 -45.47,-0.89 -80.17,40.35 -96.89,66.83 -29.98,47.5 -23.38,67.94 -31.09,85.46 -11.55,26.25 0.49,10.9 -15.32,14.38 -13.83,-14.08 -6.99,-0.46 -5.51,-22.61l-0.19 -16.84c17.44,-35.08 13.75,-52.31 43.7,-88.5 39.6,-47.86 53.88,-36.85 59.02,-65.09 25.14,8.85 22.61,2.5 46.95,-11.12 5.25,-2.94 22.03,-11.69 24.87,-14.01 11.11,-9.06 8.95,-4.86 11.53,-17.93l28.33 0.52c9.97,19.71 1.6,7.84 14.79,22.68z"></path>
   <path class="fil25" d="M1839.96 1604.34l6.28 6.23 30.99 33.88c-17.48,7.18 -11.09,3.07 -26.02,21.98l-62.84 43.16 -17.34 6.56 -2.83 26.2 -14.85 -9.15 -14.39 21.74c-12.95,-3.32 -14.28,2.86 -16.73,-17.78 -2.52,-21.13 14.37,-36.86 30.2,-46.65l24.26 -16.45c28.41,-6.41 35.82,-17.38 58.26,-31.7l-18.65 -15.82c-5.73,-17.93 -12.79,-23.01 1.82,-30.58l21.84 8.38z"></path>
   <path class="fil14" d="M1902.47 1570.75l0.87 -22.4c59.6,-39.09 134.65,-66.79 185.06,-109.97 7.76,-6.65 3.87,-3.99 13,-10.16 0.11,49.43 -95.65,88.12 -168.1,130.66 -22.5,13.21 -8.91,9.86 -30.84,11.88z"></path>
   <path class="fil23" d="M1816.31 1626.54l18.65 15.82c-22.44,14.31 -29.85,25.29 -58.26,31.7 -23.09,-7.23 -8.87,-32.39 -18.12,-64.1l4.07 -4.96c19.75,-0.5 34.83,11.82 53.65,21.54z"></path>
   <path class="fil13" d="M1759.39 1560.32l3.27 44.67 -4.07 4.96 -34.58 2.09c-2.15,-9.53 -5.25,-25.88 -2.83,-44.59 7.88,-13.13 4.68,-11.06 19.45,-18.04l18.77 10.91z"></path>
   <path class="fil25" d="M1818.12 1595.96c-14.6,7.57 -7.55,12.65 -1.82,30.58 -18.82,-9.73 -33.9,-22.04 -53.65,-21.54l-3.27 -44.67c13.19,5.69 16.37,8.7 30.62,16.19 8.37,4.41 9.38,3.52 16.98,8.63 11.37,7.64 2.77,1.21 11.13,10.82z"></path>
   <path class="fil26" d="M1885.4 1196.42c-28.26,4.49 -30,14.08 -56.21,23.55l5.34 26.2c-12.52,-13.8 -4.3,0.33 -10.57,-23.31 -4.59,-17.31 0.35,-7.13 -8.11,-26.91 22.02,-1.96 26.52,0.21 36.69,-22.18l26.96 2.35c3.04,13.3 0.61,7.8 5.91,20.32z"></path>
   <path class="fil14" d="M1668.96 1486.08c-19.22,-6.58 -33.02,-8.54 -41.18,-36.01l7.32 -22.84c-11.17,-12.91 19.29,-3.14 3.87,-12.1 -4.04,-2.35 -0.92,-17.53 2.05,-33.34 -0.89,-2.78 -2.36,-6.2 -4.72,-12.22 3.32,-6.79 4.8,-15.6 5.04,-25.63l0 -0.01c0.88,-36.58 -14.68,-89.46 -17.3,-120.47l0 0 -13.58 -46.94 -0.54 -37.24c-0.82,-52.86 5.23,-49.58 77.92,5.36 0.95,0.71 2.8,2.11 4.1,3.29 85.3,71.88 83.88,-7.82 120.72,183.07 8.55,44.28 16.01,83.8 23.59,128.77 15.14,89.87 2.41,107.05 8.39,127.61l-33.27 -16.26c-20.92,-11.32 -50,-21.71 -61.72,-40.92l-24.37 -5.04 -56.31 -39.08z"></path>
   <path class="fil25" d="M1768.2 1742.35c-6.72,17.4 3.86,3.37 -8.84,20.74l-20.4 -8.15 14.39 -21.74 14.85 9.15z"></path>
  </g>
  <polygon class="fil27" points="980.64,1643.98 813.7,1545.93 814.51,1415.4 981.45,1513.44 "></polygon>
  <path class="fil16" d="M860.55 1443.38l-39.55 -17.44 0.08 120.88c16.09,10.85 49.64,23.76 60.97,39.5 14.24,1.89 25.82,11.33 44.46,22.01 14.42,8.26 27.75,18.69 45.12,23.27l-0.16 -121.4 -110.93 -66.83zm18.51 148.17c-16.25,-5.6 -59.08,-29.66 -69.84,-40.86l0.07 -147.95 15.64 -1.54 8.17 8.81c22.33,11.52 44.24,24.72 66.99,37.88 20.52,11.87 46.18,30.74 65.64,35.08 3.17,5.47 -5.36,3.11 11.17,6.48l12.39 12.94 -0.31 149.41c-19.81,-1.16 -44.92,-19.92 -60.03,-28.88 -11.52,-6.83 -43.43,-23.97 -49.88,-31.36z"></path>
  <path class="fil7" d="M1508.83 1250.88c0.2,10.04 -0.02,-2.22 -0.02,7.88l-1.12 1001.9 0.24 13.05c-1.09,3.96 -0.6,111.45 -0.54,114.18 -2.62,-1.65 -0.63,0.02 -2.56,-2.15l2.44 4.23 -3.4 97.12c8.44,5.89 1.89,4.27 14.91,11.78 0.88,-5.38 -0.03,-56.85 0.02,-66.28 0.1,-18.83 -0.06,-37.74 -0.01,-56.58l0.09 -100.88c-0.02,-2.19 -0.12,-5.33 -0.05,-7.41l0.58 -4.92 -0.42 -31.54 0.44 -191.06 -0.47 -50.43c0,-18.68 -0.08,-37.37 0.12,-56.04l0.78 -53.44c-1.18,-11.77 0.28,-609.5 0.27,-628.91l-11.3 -0.5z"></path>
  <path class="fil28" d="M1071.19 1010.14l-4.73 1217.74 40.71 23.33c2.42,-8.08 2.13,-75.09 2.27,-89.25 0.28,-28.28 -0.17,-56.68 -0.02,-84.98l0.24 -151.52c-0.04,-3.29 -0.34,-8 -0.14,-11.13l1.58 -7.39 -1.14 -47.38 -2.41 -533.29 -1.29 -75.75c0,-28.05 -1.88,-189.38 -1.32,-217.42l405.97 229.45 0.01 -11.68 -439.72 -240.73z"></path>
  <path class="fil7" d="M1073.27 1011.28l437.64 239.69 9.22 0.41c-83.19,-48.84 -447.52,-248.52 -448.8,-249.25l1.94 9.15z"></path>
  <path class="fil7" d="M1061.47 1001.71c0.21,10.04 -0.02,-2.22 -0.02,7.88l-1.17 1001.9 0.25 13.05c-1.14,3.96 -0.63,111.45 -0.56,114.18 -2.74,-1.65 -0.66,0.02 -2.68,-2.15l2.54 4.23 -4.02 81.45c7.97,5.32 3.74,-2.93 4.09,6.84l11.68 1.29c0.92,-5.38 0.27,-37.54 0.32,-46.97 0.11,-18.83 -0.06,-37.74 -0.01,-56.58l0.09 -100.88c-0.02,-2.19 -0.13,-5.33 -0.05,-7.41l0.6 -4.92 -0.43 -31.54 0.45 -191.06 -0.49 -50.43c0,-18.68 -0.09,-37.37 0.12,-56.04l0.82 -53.44c-1.23,-11.77 0.29,-609.5 0.28,-628.91l-11.81 -0.5z"></path>
 </g>
</svg>