<?xml version="1.0" encoding="UTF-8"?>
<!DOCTYPE svg PUBLIC "-//W3C//DTD SVG 1.0//EN" "http://www.w3.org/TR/2001/REC-SVG-20010904/DTD/svg10.dtd">
<!-- Creator: CorelDRAW 2020 (64 Bit) -->
<svg xmlns="http://www.w3.org/2000/svg" xml:space="preserve" width="819px" height="449px" version="1.0" shape-rendering="geometricPrecision" text-rendering="geometricPrecision" image-rendering="optimizeQuality" fill-rule="evenodd" clip-rule="evenodd"
viewBox="0 0 286.9 157.41"
 xmlns:xlink="http://www.w3.org/1999/xlink"
 xmlns:xodm="http://www.corel.com/coreldraw/odm/2003">
 <g id="Camada_x0020_1">
  <metadata id="CorelCorpID_0Corel-Layer"/>
  <g id="_2223607371168">
   <path fill="white" d="M143.45 0c7.87,0 14.24,6.38 14.24,14.24 0,7.87 -6.37,14.24 -14.24,14.24 -7.87,0 -14.24,-6.37 -14.24,-14.24 0,-7.86 6.37,-14.24 14.24,-14.24zm0 3.43c-5.97,0 -10.82,4.84 -10.82,10.81 0,5.98 4.85,10.82 10.82,10.82 5.97,0 10.82,-4.84 10.82,-10.82 0,-5.97 -4.85,-10.81 -10.82,-10.81z"/>
   <path fill="white" d="M168.51 37.14c-5.97,0 -10.82,4.84 -10.82,10.82 0,5.97 4.85,10.81 10.82,10.81 5.97,0 10.82,-4.84 10.82,-10.81 0,-5.98 -4.85,-10.82 -10.82,-10.82zm0 -3.43c7.87,0 14.24,6.38 14.24,14.25 0,7.86 -6.37,14.24 -14.24,14.24 -7.87,0 -14.24,-6.38 -14.24,-14.24 0,-7.87 6.37,-14.25 14.24,-14.25z"/>
   <circle fill="white" cx="168.54" cy="47.9" r="4"/>
   <rect fill="white" transform="matrix(0.442756 0.348225 0.348225 -0.442755 126.176 31.3316)" width="6.3" height="10.85"/>
   <ellipse fill="white" transform="matrix(-0.760531 -0.59812 0.60329 -0.767102 127.571 32.4292)" rx="1.83" ry="1.82"/>
   <ellipse fill="white" transform="matrix(-0.760531 -0.59812 0.60329 -0.767102 131.349 27.6262)" rx="1.83" ry="1.82"/>
   <circle fill="white" cx="118.39" cy="47.96" r="7.39"/>
   <path fill="white" d="M118.39 33.71c7.87,0 14.24,6.38 14.24,14.25 0,7.86 -6.37,14.24 -14.24,14.24 -7.86,0 -14.24,-6.38 -14.24,-14.24 0,-7.87 6.38,-14.25 14.24,-14.25zm0 3.43c-5.97,0 -10.81,4.84 -10.81,10.82 0,5.97 4.84,10.81 10.81,10.81 5.97,0 10.82,-4.84 10.82,-10.81 0,-5.98 -4.85,-10.82 -10.82,-10.82z"/>
   <rect fill="white" transform="matrix(-0.442753 0.348225 -0.348223 -0.442755 160.725 31.3317)" width="6.3" height="10.85"/>
   <ellipse fill="white" transform="matrix(0.760526 -0.59812 -0.603286 -0.767102 159.33 32.4293)" rx="1.83" ry="1.82"/>
   <ellipse fill="white" transform="matrix(0.760526 -0.59812 -0.603286 -0.767102 155.552 27.6263)" rx="1.83" ry="1.82"/>
   <path fill="white" d="M143.45 0c7.87,0 14.24,6.38 14.24,14.24 0,7.87 -6.37,14.24 -14.24,14.24 -7.87,0 -14.24,-6.37 -14.24,-14.24 0,-7.86 6.37,-14.24 14.24,-14.24zm0 3.43c-5.97,0 -10.82,4.84 -10.82,10.81 0,5.98 4.85,10.82 10.82,10.82 5.97,0 10.82,-4.84 10.82,-10.82 0,-5.97 -4.85,-10.81 -10.82,-10.81z"/>
   <path fill="white" d="M168.51 37.14c-5.97,0 -10.82,4.84 -10.82,10.82 0,5.97 4.85,10.81 10.82,10.81 5.97,0 10.82,-4.84 10.82,-10.81 0,-5.98 -4.85,-10.82 -10.82,-10.82zm0 -3.43c7.87,0 14.24,6.38 14.24,14.25 0,7.86 -6.37,14.24 -14.24,14.24 -7.87,0 -14.24,-6.38 -14.24,-14.24 0,-7.87 6.37,-14.25 14.24,-14.25z"/>
   <circle fill="#FDD736" cx="168.54" cy="47.9" r="4"/>
   <rect fill="#FDD736" transform="matrix(0.442756 0.348225 0.348225 -0.442755 126.176 31.3316)" width="6.3" height="10.85"/>
   <ellipse fill="#FDD736" transform="matrix(-0.760531 -0.59812 0.60329 -0.767102 127.571 32.4292)" rx="1.83" ry="1.82"/>
   <ellipse fill="#FDD736" transform="matrix(-0.760531 -0.59812 0.60329 -0.767102 131.349 27.6262)" rx="1.83" ry="1.82"/>
   <circle fill="#FDD736" cx="118.39" cy="47.96" r="7.39"/>
   <path fill="white" d="M118.39 33.71c7.87,0 14.24,6.38 14.24,14.25 0,7.86 -6.37,14.24 -14.24,14.24 -7.86,0 -14.24,-6.38 -14.24,-14.24 0,-7.87 6.38,-14.25 14.24,-14.25zm0 3.43c-5.97,0 -10.81,4.84 -10.81,10.82 0,5.97 4.84,10.81 10.81,10.81 5.97,0 10.82,-4.84 10.82,-10.81 0,-5.98 -4.85,-10.82 -10.82,-10.82z"/>
   <rect fill="#FDD736" transform="matrix(-0.442753 0.348225 -0.348223 -0.442755 160.725 31.3317)" width="6.3" height="10.85"/>
   <ellipse fill="#FDD736" transform="matrix(0.760526 -0.59812 -0.603286 -0.767102 159.33 32.4293)" rx="1.83" ry="1.82"/>
   <ellipse fill="#FDD736" transform="matrix(0.760526 -0.59812 -0.603286 -0.767102 155.552 27.6263)" rx="1.83" ry="1.82"/>
   <path fill="white" fill-rule="nonzero" d="M258.59 142.7c0,-5.56 1.9,-7.27 6.64,-8.3 4.11,-0.88 9.9,-1 14.35,-1.12l0 8.9c0,2.01 -0.04,4.45 -0.19,6.39 -3.28,1.36 -7.19,1.72 -10.54,1.72 -6.99,0 -10.26,-1.46 -10.26,-7.59zm-4.46 -24.03c4.55,-0.61 9.68,-1.16 14.82,-1.16 8.12,0 10.63,2.97 10.63,9.54l0 1.05c-6.04,0.21 -12.04,0.43 -17.14,1.19 -8.02,1.22 -11.26,6.02 -11.26,13.56 0,9.19 4.97,13.22 16.7,13.22 7.47,0 13.75,-1.02 18.72,-3.62 0.19,-2.5 0.3,-4.99 0.3,-7.68l0 -19.89c0,-10.91 -7.54,-13.4 -16.98,-13.4 -6.25,0 -11.6,0.76 -16.42,1.54l0.63 5.65zm-20.21 0.23l0 23.14c0,2 -0.08,4.44 -0.23,6.37 -2.44,1.16 -6.2,1.72 -9.3,1.72 -10.59,0 -12.38,-6.4 -12.38,-16.38 0,-10.58 1.22,-16.33 13.08,-16.33 2.83,0 6.38,0.66 8.83,1.48zm0 -6c-3.44,-0.85 -7.24,-1.42 -10.85,-1.42 -13.11,0 -18.6,5.61 -18.6,22.27 0,16.98 5.89,22.32 19.92,22.32 5.6,0 11.88,-1.03 16.71,-3.63 0.19,-2.53 0.28,-5.01 0.28,-7.69l0 -49.54 -7.46 0 0 17.69zm-68.48 12.8c0,-2.02 0.06,-4.47 0.24,-6.36 2.31,-1.1 6.76,-1.83 9.99,-1.83 9.99,0 11.36,3.33 11.36,10.97l0 27.02 7.46 0 0 -28.07c0,-8.91 -1.51,-15.95 -16.58,-15.95 -8.02,0 -14.7,1.44 -19.64,3.69 -0.19,2.5 -0.28,4.99 -0.28,7.68l0 32.65 7.45 0 0 -29.8zm-48.65 6.92c0,-9.62 1.81,-15.29 11.88,-15.29 8.43,0 11.32,4.16 11.32,11.16 0,0.76 -0.02,1.86 -0.11,2.59 -3.52,0.46 -9.35,0.92 -12.89,1.08l-10.2 0.46zm10.9 23.45c8.3,0 13.6,-0.76 18.43,-1.52l-0.65 -5.75c-4.45,0.58 -9.71,1.17 -15.43,1.17 -8.99,0 -12.45,-3.34 -13.09,-12.02l9.08 -0.39c6.06,-0.26 16.36,-1.23 21.3,-2.09 0.11,-1.19 0.12,-2.55 0.12,-3.69 0,-12.34 -3.66,-20.28 -18.78,-20.28 -14.33,0 -19.12,6.53 -19.12,22.25 0,12.88 3.77,22.32 18.14,22.32zm-36.32 -11.84c0,6.04 1.53,9.94 4.39,13.18l6.41 -3.17c-2.29,-2.97 -3.35,-6.05 -3.35,-10.41l0 -48.62 -7.45 0 0 49.02zm-39.88 -1.53c0,-5.56 1.9,-7.27 6.64,-8.3 4.11,-0.88 9.9,-1 14.35,-1.12l0 8.9c0,2.01 -0.04,4.45 -0.19,6.39 -3.28,1.36 -7.19,1.72 -10.54,1.72 -6.99,0 -10.26,-1.46 -10.26,-7.59zm-4.46 -24.03c4.55,-0.61 9.68,-1.16 14.82,-1.16 8.12,0 10.63,2.97 10.63,9.54l0 1.05c-6.04,0.21 -12.04,0.43 -17.14,1.19 -8.02,1.22 -11.26,6.02 -11.26,13.56 0,9.19 4.97,13.22 16.7,13.22 7.47,0 13.75,-1.02 18.72,-3.62 0.19,-2.5 0.3,-4.99 0.3,-7.68l0 -19.89c0,-10.91 -7.54,-13.4 -16.98,-13.4 -6.25,0 -11.6,0.76 -16.42,1.54l0.63 5.65z"/>
   <path fill="white" fill-rule="nonzero" d="M35.93 148.5c-3.39,0.53 -6.93,0.9 -10.55,0.9 -16.27,0 -17.24,-8.53 -17.24,-22.33 0,-13.75 0.82,-22.34 17.24,-22.34 3.57,0 7.23,0.38 10.53,0.9l0.73 -6.17c-3.64,-0.8 -8.33,-1.4 -13.57,-1.4 -18.5,0 -23.07,8.81 -23.07,29.01 0,20.16 4.54,29 23.07,29 5.27,0 9.93,-0.61 13.57,-1.42l-0.71 -6.15z"/>
  </g>
 </g>
</svg>
