<?xml version="1.0" encoding="UTF-8"?>
<!DOCTYPE svg PUBLIC "-//W3C//DTD SVG 1.1//EN" "http://www.w3.org/Graphics/SVG/1.1/DTD/svg11.dtd">
<!-- Creator: CorelDRAW 2020 (64 Bit) -->
<svg xmlns="http://www.w3.org/2000/svg" xml:space="preserve" width="28.6738mm" height="30.5132mm" version="1.1" style="shape-rendering:geometricPrecision; text-rendering:geometricPrecision; image-rendering:optimizeQuality; fill-rule:evenodd; clip-rule:evenodd"
viewBox="0 0 16.86 17.95"
 xmlns:xlink="http://www.w3.org/1999/xlink"
 xmlns:xodm="http://www.corel.com/coreldraw/odm/2003">
 <defs>
  <style type="text/css">
   <![CDATA[
    .fil0c00 {fill:none}
    .fil3c00 {fill:#BD445A;fill-rule:nonzero}
    .fil2c00 {fill:#F05467;fill-rule:nonzero}
    .fil1c00 {fill:#FF6473;fill-rule:nonzero}
   ]]>
  </style>
 </defs>
 <g id="c00">
  <rect class="fil0c00" x="0" y="-0" width="16.86" height="17.95"/>
  <rect class="fil0c00" x="6.65" y="8.53" width="3.56" height="2.55"/>
  <path class="fil1c00" d="M13.05 16.32l-0.2 -1.52c-0.06,-0.42 -0.32,-0.78 -0.69,-0.97l-0.55 -0.27c-0.09,-0.05 -0.2,0.01 -0.23,0.11 -0.35,1.3 -1.54,2.25 -2.95,2.25 -1.41,0 -2.59,-0.95 -2.95,-2.25 -0.03,-0.1 -0.13,-0.15 -0.23,-0.11l-0.5 0.25c-0.43,0.21 -0.69,0.58 -0.74,0.99l-0.21 1.55c0.67,0.23 1.82,0.58 1.82,0.58l0 1.02 5.6 0 0 -1.02 1.82 -0.61z"/>
  <path class="fil2c00" d="M5.63 16.85c-0.02,-0.3 -0.12,-0.6 -0.3,-0.84l-1.19 -1.59c-0.06,0.12 -0.1,0.25 -0.12,0.38l-0.2 1.51 1.81 0.54z"/>
  <path class="fil3c00" d="M3.62 16.35c-0.03,0.09 0.03,0.18 0.11,0.21l1.9 0.55 0 -0.19c0,-0.12 -0.02,-0.24 -0.05,-0.35l-1.71 -0.5c-0.09,-0.03 -0.18,0.03 -0.21,0.11l-0.05 0.17z"/>
  <path class="fil2c00" d="M11.24 16.85c0.02,-0.3 0.12,-0.6 0.3,-0.84l1.19 -1.59c0.06,0.12 0.1,0.25 0.12,0.38l0.2 1.51 -1.81 0.54z"/>
  <path class="fil3c00" d="M13.25 16.35c0.03,0.09 -0.03,0.18 -0.11,0.21l-1.9 0.55 0 -0.19c0,-0.12 0.02,-0.24 0.05,-0.35l1.71 -0.5c0.09,-0.03 0.18,0.03 0.21,0.11l0.05 0.17z"/>
 </g>
</svg>
