<?xml version="1.0" encoding="UTF-8"?>
<!DOCTYPE svg PUBLIC "-//W3C//DTD SVG 1.1//EN" "http://www.w3.org/Graphics/SVG/1.1/DTD/svg11.dtd">
<!-- Creator: CorelDRAW 2020 (64 Bit) -->
<svg xmlns="http://www.w3.org/2000/svg" xml:space="preserve" width="339px" height="360px" version="1.1" style="shape-rendering:geometricPrecision; text-rendering:geometricPrecision; image-rendering:optimizeQuality; fill-rule:evenodd; clip-rule:evenodd"
viewBox="0 0 72.52 77.18"
 xmlns:xlink="http://www.w3.org/1999/xlink"
 xmlns:xodm="http://www.corel.com/coreldraw/odm/2003">
 <defs>
  <style type="text/css">
   <![CDATA[
    .fil0 {fill:none}
    .fil2 {fill:#CCCCCC;fill-rule:nonzero}
    .fil1 {fill:#E6E6E6;fill-rule:nonzero}
   ]]>
  </style>
 </defs>
 <g >
  <metadata id="CorelCorpID_0Corel-Layer"/>
  <rect class="fil0" x="28.6" y="36.67" width="15.32" height="10.98"/>
  <path class="fil1" d="M56.31 62.4c-0.21,-1.68 -1.36,-3.08 -2.96,-3.61l-7.08 -2.36c-1.04,2.32 -6.72,4.32 -6.72,4.32l-2.19 2.19c0,0.01 -2.02,0 -2.19,0l-2.19 -2.19c0,0 -5.69,-2 -6.72,-4.32l-7.08 2.36c-1.6,0.53 -2.75,1.93 -2.96,3.61l-1.04 8.33 9.04 0.97 0 5.47 24.08 0 0 -5.47 9.17 0 -1.16 -9.3z"/>
  <g id="_2203901183184">
   <path class="fil1" d="M24.22 72.53l0 -2.48c0,-1.05 -0.38,-2.07 -1.07,-2.87l-6.02 -6.95c-0.49,0.62 -0.81,1.36 -0.91,2.17l-1.15 9.14c1.74,0.11 6.38,0.65 9.15,0.99z"/>
  </g>
  <g id="_2203901181792">
   <path class="fil2" d="M24.22 71.09l-9.02 -1.01c-0.35,-0.04 -0.67,0.22 -0.71,0.57l-0.1 0.9c-0.04,0.35 0.21,0.67 0.57,0.71l9.26 1.03 0 -2.2z"/>
  </g>
  <g id="_2203901182848">
   <path class="fil1" d="M48.3 72.53l0 -2.48c0,-1.05 0.38,-2.07 1.07,-2.87l6.02 -6.95c0.49,0.62 0.81,1.36 0.92,2.17l1.14 9.14c-1.74,0.11 -6.37,0.65 -9.15,0.99z"/>
  </g>
  <g id="_2203901185872">
   <path class="fil2" d="M48.3 71.09l9.02 -1.01c0.36,-0.04 0.68,0.22 0.71,0.57l0.1 0.9c0.04,0.35 -0.21,0.67 -0.57,0.71l-9.26 1.03 0 -2.2z"/>
  </g>
  <g id="_2203901185392">
   <path class="fil2" d="M29.21 55.1l3.77 5.65 -3.29 4.38 -4.37 -8.75 2.37 -1.59c0.5,-0.33 1.18,-0.2 1.52,0.31z"/>
  </g>
  <g id="_2203901185248">
   <path class="fil2" d="M43.32 55.1l-3.77 5.65 3.28 4.38 4.38 -8.75 -2.38 -1.59c-0.5,-0.33 -1.18,-0.2 -1.51,0.31z"/>
  </g>
  <g id="_2203901118576">
   <path class="fil2" d="M36.26 71.7l0 0c-0.6,0 -1.09,-0.49 -1.09,-1.09l0 -7.67 2.19 0 0 7.67c0,0.6 -0.49,1.09 -1.1,1.09z"/>
  </g>
  <rect class="fil0" width="72.52" height="77.18"/>
 </g>
</svg>
