<?xml version="1.0" encoding="UTF-8"?>
<!DOCTYPE svg PUBLIC "-//W3C//DTD SVG 1.0//EN" "http://www.w3.org/TR/2001/REC-SVG-20010904/DTD/svg10.dtd">
<!-- Creator: CorelDRAW 2020 (64 Bit) -->
<svg xmlns="http://www.w3.org/2000/svg" xml:space="preserve" width="339px" height="360px" version="1.0" shape-rendering="geometricPrecision" text-rendering="geometricPrecision" image-rendering="optimizeQuality" fill-rule="evenodd" clip-rule="evenodd"
viewBox="0 0 6.82 7.25"
 xmlns:xlink="http://www.w3.org/1999/xlink"
 xmlns:xodm="http://www.corel.com/coreldraw/odm/2003">
 <g id="Camada_x0020_1">
  <metadata id="CorelCorpID_0Corel-Layer"/>
  <rect fill="none" width="6.82" height="7.25"/>
  <g id="_1775918152128">
   <g>
    <path fill="#C38762" fill-rule="nonzero" d="M4.59 5.49l-0.08 0.12c-0.24,0.38 -0.65,0.61 -1.1,0.61l0 0c-0.45,0 -0.87,-0.23 -1.1,-0.61l-0.08 -0.12c-0.03,-0.05 -0.1,-0.07 -0.14,-0.04l-0.34 0.21c-0.05,0.03 -0.07,0.09 -0.04,0.14l0.46 0.73 2.47 0 0.46 -0.73c0.03,-0.05 0.02,-0.11 -0.03,-0.14l-0.34 -0.21c-0.05,-0.03 -0.11,-0.01 -0.14,0.04z"/>
   </g>
   <g>
    <path fill="#8D5F3D" fill-rule="nonzero" d="M5 5.62l-0.17 -0.11 -0.49 0.78c-0.1,0.15 -0.26,0.24 -0.44,0.24l-0.99 0c-0.17,0 -0.34,-0.09 -0.43,-0.24l-0.49 -0.78 -0.18 0.11 0.48 0.76c0.04,0.06 -0.01,0.15 -0.09,0.15l-0.03 0 0 0.72 2.47 0 0 -0.72 -0.03 0c-0.08,0 -0.13,-0.09 -0.08,-0.15l0.47 -0.76z"/>
   </g>
  </g>
 </g>
</svg>
