<?xml version="1.0" encoding="UTF-8"?>
<!DOCTYPE svg PUBLIC "-//W3C//DTD SVG 1.0//EN" "http://www.w3.org/TR/2001/REC-SVG-20010904/DTD/svg10.dtd">
<!-- Creator: CorelDRAW 2020 (64 Bit) -->
<svg xmlns="http://www.w3.org/2000/svg" xml:space="preserve" width="339px" height="360px" version="1.0" shape-rendering="geometricPrecision" text-rendering="geometricPrecision" image-rendering="optimizeQuality" fill-rule="evenodd" clip-rule="evenodd"
viewBox="0 0 7.1 7.56"
 xmlns:xlink="http://www.w3.org/1999/xlink"
 xmlns:xodm="http://www.corel.com/coreldraw/odm/2003">
 <g id="Camada_x0020_1">
  <metadata id="CorelCorpID_0Corel-Layer"/>
  <rect fill="none" width="7.1" height="7.56"/>
  <path fill="#FF6473" fill-rule="nonzero" d="M5.54 7.19l-0.13 -0.96c-0.02,-0.18 -0.13,-0.33 -0.29,-0.41l-0.51 -0.25c-0.08,-0.04 -0.17,-0.03 -0.23,0.03 -0.21,0.22 -0.5,0.35 -0.83,0.35 -0.32,0 -0.62,-0.13 -0.83,-0.35 -0.06,-0.06 -0.15,-0.07 -0.23,-0.03l-0.51 0.25c-0.16,0.08 -0.27,0.23 -0.29,0.41l-0.13 0.96c-0.02,0.2 0.13,0.37 0.32,0.37l3.34 0c0.19,0 0.34,-0.17 0.32,-0.37z"/>
  <path fill="#F05467" fill-rule="nonzero" d="M1.76 6.04c-0.04,0.05 -0.06,0.12 -0.07,0.19l-0.13 0.96c-0.02,0.2 0.13,0.37 0.32,0.37l0.49 0 0 -0.44c0,-0.14 -0.04,-0.26 -0.11,-0.37l-0.5 -0.71z"/>
  <path fill="#F05467" fill-rule="nonzero" d="M5.34 6.04c0.04,0.05 0.06,0.12 0.07,0.19l0.13 0.96c0.02,0.2 -0.13,0.37 -0.32,0.37l-0.49 0 0 -0.44c0,-0.14 0.04,-0.26 0.12,-0.37l0.49 -0.71z"/>
  <path fill="#F05467" fill-rule="nonzero" d="M3.55 6.16c0.46,0 0.87,-0.22 1.12,-0.56l-0.06 -0.03c-0.08,-0.04 -0.17,-0.03 -0.23,0.03 -0.21,0.22 -0.5,0.35 -0.83,0.35 -0.32,0 -0.62,-0.13 -0.83,-0.35 -0.06,-0.06 -0.15,-0.07 -0.23,-0.03l-0.06 0.03c0.26,0.34 0.66,0.56 1.12,0.56z"/>
 </g>
</svg>
