<?xml version="1.0" encoding="UTF-8"?>
<!DOCTYPE svg PUBLIC "-//W3C//DTD SVG 1.0//EN" "http://www.w3.org/TR/2001/REC-SVG-20010904/DTD/svg10.dtd">
<!-- Creator: CorelDRAW 2020 (64 Bit) -->
<svg xmlns="http://www.w3.org/2000/svg" xml:space="preserve" width="339px" height="360px" version="1.0" shape-rendering="geometricPrecision" text-rendering="geometricPrecision" image-rendering="optimizeQuality" fill-rule="evenodd" clip-rule="evenodd"
viewBox="0 0 7.41 7.89"
 xmlns:xlink="http://www.w3.org/1999/xlink"
 xmlns:xodm="http://www.corel.com/coreldraw/odm/2003">
 <g id="Camada_x0020_1">
  <metadata id="CorelCorpID_0Corel-Layer"/>
  <rect fill="none" width="7.41" height="7.89"/>
  <g id="_1775925218752">
   <path fill="#F23F44" fill-rule="nonzero" d="M4.99 5.97l-0.4 0.64c-0.06,0.1 -0.17,0.16 -0.29,0.16l-1.19 0c-0.12,0 -0.22,-0.06 -0.29,-0.16l-0.4 -0.64c-0.03,-0.06 -0.1,-0.07 -0.15,-0.04l-0.37 0.22c-0.05,0.03 -0.07,0.1 -0.04,0.16l0.5 0.79 2.69 0 0.5 -0.79c0.03,-0.06 0.01,-0.13 -0.04,-0.16l-0.37 -0.22c-0.05,-0.03 -0.12,-0.02 -0.15,0.04z"/>
  </g>
  <g id="_1775925219616">
   <rect fill="#FF4F4F" fill-rule="nonzero" x="2.36" y="7.1" width="2.68" height="0.78"/>
  </g>
 </g>
</svg>
