<?xml version="1.0" encoding="UTF-8"?>
<!DOCTYPE svg PUBLIC "-//W3C//DTD SVG 1.0//EN" "http://www.w3.org/TR/2001/REC-SVG-20010904/DTD/svg10.dtd">
<!-- Creator: CorelDRAW 2020 (64 Bit) -->
<svg xmlns="http://www.w3.org/2000/svg" xml:space="preserve" width="339px" height="360px" version="1.0" shape-rendering="geometricPrecision" text-rendering="geometricPrecision" image-rendering="optimizeQuality" fill-rule="evenodd" clip-rule="evenodd"
viewBox="0 0 7.75 8.25"
 xmlns:xlink="http://www.w3.org/1999/xlink"
 xmlns:xodm="http://www.corel.com/coreldraw/odm/2003">
 <g id="Camada_x0020_1">
  <metadata id="CorelCorpID_0Corel-Layer"/>
  <rect fill="none" width="7.75" height="8.25"/>
  <g id="_1775933780976">
   <path fill="#9BCE7A" fill-rule="nonzero" d="M5.16 8.25l0 -0.59 0.98 0 -0.12 -0.99c-0.02,-0.18 -0.15,-0.33 -0.32,-0.39l-0.57 -0.19c-0.1,-0.03 -0.21,0 -0.27,0.09 -0.2,0.33 -0.57,0.55 -0.98,0.55 -0.42,0 -0.78,-0.22 -0.99,-0.55 -0.06,-0.09 -0.17,-0.12 -0.27,-0.09l-0.57 0.19c-0.17,0.06 -0.29,0.21 -0.32,0.39l-0.11 0.89 0.97 0.1 0 0.59 2.57 0 0 0z"/>
  </g>
  <g id="_1775933779344">
   <path fill="#8ABE69" fill-rule="nonzero" d="M2.59 7.75l0 -0.26c0,-0.12 -0.04,-0.23 -0.12,-0.31l-0.64 -0.74c-0.05,0.06 -0.09,0.14 -0.1,0.23l-0.12 0.98c0.19,0.01 0.68,0.06 0.98,0.1z"/>
  </g>
  <g id="_1775933779872">
   <path fill="#76AB5F" fill-rule="nonzero" d="M2.59 7.6l-0.97 -0.11c-0.03,0 -0.07,0.02 -0.07,0.06l-0.01 0.1c-0.01,0.03 0.02,0.07 0.06,0.07l0.99 0.11 0 -0.23z"/>
  </g>
  <g id="_1775933779680">
   <path fill="#8ABE69" fill-rule="nonzero" d="M5.16 7.75l0 -0.26c0,-0.12 0.04,-0.23 0.12,-0.31l0.64 -0.74c0.05,0.06 0.09,0.14 0.1,0.23l0.12 0.98c-0.19,0.01 -0.68,0.06 -0.98,0.1z"/>
  </g>
  <g id="_1775933780256">
   <path fill="#76AB5F" fill-rule="nonzero" d="M5.16 7.6l0.97 -0.11c0.03,0 0.07,0.02 0.07,0.06l0.01 0.1c0.01,0.03 -0.02,0.07 -0.06,0.07l-0.99 0.11 0 -0.23z"/>
  </g>
  <g id="_1775933778192">
   <path fill="#8ABE69" fill-rule="nonzero" d="M5.13 6.09c-0.1,-0.03 -0.21,0 -0.27,0.09 -0.2,0.33 -0.57,0.55 -0.98,0.55 -0.42,0 -0.78,-0.22 -0.99,-0.55 -0.06,-0.09 -0.17,-0.12 -0.27,-0.09l-0.04 0.01c0.22,0.51 0.71,0.86 1.3,0.86 0.58,0 1.07,-0.35 1.29,-0.86l-0.04 -0.01z"/>
  </g>
  <g id="_1775933782464">
   <circle fill="#82B8AD" fill-rule="nonzero" cx="3.88" cy="7.9" r="0.12"/>
  </g>
  <g id="_1775933783520">
   <circle fill="#82B8AD" fill-rule="nonzero" cx="2.94" cy="7.9" r="0.12"/>
  </g>
  <g id="_1775933784048">
   <circle fill="#82B8AD" fill-rule="nonzero" cx="4.81" cy="7.9" r="0.12"/>
  </g>
  <g id="_1775933783856">
   <circle fill="#6AA2DE" fill-rule="nonzero" cx="4.34" cy="7.9" r="0.12"/>
  </g>
  <g id="_1775933781360">
   <circle fill="#6AA2DE" fill-rule="nonzero" cx="3.41" cy="7.9" r="0.12"/>
  </g>
  <g id="_1775933782368">
   <circle fill="#6AA2DE" fill-rule="nonzero" cx="4.11" cy="7.55" r="0.12"/>
  </g>
  <g id="_1775933782032">
   <circle fill="#6AA2DE" fill-rule="nonzero" cx="3.17" cy="7.55" r="0.12"/>
  </g>
  <g id="_1775933787312">
   <circle fill="#6AA2DE" fill-rule="nonzero" cx="5.05" cy="7.55" r="0.12"/>
  </g>
  <g id="_1775933786640">
   <circle fill="#82B8AD" fill-rule="nonzero" cx="2.71" cy="7.55" r="0.12"/>
  </g>
  <g id="_1775933787168">
   <circle fill="#82B8AD" fill-rule="nonzero" cx="4.58" cy="7.55" r="0.12"/>
  </g>
  <g id="_1775933785440">
   <circle fill="#82B8AD" fill-rule="nonzero" cx="3.64" cy="7.55" r="0.12"/>
  </g>
 </g>
</svg>
