<?xml version="1.0" encoding="UTF-8"?>
<!DOCTYPE svg PUBLIC "-//W3C//DTD SVG 1.0//EN" "http://www.w3.org/TR/2001/REC-SVG-20010904/DTD/svg10.dtd">
<!-- Creator: CorelDRAW 2020 (64 Bit) -->
<svg xmlns="http://www.w3.org/2000/svg" xml:space="preserve" width="339px" height="360px" version="1.0" shape-rendering="geometricPrecision" text-rendering="geometricPrecision" image-rendering="optimizeQuality" fill-rule="evenodd" clip-rule="evenodd"
viewBox="0 0 8.12 8.64"
 xmlns:xlink="http://www.w3.org/1999/xlink"
 xmlns:xodm="http://www.corel.com/coreldraw/odm/2003">
 <g id="Camada_x0020_1">
  <metadata id="CorelCorpID_0Corel-Layer"/>
  <rect fill="none" width="8.12" height="8.64"/>
  <path fill="#9BCE7A" fill-rule="nonzero" d="M2.9 8.64l2.33 0 0 -2.26c-0.06,0.02 -0.1,0.05 -0.13,0.1 -0.22,0.34 -0.6,0.57 -1.04,0.57 -0.43,0 -0.82,-0.23 -1.03,-0.57 -0.03,-0.05 -0.08,-0.08 -0.13,-0.1l0 2.26z"/>
  <path fill="#8ABE69" fill-rule="nonzero" d="M5.38 6.38c-0.11,-0.03 -0.23,0.01 -0.28,0.1 -0.22,0.34 -0.6,0.57 -1.04,0.57 -0.43,0 -0.82,-0.23 -1.03,-0.57 -0.06,-0.09 -0.18,-0.13 -0.28,-0.1l-0.04 0.02c0.22,0.52 0.74,0.89 1.35,0.89 0.61,0 1.13,-0.37 1.36,-0.89l-0.04 -0.02z"/>
  <path fill="#43A0C5" fill-rule="nonzero" d="M3.33 8.64l-0.35 -2.18c-0.01,-0.08 -0.09,-0.12 -0.16,-0.1l-0.75 0.25c-0.13,0.04 -0.23,0.16 -0.24,0.3l-0.17 1.32c-0.03,0.22 0.14,0.41 0.37,0.41l1.3 0 0 0z"/>
  <path fill="#43A0C5" fill-rule="nonzero" d="M4.8 8.64l0.34 -2.18c0.01,-0.08 0.09,-0.12 0.16,-0.1l0.75 0.25c0.13,0.04 0.23,0.16 0.25,0.3l0.16 1.32c0.03,0.22 -0.14,0.41 -0.36,0.41l-1.3 0 0 0z"/>
  <path fill="#2C8CB3" fill-rule="nonzero" d="M6.22 6.73c0.04,0.05 0.07,0.11 0.08,0.18l0.16 1.32c0.03,0.22 -0.14,0.41 -0.36,0.41l-0.69 0 0 -0.7c0,-0.18 0.06,-0.35 0.18,-0.49l0.63 -0.72z"/>
  <path fill="#FFC84A" fill-rule="nonzero" d="M6.45 8.15c-0.24,-0.03 -0.43,-0.24 -0.43,-0.49 0,-0.21 0.13,-0.38 0.31,-0.45l0.12 0.94z"/>
  <path fill="#2C8CB3" fill-rule="nonzero" d="M1.9 6.73c-0.04,0.05 -0.07,0.11 -0.07,0.18l-0.17 1.32c-0.03,0.22 0.14,0.41 0.37,0.41l0.68 0 0 -0.7c0,-0.18 -0.06,-0.35 -0.18,-0.49l-0.63 -0.72z"/>
 </g>
</svg>
