<?xml version="1.0" encoding="UTF-8"?>
<!DOCTYPE svg PUBLIC "-//W3C//DTD SVG 1.0//EN" "http://www.w3.org/TR/2001/REC-SVG-20010904/DTD/svg10.dtd">
<!-- Creator: CorelDRAW 2020 (64 Bit) -->
<svg xmlns="http://www.w3.org/2000/svg" xml:space="preserve" width="339px" height="360px" version="1.0" shape-rendering="geometricPrecision" text-rendering="geometricPrecision" image-rendering="optimizeQuality" fill-rule="evenodd" clip-rule="evenodd"
viewBox="0 0 6.82 7.25"
 xmlns:xlink="http://www.w3.org/1999/xlink"
 xmlns:xodm="http://www.corel.com/coreldraw/odm/2003">
 <g id="Camada_x0020_1">
  <metadata id="CorelCorpID_0Corel-Layer"/>
  <rect fill="none" width="6.82" height="7.25"/>
  <g id="_1775933788944">
   <path fill="#FFC84A" fill-rule="nonzero" d="M4.59 5.49l-0.37 0.59c-0.06,0.09 -0.16,0.14 -0.26,0.14l-1.1 0c-0.11,0 -0.21,-0.05 -0.26,-0.14l-0.37 -0.59c-0.03,-0.05 -0.1,-0.07 -0.14,-0.04l-0.34 0.21c-0.05,0.03 -0.07,0.09 -0.04,0.14l0.46 0.73 2.47 0 0.46 -0.73c0.03,-0.05 0.02,-0.11 -0.03,-0.14l-0.34 -0.21c-0.05,-0.03 -0.11,-0.01 -0.14,0.04z"/>
  </g>
  <g id="_1775933790048">
   <rect fill="#FFDC46" fill-rule="nonzero" x="2.17" y="6.53" width="2.47" height="0.72"/>
  </g>
 </g>
</svg>
