<?xml version="1.0" encoding="UTF-8"?>
<!DOCTYPE svg PUBLIC "-//W3C//DTD SVG 1.0//EN" "http://www.w3.org/TR/2001/REC-SVG-20010904/DTD/svg10.dtd">
<!-- Creator: CorelDRAW 2020 (64 Bit) -->
<svg xmlns="http://www.w3.org/2000/svg" xml:space="preserve" width="339px" height="360px" version="1.0" shape-rendering="geometricPrecision" text-rendering="geometricPrecision" image-rendering="optimizeQuality" fill-rule="evenodd" clip-rule="evenodd"
viewBox="0 0 7.1 7.56"
 xmlns:xlink="http://www.w3.org/1999/xlink"
 xmlns:xodm="http://www.corel.com/coreldraw/odm/2003">
 <g id="Camada_x0020_1">
  <metadata id="CorelCorpID_0Corel-Layer"/>
  <rect fill="none" width="7.1" height="7.56"/>
  <path fill="#FF6473" fill-rule="nonzero" d="M5.12 5.82l-0.23 -0.11c-0.04,-0.02 -0.09,0 -0.1,0.04 -0.15,0.55 -0.65,0.95 -1.24,0.95 -0.59,0 -1.09,-0.4 -1.24,-0.95 -0.01,-0.04 -0.06,-0.06 -0.1,-0.04l-0.21 0.1c-0.18,0.09 -0.29,0.24 -0.31,0.42l-0.13 0.96c-0.02,0.2 0.13,0.37 0.32,0.37l3.34 0c0.19,0 0.34,-0.17 0.32,-0.37l-0.13 -0.96c-0.02,-0.18 -0.13,-0.33 -0.29,-0.41z"/>
  <path fill="#CA64B3" fill-rule="nonzero" d="M1.74 6.07c-0.02,0.05 -0.04,0.1 -0.05,0.16l-0.13 0.96c-0.02,0.2 0.13,0.37 0.32,0.37l0.49 0 0 -0.43c0,-0.14 -0.04,-0.28 -0.13,-0.39l-0.5 -0.67z"/>
  <path fill="#CA64B3" fill-rule="nonzero" d="M5.36 6.07c0.03,0.05 0.04,0.1 0.05,0.16l0.13 0.96c0.02,0.2 -0.13,0.37 -0.32,0.37l-0.49 0 0 -0.43c0,-0.14 0.04,-0.28 0.13,-0.39l0.5 -0.67z"/>
  <path fill="#CA64B3" fill-rule="nonzero" d="M3.55 6.91c0.71,0 1.3,-0.49 1.46,-1.14l-0.12 -0.06c-0.04,-0.02 -0.09,0 -0.1,0.04 -0.15,0.55 -0.65,0.95 -1.24,0.95 -0.59,0 -1.09,-0.4 -1.24,-0.95 -0.01,-0.04 -0.06,-0.06 -0.1,-0.04l-0.12 0.06c0.16,0.65 0.75,1.14 1.46,1.14z"/>
  <circle fill="#FFC84A" fill-rule="nonzero" cx="2.8" cy="7.13" r="0.21"/>
  <path fill="#FFAC4D" fill-rule="nonzero" d="M2.73 7.13c0,-0.1 0.06,-0.17 0.14,-0.2 -0.02,-0.01 -0.04,-0.02 -0.07,-0.02 -0.12,0 -0.21,0.1 -0.21,0.22 0,0.12 0.09,0.21 0.21,0.21 0.03,0 0.05,0 0.07,-0.01 -0.08,-0.03 -0.14,-0.11 -0.14,-0.2z"/>
  <circle fill="#9BCE7A" fill-rule="nonzero" cx="3.34" cy="7.23" r="0.21"/>
  <path fill="#8ABE69" fill-rule="nonzero" d="M3.26 7.23c0,-0.09 0.06,-0.17 0.15,-0.2 -0.02,0 -0.05,-0.01 -0.07,-0.01 -0.12,0 -0.22,0.1 -0.22,0.21 0,0.12 0.1,0.22 0.22,0.22 0.02,0 0.05,-0.01 0.07,-0.01 -0.09,-0.03 -0.15,-0.11 -0.15,-0.21z"/>
 </g>
</svg>
