<?xml version="1.0" encoding="UTF-8"?>
<!DOCTYPE svg PUBLIC "-//W3C//DTD SVG 1.0//EN" "http://www.w3.org/TR/2001/REC-SVG-20010904/DTD/svg10.dtd">
<!-- Creator: CorelDRAW 2020 (64 Bit) -->
<svg xmlns="http://www.w3.org/2000/svg" xml:space="preserve" width="339px" height="360px" version="1.0" shape-rendering="geometricPrecision" text-rendering="geometricPrecision" image-rendering="optimizeQuality" fill-rule="evenodd" clip-rule="evenodd"
viewBox="0 0 7.75 8.25"
 xmlns:xlink="http://www.w3.org/1999/xlink"
 xmlns:xodm="http://www.corel.com/coreldraw/odm/2003">
 <g id="Camada_x0020_1">
  <metadata id="CorelCorpID_0Corel-Layer"/>
  <rect fill="none" width="7.75" height="8.25"/>
  <path fill="#43A0C5" fill-rule="nonzero" d="M6.02 6.67c-0.02,-0.18 -0.15,-0.33 -0.32,-0.39l-0.76 -0.25 -0.71 0.46 -0.24 0.24c-0.05,0 -0.18,0 -0.23,0l-0.24 -0.24 -0.71 -0.46 -0.76 0.25c-0.17,0.06 -0.29,0.21 -0.32,0.39l-0.11 0.89 0.97 0.1 0 0.59 2.57 0 0 -0.59 0.98 0 -0.12 -0.99z"/>
  <path fill="#2C8CB3" fill-rule="nonzero" d="M2.59 7.75l0 -0.26c0,-0.12 -0.04,-0.23 -0.12,-0.31l-0.64 -0.74c-0.05,0.06 -0.09,0.14 -0.1,0.23l-0.12 0.98c0.19,0.01 0.68,0.06 0.98,0.1z"/>
  <path fill="#1179A2" fill-rule="nonzero" d="M2.59 7.6l-0.97 -0.11c-0.03,0 -0.07,0.02 -0.07,0.06l-0.01 0.1c-0.01,0.03 0.02,0.07 0.06,0.07l0.99 0.11 0 -0.23z"/>
  <path fill="#2C8CB3" fill-rule="nonzero" d="M5.16 7.75l0 -0.26c0,-0.12 0.04,-0.23 0.12,-0.31l0.64 -0.74c0.05,0.06 0.09,0.14 0.1,0.23l0.12 0.98c-0.19,0.01 -0.68,0.06 -0.98,0.1z"/>
  <path fill="#1179A2" fill-rule="nonzero" d="M5.16 7.6l0.97 -0.11c0.03,0 0.07,0.02 0.07,0.06l0.01 0.1c0.01,0.03 -0.02,0.07 -0.06,0.07l-0.99 0.11 0 -0.23z"/>
  <path fill="#2C8CB3" fill-rule="nonzero" d="M3.12 5.89l0.4 0.6 -0.35 0.47 -0.46 -0.94 0.25 -0.16c0.05,-0.04 0.13,-0.03 0.16,0.03z"/>
  <path fill="#2C8CB3" fill-rule="nonzero" d="M4.63 5.89l-0.4 0.6 0.35 0.47 0.47 -0.94 -0.26 -0.16c-0.05,-0.04 -0.12,-0.03 -0.16,0.03z"/>
  <path fill="#2C8CB3" fill-rule="nonzero" d="M3.88 7.66l0 0c-0.07,0 -0.12,-0.05 -0.12,-0.11l0 -0.82 0.23 0 0 0.82c0,0.06 -0.05,0.11 -0.11,0.11z"/>
 </g>
</svg>
