<?xml version="1.0" encoding="UTF-8"?>
<!DOCTYPE svg PUBLIC "-//W3C//DTD SVG 1.0//EN" "http://www.w3.org/TR/2001/REC-SVG-20010904/DTD/svg10.dtd">
<!-- Creator: CorelDRAW 2020 (64 Bit) -->
<svg xmlns="http://www.w3.org/2000/svg" xml:space="preserve" width="339px" height="360px" version="1.0" shape-rendering="geometricPrecision" text-rendering="geometricPrecision" image-rendering="optimizeQuality" fill-rule="evenodd" clip-rule="evenodd"
viewBox="0 0 8.12 8.64"
 xmlns:xlink="http://www.w3.org/1999/xlink"
 xmlns:xodm="http://www.corel.com/coreldraw/odm/2003">
 <g id="Camada_x0020_1">
  <metadata id="CorelCorpID_0Corel-Layer"/>
  <rect fill="none" width="8.12" height="8.64"/>
  <g id="_2730157752416">
   <path fill="#FF6473" fill-rule="nonzero" d="M5.85 6.66l-0.26 -0.13c-0.04,-0.03 -0.1,0 -0.11,0.05 -0.17,0.62 -0.74,1.08 -1.42,1.08 -0.68,0 -1.25,-0.46 -1.42,-1.08 -0.01,-0.05 -0.06,-0.08 -0.11,-0.05l-0.24 0.12c-0.2,0.1 -0.33,0.27 -0.36,0.48l-0.14 1.1c-0.03,0.22 0.14,0.41 0.36,0.41l3.82 0c0.22,0 0.39,-0.19 0.36,-0.41l-0.14 -1.1c-0.03,-0.21 -0.15,-0.38 -0.34,-0.47z"/>
  </g>
  <g id="_2730157752800">
   <path fill="#F05467" fill-rule="nonzero" d="M1.99 6.94c-0.03,0.06 -0.05,0.12 -0.06,0.19l-0.14 1.1c-0.03,0.22 0.14,0.41 0.36,0.41l0.56 0 0 -0.49c0,-0.16 -0.05,-0.31 -0.14,-0.44l-0.58 -0.77z"/>
  </g>
  <g id="_2730157751888">
   <path fill="#F05467" fill-rule="nonzero" d="M6.13 6.94c0.03,0.06 0.05,0.12 0.06,0.19l0.14 1.1c0.03,0.22 -0.14,0.41 -0.36,0.41l-0.56 0 0 -0.49c0,-0.16 0.05,-0.31 0.15,-0.44l0.57 -0.77z"/>
  </g>
 </g>
</svg>
