<?xml version="1.0" encoding="UTF-8"?>
<!DOCTYPE svg PUBLIC "-//W3C//DTD SVG 1.0//EN" "http://www.w3.org/TR/2001/REC-SVG-20010904/DTD/svg10.dtd">
<!-- Creator: CorelDRAW 2020 (64 Bit) -->
<svg xmlns="http://www.w3.org/2000/svg" xml:space="preserve" width="339px" height="360px" version="1.0" shape-rendering="geometricPrecision" text-rendering="geometricPrecision" image-rendering="optimizeQuality" fill-rule="evenodd" clip-rule="evenodd"
viewBox="0 0 8.53 9.08"
 xmlns:xlink="http://www.w3.org/1999/xlink"
 xmlns:xodm="http://www.corel.com/coreldraw/odm/2003">
 <g id="Camada_x0020_1">
  <metadata id="CorelCorpID_0Corel-Layer"/>
  <rect fill="none" width="8.53" height="9.08"/>
  <path fill="#FF6473" fill-rule="nonzero" d="M6.65 8.64l-0.15 -1.16c-0.03,-0.21 -0.16,-0.39 -0.38,-0.5l-0.6 -0.27c-0.07,-0.03 -0.15,0.01 -0.17,0.08 -0.17,0.43 -0.59,0.74 -1.08,0.74 -0.5,0 -0.92,-0.31 -1.09,-0.74 -0.02,-0.07 -0.1,-0.11 -0.17,-0.08l-0.6 0.27c-0.22,0.11 -0.35,0.29 -0.38,0.5l-0.15 1.16c-0.03,0.23 0.15,0.44 0.38,0.44l4.01 0c0.23,0 0.41,-0.21 0.38,-0.44z"/>
  <path fill="#8DB9E2" fill-rule="nonzero" d="M5.74 6.87l-0.46 0.74c-0.07,0.11 -0.19,0.18 -0.33,0.18l-1.37 0c-0.14,0 -0.26,-0.07 -0.33,-0.18l-0.46 -0.74c-0.04,-0.06 -0.12,-0.08 -0.18,-0.04l-0.42 0.25c-0.06,0.04 -0.08,0.12 -0.04,0.18l0.57 0.92 3.09 0 0.57 -0.92c0.04,-0.06 0.02,-0.14 -0.04,-0.18l-0.42 -0.25c-0.06,-0.04 -0.14,-0.02 -0.18,0.04z"/>
  <rect fill="#6AA2DE" fill-rule="nonzero" x="2.72" y="8.18" width="3.09" height="0.9"/>
 </g>
</svg>
