<?xml version="1.0" encoding="UTF-8"?>
<!DOCTYPE svg PUBLIC "-//W3C//DTD SVG 1.0//EN" "http://www.w3.org/TR/2001/REC-SVG-20010904/DTD/svg10.dtd">
<!-- Creator: CorelDRAW 2020 (64 Bit) -->
<svg xmlns="http://www.w3.org/2000/svg" xml:space="preserve" width="339px" height="360px" version="1.0" shape-rendering="geometricPrecision" text-rendering="geometricPrecision" image-rendering="optimizeQuality" fill-rule="evenodd" clip-rule="evenodd"
viewBox="0 0 6.82 7.25"
 xmlns:xlink="http://www.w3.org/1999/xlink"
 xmlns:xodm="http://www.corel.com/coreldraw/odm/2003">
 <g id="Camada_x0020_1">
  <metadata id="CorelCorpID_0Corel-Layer"/>
  <rect fill="none" width="6.82" height="7.25"/>
  <path fill="#F0C578" fill-rule="nonzero" d="M4.44 4.99c-0.09,-0.03 -0.25,-0.05 -0.42,-0.07l0 0.23c0,0.06 0.03,0.11 0.07,0.15l0.35 -0.31zm-1.65 -0.07c-0.17,0.02 -0.32,0.04 -0.41,0.07l0.34 0.31c0.04,-0.03 0.06,-0.06 0.07,-0.11l0 0 0 0 0 0c0,-0.01 0,-0.01 0,-0.02l0 0 0 0c0,-0.01 0,-0.01 0,-0.01l0 -0.01 0 0 0 0 0 -0.23z"/>
  <path fill="#FFA64E" fill-rule="nonzero" d="M5.42 6.91l-0.13 -1.05c-0.02,-0.15 -0.13,-0.29 -0.28,-0.34l-0.58 -0.19c-0.04,-0.01 -0.1,0 -0.12,0.05 -0.17,0.32 -0.86,0.54 -0.9,0.54 -0.04,0 -0.73,-0.22 -0.91,-0.54 -0.02,-0.05 -0.07,-0.06 -0.12,-0.05l-0.58 0.19c-0.15,0.05 -0.26,0.19 -0.28,0.34l-0.13 1.05c-0.02,0.18 0.12,0.34 0.31,0.34l3.42 0c0.18,0 0.32,-0.16 0.3,-0.34z"/>
  <path fill="#FFDD8B" fill-rule="nonzero" d="M1.61 5.66c-0.05,0.06 -0.08,0.13 -0.09,0.2l-0.13 1.05c-0.02,0.18 0.12,0.34 0.31,0.34l0.58 0 0 -0.67c0,-0.1 -0.04,-0.19 -0.1,-0.27l-0.57 -0.65z"/>
  <path fill="#FFDD8B" fill-rule="nonzero" d="M5.21 5.66c0.04,0.06 0.07,0.13 0.08,0.2l0.13 1.05c0.02,0.18 -0.12,0.34 -0.3,0.34l-0.58 0 0 -0.67c0,-0.1 0.03,-0.19 0.1,-0.27l0.57 -0.65z"/>
  <path fill="#FFDD8B" fill-rule="nonzero" d="M4.54 5.23c-0.09,-0.06 0.03,-0.17 -0.1,-0.24l-1.03 0.92 -1.03 -0.92c-0.14,0.07 -0.02,0.18 -0.11,0.24 -0.11,0.08 -0.1,0.17 -0.1,0.17l1.24 0.62 0 0 0 0 0 0 0 0 1.23 -0.62c0,0 0.02,-0.09 -0.1,-0.17z"/>
  <rect fill="#F4873F" fill-rule="nonzero" x="3.3" y="6.33" width="0.21" height="0.93"/>
  <path fill="#F0C578" fill-rule="nonzero" d="M3.41 6.43l0 0c-0.06,0 -0.11,-0.05 -0.11,-0.1l0 -0.31c0,-0.06 0.05,-0.1 0.11,-0.1l0 0c0.05,0 0.1,0.04 0.1,0.1l0 0.31c0,0.05 -0.05,0.1 -0.1,0.1z"/>
 </g>
</svg>
