<?xml version="1.0" encoding="UTF-8"?>
<!DOCTYPE svg PUBLIC "-//W3C//DTD SVG 1.0//EN" "http://www.w3.org/TR/2001/REC-SVG-20010904/DTD/svg10.dtd">
<!-- Creator: CorelDRAW 2020 (64 Bit) -->
<svg xmlns="http://www.w3.org/2000/svg" xml:space="preserve" width="339px" height="360px" version="1.0" shape-rendering="geometricPrecision" text-rendering="geometricPrecision" image-rendering="optimizeQuality" fill-rule="evenodd" clip-rule="evenodd"
viewBox="0 0 7.1 7.56"
 xmlns:xlink="http://www.w3.org/1999/xlink"
 xmlns:xodm="http://www.corel.com/coreldraw/odm/2003">
 <g id="Camada_x0020_1">
  <metadata id="CorelCorpID_0Corel-Layer"/>
  <rect fill="none" width="7.1" height="7.56"/>
  <g id="_1775951207312">
   <path fill="#FF8C51" fill-rule="nonzero" d="M4.78 5.72l-0.38 0.61c-0.06,0.1 -0.17,0.15 -0.28,0.15l-1.14 0c-0.11,0 -0.22,-0.05 -0.27,-0.15l-0.39 -0.61c-0.03,-0.05 -0.1,-0.07 -0.15,-0.04l-0.35 0.21c-0.05,0.03 -0.07,0.1 -0.03,0.15l0.47 0.77 2.58 0 0.47 -0.77c0.04,-0.05 0.02,-0.12 -0.03,-0.15l-0.35 -0.21c-0.05,-0.03 -0.12,-0.01 -0.15,0.04z"/>
  </g>
  <g id="_1775951204864">
   <rect fill="#FF7941" fill-rule="nonzero" x="2.26" y="6.81" width="2.57" height="0.75"/>
  </g>
 </g>
</svg>
