<?xml version="1.0" encoding="UTF-8"?>
<!DOCTYPE svg PUBLIC "-//W3C//DTD SVG 1.0//EN" "http://www.w3.org/TR/2001/REC-SVG-20010904/DTD/svg10.dtd">
<!-- Creator: CorelDRAW 2020 (64 Bit) -->
<svg xmlns="http://www.w3.org/2000/svg" xml:space="preserve" width="339px" height="360px" version="1.0" shape-rendering="geometricPrecision" text-rendering="geometricPrecision" image-rendering="optimizeQuality" fill-rule="evenodd" clip-rule="evenodd"
viewBox="0 0 7.75 8.25"
 xmlns:xlink="http://www.w3.org/1999/xlink"
 xmlns:xodm="http://www.corel.com/coreldraw/odm/2003">
 <g id="Camada_x0020_1">
  <metadata id="CorelCorpID_0Corel-Layer"/>
  <rect fill="none" width="7.75" height="8.25"/>
  <path fill="#57B9DD" fill-rule="nonzero" d="M5.9 6.8c-0.02,-0.19 -0.14,-0.36 -0.34,-0.46l-0.23 -0.11c-0.04,-0.02 -0.07,0.01 -0.1,0.05 -0.62,0.72 -1.35,1.03 -1.35,1.03l0 0 0 0c0,0 -0.74,-0.31 -1.36,-1.03 -0.03,-0.04 -0.06,-0.07 -0.1,-0.05l-0.23 0.11c-0.2,0.1 -0.32,0.27 -0.34,0.46l-0.1 0.71c0.31,0.11 0.84,0.27 0.84,0.27l0 0.47 2.57 0 0 -0.47c0,0 0.53,-0.16 0.84,-0.27l-0.1 -0.71z"/>
  <path fill="#43A0C5" fill-rule="nonzero" d="M2.59 7.74c-0.01,-0.14 -0.06,-0.27 -0.14,-0.38l-0.55 -0.73c-0.03,0.05 -0.05,0.11 -0.05,0.17l-0.1 0.7 0.84 0.24z"/>
  <path fill="#258CAC" fill-rule="nonzero" d="M1.66 7.52c-0.01,0.04 0.01,0.08 0.05,0.09l0.88 0.26 0 -0.09c0,-0.06 -0.01,-0.11 -0.02,-0.16l-0.79 -0.23c-0.04,-0.01 -0.08,0.01 -0.1,0.05l-0.02 0.08z"/>
  <path fill="#43A0C5" fill-rule="nonzero" d="M5.16 7.74c0.01,-0.14 0.06,-0.27 0.14,-0.38l0.55 -0.73c0.03,0.05 0.05,0.11 0.05,0.17l0.1 0.7 -0.84 0.24z"/>
  <path fill="#258CAC" fill-rule="nonzero" d="M6.09 7.52c0.01,0.04 -0.01,0.08 -0.05,0.09l-0.88 0.26 0 -0.09c0,-0.06 0.01,-0.11 0.02,-0.16l0.79 -0.23c0.04,-0.01 0.08,0.01 0.1,0.05l0.02 0.08z"/>
 </g>
</svg>
