<?xml version="1.0" encoding="UTF-8"?>
<!DOCTYPE svg PUBLIC "-//W3C//DTD SVG 1.0//EN" "http://www.w3.org/TR/2001/REC-SVG-20010904/DTD/svg10.dtd">
<!-- Creator: CorelDRAW 2020 (64 Bit) -->
<svg xmlns="http://www.w3.org/2000/svg" xml:space="preserve" width="339px" height="360px" version="1.0" shape-rendering="geometricPrecision" text-rendering="geometricPrecision" image-rendering="optimizeQuality" fill-rule="evenodd" clip-rule="evenodd"
viewBox="0 0 8.12 8.64"
 xmlns:xlink="http://www.w3.org/1999/xlink"
 xmlns:xodm="http://www.corel.com/coreldraw/odm/2003">
 <g id="Camada_x0020_1">
  <metadata id="CorelCorpID_0Corel-Layer"/>
  <rect fill="none" width="8.12" height="8.64"/>
  <g id="_1775947301040">
   <path fill="#57B9DD" fill-rule="nonzero" d="M5.47 6.54l-0.44 0.7c-0.07,0.11 -0.19,0.18 -0.31,0.18l-1.31 0c-0.13,0 -0.25,-0.07 -0.32,-0.18l-0.44 -0.7c-0.03,-0.06 -0.11,-0.08 -0.16,-0.04l-0.41 0.24c-0.05,0.03 -0.07,0.11 -0.04,0.17l0.55 0.87 2.94 0 0.55 -0.87c0.04,-0.06 0.02,-0.14 -0.04,-0.17l-0.4 -0.24c-0.06,-0.04 -0.14,-0.02 -0.17,0.04z"/>
  </g>
  <g id="_1775947303296">
   <rect fill="#43A0C5" fill-rule="nonzero" x="2.59" y="7.78" width="2.94" height="0.86"/>
  </g>
 </g>
</svg>
