<?xml version="1.0" encoding="UTF-8"?>
<!DOCTYPE svg PUBLIC "-//W3C//DTD SVG 1.0//EN" "http://www.w3.org/TR/2001/REC-SVG-20010904/DTD/svg10.dtd">
<!-- Creator: CorelDRAW 2020 (64 Bit) -->
<svg xmlns="http://www.w3.org/2000/svg" xml:space="preserve" width="339px" height="360px" version="1.0" shape-rendering="geometricPrecision" text-rendering="geometricPrecision" image-rendering="optimizeQuality" fill-rule="evenodd" clip-rule="evenodd"
viewBox="0 0 8.53 9.08"
 xmlns:xlink="http://www.w3.org/1999/xlink"
 xmlns:xodm="http://www.corel.com/coreldraw/odm/2003">
 <g id="Camada_x0020_1">
  <metadata id="CorelCorpID_0Corel-Layer"/>
  <path fill="#72967D" fill-rule="nonzero" d="M5.68 6.86l-0.32 -0.11c-0.15,0.45 -0.58,0.78 -1.09,0.78 -0.51,0 -0.95,-0.33 -1.1,-0.78l-0.32 0.11 0 0.16c0,0.78 0.63,1.41 1.42,1.41l0 0c0.78,0 1.41,-0.63 1.41,-1.41l0 -0.16z"/>
  <path fill="#8ABE69" fill-rule="nonzero" d="M6.65 8.64l-0.15 -1.15c-0.03,-0.21 -0.16,-0.4 -0.36,-0.49l-0.5 -0.24c-0.05,-0.03 -0.1,0 -0.13,0.05 -0.32,0.73 -0.88,1.08 -1.24,1.24 -0.37,-0.16 -0.93,-0.51 -1.25,-1.24 -0.03,-0.05 -0.08,-0.08 -0.13,-0.05l-0.5 0.24c-0.2,0.09 -0.33,0.28 -0.36,0.49l-0.15 1.15c-0.03,0.23 0.15,0.44 0.38,0.44l4.01 0c0.23,0 0.41,-0.21 0.38,-0.44z"/>
  <path fill="#9BCE7A" fill-rule="nonzero" d="M4.35 8.22c0.62,-0.29 1.1,-0.78 1.38,-1.42l-0.09 -0.04c-0.05,-0.03 -0.1,0 -0.13,0.05 -0.32,0.73 -0.88,1.08 -1.24,1.24 -0.37,-0.16 -0.93,-0.51 -1.25,-1.24 -0.03,-0.05 -0.08,-0.08 -0.13,-0.05l-0.09 0.04c0.29,0.64 0.76,1.13 1.38,1.42l0.09 0.04 0.08 -0.04z"/>
  <path fill="#9BCE7A" fill-rule="nonzero" d="M2.85 8.53c0,-0.15 -0.05,-0.29 -0.14,-0.4l-0.63 -0.81c-0.02,0.05 -0.04,0.11 -0.05,0.17l-0.15 1.15c-0.03,0.23 0.15,0.44 0.38,0.44l0.59 0 0 -0.55z"/>
  <path fill="#9BCE7A" fill-rule="nonzero" d="M5.68 8.53c0,-0.15 0.05,-0.29 0.14,-0.4l0.63 -0.81c0.02,0.05 0.04,0.11 0.05,0.17l0.15 1.15c0.03,0.23 -0.15,0.44 -0.38,0.44l-0.59 0 0 -0.55z"/>
  <rect fill="none" width="8.53" height="9.08"/>
 </g>
</svg>
