<?xml version="1.0" encoding="UTF-8"?>
<!DOCTYPE svg PUBLIC "-//W3C//DTD SVG 1.0//EN" "http://www.w3.org/TR/2001/REC-SVG-20010904/DTD/svg10.dtd">
<!-- Creator: CorelDRAW 2020 (64 Bit) -->
<svg xmlns="http://www.w3.org/2000/svg" xml:space="preserve" width="339px" height="360px" version="1.0" shape-rendering="geometricPrecision" text-rendering="geometricPrecision" image-rendering="optimizeQuality" fill-rule="evenodd" clip-rule="evenodd"
viewBox="0 0 33.69 35.85"
 xmlns:xlink="http://www.w3.org/1999/xlink"
 xmlns:xodm="http://www.corel.com/coreldraw/odm/2003">
 <g id="Camada_x0020_1">
  <metadata id="CorelCorpID_0Corel-Layer"/>
  <rect fill="none" width="33.69" height="35.85"/>
  <path fill="#E6E6E6" fill-rule="nonzero" d="M26.16 28.99c-0.1,-0.78 -0.64,-1.43 -1.38,-1.68l-3.29 -1.1c-0.48,1.08 -3.12,2.01 -3.12,2.01l-1.02 1.02c0,0 -0.93,0 -1.01,0l-1.02 -1.02c0,0 -2.64,-0.93 -3.12,-2.01l-3.29 1.1c-0.74,0.25 -1.28,0.9 -1.38,1.68l-0.48 3.86 4.2 0.46 0 2.54 11.19 0 0 -2.54 4.26 0 -0.54 -4.32z"/>
  <g id="_1774374546336">
   <path fill="#E6E6E6" fill-rule="nonzero" d="M11.25 33.69l0 -1.15c0,-0.49 -0.17,-0.96 -0.5,-1.33l-2.79 -3.23c-0.23,0.28 -0.38,0.63 -0.43,1.01l-0.53 4.24c0.81,0.05 2.96,0.3 4.25,0.46z"/>
  </g>
  <g id="_1774374546528">
   <path fill="#E6E6E6" fill-rule="nonzero" d="M22.44 33.69l0 -1.15c0,-0.49 0.17,-0.96 0.49,-1.33l2.8 -3.23c0.23,0.28 0.38,0.63 0.43,1.01l0.53 4.24c-0.81,0.05 -2.96,0.3 -4.25,0.46z"/>
  </g>
  <path fill="#CCCCCC" fill-rule="nonzero" d="M13.57 25.59l2.64 3.52 -1.09 1.44 -3.36 -4.36 1.1 -0.74c0.24,-0.15 0.55,-0.09 0.71,0.14z"/>
  <path fill="#CCCCCC" fill-rule="nonzero" d="M20.12 25.59l-2.64 3.52 1.09 1.44 3.36 -4.36 -1.1 -0.74c-0.24,-0.15 -0.55,-0.09 -0.71,0.14z"/>
  <ellipse fill="#33546A" cx="16.34" cy="29.92" rx="0.39" ry="0.51"/>
  <ellipse fill="#33546A" cx="17.36" cy="29.92" rx="0.39" ry="0.51"/>
  <path fill="#4F6E7F" fill-rule="nonzero" d="M15.88 35.85l0.46 -6.61 1.01 0 0.47 6.61c-1.27,0 -0.67,0 -1.94,0z"/>
 </g>
</svg>
