<?xml version="1.0" encoding="UTF-8"?>
<!DOCTYPE svg PUBLIC "-//W3C//DTD SVG 1.0//EN" "http://www.w3.org/TR/2001/REC-SVG-20010904/DTD/svg10.dtd">
<!-- Creator: CorelDRAW 2020 (64 Bit) -->
<svg xmlns="http://www.w3.org/2000/svg" xml:space="preserve" width="339px" height="360px" version="1.0" shape-rendering="geometricPrecision" text-rendering="geometricPrecision" image-rendering="optimizeQuality" fill-rule="evenodd" clip-rule="evenodd"
viewBox="0 0 43.82 46.63"
 xmlns:xlink="http://www.w3.org/1999/xlink"
 xmlns:xodm="http://www.corel.com/coreldraw/odm/2003">
 <g id="Camada_x0020_1">
  <metadata id="CorelCorpID_0Corel-Layer"/>
  <rect fill="none" width="43.82" height="46.63"/>
  <path fill="#E6E6E6" fill-rule="nonzero" d="M34.02 37.7c-0.12,-1.01 -0.82,-1.85 -1.79,-2.18l-4.27 -1.42c-0.63,1.4 -3.29,1.2 -3.29,1.2 -1.89,1.88 -3.5,2.05 -5.41,0.14 0,0 -2.77,0.06 -3.39,-1.34l-4.28 1.42c-0.97,0.33 -1.66,1.17 -1.79,2.18l-0.63 5.04 5.47 0.59 0 3.3 14.55 0 0 -3.3 5.54 0 -0.71 -5.63z"/>
  <path fill="#4D4D4D" fill-rule="nonzero" d="M14.55 46.63l0.09 -4.3c0,-0.64 -0.23,-1.25 -0.65,-1.73l-3.64 -4.21c-0.29,0.38 -0.49,0.83 -0.55,1.31l-0.72 8.93 5.47 0z"/>
  <path fill="#E6E6E6" fill-rule="nonzero" d="M17.65 33.29l3.43 4.58 -1.41 1.88 -4.37 -5.68 1.43 -0.96c0.31,-0.2 0.72,-0.12 0.92,0.18z"/>
  <ellipse fill="#FFA64E" cx="21.26" cy="37.81" rx="0.51" ry="0.76"/>
  <path fill="#E6E6E6" fill-rule="nonzero" d="M26.17 33.29l-3.43 4.58 1.41 1.88 4.38 -5.68 -1.44 -0.96c-0.3,-0.2 -0.71,-0.12 -0.92,0.18z"/>
  <path fill="#4D4D4D" fill-rule="nonzero" d="M29.27 46.63l-0.08 -4.3c0,-0.64 0.23,-1.25 0.64,-1.73l3.64 -4.21c0.3,0.38 0.49,0.83 0.55,1.31l0.73 8.93 -5.48 0z"/>
  <path fill="#4D4D4D" fill-rule="nonzero" d="M34.02 37.7c-0.12,-1.01 -0.82,-1.85 -1.79,-2.18l-4.27 -1.42c-0.5,1.11 -2.78,2.11 -3.69,2.47l0 10.06 4.92 0 0 -3.3 5.56 3.3 -0.73 -8.93zm-14.5 -1.14c-0.93,-0.37 -3.16,-1.36 -3.65,-2.46l-4.28 1.42c-0.97,0.33 -1.66,1.17 -1.79,2.18l-0.69 8.34 5.53 -2.71 0 3.3 4.88 0 0 -10.07z"/>
  <ellipse fill="#FFA64E" cx="22.58" cy="37.81" rx="0.51" ry="0.76"/>
  <path fill="#FFC85C" fill-rule="nonzero" d="M20.66 46.63l0.59 -9.84 1.32 0 0.61 9.84c-1.65,0 -0.87,0 -2.52,0z"/>
 </g>
</svg>
