<?xml version="1.0" encoding="UTF-8"?>
<!DOCTYPE svg PUBLIC "-//W3C//DTD SVG 1.0//EN" "http://www.w3.org/TR/2001/REC-SVG-20010904/DTD/svg10.dtd">
<!-- Creator: CorelDRAW 2020 (64 Bit) -->
<svg xmlns="http://www.w3.org/2000/svg" xml:space="preserve" width="339px" height="360px" version="1.0" shape-rendering="geometricPrecision" text-rendering="geometricPrecision" image-rendering="optimizeQuality" fill-rule="evenodd" clip-rule="evenodd"
viewBox="0 0 8.53 9.08"
 xmlns:xlink="http://www.w3.org/1999/xlink"
 xmlns:xodm="http://www.corel.com/coreldraw/odm/2003">
 <g id="Camada_x0020_1">
  <metadata id="CorelCorpID_0Corel-Layer"/>
  <rect fill="none" width="8.53" height="9.08"/>
  <g id="_2730273089264">
   <path fill="#FF9B4F" fill-rule="nonzero" d="M5.68 9.08l0 -0.65 1.08 0 -0.14 -1.09c-0.02,-0.2 -0.16,-0.36 -0.35,-0.43l-0.62 -0.2c-0.11,-0.04 -0.24,0 -0.3,0.1 -0.23,0.35 -0.63,0.59 -1.08,0.59 -0.46,0 -0.86,-0.24 -1.09,-0.59 -0.06,-0.1 -0.19,-0.14 -0.3,-0.1l-0.62 0.2c-0.19,0.07 -0.33,0.23 -0.35,0.43l-0.12 0.98 1.06 0.11 0 0.65 2.83 0 0 0z"/>
  </g>
  <g id="_2730273093008">
   <path fill="#43A0C5" fill-rule="nonzero" d="M2.85 8.53l0 -0.29c0,-0.12 -0.05,-0.24 -0.13,-0.34l-0.71 -0.82c-0.05,0.08 -0.09,0.16 -0.1,0.26l-0.14 1.08c0.21,0.01 0.75,0.07 1.08,0.11z"/>
  </g>
  <g id="_2730273092144">
   <path fill="#1179A2" fill-rule="nonzero" d="M2.85 8.36l-1.06 -0.12c-0.04,0 -0.08,0.03 -0.09,0.07l-0.01 0.11c0,0.04 0.03,0.07 0.07,0.08l1.09 0.12 0 -0.26z"/>
  </g>
  <g id="_2730273093584">
   <path fill="#43A0C5" fill-rule="nonzero" d="M5.68 8.53l0 -0.29c0,-0.12 0.05,-0.24 0.13,-0.34l0.71 -0.82c0.05,0.08 0.09,0.16 0.1,0.26l0.14 1.08c-0.21,0.01 -0.75,0.07 -1.08,0.11z"/>
  </g>
  <g id="_2730273093344">
   <path fill="#1179A2" fill-rule="nonzero" d="M5.68 8.36l1.06 -0.12c0.04,0 0.08,0.03 0.09,0.07l0.01 0.11c0,0.04 -0.03,0.07 -0.07,0.08l-1.09 0.12 0 -0.26z"/>
  </g>
  <g id="_2730273094928">
   <path fill="#FFC84A" fill-rule="nonzero" d="M4.27 8.31c-0.43,0 -0.78,0.34 -0.78,0.77l1.55 0c0,-0.43 -0.35,-0.77 -0.77,-0.77z"/>
  </g>
 </g>
</svg>
