<?xml version="1.0" encoding="UTF-8"?>
<!DOCTYPE svg PUBLIC "-//W3C//DTD SVG 1.0//EN" "http://www.w3.org/TR/2001/REC-SVG-20010904/DTD/svg10.dtd">
<!-- Creator: CorelDRAW 2020 (64 Bit) -->
<svg xmlns="http://www.w3.org/2000/svg" xml:space="preserve" width="339px" height="360px" version="1.0" shape-rendering="geometricPrecision" text-rendering="geometricPrecision" image-rendering="optimizeQuality" fill-rule="evenodd" clip-rule="evenodd"
viewBox="0 0 66.26 70.51"
 xmlns:xlink="http://www.w3.org/1999/xlink"
 xmlns:xodm="http://www.corel.com/coreldraw/odm/2003">
 <g id="Camada_x0020_1">
  <metadata id="CorelCorpID_0Corel-Layer"/>
  <rect fill="none" width="66.26" height="70.51"/>
  <path fill="#E6E6E6" fill-rule="nonzero" d="M51.44 57.01c-0.19,-1.53 -1.24,-2.81 -2.7,-3.3l-6.47 -2.16c-0.94,2.13 -4.97,1.83 -4.97,1.83 -2.85,2.84 -5.3,3.09 -8.18,0.2 0,0 -4.19,0.1 -5.13,-2.03l-6.47 2.16c-1.46,0.49 -2.51,1.77 -2.7,3.3l-0.95 7.61 8.26 0.89 0 5 22 0 0 -5 8.37 0 -1.06 -8.5z"/>
  <path fill="#4D4D4D" fill-rule="nonzero" d="M22 70.51l0.13 -6.51c0,-0.96 -0.35,-1.89 -0.98,-2.62l-5.5 -6.35c-0.44,0.56 -0.74,1.24 -0.83,1.98l-1.1 13.5 8.28 0z"/>
  <path fill="#E6E6E6" fill-rule="nonzero" d="M26.68 50.34l5.19 6.91 -2.13 2.84 -6.61 -8.58 2.17 -1.45c0.46,-0.3 1.08,-0.18 1.38,0.28z"/>
  <ellipse fill="#1179A2" cx="32.14" cy="57.17" rx="0.78" ry="1.15"/>
  <path fill="#E6E6E6" fill-rule="nonzero" d="M39.57 50.34l-5.19 6.91 2.14 2.84 6.61 -8.58 -2.17 -1.45c-0.46,-0.3 -1.08,-0.18 -1.39,0.28z"/>
  <path fill="#4D4D4D" fill-rule="nonzero" d="M44.26 70.51l-0.13 -6.51c0,-0.96 0.35,-1.89 0.98,-2.62l5.5 -6.35c0.44,0.56 0.74,1.24 0.83,1.98l1.1 13.5 -8.28 0z"/>
  <path fill="#4D4D4D" fill-rule="nonzero" d="M51.44 57.01c-0.19,-1.53 -1.24,-2.81 -2.7,-3.3l-6.47 -2.16c-0.75,1.69 -4.2,3.2 -5.57,3.74l0 15.22 7.43 0 0 -5 8.41 5 -1.1 -13.5zm-21.93 -1.74c-1.41,-0.56 -4.78,-2.05 -5.52,-3.72l-6.47 2.16c-1.46,0.49 -2.51,1.77 -2.7,3.3l-1.05 12.6 8.36 -4.1 0 5 7.38 0 0 -15.24z"/>
  <ellipse fill="#1179A2" cx="34.15" cy="57.17" rx="0.78" ry="1.15"/>
  <path fill="#2C8CB3" fill-rule="nonzero" d="M31.24 70.51l0.89 -14.88 2 0 0.92 14.87c-2.49,0 -1.32,0.01 -3.81,0.01z"/>
 </g>
</svg>
