<?xml version="1.0" encoding="UTF-8"?>
<!DOCTYPE svg PUBLIC "-//W3C//DTD SVG 1.0//EN" "http://www.w3.org/TR/2001/REC-SVG-20010904/DTD/svg10.dtd">
<!-- Creator: CorelDRAW 2020 (64 Bit) -->
<svg xmlns="http://www.w3.org/2000/svg" xml:space="preserve" width="339px" height="360px" version="1.0" shape-rendering="geometricPrecision" text-rendering="geometricPrecision" image-rendering="optimizeQuality" fill-rule="evenodd" clip-rule="evenodd"
viewBox="0 0 43.73 46.54"
 xmlns:xlink="http://www.w3.org/1999/xlink"
 xmlns:xodm="http://www.corel.com/coreldraw/odm/2003">
 <g id="Camada_x0020_1">
  <metadata id="CorelCorpID_0Corel-Layer"/>
  <path fill="#E6E6E6" fill-rule="nonzero" d="M33.95 37.63c-0.12,-1.01 -0.82,-1.86 -1.78,-2.18l-4.27 -1.42c-0.62,1.4 -4.05,2.61 -4.05,2.61l-1.32 1.32c0,0 -1.22,0 -1.32,0l-1.32 -1.32c0,0 -3.43,-1.21 -4.06,-2.61l-4.27 1.42c-0.96,0.32 -1.65,1.17 -1.78,2.18l-0.63 5.02 5.46 0.59 0 3.3 14.52 0 0 -3.3 5.53 0 -0.71 -5.61z"/>
  <path fill="#4D4D4D" fill-rule="nonzero" d="M33.95 37.63c-0.12,-1.01 -0.82,-1.86 -1.78,-2.18l-4.27 -1.42c-0.5,1.11 -2.77,2.11 -3.68,2.46l0 10.05 4.91 0 0 -3.3 5.55 3.3 -0.73 -8.91zm-14.47 -1.15c-0.93,-0.37 -3.16,-1.35 -3.65,-2.45l-4.27 1.42c-0.96,0.32 -1.65,1.17 -1.78,2.18l-0.69 8.32 5.52 -2.71 0 3.3 4.87 0 0 -10.06z"/>
  <rect fill="none" width="43.73" height="46.54"/>
  <path fill="#4D4D4D" fill-rule="nonzero" d="M14.52 46.54l0.09 -4.3c0,-0.63 -0.23,-1.25 -0.65,-1.73l-3.63 -4.19c-0.29,0.37 -0.49,0.82 -0.55,1.31l-0.72 8.91 5.46 0z"/>
  <path fill="#CCCCCC" fill-rule="nonzero" d="M17.61 33.23l3.43 4.56 -1.41 1.87 -4.36 -5.66 1.43 -0.96c0.3,-0.2 0.71,-0.12 0.91,0.19z"/>
  <ellipse fill="#C93F44" cx="21.21" cy="38.85" rx="0.51" ry="0.66"/>
  <ellipse fill="#C93F44" cx="22.54" cy="38.85" rx="0.51" ry="0.66"/>
  <path fill="#CCCCCC" fill-rule="nonzero" d="M26.12 33.23l-3.42 4.56 1.4 1.87 4.37 -5.66 -1.43 -0.96c-0.31,-0.2 -0.72,-0.12 -0.92,0.19z"/>
  <path fill="#F23F44" fill-rule="nonzero" d="M20.62 46.54l0.59 -8.58 1.32 0 0.6 8.57c-1.64,0.01 -0.87,0.01 -2.51,0.01z"/>
  <path fill="#4D4D4D" fill-rule="nonzero" d="M29.21 46.54l-0.08 -4.3c0,-0.63 0.23,-1.25 0.64,-1.73l3.63 -4.19c0.3,0.37 0.49,0.82 0.55,1.31l0.73 8.91 -5.47 0z"/>
 </g>
</svg>
