<?xml version="1.0" encoding="UTF-8"?>
<!DOCTYPE svg PUBLIC "-//W3C//DTD SVG 1.0//EN" "http://www.w3.org/TR/2001/REC-SVG-20010904/DTD/svg10.dtd">
<!-- Creator: CorelDRAW 2020 (64 Bit) -->
<svg xmlns="http://www.w3.org/2000/svg" xml:space="preserve" width="339px" height="360px" version="1.0" shape-rendering="geometricPrecision" text-rendering="geometricPrecision" image-rendering="optimizeQuality" fill-rule="evenodd" clip-rule="evenodd"
viewBox="0 0 64.03 68.14"
 xmlns:xlink="http://www.w3.org/1999/xlink"
 xmlns:xodm="http://www.corel.com/coreldraw/odm/2003">
 <g id="Camada_x0020_1">
  <metadata id="CorelCorpID_0Corel-Layer"/>
  <path fill="#FF4F4F" fill-rule="nonzero" d="M49.71 55.09c-0.18,-1.48 -1.2,-2.72 -2.61,-3.19l-6.25 -2.08c-0.91,2.05 -5.94,3.82 -5.94,3.82l-1.93 1.93c0,0.01 -1.78,0 -1.93,0l-1.93 -1.93c0,0 -5.03,-1.77 -5.94,-3.82l-6.25 2.08c-1.41,0.47 -2.43,1.71 -2.61,3.19l-0.92 7.35 7.98 0.86 0 4.83 21.26 0 0 -4.83 8.1 0 -1.03 -8.21z"/>
  <g id="_1774375625424">
   <path fill="#F23F44" fill-rule="nonzero" d="M21.38 64.03l0 -2.18c0,-0.93 -0.33,-1.83 -0.94,-2.54l-5.32 -6.13c-0.43,0.54 -0.71,1.2 -0.8,1.91l-1.01 8.07c1.54,0.1 5.62,0.58 8.07,0.87z"/>
  </g>
  <g id="_1774375626240">
   <path fill="#D6343A" fill-rule="nonzero" d="M21.38 62.76l-7.96 -0.88c-0.31,-0.04 -0.59,0.19 -0.63,0.5l-0.09 0.79c-0.03,0.31 0.19,0.59 0.51,0.63l8.17 0.9 0 -1.94z"/>
  </g>
  <g id="_1774375628544">
   <path fill="#F23F44" fill-rule="nonzero" d="M42.64 64.03l0 -2.18c0,-0.93 0.34,-1.83 0.95,-2.54l5.32 -6.13c0.42,0.54 0.71,1.2 0.8,1.91l1.01 8.07c-1.54,0.1 -5.62,0.58 -8.08,0.87z"/>
  </g>
  <g id="_1774375629936">
   <path fill="#D6343A" fill-rule="nonzero" d="M42.64 62.76l7.97 -0.88c0.31,-0.04 0.59,0.19 0.63,0.5l0.09 0.79c0.03,0.31 -0.19,0.59 -0.51,0.63l-8.18 0.9 0 -1.94z"/>
  </g>
  <g id="_1774375631424">
   <path fill="#F23F44" fill-rule="nonzero" d="M25.79 48.65l3.33 4.99 -2.9 3.86 -3.87 -7.73 2.1 -1.39c0.44,-0.3 1.04,-0.18 1.34,0.27z"/>
  </g>
  <g id="_1774375635600">
   <path fill="#F23F44" fill-rule="nonzero" d="M38.24 48.65l-3.33 4.99 2.9 3.86 3.87 -7.73 -2.1 -1.39c-0.44,-0.3 -1.04,-0.18 -1.34,0.27z"/>
  </g>
  <g id="_1774375639680">
   <path fill="#F23F44" fill-rule="nonzero" d="M32.01 63.3l0 0c-0.53,0 -0.96,-0.43 -0.96,-0.96l0 -6.77 1.93 0 0 6.77c0,0.53 -0.43,0.96 -0.97,0.96z"/>
  </g>
  <rect fill="none" width="64.03" height="68.14"/>
 </g>
</svg>
