<?xml version="1.0" encoding="UTF-8"?>
<!DOCTYPE svg PUBLIC "-//W3C//DTD SVG 1.0//EN" "http://www.w3.org/TR/2001/REC-SVG-20010904/DTD/svg10.dtd">
<!-- Creator: CorelDRAW 2020 (64 Bit) -->
<svg xmlns="http://www.w3.org/2000/svg" xml:space="preserve" width="339px" height="360px" version="1.0" shape-rendering="geometricPrecision" text-rendering="geometricPrecision" image-rendering="optimizeQuality" fill-rule="evenodd" clip-rule="evenodd"
viewBox="0 0 182.44 194.15"
 xmlns:xlink="http://www.w3.org/1999/xlink"
 xmlns:xodm="http://www.corel.com/coreldraw/odm/2003">
 <g id="Camada_x0020_1">
  <metadata id="CorelCorpID_0Corel-Layer"/>
  <g id="_1774365075952">
   <g>
    <path fill="#FFC84A" fill-rule="nonzero" d="M119.53 194.14l0 -13.02 21.55 0 -2.73 -22.13c-0.49,-3.98 -3.2,-7.32 -6.96,-8.59l-12.56 -4.23c-2.19,-0.74 -4.65,0.05 -5.89,2.02 -4.56,7.27 -12.58,12.1 -21.72,12.1 -9.14,0 -17.16,-4.83 -21.72,-12.1 -1.24,-1.97 -3.7,-2.76 -5.89,-2.02l-12.56 4.23c-3.76,1.27 -6.47,4.61 -6.96,8.59l-2.45 19.81 21.27 2.32 0 13.02 56.62 0 0 0 0 0z"/>
   </g>
   <g>
    <path fill="#95B995" fill-rule="nonzero" d="M62.91 183.08l0 -5.89c0,-2.5 -0.89,-4.92 -2.51,-6.82l-14.16 -16.54c-1.14,1.47 -1.91,3.24 -2.15,5.16l-2.68 21.76 21.5 2.33z"/>
   </g>
   <g>
    <path fill="#80A68B" fill-rule="nonzero" d="M62.91 179.66l-21.21 -2.39c-0.83,-0.09 -1.58,0.52 -1.67,1.36l-0.24 2.12c-0.09,0.85 0.51,1.6 1.34,1.7l21.78 2.45 0 -5.24z"/>
   </g>
   <g>
    <path fill="#95B995" fill-rule="nonzero" d="M119.53 183.08l0 -5.89c0,-2.5 0.89,-4.92 2.51,-6.82l14.16 -16.54c1.15,1.47 1.91,3.24 2.15,5.16l2.69 21.76 -21.51 2.33z"/>
   </g>
   <g>
    <path fill="#80A68B" fill-rule="nonzero" d="M119.53 179.66l21.21 -2.39c0.83,-0.09 1.58,0.52 1.67,1.36l0.24 2.12c0.09,0.85 -0.51,1.6 -1.34,1.7l-21.78 2.45 0 -5.24z"/>
   </g>
  </g>
  <rect fill="none" width="182.44" height="194.15"/>
 </g>
</svg>
