<?xml version="1.0" encoding="UTF-8"?>
<!DOCTYPE svg PUBLIC "-//W3C//DTD SVG 1.0//EN" "http://www.w3.org/TR/2001/REC-SVG-20010904/DTD/svg10.dtd">
<!-- Creator: CorelDRAW 2020 (64 Bit) -->
<svg xmlns="http://www.w3.org/2000/svg" xml:space="preserve" width="339px" height="360px" version="1.0" shape-rendering="geometricPrecision" text-rendering="geometricPrecision" image-rendering="optimizeQuality" fill-rule="evenodd" clip-rule="evenodd"
viewBox="0 0 33.69 35.85"
 xmlns:xlink="http://www.w3.org/1999/xlink"
 xmlns:xodm="http://www.corel.com/coreldraw/odm/2003">
 <g id="Camada_x0020_1">
  <metadata id="CorelCorpID_0Corel-Layer"/>
  <path fill="#00858A" fill-rule="nonzero" d="M26.27 34.12l-0.6 -4.56c-0.12,-0.84 -0.63,-1.56 -1.49,-1.99l-2.39 -1.05c-0.26,-0.12 -0.57,0.01 -0.67,0.28 -0.66,1.72 -2.32,2.95 -4.28,2.95 -1.95,0 -3.61,-1.23 -4.27,-2.95 -0.1,-0.27 -0.41,-0.4 -0.67,-0.28l-2.4 1.05c-0.85,0.43 -1.37,1.15 -1.48,1.99l-0.61 4.56c-0.12,0.92 0.59,1.73 1.52,1.73l15.83 0c0.92,0 1.64,-0.81 1.51,-1.73z"/>
  <g id="_1774380858448">
   <path fill="#57B9DD" fill-rule="nonzero" d="M22.68 27.12l-1.83 2.93c-0.28,0.44 -0.77,0.71 -1.29,0.71l-5.43 0c-0.53,0 -1.01,-0.27 -1.29,-0.71l-1.83 -2.93c-0.15,-0.24 -0.46,-0.31 -0.7,-0.17l-1.67 1.01c-0.24,0.14 -0.32,0.46 -0.16,0.7l2.26 3.63 12.21 0 2.26 -3.63c0.15,-0.24 0.08,-0.56 -0.17,-0.7l-1.67 -1.01c-0.23,-0.14 -0.54,-0.07 -0.69,0.17z"/>
  </g>
  <g id="_1774380856192">
   <rect fill="#43A0C5" fill-rule="nonzero" x="10.74" y="32.29" width="12.2" height="3.56"/>
  </g>
  <circle fill="#FFC33D" fill-rule="nonzero" cx="13.54" cy="31.53" r="1.78"/>
  <g id="_1774380861040">
   <path fill="#FF4F4F" fill-rule="nonzero" d="M13.97 30.73c-0.17,0 -0.32,0.06 -0.43,0.17 -0.11,-0.11 -0.26,-0.17 -0.43,-0.17 -0.34,0 -0.61,0.27 -0.61,0.61 0,0.46 0.55,1.02 1.04,1.25 0.49,-0.23 1.04,-0.79 1.04,-1.25 0,-0.34 -0.27,-0.61 -0.61,-0.61z"/>
  </g>
  <rect fill="none" width="33.69" height="35.85"/>
 </g>
</svg>
