<?xml version="1.0" encoding="UTF-8"?>
<!DOCTYPE svg PUBLIC "-//W3C//DTD SVG 1.0//EN" "http://www.w3.org/TR/2001/REC-SVG-20010904/DTD/svg10.dtd">
<!-- Creator: CorelDRAW 2020 (64 Bit) -->
<svg xmlns="http://www.w3.org/2000/svg" xml:space="preserve" width="339px" height="361px" version="1.0" shape-rendering="geometricPrecision" text-rendering="geometricPrecision" image-rendering="optimizeQuality" fill-rule="evenodd" clip-rule="evenodd"
viewBox="0 0 44.15 47"
 xmlns:xlink="http://www.w3.org/1999/xlink"
 xmlns:xodm="http://www.corel.com/coreldraw/odm/2003">
 <g id="Camada_x0020_1">
  <metadata id="CorelCorpID_0Corel-Layer"/>
  <g id="_1774388338784">
   <path fill="#FF4F4F" fill-rule="nonzero" d="M35.11 44.63l-0.87 -6.73c-0.13,-1.02 -0.84,-1.87 -1.81,-2.19l-3.77 -1.23c-0.3,-0.1 -0.63,0.03 -0.78,0.3 -1.11,2.08 -5.57,3.51 -5.82,3.51 -0.26,0.01 -4.73,-1.38 -5.87,-3.45 -0.15,-0.27 -0.48,-0.39 -0.78,-0.29l-3.75 1.27c-0.97,0.33 -1.67,1.19 -1.79,2.2l-0.81 6.75c-0.14,1.19 0.79,2.24 1.99,2.23l22.09 -0.11c1.21,-0.01 2.13,-1.07 1.97,-2.26z"/>
  </g>
  <g id="_1774388337488">
   <path fill="#F23F44" fill-rule="nonzero" d="M10.44 36.64c-0.3,0.38 -0.5,0.83 -0.56,1.32l-0.84 6.74c-0.15,1.19 0.78,2.24 1.98,2.24l3.73 0 0 -4.33c0,-0.64 -0.23,-1.26 -0.65,-1.74l-3.66 -4.23z"/>
  </g>
  <g id="_1774388339792">
   <path fill="#F23F44" fill-rule="nonzero" d="M33.7 36.64c0.29,0.38 0.49,0.83 0.55,1.32l0.84 6.74c0.15,1.19 -0.78,2.24 -1.98,2.24l-3.72 0 0 -4.33c0,-0.64 0.23,-1.26 0.65,-1.74l3.66 -4.23z"/>
  </g>
  <g id="_1774388338928">
   <path fill="#FFC84A" fill-rule="nonzero" d="M22.07 42.29c-2.57,0 -4.66,2.08 -4.66,4.65l9.31 0c0,-2.57 -2.08,-4.65 -4.65,-4.65z"/>
  </g>
  <rect fill="none" width="44.15" height="46.98"/>
 </g>
</svg>
