<?xml version="1.0" encoding="UTF-8"?>
<!DOCTYPE svg PUBLIC "-//W3C//DTD SVG 1.0//EN" "http://www.w3.org/TR/2001/REC-SVG-20010904/DTD/svg10.dtd">
<!-- Creator: CorelDRAW 2020 (64 Bit) -->
<svg xmlns="http://www.w3.org/2000/svg" xml:space="preserve" width="339px" height="360px" version="1.0" shape-rendering="geometricPrecision" text-rendering="geometricPrecision" image-rendering="optimizeQuality" fill-rule="evenodd" clip-rule="evenodd"
viewBox="0 0 64.03 68.14"
 xmlns:xlink="http://www.w3.org/1999/xlink"
 xmlns:xodm="http://www.corel.com/coreldraw/odm/2003">
 <g id="Camada_x0020_1">
  <metadata id="CorelCorpID_0Corel-Layer"/>
  <g id="_1774385065312">
   <g>
    <path fill="#BD445A" fill-rule="nonzero" d="M20.56 57.99l-2.13 -5.39c-0.14,-0.36 0.04,-0.76 0.39,-0.9l2.31 -0.91c0.36,-0.14 0.76,0.04 0.9,0.39l2.12 5.39 -3.59 1.42z"/>
   </g>
  </g>
  <g id="_1774385065024">
   <g>
    <path fill="#BD445A" fill-rule="nonzero" d="M43.47 57.99l2.13 -5.39c0.14,-0.36 -0.04,-0.76 -0.39,-0.9l-2.31 -0.91c-0.36,-0.14 -0.76,0.04 -0.9,0.39l-2.12 5.39 3.59 1.42z"/>
   </g>
  </g>
  <g id="_1774385036368">
   <path fill="#F05467" fill-rule="nonzero" d="M41.68 56.54l-19.33 0c-1.07,0 -1.93,0.86 -1.93,1.93l0 9.66 23.19 0 0 -9.66c0,-1.07 -0.86,-1.93 -1.93,-1.93z"/>
  </g>
  <polygon fill="#FFC84A" fill-rule="nonzero" points="37.81,58.47 32.01,61.37 26.22,58.47 20.42,61.37 20.42,63.3 26.22,60.4 32.01,63.3 37.81,60.4 43.61,63.3 43.61,61.37 "/>
  <polygon fill="#FFA34E" fill-rule="nonzero" points="37.81,62.34 32.01,65.24 26.22,62.34 20.42,65.24 20.42,67.17 26.22,64.27 32.01,67.17 37.81,64.27 43.61,67.17 43.61,65.24 "/>
  <rect fill="none" width="64.03" height="68.14"/>
 </g>
</svg>
