<?xml version="1.0" encoding="UTF-8"?>
<!DOCTYPE svg PUBLIC "-//W3C//DTD SVG 1.0//EN" "http://www.w3.org/TR/2001/REC-SVG-20010904/DTD/svg10.dtd">
<!-- Creator: CorelDRAW 2020 (64 Bit) -->
<svg xmlns="http://www.w3.org/2000/svg" xml:space="preserve" width="339px" height="360px" version="1.0" shape-rendering="geometricPrecision" text-rendering="geometricPrecision" image-rendering="optimizeQuality" fill-rule="evenodd" clip-rule="evenodd"
viewBox="0 0 116.49 123.96"
 xmlns:xlink="http://www.w3.org/1999/xlink"
 xmlns:xodm="http://www.corel.com/coreldraw/odm/2003">
 <g id="Camada_x0020_1">
  <metadata id="CorelCorpID_0Corel-Layer"/>
  <g id="_1774373766784">
   <g>
    <path fill="#F23F44" fill-rule="nonzero" d="M77.58 123.96l0 -8.79 14.72 0 -1.86 -14.94c-0.34,-2.69 -2.19,-4.95 -4.76,-5.8l-8.58 -2.86c-1.49,-0.5 -3.17,0.03 -4.02,1.36 -3.11,4.91 -8.59,8.17 -14.84,8.17 -6.24,0 -11.72,-3.26 -14.84,-8.17 -0.84,-1.33 -2.52,-1.86 -4.02,-1.36l-8.58 2.86c-2.57,0.85 -4.42,3.11 -4.75,5.8l-1.67 13.37 14.52 1.57 0 8.79 38.68 0 0 0z"/>
   </g>
   <g>
    <path fill="#FF4F4F" fill-rule="nonzero" d="M38.9 116.49l0 -3.97c0,-1.7 -0.61,-3.33 -1.71,-4.61l-9.68 -11.17c-0.78,0.99 -1.3,2.19 -1.46,3.49l-1.84 14.69c2.8,0.16 10.24,1.04 14.69,1.57z"/>
   </g>
   <g>
    <path fill="#C93F44" fill-rule="nonzero" d="M38.9 114.18l-14.49 -1.61c-0.56,-0.06 -1.08,0.35 -1.14,0.91l-0.16 1.44c-0.06,0.57 0.35,1.08 0.92,1.14l14.87 1.66 0 -3.54 0 0z"/>
   </g>
   <g>
    <path fill="#FF4F4F" fill-rule="nonzero" d="M77.58 116.49l0 -3.97c0,-1.7 0.61,-3.33 1.72,-4.61l9.67 -11.17c0.78,0.99 1.3,2.19 1.47,3.49l1.83 14.69c-2.79,0.16 -10.23,1.04 -14.69,1.57z"/>
   </g>
   <g>
    <path fill="#C93F44" fill-rule="nonzero" d="M77.58 114.18l14.49 -1.61c0.57,-0.06 1.08,0.35 1.14,0.91l0.16 1.44c0.07,0.57 -0.34,1.08 -0.91,1.14l-14.88 1.66 0 -3.54 0 0z"/>
   </g>
  </g>
  <rect fill="none" width="116.49" height="123.96"/>
 </g>
</svg>
