<?xml version="1.0" encoding="UTF-8"?>
<!DOCTYPE svg PUBLIC "-//W3C//DTD SVG 1.0//EN" "http://www.w3.org/TR/2001/REC-SVG-20010904/DTD/svg10.dtd">
<!-- Creator: CorelDRAW 2020 (64 Bit) -->
<svg xmlns="http://www.w3.org/2000/svg" xml:space="preserve" width="339px" height="360px" version="1.0" shape-rendering="geometricPrecision" text-rendering="geometricPrecision" image-rendering="optimizeQuality" fill-rule="evenodd" clip-rule="evenodd"
viewBox="0 0 644.42 685.76"
 xmlns:xlink="http://www.w3.org/1999/xlink"
 xmlns:xodm="http://www.corel.com/coreldraw/odm/2003">
 <g id="Camada_x0020_1">
  <metadata id="CorelCorpID_0Corel-Layer"/>
  <g id="_1774379391072">
   <path fill="#FFD739" fill-rule="nonzero" d="M429.19 685.74l0 -48.63 81.46 0 -10.34 -82.66c-1.85,-14.87 -12.08,-27.34 -26.3,-32.08l-47.47 -15.83c-8.26,-2.75 -17.56,0.19 -22.23,7.55 -17.24,27.16 -47.54,45.21 -82.1,45.21 -34.55,0 -64.86,-18.05 -82.1,-45.21 -4.67,-7.36 -13.97,-10.3 -22.23,-7.55l-47.48 15.83c-14.21,4.73 -24.44,17.21 -26.3,32.08l-9.25 74 80.38 8.66 0 48.62 213.97 0 0 0.01 -0.01 0z"/>
  </g>
  <g id="_1774379390928">
   <path fill="#FFC33D" fill-rule="nonzero" d="M215.23 644.45l0 -22.01c0,-9.36 -3.38,-18.4 -9.5,-25.48l-53.52 -61.77c-4.32,5.47 -7.21,12.07 -8.11,19.26l-10.15 81.27c15.46,0.93 56.61,5.75 81.28,8.73z"/>
  </g>
  <g id="_1774379393040">
   <path fill="#FFB440" fill-rule="nonzero" d="M215.23 631.64l-80.16 -8.9c-3.15,-0.35 -5.98,1.91 -6.33,5.06l-0.88 7.94c-0.35,3.14 1.91,5.98 5.06,6.32l82.31 9.15 0 -19.57z"/>
  </g>
  <g id="_1774379394960">
   <path fill="#FFC33D" fill-rule="nonzero" d="M429.19 644.45l0 -22.01c0,-9.36 3.38,-18.4 9.5,-25.48l53.52 -61.77c4.32,5.47 7.21,12.07 8.1,19.26l10.16 81.27c-15.46,0.93 -56.61,5.75 -81.28,8.73z"/>
  </g>
  <g id="_1774379393904">
   <path fill="#FFB440" fill-rule="nonzero" d="M429.19 631.64l80.16 -8.9c3.15,-0.35 5.98,1.91 6.33,5.06l0.88 7.94c0.35,3.14 -1.92,5.98 -5.06,6.32l-82.31 9.15 0 -19.57z"/>
  </g>
  <rect fill="none" width="644.42" height="685.76"/>
 </g>
</svg>
