<?xml version="1.0" encoding="UTF-8"?>
<!DOCTYPE svg PUBLIC "-//W3C//DTD SVG 1.0//EN" "http://www.w3.org/TR/2001/REC-SVG-20010904/DTD/svg10.dtd">
<!-- Creator: CorelDRAW 2020 (64 Bit) -->
<svg xmlns="http://www.w3.org/2000/svg" xml:space="preserve" width="339px" height="360px" version="1.0" shape-rendering="geometricPrecision" text-rendering="geometricPrecision" image-rendering="optimizeQuality" fill-rule="evenodd" clip-rule="evenodd"
viewBox="0 0 6.82 7.25"
 xmlns:xlink="http://www.w3.org/1999/xlink"
 xmlns:xodm="http://www.corel.com/coreldraw/odm/2003">
 <g id="Camada_x0020_1">
  <metadata id="CorelCorpID_0Corel-Layer"/>
  <polygon fill="none" points="6.82,7.25 0,7.25 0,0 6.82,0 "/>
  <g id="_2730294570240">
   <path fill="#FFC84A" fill-rule="nonzero" d="M4.91 5.59l-0.22 -0.11c-0.04,-0.02 -0.08,0 -0.09,0.04 -0.14,0.52 -0.62,0.91 -1.19,0.91 -0.57,0 -1.05,-0.39 -1.19,-0.91 -0.01,-0.04 -0.06,-0.06 -0.1,-0.04l-0.2 0.1c-0.17,0.08 -0.27,0.23 -0.3,0.4l-0.12 0.92c-0.02,0.19 0.12,0.35 0.31,0.35l3.2 0c0.19,0 0.33,-0.16 0.31,-0.35l-0.13 -0.92c-0.02,-0.17 -0.12,-0.32 -0.28,-0.39z"/>
  </g>
  <g id="_2730294569376">
   <path fill="#FFB04D" fill-rule="nonzero" d="M1.67 5.83c-0.02,0.04 -0.04,0.1 -0.05,0.15l-0.12 0.92c-0.02,0.19 0.12,0.35 0.31,0.35l0.47 0 0 -0.41c0,-0.13 -0.05,-0.26 -0.13,-0.37l-0.48 -0.64z"/>
  </g>
  <g id="_2730294569904">
   <path fill="#FFB04D" fill-rule="nonzero" d="M5.15 5.83c0.02,0.04 0.04,0.1 0.04,0.15l0.13 0.92c0.02,0.19 -0.12,0.35 -0.31,0.35l-0.47 0 0 -0.41c0,-0.13 0.04,-0.26 0.12,-0.37l0.49 -0.64z"/>
  </g>
  <g id="_2730294571248">
   <path fill="#FFB04D" fill-rule="nonzero" d="M3.41 6.64c0.68,0 1.24,-0.47 1.4,-1.11l-0.12 -0.05c-0.04,-0.02 -0.08,0 -0.09,0.04 -0.14,0.52 -0.62,0.91 -1.19,0.91 -0.57,0 -1.05,-0.39 -1.19,-0.91 -0.01,-0.04 -0.06,-0.06 -0.1,-0.04l-0.11 0.05c0.15,0.64 0.72,1.11 1.4,1.11z"/>
  </g>
  <g id="_2730294569520">
   <path fill="#FFB04D" fill-rule="nonzero" d="M3.41 5.9c-0.41,0 -0.78,-0.22 -0.89,-0.52 -0.02,-0.06 0.01,-0.12 0.06,-0.14 0.05,-0.01 0.11,0.01 0.13,0.07 0.08,0.22 0.37,0.38 0.7,0.38 0.32,0 0.61,-0.16 0.69,-0.38 0.02,-0.06 0.08,-0.08 0.14,-0.06 0.05,0.02 0.08,0.08 0.06,0.13 -0.12,0.31 -0.48,0.52 -0.89,0.52z"/>
  </g>
  <g id="_2730294574128">
   <circle fill="#FFB04D" fill-rule="nonzero" cx="3.41" cy="6" r="0.3"/>
  </g>
  <g id="_2730294573744">
   <circle fill="#FF6473" fill-rule="nonzero" cx="3.41" cy="6" r="0.21"/>
  </g>
  <g id="_2730294574512">
   <path fill="#F05467" fill-rule="nonzero" d="M3.31 6c0,-0.09 0.06,-0.17 0.15,-0.2 -0.02,0 -0.03,0 -0.05,0 -0.12,0 -0.21,0.09 -0.21,0.2 0,0.11 0.09,0.21 0.21,0.21 0.02,0 0.03,-0.01 0.05,-0.01 -0.09,-0.02 -0.15,-0.1 -0.15,-0.2z"/>
  </g>
  <g id="_2730294573168">
   <circle fill="#FFA0B5" fill-rule="nonzero" cx="3.46" cy="5.95" r="0.05"/>
  </g>
 </g>
</svg>
