<?xml version="1.0" encoding="UTF-8"?>
<!DOCTYPE svg PUBLIC "-//W3C//DTD SVG 1.0//EN" "http://www.w3.org/TR/2001/REC-SVG-20010904/DTD/svg10.dtd">
<!-- Creator: CorelDRAW 2020 (64 Bit) -->
<svg xmlns="http://www.w3.org/2000/svg" xml:space="preserve" width="339px" height="360px" version="1.0" shape-rendering="geometricPrecision" text-rendering="geometricPrecision" image-rendering="optimizeQuality" fill-rule="evenodd" clip-rule="evenodd"
viewBox="0 0 182.44 194.15"
 xmlns:xlink="http://www.w3.org/1999/xlink"
 xmlns:xodm="http://www.corel.com/coreldraw/odm/2003">
 <g id="Camada_x0020_1">
  <metadata id="CorelCorpID_0Corel-Layer"/>
  <g id="_1774379390976">
   <path fill="#95B995" fill-rule="nonzero" d="M121.51 194.14l15.42 0c4.97,0 8.82,-4.36 8.2,-9.29l-0.56 -4.48 -2.93 -23.4c-0.52,-4.21 -3.42,-7.74 -7.44,-9.08l-17.81 -5.94c-1.97,4.43 -13.57,13.64 -25.17,13.64 -11.6,0 -23.2,-9.21 -25.17,-13.64l-17.81 5.94c-4.02,1.34 -6.92,4.87 -7.44,9.08l-2.62 20.95 -0.87 6.93c-0.61,4.93 3.23,9.29 8.2,9.29l15.42 0 60.58 0 0 0z"/>
   <polygon fill="#95B995" fill-rule="nonzero" points="88.47,147.33 91.22,155.59 82.11,155.8 "/>
   <polygon fill="#95B995" fill-rule="nonzero" points="93.97,147.33 91.22,155.59 100.33,155.8 "/>
   <path fill="#79A67C" fill-rule="nonzero" d="M88.47 147.33l-6.36 8.47c-1,1.34 -2.96,1.48 -4.15,0.3l-14.27 -14.28 6.48 -6.48c1.01,-1.01 2.61,-1.08 3.71,-0.17l14.59 12.16z"/>
   <path fill="#79A67C" fill-rule="nonzero" d="M93.97 147.33l6.36 8.47c1.01,1.34 2.97,1.48 4.15,0.3l14.28 -14.28 -6.49 -6.48c-1,-1.01 -2.61,-1.08 -3.71,-0.17l-14.59 12.16z"/>
   <polygon fill="#79A67C" fill-rule="nonzero" points="93.97,147.33 91.22,155.59 88.47,147.33 88.47,194.14 93.97,194.14 "/>
   <path fill="#79A67C" fill-rule="nonzero" d="M43.09 151.52c-1.22,1.54 -2.04,3.41 -2.29,5.45l-3.49 27.88c-0.61,4.93 3.23,9.29 8.2,9.29l15.42 0 0 -17.92c0,-2.65 -0.95,-5.21 -2.69,-7.21l-15.15 -17.49z"/>
   <path fill="#79A67C" fill-rule="nonzero" d="M139.35 151.52c1.22,1.54 2.04,3.41 2.29,5.45l3.49 27.88c0.62,4.93 -3.23,9.29 -8.2,9.29l-15.42 0 0 -17.92c0,-2.65 0.95,-5.21 2.69,-7.21l15.15 -17.49z"/>
  </g>
  <rect fill="none" width="182.44" height="194.15"/>
 </g>
</svg>
