<?xml version="1.0" encoding="UTF-8"?>
<!DOCTYPE svg PUBLIC "-//W3C//DTD SVG 1.0//EN" "http://www.w3.org/TR/2001/REC-SVG-20010904/DTD/svg10.dtd">
<!-- Creator: CorelDRAW 2020 (64 Bit) -->
<svg xmlns="http://www.w3.org/2000/svg" xml:space="preserve" width="339px" height="360px" version="1.0" shape-rendering="geometricPrecision" text-rendering="geometricPrecision" image-rendering="optimizeQuality" fill-rule="evenodd" clip-rule="evenodd"
viewBox="0 0 33.69 35.85"
 xmlns:xlink="http://www.w3.org/1999/xlink"
 xmlns:xodm="http://www.corel.com/coreldraw/odm/2003">
 <g id="Camada_x0020_1">
  <metadata id="CorelCorpID_0Corel-Layer"/>
  <g id="_1774379362944">
   <path fill="#FF6473" fill-rule="nonzero" d="M22.44 35.85l0 -2.54 4.26 0 -0.55 -4.32c-0.09,-0.78 -0.63,-1.43 -1.37,-1.68l-2.48 -0.83c-0.43,-0.14 -0.92,0.01 -1.16,0.4 -0.91,1.42 -2.49,2.36 -4.3,2.36 -1.8,0 -3.39,-0.94 -4.29,-2.36 -0.24,-0.39 -0.73,-0.54 -1.16,-0.4l-2.48 0.83c-0.74,0.25 -1.28,0.9 -1.38,1.68l-0.48 3.86 4.2 0.01 0 2.99 11.19 0z"/>
  </g>
  <g id="_1774379365968">
   <path fill="#F05467" fill-rule="nonzero" d="M11.25 33.69l0 -1.15c0,-0.49 -0.17,-0.96 -0.5,-1.33l-2.79 -3.23c-0.23,0.28 -0.38,0.63 -0.43,1.01l-0.53 4.24c0.81,0.05 2.96,0.3 4.25,0.46z"/>
  </g>
  <g id="_1774379371440">
   <path fill="#BD445A" fill-rule="nonzero" d="M11.25 33.02l-4.19 -0.47c-0.16,-0.01 -0.31,0.11 -0.33,0.27l-0.05 0.41c-0.01,0.17 0.1,0.32 0.27,0.34l4.3 0.47 0 -1.02z"/>
  </g>
  <g id="_1774379371920">
   <path fill="#F05467" fill-rule="nonzero" d="M22.44 33.69l0 -1.15c0,-0.49 0.17,-0.96 0.49,-1.33l2.8 -3.23c0.23,0.28 0.38,0.63 0.42,1.01l0.54 4.24c-0.81,0.05 -2.96,0.3 -4.25,0.46z"/>
  </g>
  <g id="_1774379372880">
   <path fill="#BD445A" fill-rule="nonzero" d="M22.44 33.02l4.19 -0.47c0.16,-0.01 0.31,0.11 0.33,0.27l0.04 0.41c0.02,0.17 -0.1,0.32 -0.26,0.34l-4.3 0.47 0 -1.02z"/>
  </g>
  <rect fill="none" width="33.69" height="35.85"/>
 </g>
</svg>
