<?xml version="1.0" encoding="UTF-8"?>
<!DOCTYPE svg PUBLIC "-//W3C//DTD SVG 1.0//EN" "http://www.w3.org/TR/2001/REC-SVG-20010904/DTD/svg10.dtd">
<!-- Creator: CorelDRAW 2020 (64 Bit) -->
<svg xmlns="http://www.w3.org/2000/svg" xml:space="preserve" width="339px" height="360px" version="1.0" shape-rendering="geometricPrecision" text-rendering="geometricPrecision" image-rendering="optimizeQuality" fill-rule="evenodd" clip-rule="evenodd"
viewBox="0 0 44.15 46.98"
 xmlns:xlink="http://www.w3.org/1999/xlink"
 xmlns:xodm="http://www.corel.com/coreldraw/odm/2003">
 <g id="Camada_x0020_1">
  <metadata id="CorelCorpID_0Corel-Layer"/>
  <path fill="#FFC85C" fill-rule="nonzero" d="M29.72 35.54l-0.51 0.82c-1.54,2.46 -4.23,3.96 -7.14,3.96l0 0c-2.9,0 -5.59,-1.5 -7.13,-3.96l-0.51 -0.82c-0.2,-0.31 -0.6,-0.4 -0.91,-0.22l-2.19 1.32c-0.32,0.19 -0.42,0.6 -0.22,0.92l2.97 4.76 15.99 0 2.97 -4.76c0.2,-0.32 0.1,-0.73 -0.22,-0.92l-2.19 -1.32c-0.31,-0.18 -0.71,-0.09 -0.91,0.22z"/>
  <path fill="#FFA64E" fill-rule="nonzero" d="M32.4 36.38l-1.14 -0.68 -3.16 5.05c-0.61,0.97 -1.68,1.57 -2.83,1.57l-6.39 0c-1.15,0 -2.22,-0.6 -2.83,-1.57l-3.16 -5.05 -1.14 0.68 3.07 4.92c0.28,0.44 -0.04,1.02 -0.56,1.02l-0.18 0 0 4.66 15.99 0 0 -4.66 -0.18 0c-0.52,0 -0.84,-0.58 -0.56,-1.02l3.07 -4.92z"/>
  <rect fill="none" width="44.15" height="46.98"/>
 </g>
</svg>
