<?xml version="1.0" encoding="UTF-8"?>
<!DOCTYPE svg PUBLIC "-//W3C//DTD SVG 1.0//EN" "http://www.w3.org/TR/2001/REC-SVG-20010904/DTD/svg10.dtd">
<!-- Creator: CorelDRAW 2020 (64 Bit) -->
<svg xmlns="http://www.w3.org/2000/svg" xml:space="preserve" width="339px" height="360px" version="1.0" shape-rendering="geometricPrecision" text-rendering="geometricPrecision" image-rendering="optimizeQuality" fill-rule="evenodd" clip-rule="evenodd"
viewBox="0 0 64.03 68.14"
 xmlns:xlink="http://www.w3.org/1999/xlink"
 xmlns:xodm="http://www.corel.com/coreldraw/odm/2003">
 <g id="Camada_x0020_1">
  <metadata id="CorelCorpID_0Corel-Layer"/>
  <g id="_1774357600640">
   <path fill="#4F6E7F" fill-rule="nonzero" d="M49.71 55.09c-0.18,-1.48 -1.2,-2.72 -2.61,-3.19l-5.43 -1.81c-0.46,-0.15 -0.97,0.06 -1.17,0.51 -1.35,2.89 -3.24,6.04 -8.49,9.8 -5.24,-3.76 -7.13,-6.91 -8.48,-9.8 -0.2,-0.45 -0.71,-0.66 -1.17,-0.51l-5.43 1.81c-1.41,0.47 -2.43,1.71 -2.61,3.19l-0.92 7.35 7.98 0.86 0 4.83 21.26 0 0 -4.83 7.99 -0.86 -0.92 -7.35z"/>
  </g>
  <g id="_1774357601312">
   <path fill="#33546A" fill-rule="nonzero" d="M21.38 64.03l0 -2.18c0,-0.93 -0.33,-1.83 -0.94,-2.54l-5.32 -6.13c-0.43,0.54 -0.71,1.2 -0.8,1.91l-1.01 8.07c1.54,0.1 5.62,0.58 8.07,0.87z"/>
  </g>
  <g id="_1774357599728">
   <path fill="#4F6E7F" fill-rule="nonzero" d="M21.38 62.76l-7.96 -0.89c-0.31,-0.03 -0.59,0.2 -0.63,0.51l-0.09 0.79c-0.03,0.31 0.19,0.59 0.51,0.63l8.17 0.9 0 -1.94z"/>
  </g>
  <g id="_1774357603856">
   <path fill="#33546A" fill-rule="nonzero" d="M42.64 64.03l0 -2.18c0,-0.93 0.34,-1.83 0.95,-2.54l5.32 -6.13c0.42,0.54 0.71,1.2 0.8,1.91l1.01 8.07c-1.54,0.1 -5.62,0.58 -8.08,0.87z"/>
  </g>
  <g id="_1774357603712">
   <path fill="#4F6E7F" fill-rule="nonzero" d="M42.64 62.76l7.97 -0.89c0.31,-0.03 0.59,0.2 0.63,0.51l0.09 0.79c0.03,0.31 -0.19,0.59 -0.51,0.63l-8.18 0.9 0 -1.94z"/>
  </g>
  <rect fill="none" width="64.03" height="68.14"/>
 </g>
</svg>
