<?xml version="1.0" encoding="UTF-8"?>
<!DOCTYPE svg PUBLIC "-//W3C//DTD SVG 1.0//EN" "http://www.w3.org/TR/2001/REC-SVG-20010904/DTD/svg10.dtd">
<!-- Creator: CorelDRAW 2020 (64 Bit) -->
<svg xmlns="http://www.w3.org/2000/svg" xml:space="preserve" width="339px" height="360px" version="1.0" shape-rendering="geometricPrecision" text-rendering="geometricPrecision" image-rendering="optimizeQuality" fill-rule="evenodd" clip-rule="evenodd"
viewBox="0 0 116.49 123.96"
 xmlns:xlink="http://www.w3.org/1999/xlink"
 xmlns:xodm="http://www.corel.com/coreldraw/odm/2003">
 <g id="Camada_x0020_1">
  <metadata id="CorelCorpID_0Corel-Layer"/>
  <path fill="#0087B1" fill-rule="nonzero" d="M73.22 92.1c-2.11,6.25 -8.01,10.76 -14.98,10.76 -6.96,0 -12.86,-4.51 -14.98,-10.76l-7.64 2.83c3.27,9.35 12.16,16.06 22.62,16.06 10.48,0 19.39,-6.73 22.64,-16.11l-7.66 -2.78z"/>
  <path fill="#8DB9E2" fill-rule="nonzero" d="M90.85 117.98l-2.09 -15.7c-0.39,-2.93 -2.23,-5.47 -4.9,-6.76l-6.78 -3.27c-0.68,-0.32 -1.48,-0.01 -1.79,0.69 -4.45,10.07 -12.07,14.75 -17.05,16.95 -4.98,-2.2 -12.6,-6.88 -17.04,-16.95 -0.31,-0.7 -1.11,-1.01 -1.79,-0.69l-6.79 3.27c-2.66,1.29 -4.5,3.83 -4.89,6.76l-2.09 15.7c-0.43,3.16 2.03,5.97 5.22,5.97l54.76 0c3.19,0 5.65,-2.81 5.23,-5.97z"/>
  <path fill="#00A1B4" fill-rule="nonzero" d="M59.36 112.28c8.5,-4 15,-10.72 18.92,-19.44l-1.2 -0.59c-0.68,-0.32 -1.48,-0.01 -1.79,0.69 -4.45,10.07 -12.07,14.75 -17.05,16.95 -4.98,-2.2 -12.6,-6.88 -17.04,-16.95 -0.31,-0.7 -1.11,-1.01 -1.79,-0.69l-1.21 0.59c3.93,8.72 10.43,15.44 18.92,19.44l1.12 0.52 1.12 -0.52z"/>
  <path fill="#00A1B4" fill-rule="nonzero" d="M38.9 116.42c0,-1.95 -0.65,-3.85 -1.85,-5.4l-8.64 -11.11c-0.33,0.75 -0.57,1.54 -0.68,2.37l-2.09 15.7c-0.43,3.16 2.03,5.97 5.22,5.97l8.04 0 0 -7.53z"/>
  <path fill="#00A1B4" fill-rule="nonzero" d="M77.58 116.42c0,-1.95 0.65,-3.85 1.85,-5.4l8.65 -11.11c0.33,0.75 0.57,1.54 0.68,2.37l2.09 15.7c0.42,3.16 -2.04,5.97 -5.23,5.97l-8.04 0 0 -7.53z"/>
  <rect fill="none" width="116.49" height="123.96"/>
 </g>
</svg>
