<?xml version="1.0" encoding="UTF-8"?>
<!DOCTYPE svg PUBLIC "-//W3C//DTD SVG 1.0//EN" "http://www.w3.org/TR/2001/REC-SVG-20010904/DTD/svg10.dtd">
<!-- Creator: CorelDRAW 2020 (64 Bit) -->
<svg xmlns="http://www.w3.org/2000/svg" xml:space="preserve" width="339px" height="360px" version="1.0" shape-rendering="geometricPrecision" text-rendering="geometricPrecision" image-rendering="optimizeQuality" fill-rule="evenodd" clip-rule="evenodd"
viewBox="0 0 644.42 685.76"
 xmlns:xlink="http://www.w3.org/1999/xlink"
 xmlns:xodm="http://www.corel.com/coreldraw/odm/2003">
 <g id="Camada_x0020_1">
  <metadata id="CorelCorpID_0Corel-Layer"/>
  <g id="_1774399659712">
   <path fill="#8DB9E2" fill-rule="nonzero" d="M499.21 623.65l-7.77 -58.26c-2.13,-15.98 -12.04,-29.86 -26.45,-37.07l-20.95 -10.47c-3.55,-1.78 -7.7,0.26 -8.74,4.09 -13.48,49.55 -58.78,85.99 -112.6,85.99 -53.84,0 -99.15,-36.46 -112.63,-86.03 -1.03,-3.81 -5.15,-5.84 -8.68,-4.07l-19.11 9.55c-16.3,8.15 -26.2,22.03 -28.33,38.01l-7.92 59.37c25.7,8.85 69.68,22.07 69.68,22.07l0 38.9 213.97 0 0 -38.9 69.53 -23.18z"/>
  </g>
  <g id="_1774399661152">
   <path fill="#6AA2DE" fill-rule="nonzero" d="M215.47 643.86c-0.59,-11.57 -4.45,-22.74 -11.43,-32.04l-45.66 -60.88c-2.2,4.54 -3.75,9.37 -4.43,14.45l-7.71 57.82 69.23 20.65z"/>
  </g>
  <g id="_1774399659328">
   <path fill="#4E87BB" fill-rule="nonzero" d="M138.65 624.94c-0.99,3.4 0.96,6.96 4.36,7.95l72.7 21.21 0 -7.27c0,-4.59 -0.72,-9.09 -1.78,-13.51l-65.47 -19.1c-3.4,-0.99 -6.96,0.96 -7.96,4.36l-1.85 6.36z"/>
  </g>
  <g id="_1774399663408">
   <path fill="#6AA2DE" fill-rule="nonzero" d="M429.92 643.86c0.6,-11.57 4.46,-22.74 11.43,-32.04l45.66 -60.88c2.2,4.54 3.75,9.37 4.43,14.45l7.71 57.82 -69.23 20.65z"/>
  </g>
  <g id="_1774399662064">
   <path fill="#4E87BB" fill-rule="nonzero" d="M506.74 624.94c1,3.4 -0.96,6.96 -4.36,7.95l-72.7 21.21 0 -7.27c0,-4.59 0.72,-9.09 1.78,-13.51l65.47 -19.1c3.4,-0.99 6.97,0.96 7.96,4.36l1.85 6.36z"/>
  </g>
  <g id="_1774399667152">
   <circle fill="#FF8C51" fill-rule="nonzero" cx="322.21" cy="666.28" r="9.73"/>
  </g>
  <g id="_1774399665568">
   <circle fill="#FF8C51" fill-rule="nonzero" cx="244.4" cy="666.28" r="9.73"/>
  </g>
  <g id="_1774399665232">
   <circle fill="#FF8C51" fill-rule="nonzero" cx="400.02" cy="666.28" r="9.73"/>
  </g>
  <g id="_1774399668496">
   <circle fill="#FFC84A" fill-rule="nonzero" cx="361.11" cy="666.28" r="9.73"/>
  </g>
  <g id="_1774399669792">
   <circle fill="#FFC84A" fill-rule="nonzero" cx="283.31" cy="666.28" r="9.73"/>
  </g>
  <g id="_1774399667536">
   <circle fill="#FFC84A" fill-rule="nonzero" cx="341.66" cy="637.1" r="9.73"/>
  </g>
  <g id="_1774399668640">
   <circle fill="#FFC84A" fill-rule="nonzero" cx="263.85" cy="637.1" r="9.73"/>
  </g>
  <g id="_1774399667344">
   <circle fill="#FFC84A" fill-rule="nonzero" cx="419.47" cy="637.1" r="9.73"/>
  </g>
  <g id="_1774399674016">
   <circle fill="#FF8C51" fill-rule="nonzero" cx="224.95" cy="637.1" r="9.73"/>
  </g>
  <g id="_1774399676512">
   <circle fill="#FF8C51" fill-rule="nonzero" cx="380.57" cy="637.1" r="9.73"/>
  </g>
  <g id="_1774399677424">
   <circle fill="#FF8C51" fill-rule="nonzero" cx="302.76" cy="637.1" r="9.73"/>
  </g>
  <rect fill="none" width="644.42" height="685.76"/>
 </g>
</svg>
