<?xml version="1.0" encoding="UTF-8"?>
<!DOCTYPE svg PUBLIC "-//W3C//DTD SVG 1.0//EN" "http://www.w3.org/TR/2001/REC-SVG-20010904/DTD/svg10.dtd">
<!-- Creator: CorelDRAW 2020 (64 Bit) -->
<svg xmlns="http://www.w3.org/2000/svg" xml:space="preserve" width="339px" height="360px" version="1.0" shape-rendering="geometricPrecision" text-rendering="geometricPrecision" image-rendering="optimizeQuality" fill-rule="evenodd" clip-rule="evenodd"
viewBox="0 0 182.44 194.15"
 xmlns:xlink="http://www.w3.org/1999/xlink"
 xmlns:xodm="http://www.corel.com/coreldraw/odm/2003">
 <g id="Camada_x0020_1">
  <metadata id="CorelCorpID_0Corel-Layer"/>
  <g id="_1774391626496">
   <g>
    <path fill="#FFA64E" fill-rule="nonzero" d="M142.14 155.88c-1.03,-3.34 -3.69,-6.03 -7.19,-7.15l-11.03 -3.55c-1.44,-0.46 -3.03,0.26 -3.51,1.65 -4.1,11.78 -15.6,20.27 -29.19,20.27 -13.59,0 -25.09,-8.49 -29.19,-20.27 -0.48,-1.39 -2.07,-2.11 -3.51,-1.65l-11.03 3.55c-3.5,1.12 -6.15,3.81 -7.19,7.15 -0.32,1.01 0.02,2.11 0.83,2.81l15.51 13.3c2.39,2.05 3.76,4.99 3.76,8.08l0 14.07 61.64 0 0 -14.07c0,-3.09 1.37,-6.03 3.76,-8.08l15.51 -13.3c0.82,-0.7 1.15,-1.8 0.83,-2.81z"/>
   </g>
   <g>
    <path fill="#FFC84A" fill-rule="nonzero" d="M123.92 145.18c-1.44,-0.46 -3.02,0.26 -3.51,1.65 -4.1,11.78 -15.6,20.27 -29.19,20.27 -13.59,0 -25.09,-8.49 -29.19,-20.27 -0.48,-1.39 -2.07,-2.11 -3.51,-1.65l-2.57 0.83c4,15.22 18.25,26.5 35.27,26.5 17.02,0 31.27,-11.28 35.27,-26.5l-2.57 -0.83z"/>
   </g>
  </g>
  <rect fill="none" width="182.44" height="194.15"/>
 </g>
</svg>
