<?xml version="1.0" encoding="UTF-8"?>
<!DOCTYPE svg PUBLIC "-//W3C//DTD SVG 1.0//EN" "http://www.w3.org/TR/2001/REC-SVG-20010904/DTD/svg10.dtd">
<!-- Creator: CorelDRAW 2020 (64 Bit) -->
<svg xmlns="http://www.w3.org/2000/svg" xml:space="preserve" width="339px" height="360px" version="1.0" shape-rendering="geometricPrecision" text-rendering="geometricPrecision" image-rendering="optimizeQuality" fill-rule="evenodd" clip-rule="evenodd"
viewBox="0 0 33.69 35.85"
 xmlns:xlink="http://www.w3.org/1999/xlink"
 xmlns:xodm="http://www.corel.com/coreldraw/odm/2003">
 <g id="Camada_x0020_1">
  <metadata id="CorelCorpID_0Corel-Layer"/>
  <path fill="#FF8C51" fill-rule="nonzero" d="M16.84 28.73c-1.64,0 -3.16,-0.51 -4.41,-1.38l0 0c0,2.13 1.73,3.86 3.86,3.86l1.11 0c2.13,0 3.86,-1.73 3.86,-3.86l0 0c-1.25,0.87 -2.77,1.38 -4.42,1.38z"/>
  <path fill="#4F6E7F" fill-rule="nonzero" d="M26.8 34.13l-0.64 -5.14c-0.1,-0.78 -0.64,-1.43 -1.38,-1.68l-2.78 -0.93c-0.27,-0.09 -0.56,0.05 -0.64,0.32 -0.26,0.8 -0.64,1.57 -1.09,2.26 -1.58,2.52 -5.27,2.52 -6.86,0 -0.44,-0.69 -0.82,-1.46 -1.08,-2.26 -0.08,-0.27 -0.37,-0.41 -0.64,-0.32l-2.78 0.93c-0.75,0.25 -1.28,0.9 -1.38,1.68l-0.64 5.14c-0.11,0.91 0.6,1.72 1.51,1.72l16.88 0c0.92,0 1.63,-0.81 1.52,-1.72z"/>
  <path fill="#33546A" fill-rule="nonzero" d="M7.96 27.98c-0.23,0.28 -0.38,0.63 -0.43,1.01l-0.64 5.14c-0.11,0.91 0.6,1.72 1.51,1.72l2.85 0 0 -3.31c0,-0.49 -0.17,-0.96 -0.5,-1.33l-2.79 -3.23z"/>
  <path fill="#33546A" fill-rule="nonzero" d="M25.73 27.98c0.23,0.28 0.38,0.63 0.43,1.01l0.64 5.14c0.11,0.91 -0.6,1.72 -1.51,1.72l-2.85 0 0 -3.31c0,-0.49 0.17,-0.96 0.49,-1.33l2.8 -3.23z"/>
  <rect fill="none" width="33.69" height="35.85"/>
 </g>
</svg>
