<?xml version="1.0" encoding="UTF-8"?>
<!DOCTYPE svg PUBLIC "-//W3C//DTD SVG 1.0//EN" "http://www.w3.org/TR/2001/REC-SVG-20010904/DTD/svg10.dtd">
<!-- Creator: CorelDRAW 2020 (64 Bit) -->
<svg xmlns="http://www.w3.org/2000/svg" xml:space="preserve" width="339px" height="360px" version="1.0" shape-rendering="geometricPrecision" text-rendering="geometricPrecision" image-rendering="optimizeQuality" fill-rule="evenodd" clip-rule="evenodd"
viewBox="0 0 44.15 46.98"
 xmlns:xlink="http://www.w3.org/1999/xlink"
 xmlns:xodm="http://www.corel.com/coreldraw/odm/2003">
 <g id="Camada_x0020_1">
  <metadata id="CorelCorpID_0Corel-Layer"/>
  <g id="_1774368292160">
   <path fill="#4F6E7F" fill-rule="nonzero" d="M27.93 34.92l-0.96 4.17c-0.53,2.28 -2.55,3.89 -4.89,3.89l-0.01 0c-2.34,0 -4.37,-1.61 -4.89,-3.89l-0.96 -4.17c-0.08,-0.33 -0.41,-0.53 -0.74,-0.45l-1.58 0.39c-0.28,0.07 -0.48,0.34 -0.46,0.62l0.64 11.5 15.99 0 0.64 -11.5c0.01,-0.28 -0.18,-0.55 -0.46,-0.62l-1.58 -0.39c-0.33,-0.08 -0.66,0.12 -0.74,0.45z"/>
  </g>
  <g id="_1774368290528">
   <g>
    <circle fill="#FF4F4F" fill-rule="nonzero" cx="16.41" cy="43.31" r="1.67"/>
   </g>
   <g>
    <path fill="#F23F44" fill-rule="nonzero" d="M15.86 43.31c0,-0.72 0.46,-1.33 1.11,-1.56 -0.18,-0.06 -0.36,-0.1 -0.56,-0.1 -0.92,0 -1.67,0.74 -1.67,1.66 0,0.92 0.75,1.67 1.67,1.67 0.2,0 0.38,-0.04 0.56,-0.1 -0.65,-0.23 -1.11,-0.84 -1.11,-1.57z"/>
   </g>
  </g>
  <g id="_1774368292832">
   <g>
    <circle fill="#FFC84A" fill-rule="nonzero" cx="20.07" cy="44.98" r="1.33"/>
   </g>
   <g>
    <path fill="#FFAC4D" fill-rule="nonzero" d="M19.63 44.98c0,-0.58 0.37,-1.07 0.89,-1.25 -0.14,-0.05 -0.29,-0.08 -0.45,-0.08 -0.73,0 -1.33,0.6 -1.33,1.33 0,0.74 0.6,1.33 1.33,1.33 0.16,0 0.31,-0.03 0.45,-0.08 -0.52,-0.18 -0.89,-0.67 -0.89,-1.25z"/>
   </g>
  </g>
  <g id="_1774368293840">
   <g>
    <circle fill="#9BCE7A" fill-rule="nonzero" cx="28.07" cy="42.98" r="1.33"/>
   </g>
   <g>
    <path fill="#8ABE69" fill-rule="nonzero" d="M27.63 42.98c0,-0.58 0.37,-1.06 0.88,-1.25 -0.13,-0.05 -0.28,-0.08 -0.44,-0.08 -0.74,0 -1.33,0.6 -1.33,1.33 0,0.74 0.59,1.33 1.33,1.33 0.16,0 0.31,-0.03 0.44,-0.08 -0.51,-0.18 -0.88,-0.67 -0.88,-1.25z"/>
   </g>
  </g>
  <rect fill="none" width="44.15" height="46.98"/>
 </g>
</svg>
