<?xml version="1.0" encoding="UTF-8"?>
<!DOCTYPE svg PUBLIC "-//W3C//DTD SVG 1.0//EN" "http://www.w3.org/TR/2001/REC-SVG-20010904/DTD/svg10.dtd">
<!-- Creator: CorelDRAW 2020 (64 Bit) -->
<svg xmlns="http://www.w3.org/2000/svg" xml:space="preserve" width="339px" height="360px" version="1.0" shape-rendering="geometricPrecision" text-rendering="geometricPrecision" image-rendering="optimizeQuality" fill-rule="evenodd" clip-rule="evenodd"
viewBox="0 0 116.49 123.96"
 xmlns:xlink="http://www.w3.org/1999/xlink"
 xmlns:xodm="http://www.corel.com/coreldraw/odm/2003">
 <g id="Camada_x0020_1">
  <metadata id="CorelCorpID_0Corel-Layer"/>
  <path fill="#FFA64E" fill-rule="nonzero" d="M90.15 112.73l-1.4 -10.53c-0.39,-2.89 -2.18,-5.4 -4.79,-6.7l-3.78 -1.89c-0.64,-0.32 -1.39,0.04 -1.58,0.74 -2.44,8.95 -10.63,15.54 -20.36,15.54 -9.73,0 -17.92,-6.59 -20.35,-15.55 -0.19,-0.69 -0.94,-1.06 -1.58,-0.74l-3.45 1.73c-2.95,1.47 -4.73,3.98 -5.12,6.87l-1.43 10.73c4.64,1.6 12.59,3.99 12.59,3.99l0 7.03 38.68 0 0 -7.03 12.57 -4.19z"/>
  <path fill="#FF8C51" fill-rule="nonzero" d="M38.86 116.38c-0.11,-2.09 -0.8,-4.11 -2.07,-5.79l-8.25 -11c-0.4,0.82 -0.68,1.69 -0.8,2.61l-1.39 10.45 12.51 3.73z"/>
  <path fill="#F77447" fill-rule="nonzero" d="M24.97 112.96c-0.18,0.62 0.18,1.26 0.79,1.44l13.14 3.84 0 -1.32c0,-0.83 -0.13,-1.64 -0.32,-2.44l-11.83 -3.45c-0.62,-0.18 -1.26,0.17 -1.44,0.79l-0.34 1.14z"/>
  <path fill="#FF8C51" fill-rule="nonzero" d="M77.62 116.38c0.11,-2.09 0.81,-4.11 2.07,-5.79l8.25 -11c0.4,0.82 0.68,1.69 0.81,2.61l1.39 10.45 -12.52 3.73z"/>
  <path fill="#F77447" fill-rule="nonzero" d="M91.51 112.96c0.18,0.62 -0.17,1.26 -0.79,1.44l-13.14 3.84 0 -1.32c0,-0.83 0.13,-1.64 0.32,-2.44l11.84 -3.45c0.61,-0.18 1.26,0.17 1.44,0.79l0.33 1.14z"/>
  <rect fill="none" width="116.49" height="123.96"/>
 </g>
</svg>
