<?xml version="1.0" encoding="UTF-8"?>
<!DOCTYPE svg PUBLIC "-//W3C//DTD SVG 1.0//EN" "http://www.w3.org/TR/2001/REC-SVG-20010904/DTD/svg10.dtd">
<!-- Creator: CorelDRAW 2020 (64 Bit) -->
<svg xmlns="http://www.w3.org/2000/svg" xml:space="preserve" width="339px" height="360px" version="1.0" shape-rendering="geometricPrecision" text-rendering="geometricPrecision" image-rendering="optimizeQuality" fill-rule="evenodd" clip-rule="evenodd"
viewBox="0 0 7.1 7.56"
 xmlns:xlink="http://www.w3.org/1999/xlink"
 xmlns:xodm="http://www.corel.com/coreldraw/odm/2003">
 <g id="Camada_x0020_1">
  <metadata id="CorelCorpID_0Corel-Layer"/>
  <rect fill="none" width="7.1" height="7.56"/>
  <g id="_2730281486224">
   <path fill="#9BCE7A" fill-rule="nonzero" d="M5.41 6.23c-0.02,-0.18 -0.13,-0.33 -0.31,-0.42l-0.21 -0.1c-0.04,-0.02 -0.07,0.01 -0.1,0.04 -0.57,0.66 -1.24,0.95 -1.24,0.95l0 0 0 0c0,0 -0.67,-0.29 -1.24,-0.95 -0.03,-0.03 -0.06,-0.06 -0.1,-0.04l-0.21 0.1c-0.18,0.09 -0.29,0.24 -0.31,0.42l-0.09 0.65c0.29,0.1 0.77,0.25 0.77,0.25l0 0.43 2.36 0 0 -0.43c0,0 0.48,-0.15 0.77,-0.25l-0.09 -0.65z"/>
  </g>
  <g id="_2730281488288">
   <path fill="#8ABE69" fill-rule="nonzero" d="M2.37 7.09c-0.01,-0.12 -0.05,-0.25 -0.13,-0.35l-0.5 -0.67c-0.02,0.05 -0.04,0.1 -0.05,0.16l-0.08 0.64 0.76 0.22z"/>
  </g>
  <g id="_2730281490064">
   <path fill="#76AB5F" fill-rule="nonzero" d="M1.52 6.89c-0.01,0.03 0.01,0.07 0.05,0.08l0.8 0.24 0 -0.08c0,-0.05 -0.01,-0.1 -0.02,-0.15l-0.72 -0.21c-0.04,-0.01 -0.08,0.01 -0.09,0.05l-0.02 0.07z"/>
  </g>
  <g id="_2730281491216">
   <path fill="#8ABE69" fill-rule="nonzero" d="M4.73 7.09c0.01,-0.12 0.05,-0.25 0.13,-0.35l0.5 -0.67c0.03,0.05 0.04,0.1 0.05,0.16l0.09 0.64 -0.77 0.22z"/>
  </g>
  <g id="_2730281490640">
   <path fill="#76AB5F" fill-rule="nonzero" d="M5.58 6.89c0.01,0.03 -0.01,0.07 -0.05,0.08l-0.8 0.24 0 -0.08c0,-0.05 0.01,-0.1 0.02,-0.15l0.72 -0.21c0.04,-0.01 0.08,0.01 0.09,0.05l0.02 0.07z"/>
  </g>
 </g>
</svg>
