<?xml version="1.0" encoding="UTF-8"?>
<!DOCTYPE svg PUBLIC "-//W3C//DTD SVG 1.0//EN" "http://www.w3.org/TR/2001/REC-SVG-20010904/DTD/svg10.dtd">
<!-- Creator: CorelDRAW 2020 (64 Bit) -->
<svg xmlns="http://www.w3.org/2000/svg" xml:space="preserve" width="339px" height="360px" version="1.0" shape-rendering="geometricPrecision" text-rendering="geometricPrecision" image-rendering="optimizeQuality" fill-rule="evenodd" clip-rule="evenodd"
viewBox="0 0 644.42 685.76"
 xmlns:xlink="http://www.w3.org/1999/xlink"
 xmlns:xodm="http://www.corel.com/coreldraw/odm/2003">
 <g id="Camada_x0020_1">
  <metadata id="CorelCorpID_0Corel-Layer"/>
  <g id="_1774364830976">
   <g>
    <path fill="#95B995" fill-rule="nonzero" d="M502.08 550.62c-3.66,-11.78 -13.05,-21.29 -25.4,-25.26l-38.97 -12.53c-5.09,-1.64 -10.69,0.92 -12.39,5.83 -14.47,41.6 -55.11,71.61 -103.11,71.61 -47.99,0 -88.64,-30.01 -103.11,-71.61 -1.7,-4.91 -7.3,-7.47 -12.39,-5.83l-38.97 12.53c-12.34,3.97 -21.73,13.48 -25.4,25.26 -1.11,3.57 0.07,7.46 2.96,9.94l54.76 46.96c8.45,7.25 13.29,17.64 13.29,28.55l0 49.69 217.72 0 0 -49.69c0,-10.91 4.84,-21.3 13.29,-28.55l54.77 -46.96c2.89,-2.48 4.06,-6.37 2.95,-9.94z"/>
   </g>
   <g>
    <path fill="#FFC84A" fill-rule="nonzero" d="M437.71 512.83c-5.09,-1.64 -10.68,0.92 -12.39,5.83 -14.47,41.6 -55.11,71.61 -103.11,71.61 -47.99,0 -88.63,-30.01 -103.11,-71.61 -1.7,-4.91 -7.3,-7.47 -12.39,-5.83l-9.07 2.92c14.11,53.77 64.45,93.61 124.57,93.61 60.12,0 110.46,-39.84 124.58,-93.61l-9.08 -2.92z"/>
   </g>
  </g>
  <rect fill="none" width="644.42" height="685.76"/>
 </g>
</svg>
