<?xml version="1.0" encoding="UTF-8"?>
<!DOCTYPE svg PUBLIC "-//W3C//DTD SVG 1.0//EN" "http://www.w3.org/TR/2001/REC-SVG-20010904/DTD/svg10.dtd">
<!-- Creator: CorelDRAW 2020 (64 Bit) -->
<svg xmlns="http://www.w3.org/2000/svg" xml:space="preserve" width="339px" height="360px" version="1.0" shape-rendering="geometricPrecision" text-rendering="geometricPrecision" image-rendering="optimizeQuality" fill-rule="evenodd" clip-rule="evenodd"
viewBox="0 0 182.44 194.15"
 xmlns:xlink="http://www.w3.org/1999/xlink"
 xmlns:xodm="http://www.corel.com/coreldraw/odm/2003">
 <g id="Camada_x0020_1">
  <metadata id="CorelCorpID_0Corel-Layer"/>
  <g id="_1774398314976">
   <g>
    <path fill="#FF8C51" fill-rule="nonzero" d="M142.14 155.89c-1.03,-3.34 -3.69,-6.03 -7.19,-7.15l-11.03 -3.55c-1.44,-0.47 -3.02,0.26 -3.51,1.65 -4.09,11.78 -15.6,20.27 -29.19,20.27 -13.59,0 -25.09,-8.49 -29.19,-20.27 -0.48,-1.39 -2.07,-2.12 -3.51,-1.65l-11.03 3.54c-3.5,1.13 -6.15,3.82 -7.19,7.16 -0.32,1.01 0.02,2.11 0.83,2.81l15.51 13.29c2.39,2.06 3.76,5 3.76,8.09l0 14.06 61.64 0 0 -14.06c0,-3.09 1.37,-6.03 3.76,-8.09l15.51 -13.29c0.82,-0.7 1.15,-1.8 0.83,-2.81z"/>
   </g>
   <g>
    <path fill="#FF7941" fill-rule="nonzero" d="M123.92 145.19c-1.44,-0.47 -3.02,0.26 -3.51,1.65 -4.09,11.78 -15.6,20.27 -29.19,20.27 -13.59,0 -25.09,-8.49 -29.19,-20.27 -0.48,-1.39 -2.07,-2.12 -3.51,-1.65l-2.57 0.82c4,15.23 18.25,26.51 35.27,26.51 17.02,0 31.27,-11.28 35.27,-26.51l-2.57 -0.82z"/>
   </g>
  </g>
  <rect fill="none" width="182.44" height="194.15"/>
 </g>
</svg>
