<?xml version="1.0" encoding="UTF-8"?>
<!DOCTYPE svg PUBLIC "-//W3C//DTD SVG 1.0//EN" "http://www.w3.org/TR/2001/REC-SVG-20010904/DTD/svg10.dtd">
<!-- Creator: CorelDRAW 2020 (64 Bit) -->
<svg xmlns="http://www.w3.org/2000/svg" xml:space="preserve" width="339px" height="360px" version="1.0" shape-rendering="geometricPrecision" text-rendering="geometricPrecision" image-rendering="optimizeQuality" fill-rule="evenodd" clip-rule="evenodd"
viewBox="0 0 7.41 7.89"
 xmlns:xlink="http://www.w3.org/1999/xlink"
 xmlns:xodm="http://www.corel.com/coreldraw/odm/2003">
 <g id="Camada_x0020_1">
  <metadata id="CorelCorpID_0Corel-Layer"/>
  <rect fill="none" width="7.41" height="7.89"/>
  <path fill="#8DB9E2" fill-rule="nonzero" d="M5.34 6.08l-0.24 -0.12c-0.04,-0.02 -0.09,0 -0.1,0.04 -0.15,0.57 -0.68,0.99 -1.29,0.99 -0.62,0 -1.14,-0.42 -1.3,-0.99 -0.01,-0.04 -0.06,-0.06 -0.1,-0.04l-0.22 0.11c-0.19,0.09 -0.3,0.25 -0.32,0.43l-0.14 1.01c-0.03,0.2 0.13,0.38 0.33,0.38l3.49 0c0.2,0 0.36,-0.18 0.33,-0.38l-0.13 -1.01c-0.03,-0.18 -0.14,-0.34 -0.31,-0.42z"/>
  <path fill="#6AA2DE" fill-rule="nonzero" d="M1.82 6.34c-0.03,0.05 -0.05,0.1 -0.05,0.16l-0.14 1.01c-0.03,0.2 0.13,0.38 0.33,0.38l0.52 0 0 -0.45c0,-0.15 -0.05,-0.29 -0.14,-0.4l-0.52 -0.7z"/>
  <path fill="#6AA2DE" fill-rule="nonzero" d="M5.6 6.34c0.02,0.05 0.04,0.1 0.05,0.16l0.13 1.01c0.03,0.2 -0.13,0.38 -0.33,0.38l-0.51 0 0 -0.45c0,-0.15 0.04,-0.29 0.13,-0.4l0.53 -0.7z"/>
 </g>
</svg>
