<?xml version="1.0" encoding="UTF-8"?>
<!DOCTYPE svg PUBLIC "-//W3C//DTD SVG 1.0//EN" "http://www.w3.org/TR/2001/REC-SVG-20010904/DTD/svg10.dtd">
<!-- Creator: CorelDRAW 2020 (64 Bit) -->
<svg xmlns="http://www.w3.org/2000/svg" xml:space="preserve" width="339px" height="360px" version="1.0" shape-rendering="geometricPrecision" text-rendering="geometricPrecision" image-rendering="optimizeQuality" fill-rule="evenodd" clip-rule="evenodd"
viewBox="0 0 7.75 8.25"
 xmlns:xlink="http://www.w3.org/1999/xlink"
 xmlns:xodm="http://www.corel.com/coreldraw/odm/2003">
 <g id="Camada_x0020_1">
  <metadata id="CorelCorpID_0Corel-Layer"/>
  <rect fill="none" width="7.75" height="8.25"/>
  <path fill="#FF8C51" fill-rule="nonzero" d="M3.88 6.61c-0.38,0 -0.73,-0.12 -1.02,-0.32l0 0c0,0.49 0.4,0.89 0.89,0.89l0.25 0c0.49,0 0.89,-0.4 0.89,-0.89l0 0c-0.29,0.2 -0.64,0.32 -1.01,0.32z"/>
  <path fill="#4F6E7F" fill-rule="nonzero" d="M6.17 7.85l-0.15 -1.18c-0.02,-0.18 -0.15,-0.33 -0.32,-0.39l-0.64 -0.21c-0.06,-0.02 -0.13,0.01 -0.15,0.07 -0.06,0.19 -0.14,0.36 -0.25,0.52 -0.36,0.58 -1.21,0.58 -1.57,0 -0.11,-0.16 -0.19,-0.33 -0.25,-0.52 -0.02,-0.06 -0.09,-0.09 -0.15,-0.07l-0.64 0.21c-0.17,0.06 -0.29,0.21 -0.32,0.39l-0.14 1.18c-0.03,0.21 0.13,0.4 0.34,0.4l3.89 0c0.21,0 0.37,-0.19 0.35,-0.4z"/>
  <path fill="#33546A" fill-rule="nonzero" d="M1.83 6.44c-0.05,0.06 -0.09,0.14 -0.1,0.23l-0.14 1.18c-0.03,0.21 0.13,0.4 0.34,0.4l0.66 0 0 -0.76c0,-0.12 -0.04,-0.23 -0.12,-0.31l-0.64 -0.74z"/>
  <path fill="#33546A" fill-rule="nonzero" d="M5.92 6.44c0.05,0.06 0.09,0.14 0.1,0.23l0.15 1.18c0.02,0.21 -0.14,0.4 -0.35,0.4l-0.66 0 0 -0.76c0,-0.12 0.04,-0.23 0.12,-0.31l0.64 -0.74z"/>
 </g>
</svg>
