<?xml version="1.0" encoding="UTF-8"?>
<!DOCTYPE svg PUBLIC "-//W3C//DTD SVG 1.0//EN" "http://www.w3.org/TR/2001/REC-SVG-20010904/DTD/svg10.dtd">
<!-- Creator: CorelDRAW 2020 (64 Bit) -->
<svg xmlns="http://www.w3.org/2000/svg" xml:space="preserve" width="339px" height="360px" version="1.0" shape-rendering="geometricPrecision" text-rendering="geometricPrecision" image-rendering="optimizeQuality" fill-rule="evenodd" clip-rule="evenodd"
viewBox="0 0 8.12 8.64"
 xmlns:xlink="http://www.w3.org/1999/xlink"
 xmlns:xodm="http://www.corel.com/coreldraw/odm/2003">
 <g id="Camada_x0020_1">
  <metadata id="CorelCorpID_0Corel-Layer"/>
  <rect fill="none" width="8.12" height="8.64"/>
  <g id="_1775919096256">
   <path fill="#FF6473" fill-rule="nonzero" d="M6.29 7.86l-0.1 -0.73c-0.03,-0.21 -0.15,-0.38 -0.34,-0.47l-0.26 -0.13c-0.04,-0.03 -0.1,0 -0.11,0.05 -0.17,0.62 -0.74,1.08 -1.42,1.08 -0.68,0 -1.25,-0.46 -1.42,-1.08 -0.01,-0.05 -0.06,-0.08 -0.11,-0.05l-0.24 0.12c-0.2,0.1 -0.33,0.27 -0.36,0.48l-0.1 0.74c0.33,0.12 0.88,0.28 0.88,0.28l0 0.49 2.7 0 0 -0.49 0.88 -0.29z"/>
  </g>
  <g id="_1775919096016">
   <path fill="#F05467" fill-rule="nonzero" d="M2.71 8.11c-0.01,-0.14 -0.06,-0.28 -0.14,-0.4l-0.58 -0.77c-0.03,0.06 -0.05,0.12 -0.06,0.19l-0.09 0.72 0.87 0.26z"/>
  </g>
  <g id="_1775919100864">
   <path fill="#D4445A" fill-rule="nonzero" d="M1.74 7.88c-0.01,0.04 0.01,0.08 0.06,0.1l0.91 0.26 0 -0.09c0,-0.06 -0.01,-0.11 -0.02,-0.17l-0.83 -0.24c-0.04,-0.01 -0.08,0.01 -0.1,0.06l-0.02 0.08z"/>
  </g>
  <g id="_1775919100048">
   <path fill="#F05467" fill-rule="nonzero" d="M5.41 8.11c0.01,-0.14 0.06,-0.28 0.15,-0.4l0.57 -0.77c0.03,0.06 0.05,0.12 0.06,0.19l0.09 0.72 -0.87 0.26z"/>
  </g>
  <g id="_1775919098800">
   <path fill="#D4445A" fill-rule="nonzero" d="M6.38 7.88c0.01,0.04 -0.01,0.08 -0.05,0.1l-0.92 0.26 0 -0.09c0,-0.06 0.01,-0.11 0.02,-0.17l0.83 -0.24c0.04,-0.01 0.08,0.01 0.1,0.06l0.02 0.08z"/>
  </g>
 </g>
</svg>
