<?xml version="1.0" encoding="UTF-8"?>
<!DOCTYPE svg PUBLIC "-//W3C//DTD SVG 1.0//EN" "http://www.w3.org/TR/2001/REC-SVG-20010904/DTD/svg10.dtd">
<!-- Creator: CorelDRAW 2020 (64 Bit) -->
<svg xmlns="http://www.w3.org/2000/svg" xml:space="preserve" width="339px" height="360px" version="1.0" shape-rendering="geometricPrecision" text-rendering="geometricPrecision" image-rendering="optimizeQuality" fill-rule="evenodd" clip-rule="evenodd"
viewBox="0 0 8.53 9.08"
 xmlns:xlink="http://www.w3.org/1999/xlink"
 xmlns:xodm="http://www.corel.com/coreldraw/odm/2003">
 <g id="Camada_x0020_1">
  <metadata id="CorelCorpID_0Corel-Layer"/>
  <rect fill="none" width="8.53" height="9.08"/>
  <g id="_1775820255184">
   <path fill="#00BEA4" fill-rule="nonzero" d="M6.79 8.64l-0.17 -1.3c-0.02,-0.2 -0.16,-0.36 -0.35,-0.43l-0.62 -0.2c-0.11,-0.04 -0.24,0 -0.3,0.1 -0.23,0.35 -0.63,0.59 -1.08,0.59 -0.46,0 -0.86,-0.24 -1.09,-0.59 -0.06,-0.1 -0.19,-0.14 -0.3,-0.1l-0.62 0.2c-0.19,0.07 -0.33,0.23 -0.35,0.43l-0.17 1.3c-0.02,0.23 0.16,0.44 0.39,0.44l4.27 0c0.24,0 0.41,-0.21 0.39,-0.44z"/>
  </g>
  <g id="_1775820260272">
   <path fill="#00AB9A" fill-rule="nonzero" d="M2.01 7.08c-0.05,0.08 -0.09,0.16 -0.1,0.26l-0.17 1.3c-0.02,0.23 0.16,0.44 0.39,0.44l0.72 0 0 -0.84c0,-0.12 -0.05,-0.24 -0.13,-0.34l-0.71 -0.82z"/>
  </g>
  <g id="_1775820260224">
   <path fill="#00AB9A" fill-rule="nonzero" d="M6.52 7.08c0.05,0.08 0.09,0.16 0.1,0.26l0.17 1.3c0.02,0.23 -0.15,0.44 -0.39,0.44l-0.72 0 0 -0.84c0,-0.12 0.05,-0.24 0.13,-0.34l0.71 -0.82z"/>
  </g>
 </g>
</svg>
