<?xml version="1.0" standalone="no"?>
<svg width="24px" height="24px" viewBox="0 0 512 512" version="1.1" xmlns="http://www.w3.org/2000/svg" xmlns:xlink="http://www.w3.org/1999/xlink">

<defs></defs>
  <g id="Stockholm-icons-/-Devices-/-Server" transform="translate(0.000000,512.000000) scale(0.100000,-0.100000)" fill="none" stroke="none">
    <path id="Combined-Shape" fill="#000000" opacity="1" d="M2385 4676 c-102 -24 -201 -66 -282 -120 -98 -65 -1161 -939 -1227
    -1009 -111 -117 -190 -273 -221 -438 -14 -76 -15 -197 -13 -1025 l3 -939 23
    -80 c68 -243 234 -443 456 -550 179 -86 65 -80 1436 -80 l1215 0 80 23 c96 28
    224 94 307 159 126 99 242 279 290 448 l23 80 3 939 c2 828 1 949 -13 1025
    -30 156 -96 293 -200 416 -55 66 -1174 986 -1270 1046 -41 26 -119 61 -172 79
    -89 30 -111 33 -238 36 -95 3 -159 -1 -200 -10z m352 -1709 c48 -25 82 -77 92
    -138 13 -75 29 -106 69 -131 44 -27 103 -27 162 1 55 25 103 26 155 2 50 -23
    69 -44 136 -151 86 -139 81 -204 -25 -295 -101 -86 -100 -171 2 -245 64 -46
    84 -84 80 -151 -4 -48 -13 -70 -67 -157 -71 -115 -106 -143 -186 -150 -38 -3
    -65 1 -100 17 -59 26 -111 27 -152 1 -44 -26 -62 -57 -73 -123 -13 -85 -41
    -122 -112 -152 -52 -21 -264 -21 -316 0 -71 30 -99 67 -112 152 -11 66 -29 97
    -73 123 -41 26 -93 25 -152 -1 -35 -16 -62 -20 -100 -17 -80 7 -115 35 -186
    150 -54 87 -63 109 -67 157 -4 67 16 105 80 151 100 72 102 169 5 241 -106 79
    -114 161 -28 299 67 107 86 128 136 151 52 24 100 23 155 -2 59 -28 118 -28
    162 -1 40 25 56 56 69 131 5 31 19 67 34 87 48 63 88 74 255 70 94 -2 133 -6
    157 -19z"/>
    <path id="Combined-Shape" fill="#000000" opacity="1" d="M2464 2440 c-50 -16 -125 -71 -161 -118 -154 -204 -1 -506 257 -506
    121 0 242 78 291 186 35 80 34 193 -4 270 -31 62 -84 116 -149 149 -48 25
    -180 36 -234 19z"/>
  </g>
</svg>
