<?xml version="1.0" encoding="UTF-8"?>
<svg width="24px" height="24px" viewBox="0 0 512 512" version="1.1" xmlns="http://www.w3.org/2000/svg" xmlns:xlink="http://www.w3.org/1999/xlink">
    <!-- Generator: Sketch 50.2 (55047) - http://www.bohemiancoding.com/sketch -->
    <!-- <title>Stockholm-icons / Electric / Gas-stove</title>
    <desc>Created with Sketch.</desc> -->
    <defs></defs>
    <g id="Stockholm-icons-/-Devices-/-Server" stroke="none" stroke-width="1" fill="none" fill-rule="evenodd">
			<path id="Combined-Shape" fill="#000000" opacity="1" d="M509.787,210.249L448.298,93.065c-3.129-5.963-9.305-9.697-16.039-9.697H18.113C8.11,83.368,0,91.478,0,101.481
				c0,5.44,0,247.697,0,261.834c0,10.003,8.11,18.113,18.113,18.113c8.448,0,61.232,0,70.206,0
				c18.141,62.902,107.664,62.974,125.825,0h64.411c18.143,62.912,107.66,62.958,125.813,0h89.519
				c10.003,0,18.113-8.11,18.113-18.113V218.929C512,216.022,511.23,212.875,509.787,210.249z M58.723,345.202H36.226v-22.497h22.497
				V345.202z M36.226,200.816v-81.221h117.132v81.221H36.226z M151.231,392.569c-16.13,0-29.255-13.124-29.255-29.254
				c0-37.764,56.479-38.971,58.466-1.569c0.022,0.517,0.037,1.037,0.037,1.569c0,0.025,0.004,0.051,0.004,0.077
				C180.441,379.488,167.336,392.569,151.231,392.569z M189.585,200.816v-81.221h132.83v81.221H189.585z M341.467,392.569
				c-16.13,0-29.255-13.124-29.255-29.254c0-37.723,56.524-38.924,58.456-1.526c0.021,0.504,0.036,1.009,0.036,1.526
				c0,0.016,0.002,0.031,0.002,0.047C370.681,379.472,357.574,392.569,341.467,392.569z M358.642,200.816v-81.221h62.667
				l42.617,81.221C446.357,200.816,367.425,200.816,358.642,200.816z M475.774,259.539h-22.497v-22.494h22.497V259.539z"/>
    </g>
</svg>