<?xml version="1.0" encoding="UTF-8"?>
<svg width="24px" height="24px" viewBox="0 0 1890 2100" version="1.1" xmlns="http://www.w3.org/2000/svg" xmlns:xlink="http://www.w3.org/1999/xlink">
    <!-- Generator: Sketch 50.2 (55047) - http://www.bohemiancoding.com/sketch -->
    <!-- <title>Stockholm-icons / Electric / Gas-stove</title>
    <desc>Created with Sketch.</desc> -->
    <defs></defs>
    <g id="Stockholm-icons-/-Devices-/-Server" stroke="none" stroke-width="1" fill="none" fill-rule="evenodd">
        <path id="Combined-Shape" fill="#000000" opacity="0.3" d="M191 1883 c-31 -19 -49 -39 -62 -70 -18 -42 -19 -79 -19 -688 0 -377 4 -654 9 -668 13 -34 58 -75 106 -98 30 -14 63 -19 138 -19 l97 0 0 -94 c0 -118 8 -126 117 -126 71 0 101 12 105 43 0 7 2 17 3 22 2 6 3 43 4 83 l1 72 225 0 225 0 0 -90 c0 -120 9 -130 118 -130 106 0 112 7 112 128 l0 92 95 0 c106 0 151 13 198 58 59 56 57 25 57 726 0 742 4 706 -84 756 l-51 30 -675 0 -675 -1 -44 -26z m367 -207 c8 -5 12 -37 12 -96 0 -118 -5 -123 -117 -118 -105 4 -113 12 -113 113 0 75 11 101 45 107 36 6 160 2 173 -6z m463 -7 c16 -23 7 -188 -11 -200 -24 -16 -189 -7 -200 11 -6 8 -9 55 -8 105 3 104 0 102 131 100 56 -1 81 -5 88 -16z m455 -4 c20 -27 19 -154 -2 -183 -14 -20 -24 -22 -99 -22 -109 0 -115 5 -115 113 0 114 0 114 123 112 66 0 81 -4 93 -20z m-918 -437 c13 -13 17 -163 6 -192 -5 -13 -24 -16 -105 -16 -117 0 -119 2 -119 114 0 100 6 106 119 106 54 0 91 -4 99 -12z m462 -7 c14 -28 13 -174 -2 -189 -8 -8 -46 -12 -103 -12 -57 0 -95 4 -103 12 -16 16 -16 180 0 196 8 8 46 12 105 12 81 0 94 -2 103 -19z m454 -3 c18 -26 22 -131 6 -172 -9 -25 -12 -26 -103 -26 -59 0 -97 4 -105 12 -16 16 -16 180 0 196 8 8 45 12 99 12 79 0 89 -2 103 -22z"/>
    </g>
    <g id="layer102" fill="#000" stroke="none">
        <path id="Combined-Shape-Copy" fill="#000000" d="M191 1883 c-31 -19 -49 -39 -62 -70 -18 -42 -19 -76 -19 -534 l0 -489 805 0 805 0 0 490 c0 567 2 551 -84 600 l-51 30 -675 0 -675 -1 -44 -26z m367 -207 c8 -5 12 -37 12 -96 0 -118 -5 -123 -117 -118 -105 4 -113 12 -113 113 0 75 11 101 45 107 36 6 160 2 173 -6z m463 -7 c16 -23 7 -188 -11 -200 -24 -16 -189 -7 -200 11 -6 8 -9 55 -8 105 3 104 0 102 131 100 56 -1 81 -5 88 -16z m455 -4 c20 -27 19 -154 -2 -183 -14 -20 -24 -22 -99 -22 -109 0 -115 5 -115 113 0 114 0 114 123 112 66 0 81 -4 93 -20z m-918 -437 c13 -13 17 -163 6 -192 -5 -13 -24 -16 -105 -16 -117 0 -119 2 -119 114 0 100 6 106 119 106 54 0 91 -4 99 -12z m462 -7 c14 -28 13 -174 -2 -189 -8 -8 -46 -12 -103 -12 -57 0 -95 4 -103 12 -16 16 -16 180 0 196 8 8 46 12 105 12 81 0 94 -2 103 -19z m454 -3 c18 -26 22 -131 6 -172 -9 -25 -12 -26 -103 -26 -59 0 -97 4 -105 12 -16 16 -16 180 0 196 8 8 45 12 99 12 79 0 89 -2 103 -22z"/>
        <path id="Combined-Shape-Copy-2" fill="#000000" d="M476 551 c-14 -15 -18 -39 -19 -108 l-2 -88 -100 -6 -100 -5 103 -2 102 -2 0 -94 c0 -118 8 -126 117 -126 71 0 101 12 105 43 0 7 2 17 3 22 2 6 3 43 4 83 l1 72 225 0 225 0 0 -90 c0 -120 9 -130 118 -130 106 0 112 7 112 128 l0 91 103 4 102 3 -102 2 -103 2 0 93 c0 120 -6 127 -113 127 -108 0 -117 -10 -117 -130 l0 -90 -224 0 -224 0 -4 96 c-4 118 -9 124 -118 124 -63 0 -80 -3 -94 -19z"/>
    </g>
</svg>