<?xml version="1.0" encoding="UTF-8"?>
<!DOCTYPE svg PUBLIC "-//W3C//DTD SVG 1.0//EN" "http://www.w3.org/TR/2001/REC-SVG-20010904/DTD/svg10.dtd">
<!-- Creator: CorelDRAW 2020 (64 Bit) -->
<svg xmlns="http://www.w3.org/2000/svg" xml:space="preserve" width="90vh" height="90vh" version="1.0" shape-rendering="geometricPrecision" text-rendering="geometricPrecision" image-rendering="optimizeQuality" fill-rule="evenodd" clip-rule="evenodd"
viewBox="0 0 54.95 43.48"
 xmlns:xlink="http://www.w3.org/1999/xlink"
 xmlns:xodm="http://www.corel.com/coreldraw/odm/2003">
 <g id="Camada_x0020_1">
  <metadata id="CorelCorpID_0Corel-Layer"/>
  <g id="_2223691592720">
   <path fill="#000000" d="M27.48 0c5.5,0 9.95,4.46 9.95,9.96 0,5.5 -4.45,9.95 -9.95,9.95 -5.5,0 -9.96,-4.45 -9.96,-9.95 0,-5.5 4.46,-9.96 9.96,-9.96zm0 2.4c-4.18,0 -7.56,3.38 -7.56,7.56 0,4.17 3.38,7.56 7.56,7.56 4.17,0 7.56,-3.39 7.56,-7.56 0,-4.18 -3.39,-7.56 -7.56,-7.56z"/>
   <path fill="#000000" d="M45 25.97c-4.18,0 -7.57,3.38 -7.57,7.56 0,4.17 3.39,7.56 7.57,7.56 4.17,0 7.56,-3.39 7.56,-7.56 0,-4.18 -3.39,-7.56 -7.56,-7.56zm0 -2.4c5.5,0 9.95,4.46 9.95,9.96 0,5.5 -4.45,9.95 -9.95,9.95 -5.5,0 -9.96,-4.45 -9.96,-9.95 0,-5.5 4.46,-9.96 9.96,-9.96z"/>
   <path fill="#000000" d="M9.96 23.57c5.5,0 9.96,4.46 9.96,9.96 0,5.5 -4.46,9.95 -9.96,9.95 -5.5,0 -9.96,-4.45 -9.96,-9.95 0,-5.5 4.46,-9.96 9.96,-9.96zm0 2.4c-4.18,0 -7.56,3.38 -7.56,7.56 0,4.17 3.38,7.56 7.56,7.56 4.17,0 7.56,-3.39 7.56,-7.56 0,-4.18 -3.39,-7.56 -7.56,-7.56z"/>
   <path fill="#000000" d="M27.48 0c5.5,0 9.95,4.46 9.95,9.96 0,5.5 -4.45,9.95 -9.95,9.95 -5.5,0 -9.96,-4.45 -9.96,-9.95 0,-5.5 4.46,-9.96 9.96,-9.96zm0 2.4c-4.18,0 -7.56,3.38 -7.56,7.56 0,4.17 3.38,7.56 7.56,7.56 4.17,0 7.56,-3.39 7.56,-7.56 0,-4.18 -3.39,-7.56 -7.56,-7.56z"/>
   <path fill="#000000" d="M45 25.97c-4.18,0 -7.57,3.38 -7.57,7.56 0,4.17 3.39,7.56 7.57,7.56 4.17,0 7.56,-3.39 7.56,-7.56 0,-4.18 -3.39,-7.56 -7.56,-7.56zm0 -2.4c5.5,0 9.95,4.46 9.95,9.96 0,5.5 -4.45,9.95 -9.95,9.95 -5.5,0 -9.96,-4.45 -9.96,-9.95 0,-5.5 4.46,-9.96 9.96,-9.96z"/>
   <circle fill="#000000" opacity="0.3" cx="45.02" cy="33.49" r="2.8"/>
   <g>
    <rect fill="#000000" opacity="0.3" transform="matrix(0.715175 0.56248 0.562481 -0.715174 15.3996 21.9047)" width="2.73" height="4.7"/>
    <circle fill="#000000" opacity="0.3" transform="matrix(-1.22847 -0.966131 0.974482 -1.23909 16.375 22.6721)" r="0.79"/>
    <circle fill="#000000" opacity="0.3" transform="matrix(-1.22847 -0.966131 0.974482 -1.23909 19.0162 19.3142)" r="0.79"/>
   </g>
   <circle fill="#000000" opacity="0.3" cx="9.96" cy="33.53" r="5.17"/>
   <path fill="#000000" d="M9.96 23.57c5.5,0 9.96,4.46 9.96,9.96 0,5.5 -4.46,9.95 -9.96,9.95 -5.5,0 -9.96,-4.45 -9.96,-9.95 0,-5.5 4.46,-9.96 9.96,-9.96zm0 2.4c-4.18,0 -7.56,3.38 -7.56,7.56 0,4.17 3.38,7.56 7.56,7.56 4.17,0 7.56,-3.39 7.56,-7.56 0,-4.18 -3.39,-7.56 -7.56,-7.56z"/>
   <g>
    <rect fill="#000000" opacity="0.3" transform="matrix(-0.71517 0.56248 -0.562478 -0.715174 39.554 21.9048)" width="2.73" height="4.7"/>
    <circle fill="#000000" opacity="0.3" transform="matrix(1.22846 -0.966131 -0.974476 -1.23909 38.5785 22.6722)" r="0.79"/>
    <circle fill="#000000" opacity="0.3" transform="matrix(1.22846 -0.966131 -0.974476 -1.23909 35.9374 19.3143)" r="0.79"/>
   </g>
  </g>
 </g>
</svg>
