<?xml version="1.0" encoding="UTF-8"?>
<!DOCTYPE svg PUBLIC "-//W3C//DTD SVG 1.0//EN" "http://www.w3.org/TR/2001/REC-SVG-20010904/DTD/svg10.dtd">
<!-- Creator: CorelDRAW 2020 (64 Bit) -->
<svg xmlns="http://www.w3.org/2000/svg" xml:space="preserve" width="110px" height="20px" version="1.0" shape-rendering="geometricPrecision" text-rendering="geometricPrecision" image-rendering="optimizeQuality" fill-rule="evenodd" clip-rule="evenodd"
viewBox="0 0 194.39 32.78"
 xmlns:xlink="http://www.w3.org/1999/xlink"
 xmlns:xodm="http://www.corel.com/coreldraw/odm/2003">
 <g id="Camada_x0020_1">
  <metadata id="CorelCorpID_0Corel-Layer"/>
  <g id="_2223720186144">
   <g>
    <path fill="#5580FF" d="M16.32 6.25c3.26,0 5.91,2.65 5.91,5.91 0,3.27 -2.65,5.91 -5.91,5.91 -3.27,0 -5.92,-2.64 -5.92,-5.91 0,-3.26 2.65,-5.91 5.92,-5.91zm0 1.42c-2.48,0 -4.49,2.01 -4.49,4.49 0,2.48 2.01,4.49 4.49,4.49 2.48,0 4.49,-2.01 4.49,-4.49 0,-2.48 -2.01,-4.49 -4.49,-4.49z"/>
    <path fill="#5580FF" d="M26.72 21.67c-2.48,0 -4.49,2.01 -4.49,4.49 0,2.48 2.01,4.49 4.49,4.49 2.48,0 4.49,-2.01 4.49,-4.49 0,-2.48 -2.01,-4.49 -4.49,-4.49zm0 -1.43c3.26,0 5.91,2.65 5.91,5.92 0,3.26 -2.65,5.91 -5.91,5.91 -3.27,0 -5.91,-2.65 -5.91,-5.91 0,-3.27 2.64,-5.92 5.91,-5.92z"/>
    <circle fill="#FDD736" cx="26.73" cy="26.13" r="1.66"/>
    <g>
     <rect fill="#FDD736" transform="matrix(0.242538 0.190755 0.190755 -0.242538 9.14399 19.255)" width="4.78" height="8.22"/>
     <ellipse fill="#FDD736" transform="matrix(-0.416612 -0.327646 0.330477 -0.420213 9.72323 19.7107)" rx="1.39" ry="1.38"/>
     <ellipse fill="#FDD736" transform="matrix(-0.416612 -0.327646 0.330477 -0.420213 11.2915 17.7168)" rx="1.39" ry="1.38"/>
    </g>
    <circle fill="#FDD736" cx="5.91" cy="26.16" r="3.07"/>
    <path fill="#5580FF" d="M5.91 20.24c3.27,0 5.92,2.65 5.92,5.92 0,3.26 -2.65,5.91 -5.92,5.91 -3.26,0 -5.91,-2.65 -5.91,-5.91 0,-3.27 2.65,-5.92 5.91,-5.92zm0 1.43c-2.48,0 -4.49,2.01 -4.49,4.49 0,2.48 2.01,4.49 4.49,4.49 2.48,0 4.49,-2.01 4.49,-4.49 0,-2.48 -2.01,-4.49 -4.49,-4.49z"/>
    <g>
     <rect fill="#FDD736" transform="matrix(-0.242536 0.190755 -0.190754 -0.242538 23.4866 19.2551)" width="4.78" height="8.22"/>
     <ellipse fill="#FDD736" transform="matrix(0.41661 -0.327646 -0.330475 -0.420213 22.9073 19.7107)" rx="1.39" ry="1.38"/>
     <ellipse fill="#FDD736" transform="matrix(0.41661 -0.327646 -0.330475 -0.420213 21.3391 17.7169)" rx="1.39" ry="1.38"/>
    </g>
    <path fill="#5580FF" d="M16.32 6.25c3.26,0 5.91,2.65 5.91,5.91 0,3.27 -2.65,5.91 -5.91,5.91 -3.27,0 -5.92,-2.64 -5.92,-5.91 0,-3.26 2.65,-5.91 5.92,-5.91zm0 1.42c-2.48,0 -4.49,2.01 -4.49,4.49 0,2.48 2.01,4.49 4.49,4.49 2.48,0 4.49,-2.01 4.49,-4.49 0,-2.48 -2.01,-4.49 -4.49,-4.49z"/>
    <path fill="#5580FF" d="M26.72 21.67c-2.48,0 -4.49,2.01 -4.49,4.49 0,2.48 2.01,4.49 4.49,4.49 2.48,0 4.49,-2.01 4.49,-4.49 0,-2.48 -2.01,-4.49 -4.49,-4.49zm0 -1.43c3.26,0 5.91,2.65 5.91,5.92 0,3.26 -2.65,5.91 -5.91,5.91 -3.27,0 -5.91,-2.65 -5.91,-5.91 0,-3.27 2.64,-5.92 5.91,-5.92z"/>
    <circle fill="#FDD736" cx="26.73" cy="26.13" r="1.66"/>
    <g>
     <rect fill="#FDD736" transform="matrix(0.242538 0.190755 0.190755 -0.242538 9.14399 19.255)" width="4.78" height="8.22"/>
     <ellipse fill="#FDD736" transform="matrix(-0.416612 -0.327646 0.330477 -0.420213 9.72323 19.7107)" rx="1.39" ry="1.38"/>
     <ellipse fill="#FDD736" transform="matrix(-0.416612 -0.327646 0.330477 -0.420213 11.2915 17.7168)" rx="1.39" ry="1.38"/>
    </g>
    <circle fill="#FDD736" cx="5.91" cy="26.16" r="3.07"/>
    <path fill="#5580FF" d="M5.91 20.24c3.27,0 5.92,2.65 5.92,5.92 0,3.26 -2.65,5.91 -5.92,5.91 -3.26,0 -5.91,-2.65 -5.91,-5.91 0,-3.27 2.65,-5.92 5.91,-5.92zm0 1.43c-2.48,0 -4.49,2.01 -4.49,4.49 0,2.48 2.01,4.49 4.49,4.49 2.48,0 4.49,-2.01 4.49,-4.49 0,-2.48 -2.01,-4.49 -4.49,-4.49z"/>
    <g>
     <rect fill="#FDD736" transform="matrix(-0.242536 0.190755 -0.190754 -0.242538 23.4866 19.2551)" width="4.78" height="8.22"/>
     <ellipse fill="#FDD736" transform="matrix(0.41661 -0.327646 -0.330475 -0.420213 22.9073 19.7107)" rx="1.39" ry="1.38"/>
     <ellipse fill="#FDD736" transform="matrix(0.41661 -0.327646 -0.330475 -0.420213 21.3391 17.7169)" rx="1.39" ry="1.38"/>
    </g>
   </g>
   <g>
    <path fill="#5580FF" fill-rule="nonzero" d="M179.47 25.02c0,-2.93 1,-3.83 3.5,-4.37 2.17,-0.46 5.22,-0.53 7.56,-0.59l0 4.69c0,1.06 -0.02,2.35 -0.1,3.37 -1.73,0.71 -3.78,0.91 -5.55,0.91 -3.69,0 -5.41,-0.78 -5.41,-4.01zm-2.35 -12.66c2.4,-0.32 5.1,-0.61 7.81,-0.61 4.28,0 5.6,1.56 5.6,5.03l0 0.55c-3.18,0.11 -6.34,0.23 -9.03,0.63 -4.22,0.64 -5.93,3.17 -5.93,7.14 0,4.85 2.62,6.97 8.8,6.97 3.93,0 7.24,-0.54 9.86,-1.91 0.1,-1.31 0.16,-2.63 0.16,-4.04l0 -10.49c0,-5.75 -3.97,-7.06 -8.95,-7.06 -3.29,0 -6.11,0.4 -8.65,0.81l0.33 2.98zm-10.65 0.12l0 12.19c0,1.06 -0.04,2.35 -0.12,3.36 -1.28,0.62 -3.26,0.91 -4.9,0.91 -5.58,0 -6.52,-3.37 -6.52,-8.63 0,-5.58 0.64,-8.61 6.89,-8.61 1.49,0 3.36,0.35 4.65,0.78zm0 -3.16c-1.81,-0.45 -3.81,-0.75 -5.71,-0.75 -6.91,0 -9.81,2.96 -9.81,11.74 0,8.94 3.1,11.76 10.5,11.76 2.95,0 6.26,-0.54 8.8,-1.92 0.1,-1.32 0.15,-2.63 0.15,-4.05l0 -26.1 -3.93 0 0 9.32zm-36.08 6.74c0,-1.06 0.03,-2.35 0.12,-3.35 1.22,-0.58 3.57,-0.96 5.27,-0.96 5.26,0 5.98,1.76 5.98,5.78l0 14.24 3.93 0 0 -14.79c0,-4.7 -0.79,-8.41 -8.73,-8.41 -4.23,0 -7.75,0.76 -10.35,1.95 -0.1,1.31 -0.15,2.63 -0.15,4.04l0 17.21 3.93 0 0 -15.71zm-25.64 3.65c0,-5.07 0.95,-8.06 6.26,-8.06 4.44,0 5.97,2.2 5.97,5.88 0,0.41 -0.02,0.98 -0.06,1.37 -1.86,0.24 -4.93,0.49 -6.8,0.57l-5.37 0.24zm5.75 12.36c4.37,0 7.16,-0.4 9.71,-0.8l-0.35 -3.03c-2.34,0.31 -5.11,0.61 -8.13,0.61 -4.74,0 -6.56,-1.75 -6.89,-6.33l4.78 -0.2c3.19,-0.14 8.62,-0.65 11.22,-1.1 0.06,-0.63 0.07,-1.35 0.07,-1.95 0,-6.5 -1.93,-10.69 -9.9,-10.69 -7.55,0 -10.07,3.45 -10.07,11.73 0,6.79 1.98,11.76 9.56,11.76zm-19.15 -6.24c0,3.18 0.81,5.24 2.32,6.95l3.38 -1.68c-1.21,-1.56 -1.77,-3.18 -1.77,-5.48l0 -25.62 -3.93 0 0 25.83zm-21.01 -0.81c0,-2.93 1,-3.83 3.5,-4.37 2.16,-0.46 5.22,-0.53 7.56,-0.59l0 4.69c0,1.06 -0.02,2.35 -0.1,3.37 -1.73,0.71 -3.79,0.91 -5.55,0.91 -3.69,0 -5.41,-0.78 -5.41,-4.01zm-2.35 -12.66c2.4,-0.32 5.1,-0.61 7.81,-0.61 4.28,0 5.6,1.56 5.6,5.03l0 0.55c-3.18,0.11 -6.35,0.23 -9.03,0.63 -4.23,0.64 -5.93,3.17 -5.93,7.14 0,4.85 2.61,6.97 8.79,6.97 3.94,0 7.25,-0.54 9.87,-1.91 0.1,-1.31 0.16,-2.63 0.16,-4.04l0 -10.49c0,-5.75 -3.98,-7.06 -8.95,-7.06 -3.29,0 -6.11,0.4 -8.65,0.81l0.33 2.98z"/>
    <path fill="#5580FF" fill-rule="nonzero" d="M62.14 28.08c-1.78,0.28 -3.65,0.47 -5.56,0.47 -8.57,0 -9.09,-4.49 -9.09,-11.77 0,-7.24 0.44,-11.76 9.09,-11.76 1.88,0 3.81,0.2 5.55,0.47l0.38 -3.25c-1.91,-0.43 -4.38,-0.74 -7.15,-0.74 -9.75,0 -12.15,4.65 -12.15,15.28 0,10.63 2.39,15.29 12.15,15.29 2.78,0 5.24,-0.32 7.15,-0.75l-0.37 -3.24z"/>
   </g>
  </g>
 </g>
</svg>
