<?xml version="1.0" encoding="UTF-8"?>
<!DOCTYPE svg PUBLIC "-//W3C//DTD SVG 1.0//EN" "http://www.w3.org/TR/2001/REC-SVG-20010904/DTD/svg10.dtd">
<!-- Creator: CorelDRAW 2020 (64 Bit) -->
<svg xmlns="http://www.w3.org/2000/svg" xml:space="preserve" width="339px" height="360px" version="1.0" shape-rendering="geometricPrecision" text-rendering="geometricPrecision" image-rendering="optimizeQuality" fill-rule="evenodd" clip-rule="evenodd"
viewBox="0 0 110.26 117.33"
 xmlns:xlink="http://www.w3.org/1999/xlink"
 xmlns:xodm="http://www.corel.com/coreldraw/odm/2003">
 <g id="Camada_x0020_1">
  <metadata id="CorelCorpID_0Corel-Layer"/>
  <rect fill="none" width="110.26" height="117.33"/>
  <path fill="#FFEAB2" fill-rule="nonzero" d="M48.81 79.47l0.01 0.01 -0.01 -0.01 -0.08 -0.03 -10.75 -4.48c-3.72,-1.55 -6.15,-5.19 -6.15,-9.22l0 -1.66c-2.75,0 -4.99,-2.24 -4.99,-4.99 0,-2.76 2.24,-5 4.99,-5l0.04 -9.98c0,-4.03 2.86,-7.38 6.66,-8.15l1.66 -0.17 29.95 0c4.6,0 8.33,3.72 8.33,8.32l0 9.98 -0.04 0c2.75,0 4.99,2.24 4.99,5 0,2.75 -2.24,4.99 -4.99,4.99l0 1.66c0,4.03 -2.43,7.67 -6.15,9.22l-10.75 4.48c-2.03,0.84 -4.2,1.28 -6.4,1.28l0 0c-2.04,0 -4.06,-0.38 -5.95,-1.1l-0.03 -0.01 0 0 -0.02 -0.01 -0.03 -0.01 -0.02 -0.01 -0.02 -0.01 -0.01 0zm-0.23 -0.09l0.01 0 -0.01 0zm0.01 0l0 0 0 0zm0 0l0.01 0 -0.01 0zm0.01 0l0.01 0.01 -0.01 -0.01 0.03 0.02 -0.02 -0.01zm0.05 0.02l0.03 0.01 0.02 0.01 0.01 0 0.02 0.01 0.02 0.01z"/>
  <path fill="#FAE3A3" d="M66.58 86.07c-0.9,-0.61 -1.47,-1.63 -1.47,-2.75l0 -5.37 -0.48 0.2 0 0 -3.1 1.29c-4.03,1.68 -8.65,1.72 -12.7,0.05l-3.68 -1.54 0 5.37c0,1.18 -0.63,2.25 -1.62,2.85l0.01 0c-0.21,0.12 -0.43,0.22 -0.67,0.3l-8.4 3.1c-4.59,1.68 -7.63,6.05 -7.63,10.93l0 13.5c0,1.84 1.49,3.33 3.33,3.33l49.92 0c1.84,0 3.33,-1.49 3.33,-3.33l0 -13.5c0,-4.88 -3.04,-9.25 -7.63,-10.93l-9.21 -3.5z"/>
  <rect fill="none" x="43.48" y="55.76" width="23.3" height="16.69"/>
  <path fill="#F2D78E" fill-rule="nonzero" d="M45.15 77.95l0 5.37c0,1.18 -0.63,2.25 -1.62,2.85 11.89,2.05 19.22,-5.73 21.1,-8.02l-3.1 1.29c-4.03,1.68 -8.65,1.72 -12.7,0.05z"/>
  <path fill="#FAE3A3" fill-rule="nonzero" d="M40.57 71.51c-1.35,-1.45 -2.08,-3.35 -2.08,-5.33l0.04 -30.22c-3.8,0.77 -6.66,4.12 -6.66,8.15l-0.04 9.98c-2.75,0 -4.99,2.24 -4.99,5 0,2.75 2.24,4.99 4.99,4.99l0 1.66c0,4.03 2.43,7.67 6.15,9.22l10.75 4.48c0.53,0.22 1.06,0.41 1.61,0.57l0 0c-4.76,-3.48 -7.92,-6.51 -9.77,-8.5z"/>
  <path fill="#623F33" fill-rule="nonzero" d="M43.48 60.75l0 0c-0.91,0 -1.66,-0.75 -1.66,-1.66l0 -1.67c0,-0.91 0.75,-1.66 1.66,-1.66l0 0c0.92,0 1.67,0.75 1.67,1.66l0 1.67c0,0.91 -0.75,1.66 -1.67,1.66z"/>
  <path fill="#623F33" fill-rule="nonzero" d="M66.78 60.75l0 0c-0.92,0 -1.67,-0.75 -1.67,-1.66l0 -1.67c0,-0.91 0.75,-1.66 1.67,-1.66l0 0c0.91,0 1.66,0.75 1.66,1.66l0 1.67c0,0.91 -0.75,1.66 -1.66,1.66z"/>
  <path fill="#F2D78E" fill-rule="nonzero" d="M55.13 72.44c-2.96,0 -5.73,-0.72 -7.59,-1.99 -0.76,-0.52 -0.96,-1.56 -0.44,-2.32 0.51,-0.75 1.55,-0.95 2.31,-0.43 1.31,0.88 3.45,1.42 5.72,1.42 2.27,0 4.41,-0.54 5.72,-1.42 0.76,-0.52 1.8,-0.33 2.31,0.43 0.52,0.76 0.32,1.8 -0.44,2.32 -1.86,1.27 -4.63,1.99 -7.59,1.99z"/>
 </g>
</svg>
