<?xml version="1.0" encoding="UTF-8"?>
<!DOCTYPE svg PUBLIC "-//W3C//DTD SVG 1.0//EN" "http://www.w3.org/TR/2001/REC-SVG-20010904/DTD/svg10.dtd">
<!-- Creator: CorelDRAW 2020 (64 Bit) -->
<svg xmlns="http://www.w3.org/2000/svg" xml:space="preserve" width="339px" height="360px" version="1.0" shape-rendering="geometricPrecision" text-rendering="geometricPrecision" image-rendering="optimizeQuality" fill-rule="evenodd" clip-rule="evenodd"
viewBox="0 0 60.33 64.2"
 xmlns:xlink="http://www.w3.org/1999/xlink"
 xmlns:xodm="http://www.corel.com/coreldraw/odm/2003">
 <g id="Camada_x0020_1">
  <metadata id="CorelCorpID_0Corel-Layer"/>
  <rect fill="none" width="60.33" height="64.2"/>
  <path fill="#FFE1B2" fill-rule="nonzero" d="M26.71 43.48l0 0 0 0 -0.05 -0.02 -5.88 -2.45c-2.04,-0.85 -3.36,-2.84 -3.36,-5.04l0 -0.91c-1.51,0 -2.73,-1.22 -2.73,-2.73 0,-1.51 1.22,-2.73 2.73,-2.73l0.02 -5.47c0,-2.2 1.56,-4.04 3.64,-4.46l0.91 -0.09 16.39 0c2.51,0 4.55,2.04 4.55,4.55l0 5.47 -0.02 0c1.51,0 2.73,1.22 2.73,2.73 0,1.51 -1.22,2.73 -2.73,2.73l0 0.91c0,2.21 -1.33,4.19 -3.36,5.04l-5.89 2.45c-1.1,0.47 -2.29,0.7 -3.5,0.7l0 0c-1.11,0 -2.22,-0.2 -3.25,-0.6l-0.02 0 0 0 -0.01 -0.01 -0.02 0 -0.01 -0.01 -0.01 0 0 -0.01zm-0.13 -0.05l0.01 0.01 -0.01 -0.01zm0.01 0.01l0 0 0 0zm0 0l0 0 0 0zm0 0l0.01 0 -0.01 0 0.02 0.01 -0.01 -0.01zm0.03 0.01l0.01 0.01 0.01 0 0.01 0.01 0.01 0 0.01 0z"/>
  <path fill="#FFD7A3" d="M36.43 47.09c-0.5,-0.33 -0.8,-0.89 -0.8,-1.5l0 -2.94 -0.27 0.11 0 0 -1.7 0.71c-2.2,0.92 -4.73,0.93 -6.94,0.02l-2.02 -0.84 0 2.94c0,0.64 -0.34,1.23 -0.88,1.55l0 0c-0.11,0.07 -0.24,0.13 -0.36,0.17l-4.6 1.69c-2.51,0.93 -4.17,3.31 -4.17,5.99l0 7.39c0,1 0.81,1.82 1.82,1.82l27.31 0c1.01,0 1.82,-0.82 1.82,-1.82l0 -7.39c0,-2.68 -1.66,-5.06 -4.17,-5.99l-5.04 -1.91z"/>
  <rect fill="none" x="23.79" y="30.51" width="12.75" height="9.13"/>
  <path fill="#FDC88E" fill-rule="nonzero" d="M24.7 42.65l0 2.94c0,0.64 -0.34,1.23 -0.88,1.55 6.5,1.13 10.51,-3.13 11.54,-4.38l-1.7 0.71c-2.2,0.92 -4.73,0.93 -6.94,0.02z"/>
  <path fill="#FFD7A3" fill-rule="nonzero" d="M22.2 39.12c-0.74,-0.79 -1.14,-1.83 -1.14,-2.91l0.02 -16.54c-2.08,0.42 -3.64,2.26 -3.64,4.46l-0.02 5.47c-1.51,0 -2.73,1.22 -2.73,2.73 0,1.51 1.22,2.73 2.73,2.73l0 0.91c0,2.2 1.32,4.19 3.36,5.04l5.88 2.45c0.29,0.12 0.58,0.23 0.88,0.32l0 0c-2.6,-1.91 -4.33,-3.57 -5.34,-4.66z"/>
  <path fill="#623F33" fill-rule="nonzero" d="M23.79 33.24l0 0c-0.5,0 -0.91,-0.41 -0.91,-0.91l0 -0.91c0,-0.5 0.41,-0.91 0.91,-0.91l0 0c0.5,0 0.91,0.41 0.91,0.91l0 0.91c0,0.5 -0.41,0.91 -0.91,0.91z"/>
  <path fill="#623F33" fill-rule="nonzero" d="M36.54 33.24l0 0c-0.5,0 -0.91,-0.41 -0.91,-0.91l0 -0.91c0,-0.5 0.41,-0.91 0.91,-0.91l0 0c0.5,0 0.91,0.41 0.91,0.91l0 0.91c0,0.5 -0.41,0.91 -0.91,0.91z"/>
  <path fill="#E4B07B" fill-rule="nonzero" d="M30.16 39.64c-1.62,0 -3.13,-0.4 -4.15,-1.1 -0.42,-0.28 -0.52,-0.85 -0.24,-1.26 0.28,-0.42 0.85,-0.52 1.26,-0.24 0.72,0.48 1.89,0.78 3.13,0.78 1.25,0 2.42,-0.3 3.13,-0.78 0.42,-0.29 0.99,-0.18 1.27,0.24 0.28,0.41 0.17,0.98 -0.24,1.26 -1.02,0.7 -2.54,1.1 -4.16,1.1z"/>
 </g>
</svg>
