<?xml version="1.0" encoding="UTF-8"?>
<!DOCTYPE svg PUBLIC "-//W3C//DTD SVG 1.0//EN" "http://www.w3.org/TR/2001/REC-SVG-20010904/DTD/svg10.dtd">
<!-- Creator: CorelDRAW 2020 (64 Bit) -->
<svg xmlns="http://www.w3.org/2000/svg" xml:space="preserve" width="339px" height="360px" version="1.0" shape-rendering="geometricPrecision" text-rendering="geometricPrecision" image-rendering="optimizeQuality" fill-rule="evenodd" clip-rule="evenodd"
viewBox="0 0 42.28 44.99"
 xmlns:xlink="http://www.w3.org/1999/xlink"
 xmlns:xodm="http://www.corel.com/coreldraw/odm/2003">
 <g id="Camada_x0020_1">
  <metadata id="CorelCorpID_0Corel-Layer"/>
  <rect fill="none" width="42.28" height="44.99"/>
  <path fill="#FDC88E" fill-rule="nonzero" d="M18.72 30.47l0 0 0 0 -0.04 -0.01 -4.12 -1.72c-1.42,-0.59 -2.35,-1.99 -2.35,-3.53l0 -0.64c-1.06,0 -1.92,-0.86 -1.92,-1.91 0,-1.06 0.86,-1.92 1.92,-1.92l0.01 -3.83c0,-1.54 1.1,-2.83 2.55,-3.12l0.64 -0.07 11.49 0c1.76,0 3.19,1.43 3.19,3.19l0 3.83 -0.02 0c1.06,0 1.92,0.86 1.92,1.92 0,1.05 -0.86,1.91 -1.92,1.91l0 0.64c0,1.54 -0.93,2.94 -2.35,3.53l-4.13 1.72c-0.77,0.32 -1.61,0.49 -2.45,0.49l0 0c-0.78,0 -1.56,-0.14 -2.28,-0.42l-0.01 0 0 -0.01 -0.01 0 -0.01 0 -0.01 -0.01 -0.01 0 0 0zm-0.09 -0.04l0 0.01 0 -0.01zm0 0.01l0 0 0 0zm0 0l0.01 0 -0.01 0zm0.01 0l0 0 0 0 0.01 0 -0.01 0zm0.02 0.01l0.01 0 0.01 0.01 0 0 0.01 0 0.01 0z"/>
  <path fill="#FDC88E" d="M25.53 33c-0.35,-0.23 -0.56,-0.62 -0.56,-1.05l0 -2.06 -0.19 0.08 0 0 -1.19 0.49c-1.54,0.65 -3.31,0.66 -4.86,0.02l-1.42 -0.59 0 2.06c0,0.45 -0.24,0.86 -0.62,1.09l0 0c-0.08,0.05 -0.16,0.09 -0.25,0.12l-3.22 1.18c-1.76,0.65 -2.93,2.32 -2.93,4.2l0 5.17c0,0.71 0.57,1.28 1.28,1.28l19.14 0c0.71,0 1.28,-0.57 1.28,-1.28l0 -5.17c0,-1.88 -1.17,-3.55 -2.93,-4.2l-3.53 -1.34z"/>
  <rect fill="none" x="16.67" y="21.38" width="8.93" height="6.4"/>
  <path fill="#E2A071" fill-rule="nonzero" d="M17.31 29.89l0 2.06c0,0.45 -0.24,0.86 -0.62,1.09 4.56,0.79 7.37,-2.2 8.09,-3.07l-1.19 0.49c-1.54,0.65 -3.31,0.66 -4.86,0.02z"/>
  <path fill="#F6B47B" fill-rule="nonzero" d="M15.56 27.42c-0.52,-0.55 -0.8,-1.29 -0.8,-2.04l0.01 -11.59c-1.45,0.29 -2.55,1.58 -2.55,3.12l-0.01 3.83c-1.06,0 -1.92,0.86 -1.92,1.92 0,1.05 0.86,1.91 1.92,1.91l0 0.64c0,1.54 0.93,2.94 2.35,3.53l4.12 1.72c0.21,0.08 0.41,0.16 0.62,0.22l0 0c-1.82,-1.33 -3.03,-2.5 -3.74,-3.26z"/>
  <path fill="#623F33" fill-rule="nonzero" d="M16.67 23.29l0 0c-0.35,0 -0.64,-0.28 -0.64,-0.63l0 -0.64c0,-0.35 0.29,-0.64 0.64,-0.64l0 0c0.35,0 0.64,0.29 0.64,0.64l0 0.64c0,0.35 -0.29,0.63 -0.64,0.63z"/>
  <path fill="#623F33" fill-rule="nonzero" d="M25.61 23.29l0 0c-0.36,0 -0.64,-0.28 -0.64,-0.63l0 -0.64c0,-0.35 0.28,-0.64 0.64,-0.64l0 0c0.35,0 0.63,0.29 0.63,0.64l0 0.64c0,0.35 -0.28,0.63 -0.63,0.63z"/>
  <path fill="#E2A071" fill-rule="nonzero" d="M21.14 27.78c-1.14,0 -2.2,-0.28 -2.91,-0.77 -0.29,-0.2 -0.37,-0.59 -0.17,-0.88 0.2,-0.3 0.59,-0.37 0.89,-0.17 0.5,0.34 1.32,0.54 2.19,0.54 0.87,0 1.69,-0.2 2.19,-0.54 0.29,-0.2 0.69,-0.13 0.89,0.17 0.2,0.29 0.12,0.68 -0.17,0.88 -0.72,0.49 -1.78,0.77 -2.91,0.77z"/>
 </g>
</svg>
