<?xml version="1.0" encoding="UTF-8"?>
<!DOCTYPE svg PUBLIC "-//W3C//DTD SVG 1.0//EN" "http://www.w3.org/TR/2001/REC-SVG-20010904/DTD/svg10.dtd">
<!-- Creator: CorelDRAW 2020 (64 Bit) -->
<svg xmlns="http://www.w3.org/2000/svg" xml:space="preserve" width="339px" height="360px" version="1.0" shape-rendering="geometricPrecision" text-rendering="geometricPrecision" image-rendering="optimizeQuality" fill-rule="evenodd" clip-rule="evenodd"
viewBox="0 0 32.54 34.63"
 xmlns:xlink="http://www.w3.org/1999/xlink"
 xmlns:xodm="http://www.corel.com/coreldraw/odm/2003">
 <g id="Camada_x0020_1">
  <metadata id="CorelCorpID_0Corel-Layer"/>
  <rect fill="none" width="32.54" height="34.63"/>
  <path fill="#C38762" d="M19.65 25.4c-0.27,-0.18 -0.43,-0.48 -0.43,-0.81l0 -1.58 -0.15 0.06 0 0 -0.91 0.38c-1.19,0.49 -2.55,0.5 -3.75,0.01l-1.09 -0.45 0 1.58c0,0.35 -0.18,0.67 -0.47,0.84l0 0c-0.06,0.04 -0.13,0.07 -0.2,0.09l-2.48 0.91c-1.35,0.5 -2.25,1.79 -2.25,3.23l0 3.99c0,0.54 0.44,0.98 0.98,0.98l14.74 0c0.54,0 0.98,-0.44 0.98,-0.98l0 -3.99c0,-1.44 -0.9,-2.73 -2.25,-3.23l-2.72 -1.03z"/>
  <path fill="#D29771" fill-rule="nonzero" d="M14.41 23.46l0 0 0 0 -0.03 -0.01 -3.17 -1.33c-1.1,-0.45 -1.81,-1.53 -1.81,-2.72l0 -0.49c-0.82,0 -1.48,-0.66 -1.48,-1.47 0,-0.81 0.66,-1.47 1.48,-1.47l0.01 -2.95c0,-1.19 0.84,-2.18 1.96,-2.41l0.49 -0.05 8.84 0c1.36,0 2.46,1.1 2.46,2.46l0 2.95 -0.01 0c0.81,0 1.47,0.66 1.47,1.47 0,0.81 -0.66,1.47 -1.47,1.47l0 0.49c0,1.19 -0.72,2.27 -1.82,2.72l-3.17 1.33c-0.6,0.25 -1.24,0.37 -1.89,0.37l0 0c-0.6,0 -1.2,-0.11 -1.76,-0.32l0 0 0 0 -0.01 -0.01 -0.01 0 -0.01 0 0 -0.01 0 0zm-0.07 -0.02l0 0 0 0zm0 0l0 0 0 0zm0 0l0 0 0 0zm0 0l0.01 0 -0.01 0 0.01 0 0 0zm0.01 0.01l0.01 0 0.01 0 0 0 0.01 0.01 0 0z"/>
  <rect fill="none" x="12.83" y="16.46" width="6.88" height="4.92"/>
  <path fill="#A46D4D" fill-rule="nonzero" d="M13.32 23.01l0 1.58c0,0.35 -0.18,0.67 -0.47,0.84 3.51,0.61 5.67,-1.69 6.22,-2.36l-0.91 0.38c-1.19,0.49 -2.55,0.5 -3.75,0.01z"/>
  <path fill="#C38762" fill-rule="nonzero" d="M11.97 21.11c-0.39,-0.43 -0.61,-0.99 -0.61,-1.58l0.01 -8.92c-1.12,0.23 -1.96,1.22 -1.96,2.41l-0.01 2.95c-0.82,0 -1.48,0.66 -1.48,1.47 0,0.81 0.66,1.47 1.48,1.47l0 0.49c0,1.19 0.71,2.27 1.81,2.72l3.17 1.33c0.16,0.06 0.32,0.12 0.48,0.16l0 0c-1.41,-1.02 -2.34,-1.92 -2.89,-2.5z"/>
  <path fill="#623F33" fill-rule="nonzero" d="M12.83 17.93l0 0c-0.27,0 -0.49,-0.22 -0.49,-0.49l0 -0.49c0,-0.27 0.22,-0.49 0.49,-0.49l0 0c0.27,0 0.49,0.22 0.49,0.49l0 0.49c0,0.27 -0.22,0.49 -0.49,0.49z"/>
  <path fill="#623F33" fill-rule="nonzero" d="M19.71 17.93l0 0c-0.27,0 -0.49,-0.22 -0.49,-0.49l0 -0.49c0,-0.27 0.22,-0.49 0.49,-0.49l0 0c0.27,0 0.49,0.22 0.49,0.49l0 0.49c0,0.27 -0.22,0.49 -0.49,0.49z"/>
  <path fill="#A46D4D" fill-rule="nonzero" d="M16.27 21.38c-0.87,0 -1.69,-0.21 -2.24,-0.59 -0.22,-0.15 -0.28,-0.46 -0.13,-0.68 0.15,-0.22 0.46,-0.28 0.68,-0.13 0.39,0.26 1.02,0.42 1.69,0.42 0.67,0 1.3,-0.16 1.69,-0.42 0.22,-0.15 0.53,-0.09 0.68,0.13 0.15,0.22 0.1,0.53 -0.13,0.68 -0.55,0.38 -1.37,0.59 -2.24,0.59z"/>
 </g>
</svg>
