<?xml version="1.0" encoding="UTF-8"?>
<!DOCTYPE svg PUBLIC "-//W3C//DTD SVG 1.0//EN" "http://www.w3.org/TR/2001/REC-SVG-20010904/DTD/svg10.dtd">
<!-- Creator: CorelDRAW 2020 (64 Bit) -->
<svg xmlns="http://www.w3.org/2000/svg" xml:space="preserve" width="339px" height="360px" version="1.0" shape-rendering="geometricPrecision" text-rendering="geometricPrecision" image-rendering="optimizeQuality" fill-rule="evenodd" clip-rule="evenodd"
viewBox="0 0 26.45 28.15"
 xmlns:xlink="http://www.w3.org/1999/xlink"
 xmlns:xodm="http://www.corel.com/coreldraw/odm/2003">
 <g id="Camada_x0020_1">
  <metadata id="CorelCorpID_0Corel-Layer"/>
  <rect fill="none" width="26.45" height="28.15"/>
  <path fill="#A2795C" fill-rule="nonzero" d="M11.71 19.07l0 0 0 0 -0.02 -0.01 -2.58 -1.08c-0.89,-0.37 -1.47,-1.24 -1.47,-2.21l0 -0.4c-0.66,0 -1.2,-0.53 -1.2,-1.2 0,-0.66 0.54,-1.19 1.2,-1.19l0.01 -2.4c0,-0.96 0.68,-1.77 1.59,-1.95l0.4 -0.04 7.19 0c1.1,0 1.99,0.89 1.99,1.99l0 2.4 -0.01 0c0.67,0 1.2,0.53 1.2,1.19 0,0.67 -0.53,1.2 -1.2,1.2l0 0.4c0,0.97 -0.58,1.84 -1.47,2.21l-2.58 1.08c-0.49,0.2 -1.01,0.3 -1.53,0.3l0 0c-0.49,0 -0.98,-0.09 -1.43,-0.26l-0.01 0 0 0 0 0 -0.01 -0.01 -0.01 0 0 0 0 0zm-0.06 -0.02l0 0 0 0zm0 0l0 0 0 0zm0 0l0.01 0 -0.01 0zm0.01 0l0 0 0 0 0 0 0 0zm0.01 0l0.01 0.01 0 0 0.01 0 0 0 0.01 0z"/>
  <path fill="#956E55" d="M15.97 20.65c-0.21,-0.15 -0.35,-0.39 -0.35,-0.66l0 -1.29 -0.12 0.05 0 0 -0.74 0.31c-0.97,0.4 -2.07,0.41 -3.04,0.01l-0.89 -0.37 0 1.29c0,0.28 -0.15,0.54 -0.39,0.68l0 0c-0.05,0.03 -0.1,0.06 -0.16,0.07l-2.01 0.75c-1.1,0.4 -1.83,1.45 -1.83,2.62l0 3.24c0,0.44 0.36,0.8 0.8,0.8l11.97 0c0.44,0 0.8,-0.36 0.8,-0.8l0 -3.24c0,-1.17 -0.73,-2.22 -1.83,-2.62l-2.21 -0.84z"/>
  <rect fill="none" x="10.43" y="13.38" width="5.59" height="4"/>
  <path fill="#7C5A49" fill-rule="nonzero" d="M10.83 18.7l0 1.29c0,0.28 -0.15,0.54 -0.39,0.68 2.86,0.49 4.61,-1.37 5.06,-1.92l-0.74 0.31c-0.97,0.4 -2.07,0.41 -3.04,0.01z"/>
  <path fill="#956E55" fill-rule="nonzero" d="M9.73 17.15c-0.32,-0.34 -0.5,-0.8 -0.5,-1.27l0.01 -7.25c-0.91,0.18 -1.59,0.99 -1.59,1.95l-0.01 2.4c-0.66,0 -1.2,0.53 -1.2,1.19 0,0.67 0.54,1.2 1.2,1.2l0 0.4c0,0.97 0.58,1.84 1.47,2.21l2.58 1.08c0.13,0.05 0.26,0.1 0.39,0.13l0 0c-1.14,-0.83 -1.9,-1.56 -2.35,-2.04z"/>
  <path fill="#623F33" fill-rule="nonzero" d="M10.43 14.57l0 0c-0.22,0 -0.4,-0.18 -0.4,-0.4l0 -0.39c0,-0.22 0.18,-0.4 0.4,-0.4l0 0c0.22,0 0.4,0.18 0.4,0.4l0 0.39c0,0.22 -0.18,0.4 -0.4,0.4z"/>
  <path fill="#623F33" fill-rule="nonzero" d="M16.02 14.57l0 0c-0.22,0 -0.4,-0.18 -0.4,-0.4l0 -0.39c0,-0.22 0.18,-0.4 0.4,-0.4l0 0c0.22,0 0.4,0.18 0.4,0.4l0 0.39c0,0.22 -0.18,0.4 -0.4,0.4z"/>
  <path fill="#7C5A49" fill-rule="nonzero" d="M13.23 17.38c-0.71,0 -1.38,-0.18 -1.83,-0.48 -0.18,-0.12 -0.23,-0.37 -0.1,-0.55 0.12,-0.19 0.37,-0.23 0.55,-0.11 0.32,0.21 0.83,0.34 1.38,0.34 0.54,0 1.05,-0.13 1.37,-0.34 0.18,-0.12 0.43,-0.08 0.55,0.11 0.13,0.18 0.08,0.43 -0.1,0.55 -0.45,0.3 -1.11,0.48 -1.82,0.48z"/>
 </g>
</svg>
