<?xml version="1.0" encoding="UTF-8"?>
<!DOCTYPE svg PUBLIC "-//W3C//DTD SVG 1.0//EN" "http://www.w3.org/TR/2001/REC-SVG-20010904/DTD/svg10.dtd">
<!-- Creator: CorelDRAW 2020 (64 Bit) -->
<svg xmlns="http://www.w3.org/2000/svg" xml:space="preserve" width="339px" height="360px" version="1.0" shape-rendering="geometricPrecision" text-rendering="geometricPrecision" image-rendering="optimizeQuality" fill-rule="evenodd" clip-rule="evenodd"
viewBox="0 0 22.28 23.71"
 xmlns:xlink="http://www.w3.org/1999/xlink"
 xmlns:xodm="http://www.corel.com/coreldraw/odm/2003">
 <g id="Camada_x0020_1">
  <metadata id="CorelCorpID_0Corel-Layer"/>
  <rect fill="none" width="22.28" height="23.71"/>
  <path fill="#7C5A49" fill-rule="nonzero" d="M9.86 16.06l0.01 0 -0.01 0 -0.01 -0.01 -2.18 -0.9c-0.75,-0.32 -1.24,-1.05 -1.24,-1.87l0 -0.33c-0.55,0 -1.01,-0.45 -1.01,-1.01 0,-0.56 0.46,-1.01 1.01,-1.01l0.01 -2.02c0,-0.81 0.58,-1.49 1.35,-1.64l0.33 -0.04 6.05 0c0.93,0 1.69,0.75 1.69,1.68l0 2.02 -0.01 0c0.56,0 1.01,0.45 1.01,1.01 0,0.56 -0.45,1.01 -1.01,1.01l0 0.33c0,0.82 -0.49,1.55 -1.24,1.87l-2.18 0.9c-0.41,0.17 -0.85,0.26 -1.29,0.26l0 0c-0.41,0 -0.82,-0.07 -1.2,-0.22l-0.01 0 0 0 0 -0.01 -0.01 0 0 0 -0.01 0 0 0zm-0.04 -0.02l0 0 0 0zm0 0l0 0 0 0zm0 0l0 0 0 0zm0 0l0 0 0 0 0.01 0 -0.01 0zm0.01 0.01l0.01 0 0 0 0 0 0.01 0 0 0z"/>
  <path fill="#6F5141" d="M13.45 17.39c-0.18,-0.12 -0.29,-0.33 -0.29,-0.55l0 -1.09 -0.1 0.04 0 0 -0.63 0.26c-0.81,0.34 -1.74,0.35 -2.56,0.01l-0.75 -0.31 0 1.09c0,0.24 -0.12,0.45 -0.32,0.57l0 0c-0.04,0.03 -0.09,0.05 -0.14,0.06l-1.7 0.63c-0.92,0.34 -1.54,1.22 -1.54,2.21l0 2.73c0,0.37 0.3,0.67 0.68,0.67l10.08 0c0.38,0 0.68,-0.3 0.68,-0.67l0 -2.73c0,-0.99 -0.62,-1.87 -1.54,-2.21l-1.87 -0.71z"/>
  <rect fill="none" x="8.79" y="11.27" width="4.71" height="3.37"/>
  <path fill="#5D4336" fill-rule="nonzero" d="M9.12 15.75l0 1.09c0,0.24 -0.12,0.45 -0.32,0.57 2.4,0.42 3.88,-1.16 4.26,-1.62l-0.63 0.26c-0.81,0.34 -1.74,0.35 -2.56,0.01z"/>
  <path fill="#6F5141" fill-rule="nonzero" d="M8.2 14.45c-0.27,-0.29 -0.42,-0.68 -0.42,-1.08l0.01 -6.1c-0.77,0.15 -1.35,0.83 -1.35,1.64l-0.01 2.02c-0.55,0 -1.01,0.45 -1.01,1.01 0,0.56 0.46,1.01 1.01,1.01l0 0.33c0,0.82 0.49,1.55 1.24,1.87l2.18 0.9c0.1,0.05 0.21,0.09 0.32,0.12l0 0c-0.96,-0.7 -1.6,-1.32 -1.97,-1.72z"/>
  <path fill="#623F33" fill-rule="nonzero" d="M8.79 12.28l0 0c-0.19,0 -0.34,-0.16 -0.34,-0.34l0 -0.34c0,-0.18 0.15,-0.33 0.34,-0.33l0 0c0.18,0 0.33,0.15 0.33,0.33l0 0.34c0,0.18 -0.15,0.34 -0.33,0.34z"/>
  <path fill="#623F33" fill-rule="nonzero" d="M13.49 12.28l0 0c-0.18,0 -0.33,-0.16 -0.33,-0.34l0 -0.34c0,-0.18 0.15,-0.33 0.33,-0.33l0 0c0.19,0 0.34,0.15 0.34,0.33l0 0.34c0,0.18 -0.15,0.34 -0.34,0.34z"/>
  <path fill="#5D4336" fill-rule="nonzero" d="M11.14 14.64c-0.6,0 -1.16,-0.15 -1.53,-0.4 -0.16,-0.11 -0.2,-0.32 -0.09,-0.47 0.1,-0.16 0.31,-0.2 0.46,-0.09 0.27,0.18 0.7,0.29 1.16,0.29 0.46,0 0.89,-0.11 1.16,-0.29 0.15,-0.11 0.36,-0.07 0.46,0.09 0.11,0.15 0.07,0.36 -0.09,0.47 -0.37,0.25 -0.93,0.4 -1.53,0.4z"/>
 </g>
</svg>
