<?xml version="1.0" encoding="UTF-8"?>
<!DOCTYPE svg PUBLIC "-//W3C//DTD SVG 1.1//EN" "http://www.w3.org/Graphics/SVG/1.1/DTD/svg11.dtd">
<!-- Creator: CorelDRAW 2020 (64 Bit) -->
<svg xmlns="http://www.w3.org/2000/svg" xml:space="preserve" width="28.6738mm" height="30.5132mm" version="1.1" style="shape-rendering:geometricPrecision; text-rendering:geometricPrecision; image-rendering:optimizeQuality; fill-rule:evenodd; clip-rule:evenodd"
viewBox="0 0 17.27 18.38"
 xmlns:xlink="http://www.w3.org/1999/xlink"
 xmlns:xodm="http://www.corel.com/coreldraw/odm/2003">
 <g id="h00">
  <metadata id="CorelCorpID_0Corel-Layer"/>
  <rect style="fill:none" width="17.27" height="18.38"/>
  <rect style="fill:none" x="6.81" y="8.73" width="3.65" height="2.61"/>
  <g id="_2203899857024">
   <g>
    <path style="fill:#C93F44;fill-rule:nonzero" d="M5.05 6.91l-2.94 0.24c-0.14,0.01 -0.25,0.13 -0.25,0.27l0 0c0,0.15 0.12,0.27 0.27,0.27l2.92 0 0 -0.78z"/>
   </g>
   <g>
    <path style="fill:#FF4F4F;fill-rule:nonzero" d="M11.67 4.45l-2.54 -1.09c-0.16,-0.07 -0.33,-0.1 -0.5,-0.1l-0 0c-0.17,0 -0.34,0.03 -0.5,0.1l-2.54 1.09c-0.52,0.22 -0.84,0.75 -0.78,1.32l0.17 1.92 4.43 0c0.14,0 0.26,-0.12 0.26,-0.26l0 -0.78c0,-0.14 0.12,-0.26 0.26,-0.26l1.56 0c0.14,0 0.26,0.12 0.26,0.26l0 0.78c0,0.14 0.12,0.26 0.26,0.26l0.26 0 0.17 -1.92c0.05,-0.56 -0.27,-1.09 -0.78,-1.32z"/>
   </g>
   <g>
    <path style="fill:#F23F44;fill-rule:nonzero" d="M8.64 3.26l-0 0c-0.17,0 -0.34,0.03 -0.5,0.1l-2.54 1.09c-0.52,0.22 -0.84,0.75 -0.78,1.32l0.17 1.92 2.09 0 0 -2.22c0,-0.41 0.16,-0.81 0.46,-1.11l1.11 -1.11z"/>
   </g>
   <g>
    <rect style="fill:#F23F44;fill-rule:nonzero" x="9.68" y="6.91" width="2.09" height="0.52"/>
   </g>
  </g>
 </g>
</svg>
