<?xml version="1.0" encoding="UTF-8"?>
<!DOCTYPE svg PUBLIC "-//W3C//DTD SVG 1.0//EN" "http://www.w3.org/TR/2001/REC-SVG-20010904/DTD/svg10.dtd">
<!-- Creator: CorelDRAW 2020 (64 Bit) -->
<svg xmlns="http://www.w3.org/2000/svg" xml:space="preserve" width="339px" height="360px" version="1.0" shape-rendering="geometricPrecision" text-rendering="geometricPrecision" image-rendering="optimizeQuality" fill-rule="evenodd" clip-rule="evenodd"
viewBox="0 0 14.01 14.91"
 xmlns:xlink="http://www.w3.org/1999/xlink"
 xmlns:xodm="http://www.corel.com/coreldraw/odm/2003">
 <g id="Camada_x0020_1">
  <metadata id="CorelCorpID_0Corel-Layer"/>
  <rect fill="none" width="14.01" height="14.91"/>
  <g id="_1774241058368">
   <path fill="#57B9DD" fill-rule="nonzero" d="M9.97 6.24l-5.93 0 -0.14 -1.56c-0.04,-0.46 0.22,-0.89 0.64,-1.07l2.06 -0.88c0.13,-0.06 0.27,-0.09 0.41,-0.09l0 0c0.13,0 0.27,0.03 0.4,0.09l2.06 0.88c0.42,0.18 0.68,0.61 0.64,1.07l-0.14 1.56z"/>
  </g>
  <g id="_1774241059376">
   <path fill="#43A0C5" fill-rule="nonzero" d="M7.01 2.64l0 0c-0.14,0 -0.28,0.03 -0.41,0.09l-2.06 0.88c-0.42,0.18 -0.68,0.61 -0.64,1.07l0.14 1.56 2.97 0 0 -3.6z"/>
  </g>
  <g id="_1774241059616">
   <path fill="#1179A2" fill-rule="nonzero" d="M9.64 5.6l-5.33 0c-0.32,0 -0.52,0.34 -0.38,0.62l0.11 0.23 5.93 0 0.08 -0.32c0.06,-0.27 -0.14,-0.53 -0.41,-0.53z"/>
  </g>
  <g id="_1774241061104">
   <path fill="#E09156" fill-rule="nonzero" d="M5.31 6.45c0,0 0.82,0.4 2.12,0.63 0,0 -0.27,-0.25 -0.64,-0.63l-1.48 0z"/>
  </g>
  <g id="_1774241058464">
   <path fill="#E09156" fill-rule="nonzero" d="M7.22 6.45c0,0 0.53,0.28 1.05,0.42l-0.21 -0.42 -0.84 0z"/>
  </g>
  <g id="_1774241062736">
   <path fill="#E09156" fill-rule="nonzero" d="M4.04 6.45l0 0.42 0.17 0c0.16,0 0.3,-0.09 0.37,-0.23l0.1 -0.19 -0.64 0z"/>
  </g>
  <g id="_1774241062208">
   <path fill="#E09156" fill-rule="nonzero" d="M9.97 6.45l0 0.42 -0.17 0c-0.16,0 -0.3,-0.09 -0.37,-0.23l-0.1 -0.19 0.64 0z"/>
  </g>
 </g>
</svg>
