<?xml version="1.0" encoding="UTF-8"?>
<!DOCTYPE svg PUBLIC "-//W3C//DTD SVG 1.0//EN" "http://www.w3.org/TR/2001/REC-SVG-20010904/DTD/svg10.dtd">
<!-- Creator: CorelDRAW 2020 (64 Bit) -->
<svg xmlns="http://www.w3.org/2000/svg" xml:space="preserve" width="339px" height="360px" version="1.0" shape-rendering="geometricPrecision" text-rendering="geometricPrecision" image-rendering="optimizeQuality" fill-rule="evenodd" clip-rule="evenodd"
viewBox="0 0 10.53 11.2"
 xmlns:xlink="http://www.w3.org/1999/xlink"
 xmlns:xodm="http://www.corel.com/coreldraw/odm/2003">
 <g id="Camada_x0020_1">
  <metadata id="CorelCorpID_0Corel-Layer"/>
  <rect fill="none" width="10.53" height="11.2"/>
  <g id="_1775957615504">
   <path fill="#FFC85C" fill-rule="nonzero" d="M7.12 7.36c0.47,-0.14 0.98,-0.32 1.16,-0.45 -0.07,-0.96 -0.17,-1.87 -0.32,-2.59 -0.28,-1.42 -1.39,-2.33 -2.7,-2.33 -1.3,0 -2.41,0.91 -2.69,2.33 -0.15,0.72 -0.25,1.63 -0.32,2.59 0.18,0.14 0.69,0.32 1.17,0.45 0.04,-1.06 0.08,-2.04 0.1,-2.51 0.98,-0.15 1.12,0.24 2.22,0l0.16 -0.32 0.16 0.16 0.63 0 0.32 -0.48c0,0 0.06,1.53 0.11,3.15z"/>
  </g>
  <path fill="#F6B45E" fill-rule="nonzero" d="M2.57 4.32c-0.15,0.72 -0.25,1.63 -0.32,2.59 0.18,0.14 0.69,0.32 1.17,0.45 0.04,-1.06 0.08,-2.04 0.1,-2.51 0.26,-0.04 0.46,-0.04 0.64,-0.03 0.05,-1.25 0.63,-2.83 1.1,-2.83 -1.3,0 -2.41,0.91 -2.69,2.33z"/>
 </g>
</svg>
