<?xml version="1.0" encoding="UTF-8"?>
<!DOCTYPE svg PUBLIC "-//W3C//DTD SVG 1.0//EN" "http://www.w3.org/TR/2001/REC-SVG-20010904/DTD/svg10.dtd">
<!-- Creator: CorelDRAW 2020 (64 Bit) -->
<svg xmlns="http://www.w3.org/2000/svg" xml:space="preserve" width="339px" height="360px" version="1.0" shape-rendering="geometricPrecision" text-rendering="geometricPrecision" image-rendering="optimizeQuality" fill-rule="evenodd" clip-rule="evenodd"
viewBox="0 0 11.23 11.95"
 xmlns:xlink="http://www.w3.org/1999/xlink"
 xmlns:xodm="http://www.corel.com/coreldraw/odm/2003">
 <g id="Camada_x0020_1">
  <metadata id="CorelCorpID_0Corel-Layer"/>
  <rect fill="none" width="11.23" height="11.95"/>
  <path fill="#6E4439" fill-rule="nonzero" d="M7.65 7.45c0.01,0.3 0.08,0.63 0.17,0.94l0.33 0c0.1,-0.34 0.18,-0.7 0.17,-1.02 0,-0.39 -0.08,-0.72 -0.13,-0.89 -0.06,0.03 -0.13,0.04 -0.2,0.04l0 0.17c0,0.3 -0.13,0.57 -0.34,0.76z"/>
  <path fill="#5E342E" fill-rule="nonzero" d="M3.03 6.48c-0.05,0.17 -0.12,0.5 -0.13,0.89 0,0.32 0.08,0.68 0.17,1.02l0.34 0c0.08,-0.31 0.16,-0.64 0.17,-0.94 -0.21,-0.19 -0.34,-0.46 -0.34,-0.76l0 -0.17c-0.07,0 -0.14,-0.01 -0.21,-0.04z"/>
  <path fill="#F23F44" fill-rule="nonzero" d="M3.16 5.26l-0.94 0c-0.12,0 -0.2,0.12 -0.15,0.23l0.17 0.43c0.04,0.1 0.15,0.14 0.24,0.08l0.29 -0.16c0.06,-0.17 0.21,-0.3 0.39,-0.33l0 -0.25z"/>
  <g id="_1774248122848">
   <path fill="#FF4F4F" fill-rule="nonzero" d="M3.16 5.26l-0.94 0c-0.12,0 -0.2,-0.12 -0.15,-0.23l0.17 -0.43c0.04,-0.1 0.15,-0.14 0.24,-0.08l0.68 0.4 0 0.34z"/>
  </g>
  <path fill="#F23F44" fill-rule="nonzero" d="M8.07 5.26l0.93 0c0.12,0 0.2,0.12 0.16,0.23l-0.17 0.43c-0.04,0.1 -0.16,0.14 -0.25,0.08l-0.28 -0.16c-0.06,-0.17 -0.21,-0.3 -0.39,-0.33l0 -0.25z"/>
  <g id="_1774248127936">
   <path fill="#FF4F4F" fill-rule="nonzero" d="M8.07 5.26l0.93 0c0.12,0 0.2,-0.12 0.16,-0.23l-0.17 -0.43c-0.04,-0.1 -0.16,-0.14 -0.25,-0.08l-0.67 0.4 0 0.34z"/>
  </g>
  <path fill="#6E4439" fill-rule="nonzero" d="M6.46 2.12c-0.55,0 -0.85,0.17 -0.85,0.17 0,0 -0.29,-0.17 -0.84,-0.17 -0.55,0 -2.64,1.06 -1.87,3.52 0,0 2.71,-0.49 2.71,-1.66 0,1.17 2.71,1.66 2.71,1.66 0.78,-2.46 -1.31,-3.52 -1.86,-3.52z"/>
  <g id="_1774248128272">
   <path fill="#5E342E" fill-rule="nonzero" d="M5.61 2.29l0 0c0,0 -0.29,-0.17 -0.84,-0.17 -0.55,0 -2.64,1.06 -1.87,3.52 0,0 0.33,-0.06 0.76,-0.19 -0.48,-2.2 1.43,-3.16 1.95,-3.16z"/>
  </g>
  <g id="_1774248125728">
   <path fill="#F23F44" fill-rule="nonzero" d="M3.41 8.73l-0.34 0c-0.09,0 -0.17,-0.08 -0.17,-0.17l0 0c0,-0.1 0.08,-0.17 0.17,-0.17l0.34 0c0.09,0 0.17,0.07 0.17,0.17l0 0c0,0.09 -0.08,0.17 -0.17,0.17z"/>
  </g>
  <g id="_1774248126832">
   <g>
    <path fill="#5E342E" fill-rule="nonzero" d="M3.41 8.73c0,0 0.3,0.51 -0.17,1.18 -0.46,-0.67 -0.17,-1.18 -0.17,-1.18l0.34 0zm0 0l0 0 0 0z"/>
   </g>
  </g>
  <g>
   <path fill="#FF4F4F" fill-rule="nonzero" d="M7.82 8.73l0.33 0c0.1,0 0.17,-0.08 0.17,-0.17l0 0c0,-0.1 -0.07,-0.17 -0.17,-0.17l-0.33 0c-0.1,0 -0.17,0.07 -0.17,0.17l0 0c0,0.09 0.07,0.17 0.17,0.17z"/>
  </g>
  <g>
   <g>
    <path fill="#6E4439" fill-rule="nonzero" d="M7.82 8.73c0,0 -0.3,0.51 0.17,1.18 0.46,-0.67 0.16,-1.18 0.16,-1.18l-0.33 0zm0 0l0 0 0 0z"/>
   </g>
  </g>
 </g>
</svg>
