<?xml version="1.0" encoding="UTF-8"?>
<!DOCTYPE svg PUBLIC "-//W3C//DTD SVG 1.0//EN" "http://www.w3.org/TR/2001/REC-SVG-20010904/DTD/svg10.dtd">
<!-- Creator: CorelDRAW 2020 (64 Bit) -->
<svg xmlns="http://www.w3.org/2000/svg" xml:space="preserve" width="339px" height="360px" version="1.0" shape-rendering="geometricPrecision" text-rendering="geometricPrecision" image-rendering="optimizeQuality" fill-rule="evenodd" clip-rule="evenodd"
viewBox="0 0 12.02 12.79"
 xmlns:xlink="http://www.w3.org/1999/xlink"
 xmlns:xodm="http://www.corel.com/coreldraw/odm/2003">
 <g id="Camada_x0020_1">
  <metadata id="CorelCorpID_0Corel-Layer"/>
  <rect fill="none" width="12.02" height="12.79"/>
  <g id="_1774246742608">
   <path fill="#8DB9E2" fill-rule="nonzero" d="M9.1 3.18c0,0 -0.07,-0.05 -0.19,-0.12 -0.03,-0.42 -0.18,-0.61 -0.18,-0.61l-0.66 0.22c-0.58,-0.21 -1.39,-0.4 -2.42,-0.4 0,0 -0.12,0.12 -0.36,0.18 0,0 -0.62,-0.14 -1.27,-0.18l-0.37 0.91c0,0 -0.9,-0.01 -0.9,1.09 0,0.4 0.22,1.4 0.32,1.81 0.1,-0.11 0.24,-0.18 0.4,-0.18l0 -0.36c0,-0.5 0.4,-0.9 0.9,-0.91 -0.14,0.3 -0.17,0.54 -0.17,0.54 0.45,-0.3 1.04,-0.54 1.81,-0.54l1.63 0c0.51,0 0.91,0.4 0.91,0.91l0 0.36c0.18,0 0.33,0.08 0.43,0.21 0.16,-0.4 0.52,-1.54 0.12,-2.93z"/>
  </g>
  <g id="_1774246740880">
   <path fill="#6AA2DE" fill-rule="nonzero" d="M8.73 2.45l-0.66 0.22c-0.58,-0.21 -1.39,-0.4 -2.42,-0.4 0,0 -0.12,0.12 -0.36,0.18 0,0 -0.62,-0.14 -1.27,-0.18l-0.37 0.91c0,0 -0.9,-0.01 -0.9,1.09 0,0.4 0.22,1.4 0.32,1.81 0.1,-0.11 0.24,-0.18 0.4,-0.18l0 -0.36c0,-0.48 0.37,-0.86 0.83,-0.9 -0.05,0.13 -0.1,0.32 -0.1,0.53 0.71,-0.9 1.73,-1.23 2.54,-1.45 0.8,-0.21 0.9,-0.54 0.9,-0.54 0,0 0.8,-0.05 1.09,-0.73z"/>
  </g>
 </g>
</svg>
