<?xml version="1.0" encoding="UTF-8"?>
<!DOCTYPE svg PUBLIC "-//W3C//DTD SVG 1.0//EN" "http://www.w3.org/TR/2001/REC-SVG-20010904/DTD/svg10.dtd">
<!-- Creator: CorelDRAW 2020 (64 Bit) -->
<svg xmlns="http://www.w3.org/2000/svg" xml:space="preserve" width="339px" height="360px" version="1.0" shape-rendering="geometricPrecision" text-rendering="geometricPrecision" image-rendering="optimizeQuality" fill-rule="evenodd" clip-rule="evenodd"
viewBox="0 0 12.94 13.77"
 xmlns:xlink="http://www.w3.org/1999/xlink"
 xmlns:xodm="http://www.corel.com/coreldraw/odm/2003">
 <g id="Camada_x0020_1">
  <metadata id="CorelCorpID_0Corel-Layer"/>
  <rect fill="none" width="12.94" height="13.77"/>
  <path fill="#6E4439" fill-rule="nonzero" d="M5.82 4.98l3.58 -2.54c0,0 0.28,0.39 0.39,0.98 0.19,0.98 -0.06,2.56 -0.16,3.12 -0.1,-0.12 -0.26,-0.19 -0.43,-0.19l0 -0.39c0,-0.54 -0.43,-0.98 -0.97,-0.98l-2.41 0z"/>
  <path fill="#5E342E" fill-rule="nonzero" d="M6.67 2.44c0,0 -2.16,0 -2.74,0.98l0 0c0,0 -0.98,-0.01 -0.98,1.17 0,0.43 0.25,1.51 0.35,1.95 0.11,-0.12 0.26,-0.19 0.44,-0.19l0 -0.39c0,-0.54 0.43,-0.98 0.97,-0.98l1.79 0c1.05,-0.7 2.15,-1.57 2.9,-2.54 0,0 -1.46,0.05 -2.54,0.39l-0.19 -0.39z"/>
  <path fill="#6E4439" fill-rule="nonzero" d="M6.81 4.93c0.6,0.11 1.26,0.41 1.61,1.03 0,0 0.06,-0.57 -0.08,-1.03l-1.53 0z"/>
 </g>
</svg>
