<?xml version="1.0" encoding="UTF-8"?>
<!DOCTYPE svg PUBLIC "-//W3C//DTD SVG 1.0//EN" "http://www.w3.org/TR/2001/REC-SVG-20010904/DTD/svg10.dtd">
<!-- Creator: CorelDRAW 2020 (64 Bit) -->
<svg xmlns="http://www.w3.org/2000/svg" xml:space="preserve" width="339px" height="360px" version="1.0" shape-rendering="geometricPrecision" text-rendering="geometricPrecision" image-rendering="optimizeQuality" fill-rule="evenodd" clip-rule="evenodd"
viewBox="0 0 14.01 14.91"
 xmlns:xlink="http://www.w3.org/1999/xlink"
 xmlns:xodm="http://www.corel.com/coreldraw/odm/2003">
 <g id="Camada_x0020_1">
  <metadata id="CorelCorpID_0Corel-Layer"/>
  <rect fill="none" width="14.01" height="14.91"/>
  <g id="_1774274466272">
   <path fill="#734A3E" fill-rule="nonzero" d="M11.92 12.09c-0.2,-0.42 -0.03,-0.52 -0.15,-0.97 -0.08,-0.29 -0.25,-0.41 -0.32,-0.65 -0.05,-0.23 0.05,-0.64 -0.01,-0.83 -0.11,-0.35 -0.25,-0.44 -0.32,-0.73 -0.07,-0.29 0.11,-0.51 0.05,-0.82 -0.07,-0.39 -0.21,-0.55 -0.27,-0.75 -0.11,-0.38 -0.07,-0.47 -0.06,-0.78 0.02,-0.71 -0.24,-1.57 -0.45,-2.01 -0.24,-0.5 -0.54,-0.78 -0.91,-0.93l-2.47 0 0 0.93 1.9 0c0.59,0 1.06,0.47 1.06,1.05l0 1.27 0 0c0.35,0 0.63,0.29 0.63,0.64 0,0.35 -0.28,0.63 -0.63,0.63l0 0.21c0,0.52 -0.31,0.98 -0.79,1.17 -0.03,0.02 -1.16,0.49 -0.91,0.38l0 0.69c0,0.18 0.12,0.34 0.29,0.4l1.07 0.39c0.58,0.21 0.97,0.77 0.97,1.39l0 0.91c1.04,-0.22 1.69,-0.46 1.69,-0.46 -0.01,-0.76 -0.14,-0.64 -0.37,-1.13z"/>
   <path fill="#623F33" fill-rule="nonzero" d="M4.53 3.62c-0.37,0.15 -0.67,0.43 -0.91,0.93 -0.2,0.44 -0.47,1.3 -0.45,2.01 0.01,0.31 0.05,0.4 -0.06,0.78 -0.06,0.2 -0.19,0.36 -0.27,0.75 -0.06,0.31 0.12,0.53 0.05,0.82 -0.07,0.29 -0.21,0.38 -0.32,0.73 -0.06,0.19 0.04,0.6 -0.01,0.83 -0.06,0.24 -0.24,0.36 -0.32,0.65 -0.12,0.45 0.05,0.55 -0.15,0.97 -0.23,0.49 -0.36,0.37 -0.37,1.13 0,0 0.65,0.24 1.69,0.46l0 -0.91c0,-0.62 0.39,-1.18 0.97,-1.39l1.07 -0.39c0.03,-0.01 0.06,-0.03 0.08,-0.04l0 0c0.1,-0.06 0.17,-0.16 0.2,-0.27l0 -0.01 0 0 0 -0.01c0,-0.01 0,-0.02 0,-0.03l0 0 0.01 -0.01c0,-0.01 0,-0.01 0,-0.02l0 -0.01 0 0 0 0 0 -0.69 -0.91 -0.38c-0.48,-0.19 -0.79,-0.65 -0.79,-1.17l0 -0.21c-0.35,0 -0.63,-0.28 -0.63,-0.63 0,-0.35 0.28,-0.64 0.63,-0.64l0.01 -1.27c0,-0.51 0.36,-0.93 0.85,-1.03l0.21 -0.02 1.9 0 0 -0.93 -2.48 0z"/>
  </g>
  <path fill="#734A3E" fill-rule="nonzero" d="M7.64 2.64c-0.43,0 -0.62,0.2 -0.63,0.21 -0.01,-0.01 -0.21,-0.21 -0.64,-0.21 -1.17,0 -3.77,1.62 -2.75,4.02l0.42 0.21c0.76,-0.76 2.93,-0.63 2.97,-1.66 0.04,1.03 2.2,0.9 2.96,1.66l0.42 -0.21c1.02,-2.4 -1.58,-4.02 -2.75,-4.02z"/>
  <g id="_1774274468864">
   <path fill="#623F33" fill-rule="nonzero" d="M6.37 2.64c-1.17,0 -3.77,1.62 -2.75,4.02l0 0.21 0.42 0c0.17,-0.16 0.41,-0.29 0.67,-0.39 0.14,-2.5 1.49,-3.82 2.3,-3.62l0 -0.01c-0.01,0 -0.21,-0.21 -0.64,-0.21z"/>
  </g>
 </g>
</svg>
