<?xml version="1.0" encoding="UTF-8"?>
<!DOCTYPE svg PUBLIC "-//W3C//DTD SVG 1.0//EN" "http://www.w3.org/TR/2001/REC-SVG-20010904/DTD/svg10.dtd">
<!-- Creator: CorelDRAW 2020 (64 Bit) -->
<svg xmlns="http://www.w3.org/2000/svg" xml:space="preserve" width="339px" height="360px" version="1.0" shape-rendering="geometricPrecision" text-rendering="geometricPrecision" image-rendering="optimizeQuality" fill-rule="evenodd" clip-rule="evenodd"
viewBox="0 0 9.91 10.55"
 xmlns:xlink="http://www.w3.org/1999/xlink"
 xmlns:xodm="http://www.corel.com/coreldraw/odm/2003">
 <g id="Camada_x0020_1">
  <metadata id="CorelCorpID_0Corel-Layer"/>
  <rect fill="none" width="9.91" height="10.55"/>
  <path fill="#5E342E" fill-rule="nonzero" d="M3.03 8.08l0 0c0.02,-0.01 0.05,-0.02 0.07,-0.03l0.75 -0.28c0.03,0 0.05,-0.01 0.06,-0.02l0 0c0.07,-0.05 0.12,-0.12 0.14,-0.2l0 0 0 0 0 -0.01c0.01,0 0.01,-0.01 0.01,-0.02l0 0 0 0c0,-0.01 0,-0.01 0,-0.02l0 0 0 0 0 -0.01 0 -0.48 -0.65 -0.27c-0.15,-0.07 -0.28,-0.17 -0.38,-0.31l0 0 0 1.65zm3.85 0l0 0 0 -1.65 0 0c-0.09,0.14 -0.22,0.24 -0.38,0.31 -0.03,0.01 -0.83,0.34 -0.65,0.27l0 0.48c0,0.13 0.09,0.24 0.21,0.28l0.75 0.28c0.03,0.01 0.05,0.02 0.07,0.03z"/>
  <g id="_1774274603264">
   <path fill="#6E4439" fill-rule="nonzero" d="M7.4 3.99c-0.27,-1.33 -1.22,-2.12 -2.44,-2.12 -1.23,0 -2.17,0.79 -2.44,2.12 -0.28,1.4 -0.41,3.5 -0.41,5.36l1.05 0.3c0,-1.47 0.1,-4.08 0.14,-4.95 0.92,-0.03 2.85,-0.18 3.3,-0.73 0,0 0.15,3.9 0.15,5.68l1.05 -0.3c0,-1.86 -0.12,-3.96 -0.4,-5.36z"/>
  </g>
  <g id="_1774274604032">
   <g>
    <path fill="#5E342E" fill-rule="nonzero" d="M4.16 3.99c0.21,-1.02 0.8,-1.71 1.62,-1.99 -0.26,-0.08 -0.53,-0.13 -0.82,-0.13 -1.23,0 -2.17,0.79 -2.44,2.12 -0.28,1.4 -0.41,3.5 -0.41,5.36l1.05 0.3c0,-1.47 0.1,-4.08 0.14,-4.95 0.21,-0.01 0.47,-0.02 0.75,-0.04 0.03,-0.24 0.07,-0.46 0.11,-0.67z"/>
   </g>
  </g>
 </g>
</svg>
