<?xml version="1.0" encoding="UTF-8"?>
<!DOCTYPE svg PUBLIC "-//W3C//DTD SVG 1.0//EN" "http://www.w3.org/TR/2001/REC-SVG-20010904/DTD/svg10.dtd">
<!-- Creator: CorelDRAW 2020 (64 Bit) -->
<svg xmlns="http://www.w3.org/2000/svg" xml:space="preserve" width="339px" height="360px" version="1.0" shape-rendering="geometricPrecision" text-rendering="geometricPrecision" image-rendering="optimizeQuality" fill-rule="evenodd" clip-rule="evenodd"
viewBox="0 0 10.53 11.2"
 xmlns:xlink="http://www.w3.org/1999/xlink"
 xmlns:xodm="http://www.corel.com/coreldraw/odm/2003">
 <g id="Camada_x0020_1">
  <metadata id="CorelCorpID_0Corel-Layer"/>
  <rect fill="none" width="10.53" height="11.2"/>
  <path fill="#6E4439" fill-rule="nonzero" d="M8.12 4.24c-0.71,-1.66 -1.55,-2.25 -2.86,-2.25 -1.3,0 -2.14,0.59 -2.86,2.25 -0.6,1.39 -0.63,3.31 -0.63,3.31 1.04,0.38 2.22,0.32 2.22,0.32 -0.38,-0.89 -0.52,-1.96 -0.49,-2.87 0.48,0 0.91,-0.02 1.29,-0.05 0.11,-0.01 0.47,-0.9 0.47,-0.9l0 0.85c0.41,0 0.71,-0.01 0.96,-0.05l0.32 -0.64 0.15 0.48c0.16,0 0.32,0 0.32,0 0.04,0.92 -0.09,2.29 -0.47,3.18 0,0 1.17,0.06 2.22,-0.32 0,0 -0.03,-1.92 -0.64,-3.31z"/>
  <path fill="#5E342E" fill-rule="nonzero" d="M2.4 4.24c-0.6,1.39 -0.63,3.31 -0.63,3.31 1.04,0.38 2.22,0.32 2.22,0.32 -0.38,-0.89 -0.52,-1.96 -0.49,-2.87 0.29,0 0.56,-0.01 0.81,-0.02 0.01,-0.46 0.1,-2.51 0.95,-2.99 -1.3,0 -2.14,0.59 -2.86,2.25z"/>
 </g>
</svg>
