<?xml version="1.0" encoding="UTF-8"?>
<!DOCTYPE svg PUBLIC "-//W3C//DTD SVG 1.0//EN" "http://www.w3.org/TR/2001/REC-SVG-20010904/DTD/svg10.dtd">
<!-- Creator: CorelDRAW 2020 (64 Bit) -->
<svg xmlns="http://www.w3.org/2000/svg" xml:space="preserve" width="339px" height="360px" version="1.0" shape-rendering="geometricPrecision" text-rendering="geometricPrecision" image-rendering="optimizeQuality" fill-rule="evenodd" clip-rule="evenodd"
viewBox="0 0 11.23 11.95"
 xmlns:xlink="http://www.w3.org/1999/xlink"
 xmlns:xodm="http://www.corel.com/coreldraw/odm/2003">
 <g id="Camada_x0020_1">
  <metadata id="CorelCorpID_0Corel-Layer"/>
  <rect fill="none" width="11.23" height="11.95"/>
  <g id="_1774274558384">
   <path fill="#5E342E" fill-rule="nonzero" d="M2.77 5.36c-0.17,0.42 -0.33,1.03 -0.33,1.78 0,0.68 1.21,1.1 2.16,1.29l0 -0.49 -0.73 -0.31c-0.38,-0.16 -0.63,-0.53 -0.63,-0.94l0 -0.17c-0.28,0 -0.51,-0.22 -0.51,-0.5 0,-0.28 0.23,-0.51 0.51,-0.51l0 -0.15 -0.47 0z"/>
   <path fill="#683F39" fill-rule="nonzero" d="M6.63 8.41c0.93,-0.19 2.08,-0.61 2.08,-1.27 0,-0.75 -0.17,-1.36 -0.34,-1.78l-0.38 0 0 0.15 0 0c0.28,0 0.5,0.23 0.5,0.51 0,0.28 -0.22,0.5 -0.5,0.5l0 0.17c0,0.41 -0.25,0.78 -0.63,0.94 -0.03,0.01 -0.94,0.39 -0.73,0.31l0 0.47z"/>
  </g>
  <path fill="#FFAB3B" fill-rule="nonzero" d="M2.95 5.6l-0.73 0c-0.12,0 -0.2,0.12 -0.15,0.23l0.17 0.43c0.04,0.1 0.15,0.14 0.24,0.08l0.28 -0.16c-0.02,-0.05 -0.03,-0.11 -0.03,-0.16 0,-0.18 0.09,-0.33 0.22,-0.42z"/>
  <path fill="#FFC84A" fill-rule="nonzero" d="M2.95 5.6l-0.73 0c-0.12,0 -0.2,-0.12 -0.15,-0.23l0.17 -0.43c0.04,-0.1 0.15,-0.14 0.24,-0.09l0.68 0.41 0 0.25c-0.08,0.02 -0.15,0.05 -0.21,0.09z"/>
  <path fill="#FFAB3B" fill-rule="nonzero" d="M8.28 5.6l0.55 0c0.12,0 0.2,0.12 0.16,0.23l-0.17 0.43c-0.04,0.1 -0.16,0.14 -0.25,0.08l-0.14 -0.08c0.04,-0.07 0.06,-0.16 0.06,-0.24 0,-0.18 -0.08,-0.33 -0.21,-0.42z"/>
  <path fill="#FFC84A" fill-rule="nonzero" d="M8.28 5.6l0.55 0c0.12,0 0.2,-0.12 0.16,-0.23l-0.17 -0.43c-0.04,-0.1 -0.16,-0.14 -0.25,-0.09l-0.58 0.35 0 0.31 0 0c0.1,0 0.2,0.03 0.29,0.09z"/>
  <path fill="#683F39" fill-rule="nonzero" d="M6.8 2.29c-0.25,0 -0.42,0.03 -0.54,0.08 -0.18,-0.15 -0.44,-0.25 -0.82,-0.25 -0.82,0 -2.71,0.57 -2.71,2.37 0,0.82 0.51,1.02 0.51,1.02 0,0 2.18,-0.61 3.04,-1.41 0.65,1.01 1.71,1.41 1.71,1.41 0,0 0.33,-0.47 0.33,-1.36 0,-0.89 -0.94,-1.86 -1.52,-1.86z"/>
  <path fill="#5E342E" fill-rule="nonzero" d="M5.44 2.12c-0.82,0 -2.71,0.57 -2.71,2.37 0,0.82 0.51,1.02 0.51,1.02 0,0 0.01,0 0.02,-0.01 0.42,-0.35 2.33,-1.99 3,-3.12 -0.01,-0.01 -0.02,-0.02 -0.03,-0.03 -0.18,-0.14 -0.43,-0.23 -0.79,-0.23z"/>
 </g>
</svg>
