<?xml version="1.0" encoding="UTF-8"?>
<!DOCTYPE svg PUBLIC "-//W3C//DTD SVG 1.0//EN" "http://www.w3.org/TR/2001/REC-SVG-20010904/DTD/svg10.dtd">
<!-- Creator: CorelDRAW 2020 (64 Bit) -->
<svg xmlns="http://www.w3.org/2000/svg" xml:space="preserve" width="339px" height="360px" version="1.0" shape-rendering="geometricPrecision" text-rendering="geometricPrecision" image-rendering="optimizeQuality" fill-rule="evenodd" clip-rule="evenodd"
viewBox="0 0 12.02 12.79"
 xmlns:xlink="http://www.w3.org/1999/xlink"
 xmlns:xodm="http://www.corel.com/coreldraw/odm/2003">
 <g id="Camada_x0020_1">
  <metadata id="CorelCorpID_0Corel-Layer"/>
  <rect fill="none" width="12.02" height="12.79"/>
  <path fill="#734A3E" fill-rule="nonzero" d="M8.55 3.54c0,0 0,0 0,0 0,-0.5 -0.4,-0.91 -0.91,-0.91 -0.14,0 -0.27,0.04 -0.39,0.09 -0.15,-0.16 -0.36,-0.27 -0.6,-0.27 -0.13,0 -0.25,0.03 -0.36,0.08 -0.09,-0.15 -0.26,-0.26 -0.46,-0.26 -0.22,0 -0.4,0.13 -0.49,0.31 -0.12,-0.08 -0.26,-0.13 -0.42,-0.13 -0.3,0 -0.56,0.19 -0.67,0.45 -0.06,-0.05 -0.14,-0.09 -0.23,-0.09 -0.2,0 -0.37,0.17 -0.37,0.37 0,0 -0.9,-0.01 -0.9,1.09 0,0.4 0.22,1.4 0.32,1.81 0.09,-0.11 0.24,-0.18 0.4,-0.18l0.01 -1.09c0,-0.44 0.31,-0.8 0.72,-0.89l0.18 -0.02 3.27 0c0.5,0 0.91,0.41 0.91,0.91l0 1.09 -0.01 0c0.16,0 0.3,0.07 0.4,0.17 0.05,-0.31 0.15,-0.97 0.15,-1.8 0,-0.32 -0.3,-0.57 -0.55,-0.73z"/>
  <path fill="#5E342E" fill-rule="nonzero" d="M5 3.9c0.13,-0.29 0.4,-0.5 0.73,-0.53 -0.05,-0.12 -0.08,-0.24 -0.08,-0.37 0,-0.29 0.13,-0.54 0.34,-0.71 -0.05,-0.01 -0.11,-0.02 -0.16,-0.02 -0.22,0 -0.4,0.13 -0.49,0.31 -0.12,-0.08 -0.26,-0.13 -0.42,-0.13 -0.3,0 -0.56,0.19 -0.67,0.45 -0.06,-0.05 -0.14,-0.09 -0.23,-0.09 -0.2,0 -0.37,0.17 -0.37,0.37 0,0 -0.9,-0.01 -0.9,1.09 0,0.4 0.22,1.4 0.32,1.81 0.09,-0.11 0.24,-0.18 0.4,-0.18l0.01 -1.09c0,-0.44 0.31,-0.8 0.72,-0.89l0.18 -0.02 0.62 0z"/>
  <path fill="#734A3E" fill-rule="nonzero" d="M8.28 3.9c-0.1,0 -0.2,0.03 -0.28,0.07 -0.06,-0.45 -0.44,-0.79 -0.9,-0.79 -0.32,0 -0.6,0.16 -0.76,0.41 -0.07,-0.03 -0.15,-0.05 -0.24,-0.05 -0.08,0 -0.16,0.02 -0.24,0.05 -0.16,-0.25 -0.44,-0.41 -0.76,-0.41 -0.5,0 -0.9,0.4 -0.9,0.9 0,0.5 0.4,0.91 0.9,0.91 0.26,0 0.49,-0.11 0.66,-0.28 0.1,0.06 0.22,0.1 0.34,0.1 0.13,0 0.25,-0.04 0.34,-0.1 0.17,0.17 0.4,0.28 0.66,0.28 0.23,0 0.43,-0.08 0.59,-0.22 0.09,0.23 0.32,0.4 0.59,0.4 0.35,0 0.63,-0.28 0.63,-0.63 0,-0.35 -0.28,-0.64 -0.63,-0.64z"/>
  <circle fill="#5E342E" fill-rule="nonzero" cx="4.36" cy="4.15" r="0.86"/>
  <circle fill="#5E342E" fill-rule="nonzero" cx="3.36" cy="4.31" r="0.59"/>
 </g>
</svg>
