<?xml version="1.0" encoding="UTF-8"?>
<!DOCTYPE svg PUBLIC "-//W3C//DTD SVG 1.0//EN" "http://www.w3.org/TR/2001/REC-SVG-20010904/DTD/svg10.dtd">
<!-- Creator: CorelDRAW 2020 (64 Bit) -->
<svg xmlns="http://www.w3.org/2000/svg" xml:space="preserve" width="339px" height="360px" version="1.0" shape-rendering="geometricPrecision" text-rendering="geometricPrecision" image-rendering="optimizeQuality" fill-rule="evenodd" clip-rule="evenodd"
viewBox="0 0 12.94 13.77"
 xmlns:xlink="http://www.w3.org/1999/xlink"
 xmlns:xodm="http://www.corel.com/coreldraw/odm/2003">
 <g id="Camada_x0020_1">
  <metadata id="CorelCorpID_0Corel-Layer"/>
  <rect fill="none" width="12.94" height="13.77"/>
  <path fill="#FDB685" fill-rule="nonzero" d="M8.23 4.2l-3.51 0c-0.54,0 -0.98,0.44 -0.98,0.98l0 1.17 0.2 0c0.21,0 0.39,-0.18 0.39,-0.39l0 -0.39c0,-0.22 0.17,-0.39 0.39,-0.39l3.51 0c0.22,0 0.39,0.17 0.39,0.39l0 0.39c0,0.21 0.18,0.39 0.39,0.39l0.2 0 0 -1.17c0,-0.54 -0.44,-0.98 -0.98,-0.98z"/>
  <g id="_1774274555312">
   <path fill="#FF9656" fill-rule="nonzero" d="M7.84 5.18l-2.93 0c-0.32,0 -0.58,-0.27 -0.58,-0.59l0 -0.23c0,-0.74 0.57,-1.34 1.3,-1.37 1.29,-0.06 3.12,-0.2 3.58,-0.55 0,0 0.94,2.74 -1.37,2.74z"/>
  </g>
  <g id="_1774274565200">
   <path fill="#EF8C56" fill-rule="nonzero" d="M6.06 4.34c1.76,-0.28 3.15,-1.55 3.15,-1.9 -0.46,0.35 -2.29,0.49 -3.58,0.55 -0.73,0.03 -1.3,0.63 -1.3,1.37l0 0.23c0,0.32 0.26,0.59 0.58,0.59l0.44 0c0,-0.42 0.3,-0.78 0.71,-0.84z"/>
  </g>
 </g>
</svg>
