<?xml version="1.0" encoding="UTF-8"?>
<!DOCTYPE svg PUBLIC "-//W3C//DTD SVG 1.0//EN" "http://www.w3.org/TR/2001/REC-SVG-20010904/DTD/svg10.dtd">
<!-- Creator: CorelDRAW 2020 (64 Bit) -->
<svg xmlns="http://www.w3.org/2000/svg" xml:space="preserve" width="339px" height="360px" version="1.0" shape-rendering="geometricPrecision" text-rendering="geometricPrecision" image-rendering="optimizeQuality" fill-rule="evenodd" clip-rule="evenodd"
viewBox="0 0 14.01 14.91"
 xmlns:xlink="http://www.w3.org/1999/xlink"
 xmlns:xodm="http://www.corel.com/coreldraw/odm/2003">
 <g id="Camada_x0020_1">
  <metadata id="CorelCorpID_0Corel-Layer"/>
  <rect fill="none" width="14.01" height="14.91"/>
  <path fill="#E69F5F" fill-rule="nonzero" d="M11.87 11.53c0,0 -0.5,0.38 -1.36,0.73 -0.15,-0.4 -0.46,-0.73 -0.88,-0.88l-1.07 -0.39c-0.17,-0.06 -0.29,-0.22 -0.29,-0.4l0 -0.69c-0.25,0.11 0.88,-0.36 0.91,-0.37 0.48,-0.2 0.79,-0.66 0.79,-1.18l0 -0.21c0.35,0 0.63,-0.28 0.63,-0.63 0,-0.35 -0.28,-0.64 -0.63,-0.64l0 0 0 -1.26c0,-0.59 -0.47,-1.06 -1.06,-1.06l-3.8 0 -0.21 0.02c-0.49,0.1 -0.85,0.52 -0.85,1.04l-0.01 1.26c-0.35,0 -0.63,0.29 -0.63,0.64 0,0.35 0.28,0.63 0.63,0.63l0 0.21c0,0.52 0.31,0.98 0.79,1.18l0.91 0.37 0 0.69 0 0 0 0.01 0 0c0,0.01 0,0.01 -0.01,0.02l0 0.01 0 0c0,0.01 0,0.02 0,0.03l0 0.01 0 0 0 0.01c-0.03,0.11 -0.1,0.21 -0.2,0.27l0 0c-0.02,0.01 -0.05,0.03 -0.08,0.04l-0.51 0.19c-0.88,-1.17 -1.82,-2.9 -1.82,-4.95 0,-2.03 1.85,-3.59 3.88,-3.59l0.01 0c2.03,0 3.79,1.65 3.88,3.59 0.16,3.5 0.98,5.3 0.98,5.3z"/>
  <path fill="#E09156" fill-rule="nonzero" d="M6.95 4.55c-0.16,-0.63 -0.67,-1.49 -1.96,-1.36 -1.09,0.62 -1.87,1.73 -1.87,3.04 0,2.22 0.68,3.95 1.62,5.02l0.71 -0.26c0.03,-0.01 0.06,-0.03 0.08,-0.04l0 0c0.1,-0.06 0.17,-0.16 0.2,-0.27l0 -0.01 0 0 0 -0.01c0,-0.01 0,-0.02 0,-0.03l0 0 0 -0.01c0.01,-0.01 0.01,-0.01 0.01,-0.02l0 0 0 -0.01 0 0 0 -0.69 -0.91 -0.37c-0.48,-0.2 -0.79,-0.66 -0.79,-1.18l0 -0.21c-0.35,0 -0.63,-0.28 -0.63,-0.63 0,-0.35 0.28,-0.64 0.63,-0.64l0.01 -1.26c0,-0.52 0.36,-0.94 0.85,-1.04l0.21 -0.02 1.84 0z"/>
 </g>
</svg>
