<?xml version="1.0" encoding="UTF-8"?>
<!DOCTYPE svg PUBLIC "-//W3C//DTD SVG 1.0//EN" "http://www.w3.org/TR/2001/REC-SVG-20010904/DTD/svg10.dtd">
<!-- Creator: CorelDRAW 2020 (64 Bit) -->
<svg xmlns="http://www.w3.org/2000/svg" xml:space="preserve" width="339px" height="360px" version="1.0" shape-rendering="geometricPrecision" text-rendering="geometricPrecision" image-rendering="optimizeQuality" fill-rule="evenodd" clip-rule="evenodd"
viewBox="0 0 9.91 10.55"
 xmlns:xlink="http://www.w3.org/1999/xlink"
 xmlns:xodm="http://www.corel.com/coreldraw/odm/2003">
 <g id="Camada_x0020_1">
  <metadata id="CorelCorpID_0Corel-Layer"/>
  <rect fill="none" width="9.91" height="10.55"/>
  <path fill="#9D6E48" fill-rule="nonzero" d="M8.55 4.49c0,-0.38 -0.26,-0.7 -0.61,-0.79 0.01,-0.04 0.01,-0.07 0.01,-0.11 0,-0.44 -0.35,-0.8 -0.78,-0.82 -0.1,-0.35 -0.41,-0.6 -0.79,-0.6 -0.13,0 -0.25,0.03 -0.36,0.08 -0.14,-0.23 -0.4,-0.38 -0.69,-0.38 -0.1,0 -0.21,0.02 -0.3,0.06 -0.09,-0.04 -0.19,-0.06 -0.3,-0.06 -0.29,0 -0.54,0.15 -0.69,0.38 -0.11,-0.05 -0.23,-0.08 -0.36,-0.08 -0.37,0 -0.69,0.25 -0.79,0.6 -0.43,0.02 -0.78,0.38 -0.78,0.82 0,0.04 0.01,0.07 0.01,0.11 -0.35,0.09 -0.6,0.41 -0.6,0.79 0,0.24 0.1,0.46 0.27,0.61 -0.08,0.13 -0.12,0.28 -0.12,0.44 0,0.44 0.34,0.79 0.77,0.82 0.1,0.34 0.42,0.6 0.8,0.6l0.7 0 -0.53 -0.22c-0.33,-0.14 -0.55,-0.47 -0.55,-0.83l0 -0.15c-0.25,0 -0.45,-0.2 -0.45,-0.45 0,-0.25 0.2,-0.45 0.45,-0.45l0 -0.3c0,-0.41 0.34,-0.74 0.75,-0.74l2.69 0c0.42,0 0.75,0.33 0.75,0.74l0 0.3c0.25,0 0.45,0.2 0.45,0.45 0,0.25 -0.2,0.45 -0.45,0.45l0 0.15c0,0.36 -0.22,0.69 -0.55,0.83l-0.53 0.22 0.86 0 0 0 0 0c0.37,0 0.69,-0.26 0.79,-0.6 0.43,-0.03 0.78,-0.38 0.78,-0.82 0,-0.16 -0.05,-0.31 -0.13,-0.44 0.17,-0.15 0.28,-0.37 0.28,-0.61z"/>
  <path fill="#8D5F3D" fill-rule="nonzero" d="M4.73 1.87c-0.29,0 -0.54,0.15 -0.69,0.38 -0.11,-0.05 -0.23,-0.08 -0.36,-0.08 -0.37,0 -0.69,0.25 -0.79,0.6 -0.43,0.02 -0.78,0.38 -0.78,0.82 0,0.04 0.01,0.07 0.01,0.11 -0.35,0.09 -0.6,0.41 -0.6,0.79 0,0.24 0.1,0.46 0.27,0.61 -0.08,0.13 -0.12,0.28 -0.12,0.44 0,0.44 0.34,0.79 0.77,0.82 0.1,0.34 0.42,0.6 0.8,0.6 0,0 0,0 0,0l0.7 0 -0.53 -0.22c-0.33,-0.14 -0.55,-0.47 -0.55,-0.83l0 -0.15c-0.25,0 -0.45,-0.2 -0.45,-0.45 0,-0.25 0.2,-0.45 0.45,-0.45l0 -0.3c0,-0.41 0.34,-0.74 0.75,-0.74l0.45 0c-0.36,-0.85 0.6,-1.2 0.6,-1.2 0.08,-0.52 0.37,-0.69 0.37,-0.69 -0.09,-0.04 -0.19,-0.06 -0.3,-0.06z"/>
 </g>
</svg>
