<?xml version="1.0" encoding="UTF-8"?>
<!DOCTYPE svg PUBLIC "-//W3C//DTD SVG 1.0//EN" "http://www.w3.org/TR/2001/REC-SVG-20010904/DTD/svg10.dtd">
<!-- Creator: CorelDRAW 2020 (64 Bit) -->
<svg xmlns="http://www.w3.org/2000/svg" xml:space="preserve" width="339px" height="360px" version="1.0" shape-rendering="geometricPrecision" text-rendering="geometricPrecision" image-rendering="optimizeQuality" fill-rule="evenodd" clip-rule="evenodd"
viewBox="0 0 10.53 11.2"
 xmlns:xlink="http://www.w3.org/1999/xlink"
 xmlns:xodm="http://www.corel.com/coreldraw/odm/2003">
 <g id="Camada_x0020_1">
  <metadata id="CorelCorpID_0Corel-Layer"/>
  <rect fill="none" width="10.53" height="11.2"/>
  <g id="_1774274577488">
   <path fill="#734A3E" fill-rule="nonzero" d="M7.49 5.8c0,0.01 0,0.01 0,0.02l0.71 0c-0.15,-1.27 -0.54,-2.83 -1.51,-3.51 -0.32,-0.23 -0.73,-0.33 -0.95,-0.32 -0.41,0 -0.48,0.16 -0.48,0.16l0 1.43c0,0.45 2.23,1.24 2.23,2.22z"/>
   <path fill="#5E342E" fill-rule="nonzero" d="M3.04 5.82c0,-0.01 0,-0.01 0,-0.02 0,-0.98 2.22,-1.77 2.22,-2.22l0 -1.43c0,0 -0.06,-0.16 -0.47,-0.16 -0.22,-0.01 -0.63,0.09 -0.96,0.32 -0.96,0.68 -1.35,2.24 -1.5,3.51l0.71 0z"/>
   <path fill="#5E342E" fill-rule="nonzero" d="M2.56 5.66c-0.27,0.07 -0.47,0.32 -0.47,0.62 0,0.06 0.01,0.12 0.02,0.17 -0.28,0.06 -0.5,0.32 -0.5,0.62 0,0.11 0.03,0.21 0.08,0.3 -0.15,0.12 -0.24,0.3 -0.24,0.5 0,0.25 0.15,0.46 0.36,0.57 -0.03,0.07 -0.04,0.14 -0.04,0.22 0,0.35 0.28,0.64 0.63,0.64l0.1 0 0 0c0.04,-0.3 0.24,-0.54 0.51,-0.64l1.08 -0.4c0.13,-0.05 0.22,-0.17 0.22,-0.3l0 -0.52 -0.68 -0.28c-0.36,-0.15 -0.59,-0.5 -0.59,-0.88l0 -0.16 0 -0.3c0,-0.19 -0.47,0.04 -0.48,-0.16z"/>
   <path fill="#734A3E" fill-rule="nonzero" d="M9.08 7.87c0,-0.2 -0.1,-0.38 -0.24,-0.5 0.05,-0.09 0.08,-0.19 0.08,-0.3 0,-0.3 -0.22,-0.56 -0.5,-0.62 0.01,-0.05 0.02,-0.11 0.02,-0.17 0,-0.3 -0.2,-0.55 -0.47,-0.62 -0.01,0.1 -0.48,0.07 -0.48,0.16l0 0.3 0 0.16c0,0.38 -0.23,0.73 -0.59,0.88l-0.68 0.28 0 0.52c0,0.13 0.09,0.25 0.22,0.3l1.08 0.4c0.27,0.1 0.47,0.34 0.51,0.64l0 0 0.09 0c0.36,0 0.64,-0.29 0.64,-0.64 0,-0.08 -0.02,-0.15 -0.04,-0.22 0.21,-0.11 0.36,-0.32 0.36,-0.57z"/>
  </g>
 </g>
</svg>
