<?xml version="1.0" encoding="UTF-8"?>
<!DOCTYPE svg PUBLIC "-//W3C//DTD SVG 1.0//EN" "http://www.w3.org/TR/2001/REC-SVG-20010904/DTD/svg10.dtd">
<!-- Creator: CorelDRAW 2020 (64 Bit) -->
<svg xmlns="http://www.w3.org/2000/svg" xml:space="preserve" width="339px" height="360px" version="1.0" shape-rendering="geometricPrecision" text-rendering="geometricPrecision" image-rendering="optimizeQuality" fill-rule="evenodd" clip-rule="evenodd"
viewBox="0 0 11.23 11.95"
 xmlns:xlink="http://www.w3.org/1999/xlink"
 xmlns:xodm="http://www.corel.com/coreldraw/odm/2003">
 <g id="Camada_x0020_1">
  <metadata id="CorelCorpID_0Corel-Layer"/>
  <rect fill="none" width="11.23" height="11.95"/>
  <path fill="#9D6E48" fill-rule="nonzero" d="M9.68 5.51c0,0 -0.7,0.08 -1.02,-1.02 -0.44,-1.52 -1.41,-2.37 -3.05,-2.37 -1.63,0 -2.61,0.85 -3.05,2.37 -0.31,1.1 -1.01,1.02 -1.01,1.02 0,0 -0.38,0.84 0.51,1.35l-0.34 0c0,0 0.2,1.03 1.24,1.17 0.12,0.28 0.48,0.64 1.54,0.69 0.06,-0.06 0.1,-0.15 0.1,-0.24l0 -0.54 -0.73 -0.31c-0.38,-0.16 -0.63,-0.53 -0.63,-0.94l0 -0.17c-0.28,0 -0.51,-0.22 -0.51,-0.5 0,-0.28 0.23,-0.51 0.51,-0.51l0 -0.34c0,-0.47 0.38,-0.85 0.85,-0.85l3.05 0c0.47,0 0.85,0.38 0.85,0.85l0 0.34c0.28,0 0.5,0.23 0.5,0.51 0,0.28 -0.22,0.5 -0.5,0.5l0 0.17c0,0.41 -0.25,0.78 -0.63,0.94l-0.73 0.31 0 0.54c0,0.09 0.04,0.18 0.1,0.24 1.05,-0.05 1.41,-0.41 1.54,-0.69 1.03,-0.14 1.24,-1.17 1.24,-1.17l-0.34 0c0.89,-0.51 0.51,-1.35 0.51,-1.35z"/>
  <path fill="#8D5F3D" fill-rule="nonzero" d="M5.91 4.32c-0.6,-0.92 -0.48,-1.88 -0.3,-2.2 -1.63,0 -2.61,0.85 -3.05,2.37 -0.31,1.1 -1.01,1.02 -1.01,1.02 0,0 -0.38,0.84 0.51,1.35l-0.34 0c0,0 0.2,1.03 1.24,1.17 0.12,0.28 0.48,0.64 1.54,0.69 0.06,-0.06 0.1,-0.15 0.1,-0.24l0 -0.54 -0.73 -0.31c-0.38,-0.16 -0.63,-0.53 -0.63,-0.94l0 -0.17c-0.28,0 -0.51,-0.22 -0.51,-0.5 0,-0.28 0.23,-0.51 0.51,-0.51l0 -0.34c0,-0.47 0.38,-0.85 0.85,-0.85l1.82 0z"/>
  <g id="_1774291706928">
   <path fill="#9D6E48" fill-rule="nonzero" d="M7.31 5.51l-0.17 -0.34c0,0 0.53,0.34 0.87,0.34l0 -1.27 -4 0c0.64,0.61 1.44,1.27 3.3,1.27z"/>
  </g>
  <path fill="#8D5F3D" fill-rule="nonzero" d="M7.31 5.51l0 0c-0.71,-0.36 -1.17,-0.81 -1.45,-1.27l-1.85 0c0.64,0.61 1.44,1.27 3.3,1.27z"/>
 </g>
</svg>
