<?xml version="1.0" encoding="UTF-8"?>
<!DOCTYPE svg PUBLIC "-//W3C//DTD SVG 1.0//EN" "http://www.w3.org/TR/2001/REC-SVG-20010904/DTD/svg10.dtd">
<!-- Creator: CorelDRAW 2020 (64 Bit) -->
<svg xmlns="http://www.w3.org/2000/svg" xml:space="preserve" width="339px" height="360px" version="1.0" shape-rendering="geometricPrecision" text-rendering="geometricPrecision" image-rendering="optimizeQuality" fill-rule="evenodd" clip-rule="evenodd"
viewBox="0 0 12.02 12.79"
 xmlns:xlink="http://www.w3.org/1999/xlink"
 xmlns:xodm="http://www.corel.com/coreldraw/odm/2003">
 <g id="Camada_x0020_1">
  <metadata id="CorelCorpID_0Corel-Layer"/>
  <rect fill="none" width="12.02" height="12.79"/>
  <path fill="#6E4439" fill-rule="nonzero" d="M9.15 8.3c0,-0.38 -0.31,-0.54 -0.31,-0.87 0,-0.33 0.41,-0.42 0.41,-0.91 0,-0.32 -0.15,-0.58 -0.25,-0.81 0.56,-2.4 -1.52,-3.44 -2.08,-3.44 -0.59,0 -0.91,0.18 -0.91,0.18 0,0 -0.32,-0.18 -0.91,-0.18 -0.56,0 -2.63,1.04 -2.08,3.44 -0.1,0.23 -0.24,0.49 -0.24,0.81 0,0.49 0.41,0.58 0.41,0.91 0,0.33 -0.32,0.49 -0.32,0.87 0,0.39 0.31,0.58 0.4,0.86 0.05,0.14 0,0.53 0,0.53 0,0 0.32,-0.53 0.15,-1.02 -0.17,-0.49 0.03,-0.54 0.18,-0.76 0.23,-0.32 0.2,-0.68 0.01,-1.03 -0.12,-0.23 -0.09,-0.45 0.08,-0.6 0.19,-0.16 0.23,-0.44 0.23,-0.44 0.86,-0.25 2.09,-0.76 2.09,-1.57 0,0.81 1.24,1.32 2.1,1.57 0,0 0.04,0.28 0.22,0.44 0.17,0.15 0.2,0.37 0.08,0.6 -0.19,0.35 -0.22,0.71 0.01,1.03 0.16,0.22 0.35,0.27 0.18,0.76 -0.17,0.49 0.16,1.02 0.16,1.02 0,0 -0.06,-0.39 -0.01,-0.53 0.1,-0.28 0.4,-0.47 0.4,-0.86z"/>
  <path fill="#5E342E" fill-rule="nonzero" d="M5.1 2.27c-0.56,0 -2.63,1.04 -2.08,3.44l0 0c-0.1,0.23 -0.24,0.49 -0.24,0.81 0,0.49 0.41,0.58 0.41,0.91 0,0.33 -0.32,0.49 -0.32,0.87 0,0.39 0.31,0.58 0.4,0.86 0.05,0.14 0,0.53 0,0.53 0,0 0.32,-0.53 0.15,-1.02 -0.17,-0.49 0.03,-0.54 0.18,-0.76 0.23,-0.32 0.2,-0.68 0.01,-1.03 -0.12,-0.23 -0.09,-0.45 0.08,-0.6 0.19,-0.16 0.23,-0.44 0.23,-0.44l0 0c0,0 0,0 0,0 -0.51,-2.36 1.53,-3.39 2.09,-3.39l0 0c0,0 -0.32,-0.18 -0.91,-0.18z"/>
 </g>
</svg>
