<?xml version="1.0" encoding="UTF-8"?>
<!DOCTYPE svg PUBLIC "-//W3C//DTD SVG 1.0//EN" "http://www.w3.org/TR/2001/REC-SVG-20010904/DTD/svg10.dtd">
<!-- Creator: CorelDRAW 2020 (64 Bit) -->
<svg xmlns="http://www.w3.org/2000/svg" xml:space="preserve" width="339px" height="360px" version="1.0" shape-rendering="geometricPrecision" text-rendering="geometricPrecision" image-rendering="optimizeQuality" fill-rule="evenodd" clip-rule="evenodd"
viewBox="0 0 12.94 13.77"
 xmlns:xlink="http://www.w3.org/1999/xlink"
 xmlns:xodm="http://www.corel.com/coreldraw/odm/2003">
 <g id="Camada_x0020_1">
  <metadata id="CorelCorpID_0Corel-Layer"/>
  <rect fill="none" width="12.94" height="13.77"/>
  <path fill="#D48F60" fill-rule="nonzero" d="M8.62 3.22c0,0 0.57,-0.78 1.56,-0.78 0.99,0 1.56,0.75 1.56,1.76 0,1.02 -1.14,3.78 -0.58,5.47 0,0 -1.28,-0.44 -1.85,-2.16 0.27,-0.05 0.48,-0.29 0.48,-0.58 0,-0.32 -0.26,-0.58 -0.59,-0.58l0 -0.39c0,-0.18 -0.05,-0.4 -0.13,-0.61 0.07,-0.84 0.33,-1.35 0.33,-1.35l-0.78 -0.78z"/>
  <path fill="#C57E52" fill-rule="nonzero" d="M9.3 3.42c0,0 0.62,-0.46 1.08,-0.2 0.99,0.59 0.18,2.22 0,3.13 -0.25,1.22 -0.15,2.39 0.78,3.32 0,0 -1.28,-0.44 -1.85,-2.16 0.27,-0.05 0.48,-0.29 0.48,-0.58 0,-0.32 -0.26,-0.58 -0.59,-0.58l0 -0.39c0,-0.2 -0.06,-0.44 -0.16,-0.67 0.05,-0.8 0.26,-1.29 0.26,-1.29l0 -0.58z"/>
  <g id="_1774295248544">
   <path fill="#43A0C5" fill-rule="nonzero" d="M9.5 3.68l0 0c0.08,-0.07 0.09,-0.2 0.02,-0.28l-0.48 -0.53c-0.07,-0.08 -0.2,-0.08 -0.28,-0.01l0 0c-0.08,0.07 -0.08,0.19 -0.01,0.27l0.47 0.53c0.08,0.08 0.2,0.09 0.28,0.02z"/>
  </g>
  <path fill="#D48F60" fill-rule="nonzero" d="M4.32 3.22c0,0 -0.57,-0.78 -1.56,-0.78 -0.99,0 -1.56,0.75 -1.56,1.76 0,1.02 1.14,3.78 0.58,5.47 0,0 1.28,-0.44 1.85,-2.16 -0.27,-0.05 -0.48,-0.29 -0.48,-0.58 0,-0.32 0.26,-0.58 0.59,-0.58l0 -0.39c0,-0.18 0.05,-0.4 0.13,-0.61 -0.07,-0.84 -0.33,-1.35 -0.33,-1.35l0.78 -0.78z"/>
  <path fill="#C57E52" fill-rule="nonzero" d="M3.66 3.42c0,0 -0.64,-0.46 -1.1,-0.2 -0.99,0.59 -0.18,2.22 0,3.13 0.25,1.22 0.15,2.39 -0.78,3.32 0,0 1.28,-0.44 1.85,-2.16 -0.27,-0.05 -0.48,-0.29 -0.48,-0.58 0,-0.32 0.26,-0.58 0.59,-0.58l0 -0.39c0,-0.21 0.06,-0.45 0.17,-0.68 -0.05,-0.8 -0.25,-1.28 -0.25,-1.28l0 -0.58z"/>
  <g id="_1774295246768">
   <path fill="#43A0C5" fill-rule="nonzero" d="M3.44 3.68l0 0c-0.08,-0.07 -0.09,-0.2 -0.01,-0.28l0.47 -0.53c0.07,-0.08 0.2,-0.08 0.28,-0.01l0 0c0.08,0.07 0.08,0.19 0.01,0.27l-0.47 0.53c-0.08,0.08 -0.2,0.09 -0.28,0.02z"/>
  </g>
  <path fill="#D48F60" fill-rule="nonzero" d="M7.45 2.44c-0.64,0 -0.98,0.2 -0.98,0.2 0,0 -0.34,-0.2 -0.98,-0.2 -0.63,0 -3.04,1.22 -2.14,4.06 0,0 3.12,-0.56 3.12,-1.91 0,1.35 3.13,1.91 3.13,1.91 0.89,-2.84 -1.52,-4.06 -2.15,-4.06z"/>
  <g id="_1774295250560">
   <path fill="#CA8357" fill-rule="nonzero" d="M6.47 2.64l0 0c0,0 -0.34,-0.2 -0.98,-0.2 -0.63,0 -3.04,1.22 -2.14,4.06 0,0 0.37,-0.07 0.87,-0.22 -0.55,-2.53 1.64,-3.64 2.25,-3.64z"/>
  </g>
 </g>
</svg>
