<?xml version="1.0" encoding="UTF-8"?>
<!DOCTYPE svg PUBLIC "-//W3C//DTD SVG 1.0//EN" "http://www.w3.org/TR/2001/REC-SVG-20010904/DTD/svg10.dtd">
<!-- Creator: CorelDRAW 2020 (64 Bit) -->
<svg xmlns="http://www.w3.org/2000/svg" xml:space="preserve" width="339px" height="360px" version="1.0" shape-rendering="geometricPrecision" text-rendering="geometricPrecision" image-rendering="optimizeQuality" fill-rule="evenodd" clip-rule="evenodd"
viewBox="0 0 14.01 14.91"
 xmlns:xlink="http://www.w3.org/1999/xlink"
 xmlns:xodm="http://www.corel.com/coreldraw/odm/2003">
 <g id="Camada_x0020_1">
  <metadata id="CorelCorpID_0Corel-Layer"/>
  <rect fill="none" width="14.01" height="14.91"/>
  <g id="_1774246752352">
   <path fill="#E8A055" fill-rule="nonzero" d="M4.01 8.14c-0.15,1.36 -0.7,3.64 -1.45,4.23l0.86 0.21 0 0 0.01 -0.02 0 0c0,-0.06 0.02,-0.12 0.03,-0.17l0 -0.01 0.01 -0.02 0 0c0,-0.02 0.01,-0.03 0.01,-0.05l0 0 0.01 -0.02 0 -0.01 0.01 -0.02 0 0 0.01 -0.02 0 0 0.01 -0.02 0.01 -0.03 0 0c0,-0.01 0.01,-0.02 0.02,-0.04l0 0c0.01,-0.03 0.02,-0.05 0.03,-0.07l0 0 0.01 -0.02 0 0c0.01,-0.02 0.02,-0.03 0.03,-0.05l0.01 -0.02 0.01 -0.02 0 0 0.02 -0.02 0 0 0.01 -0.01 0 -0.01 0.01 -0.02 0.01 0 0.01 -0.02 0 0 0.01 -0.02 0.01 0c0.01,-0.02 0.03,-0.04 0.04,-0.06l0.02 -0.02 0 0 0.02 -0.02 0.01 -0.01 0 -0.01 0.02 -0.01 0 0 0.01 -0.02 0.01 0 0.01 -0.01 0.01 -0.01 0.01 -0.01 0.01 -0.01 0.01 -0.01 0.01 -0.01 0.01 -0.01 0 0 0.02 -0.01 0 0 0.02 -0.02 0 0 0.02 -0.02 0 0 0.02 -0.01 0 0 0.01 -0.01 0.01 -0.01 0.01 -0.01 0.02 -0.01 0 0 0.02 -0.01 0.01 -0.01 0.01 -0.01 0.01 0c0.01,-0.01 0.03,-0.02 0.04,-0.03l0.01 0 0 0 0.02 -0.01 0 0 0.02 -0.01 0 -0.01 0.02 0 0.01 -0.01 0.01 0 0.01 -0.01 0.01 -0.01 0.02 0 0.01 -0.01 0.01 0 0.01 -0.01 0.02 -0.01 0.01 0 0 0 0.02 -0.01 0.01 0 0.02 -0.01 1.07 -0.39c0.03,-0.01 0.06,-0.03 0.08,-0.04l0 0c0.1,-0.06 0.17,-0.16 0.2,-0.27l0 -0.01 0 0 0 -0.01c0,-0.01 0,-0.02 0,-0.03l0 0 0.01 -0.01c0,-0.01 0,-0.01 0,-0.02l0 -0.01 0 0 0 0 0 -0.69 -0.91 -0.38c-0.48,-0.19 -0.79,-0.65 -0.79,-1.17l0 -0.21 0 0 0 0 0 0 0 0 0 0 0 0 0 0 0 0 0 0 0 0 0 0 0 0 -0.01 0 0 0 0 0 0 0 0 0 0 0 0 0 0 0 0 0 0 0 0 0 0 0 0 0 0 0 0 0 0 0 -0.01 0 0 0 0 0 0 0 0 0 0 0 0 0 0 0 0 0 0 0 0 0 0 0 0 0 0 0 0 0 0 0 0 0 -0.01 0 0 0 0 0 0 0 0 0 0 0 0 0 0 0 0 0 0 0 0 0 0 0 0 0 0 0zm-0.42 3.92c0.01,-0.02 0.02,-0.03 0.03,-0.05z"/>
   <path fill="#F6B45E" fill-rule="nonzero" d="M10 8.14c0.15,1.36 0.7,3.64 1.45,4.23l-0.86 0.21 0 0 -0.01 -0.02 0 0c0,-0.06 -0.02,-0.12 -0.03,-0.17l0 -0.01 -0.01 -0.02 0 0c0,-0.02 -0.01,-0.03 -0.01,-0.05l0 0c-0.01,-0.02 -0.01,-0.03 -0.02,-0.05l0 0 -0.01 -0.02 -0.01 -0.02c-0.01,-0.03 -0.02,-0.05 -0.03,-0.07l0 0c-0.01,-0.03 -0.02,-0.05 -0.03,-0.07l0 0 -0.01 -0.02 0 0c-0.02,-0.03 -0.03,-0.06 -0.05,-0.09l0 0 -0.02 -0.02 0 0 -0.01 -0.02 0 0 -0.01 -0.02 -0.01 0 -0.01 -0.02 0 0 -0.01 -0.02 -0.01 0c-0.01,-0.02 -0.03,-0.04 -0.04,-0.06l-0.02 -0.02c-0.01,-0.01 -0.03,-0.03 -0.05,-0.05l0 0 -0.01 -0.02 -0.01 0 -0.01 -0.01 -0.01 -0.01 -0.01 -0.01 -0.01 -0.01 -0.01 -0.01 0 0 -0.02 -0.02 0 0 -0.02 -0.01 0 0 -0.02 -0.02 0 0 -0.02 -0.02 0 0 -0.02 -0.01 0 0 -0.01 -0.01 -0.01 -0.01 -0.01 -0.01 -0.01 0 -0.02 -0.01 -0.01 -0.01 -0.01 -0.01 -0.01 -0.01 -0.01 0 0 0 -0.02 -0.02 0 0 -0.02 -0.01 -0.01 0 0 0 -0.02 -0.01 0 0 -0.02 -0.01 0 -0.01 -0.01 0 -0.02 -0.01 -0.01 0 -0.01 -0.01 -0.01 -0.01 -0.01 0 -0.02 -0.01 -0.01 0 -0.01 -0.01 -0.02 -0.01 -0.01 0 0 0 -0.02 -0.01 0 0 -0.03 -0.01 -1.07 -0.39c-0.17,-0.06 -0.29,-0.22 -0.29,-0.4l0 -0.69c-0.25,0.11 0.88,-0.36 0.91,-0.38 0.48,-0.19 0.79,-0.65 0.79,-1.17l0 -0.21 0 0 0 0 0 0 0 0 0 0 0 0 0 0 0 0 0 0 0 0 0 0 0.01 0 0 0 0 0 0 0 0 0 0 0 0 0 0 0 0 0 0 0 0 0 0 0 0 0 0 0 0 0 0 0 0.01 0 0 0 0 0 0 0 0 0 0 0 0 0 0 0 0 0 0 0 0 0 0 0 0 0 0 0 0 0 0 0 0 0 0.01 0 0 0 0 0 0 0 0 0 0 0 0 0 0 0 0 0 0 0 0 0 0 0 0 0 0 0 0 0z"/>
  </g>
  <path fill="#FFC85C" fill-rule="nonzero" d="M7.01 4.76c0,0.6 2.96,1.66 2.96,2.96 0,3.69 1.48,4.65 1.48,4.65 -0.45,-1.47 -0.19,-7.65 -2.54,-9.3 -0.43,-0.31 -0.98,-0.43 -1.26,-0.43 -0.55,0.01 -0.64,0.22 -0.64,0.22l0 1.9 0 0z"/>
  <path fill="#FFE095" fill-rule="nonzero" d="M9.44 4.56c0,0.28 -0.58,0.51 -0.86,0.51 -0.29,0 -0.52,-0.23 -0.52,-0.51 0,-0.29 0.23,-0.52 0.52,-0.52 0.28,0 0.86,0.23 0.86,0.52z"/>
  <path fill="#FFE095" fill-rule="nonzero" d="M9.44 4.56c0,-0.29 0.57,-0.52 0.86,-0.52 0.28,0 0.51,0.23 0.51,0.52 0,0.28 -0.23,0.51 -0.51,0.51 -0.29,0 -0.86,-0.23 -0.86,-0.51z"/>
  <path fill="#FFEEB1" fill-rule="nonzero" d="M9.44 4.56c0.24,0.14 0.16,0.75 0.01,1 -0.14,0.25 -0.45,0.33 -0.7,0.19 -0.25,-0.15 -0.33,-0.46 -0.19,-0.71 0.14,-0.24 0.63,-0.63 0.88,-0.48z"/>
  <path fill="#FFEEB1" fill-rule="nonzero" d="M9.44 4.56c-0.25,-0.15 -0.16,-0.76 -0.02,-1 0.14,-0.25 0.46,-0.34 0.7,-0.19 0.25,0.14 0.34,0.45 0.19,0.7 -0.14,0.25 -0.63,0.63 -0.87,0.49z"/>
  <path fill="#FFF2CE" fill-rule="nonzero" d="M9.44 4.56c-0.25,0.14 -0.16,0.75 -0.02,1 0.14,0.25 0.46,0.33 0.7,0.19 0.25,-0.15 0.34,-0.46 0.19,-0.71 -0.14,-0.24 -0.63,-0.63 -0.87,-0.48z"/>
  <path fill="#FFF2CE" fill-rule="nonzero" d="M9.44 4.56c0.24,-0.15 0.16,-0.76 0.01,-1 -0.14,-0.25 -0.45,-0.34 -0.7,-0.19 -0.25,0.14 -0.33,0.45 -0.19,0.7 0.14,0.25 0.63,0.63 0.88,0.49z"/>
  <circle fill="white" fill-rule="nonzero" cx="9.44" cy="4.56" r="0.34"/>
  <path fill="#FFC85C" fill-rule="nonzero" d="M7.01 4.76c0,0.6 -2.96,1.66 -2.96,2.96 0,3.69 -1.47,4.65 -1.47,4.65 0.45,-1.47 0.19,-7.65 2.53,-9.3 0.43,-0.31 0.98,-0.43 1.27,-0.43 0.54,0.01 0.63,0.22 0.63,0.22l0 1.9z"/>
  <path fill="#F6B45E" fill-rule="nonzero" d="M6.38 2.64c-0.29,0 -0.84,0.12 -1.27,0.43 -2.34,1.65 -2.08,7.83 -2.53,9.3 0,0 1.47,-0.96 1.47,-4.65 0,-0.41 0.29,-0.79 0.69,-1.15 0.6,-3.26 2.27,-3.71 2.27,-3.71 0,0 -0.09,-0.21 -0.63,-0.22z"/>
 </g>
</svg>
