<?xml version="1.0" encoding="UTF-8"?>
<!DOCTYPE svg PUBLIC "-//W3C//DTD SVG 1.0//EN" "http://www.w3.org/TR/2001/REC-SVG-20010904/DTD/svg10.dtd">
<!-- Creator: CorelDRAW 2020 (64 Bit) -->
<svg xmlns="http://www.w3.org/2000/svg" xml:space="preserve" width="339px" height="360px" version="1.0" shape-rendering="geometricPrecision" text-rendering="geometricPrecision" image-rendering="optimizeQuality" fill-rule="evenodd" clip-rule="evenodd"
viewBox="0 0 18.5 19.69"
 xmlns:xlink="http://www.w3.org/1999/xlink"
 xmlns:xodm="http://www.corel.com/coreldraw/odm/2003">
 <g id="Camada_x0020_1">
  <metadata id="CorelCorpID_0Corel-Layer"/>
  <path fill="#734A3E" fill-rule="nonzero" d="M10.93 4.89l-0.28 0c-0.18,0 -0.34,-0.09 -0.44,-0.23l-0.96 -1.45 -0.96 1.45c-0.1,0.14 -0.26,0.23 -0.44,0.23l-0.28 0c-1.23,0 -2.23,1 -2.23,2.23l0 1.68 0.16 0c0.24,0 0.45,-0.16 0.53,-0.38l0.3 -0.92c0.08,-0.22 0.29,-0.38 0.53,-0.38l2.39 0 2.39 0c0.24,0 0.45,0.16 0.53,0.38l0.3 0.92c0.08,0.22 0.29,0.38 0.53,0.38l0.16 0 0 -1.68c0,-1.23 -1,-2.23 -2.23,-2.23z"/>
  <path fill="#5E342E" fill-rule="nonzero" d="M8.29 4.66c-0.1,0.14 -0.26,0.23 -0.44,0.23l-0.28 0c-1.23,0 -2.23,1 -2.23,2.23l0 1.68 0.16 0c0.24,0 0.45,-0.16 0.53,-0.38l0.3 -0.92c0.08,-0.22 0.29,-0.38 0.53,-0.38l2.39 0 0 -3.91 -0.96 1.45z"/>
  <rect fill="none" width="18.5" height="19.69"/>
 </g>
</svg>
