<?xml version="1.0" encoding="UTF-8"?>
<!DOCTYPE svg PUBLIC "-//W3C//DTD SVG 1.0//EN" "http://www.w3.org/TR/2001/REC-SVG-20010904/DTD/svg10.dtd">
<!-- Creator: CorelDRAW 2020 (64 Bit) -->
<svg xmlns="http://www.w3.org/2000/svg" xml:space="preserve" width="339px" height="360px" version="1.0" shape-rendering="geometricPrecision" text-rendering="geometricPrecision" image-rendering="optimizeQuality" fill-rule="evenodd" clip-rule="evenodd"
viewBox="0 0 16.25 17.29"
 xmlns:xlink="http://www.w3.org/1999/xlink"
 xmlns:xodm="http://www.corel.com/coreldraw/odm/2003">
 <g id="Camada_x0020_1">
  <metadata id="CorelCorpID_0Corel-Layer"/>
  <path fill="#6E4439" fill-rule="nonzero" d="M12.05 5.27c-0.77,-1.62 -2.21,-2.2 -3.92,-2.2 -1.72,0 -3.16,0.58 -3.93,2.2 -0.77,1.63 -0.31,2.67 -1.23,5.15 0,0 1.19,1.24 3.68,1.61l0 -0.54 -1.05 -0.44c-0.55,-0.23 -0.91,-0.77 -0.91,-1.36l0 -0.25c-0.4,0 -0.73,-0.33 -0.73,-0.73 0,-0.41 0.33,-0.74 0.73,-0.74l0 -0.49c0,-0.68 0.55,-1.22 1.23,-1.22l4.41 0c0.68,0 1.23,0.54 1.23,1.22l0 0.49c0.13,0 0.25,0.03 0.35,0.09l0 0c0.03,0.02 0.05,0.03 0.07,0.05l0 0c0.05,0.03 0.1,0.07 0.13,0.12l0 0c0.02,0.01 0.03,0.02 0.04,0.04l0 0c0.02,0.03 0.04,0.06 0.06,0.09l0 0c0,0.01 0.01,0.03 0.02,0.05l0 0c0.04,0.09 0.06,0.19 0.06,0.3 0,0.27 -0.14,0.51 -0.37,0.64 0,0 -0.01,0 -0.01,0.01l0 0c-0.01,0 -0.01,0 -0.02,0l0 0c0,0.01 -0.01,0.01 -0.01,0.01l0 0c-0.01,0 -0.01,0.01 -0.02,0.01l0 0c0,0 -0.01,0 -0.02,0.01l0 0c0,0 -0.01,0 -0.01,0l0 0c-0.01,0 -0.01,0.01 -0.02,0.01l0 0c0,0 -0.01,0 -0.02,0.01l0 0c0,0 -0.01,0 -0.01,0l0 0c-0.01,0 -0.01,0 -0.02,0.01l0 0c-0.01,0 -0.01,0 -0.02,0l0 0c0,0 -0.01,0 -0.02,0l0 0c0,0.01 -0.01,0.01 -0.01,0.01l0 0c-0.01,0 -0.02,0 -0.02,0l0 0c-0.01,0 -0.01,0 -0.02,0.01l0 0c-0.01,0 -0.01,0 -0.02,0l0 0c0,0 -0.01,0 -0.02,0l0 0c0,0 -0.01,0 -0.01,0l0 0c-0.01,0 -0.02,0 -0.02,0l0 0c-0.01,0 -0.02,0 -0.02,0l0 0c-0.01,0 -0.02,0 -0.02,0l0 0.25c0,0.25 -0.06,0.49 -0.18,0.7 -0.15,0.29 -0.41,0.52 -0.73,0.66l-1.05 0.44 0 0.54c2.49,-0.37 3.68,-1.61 3.68,-1.61 -0.92,-2.48 -0.46,-3.52 -1.23,-5.15z"/>
  <path fill="#5E342E" fill-rule="nonzero" d="M8.13 3.07c-1.72,0 -3.16,0.58 -3.93,2.2 -0.77,1.63 -0.31,2.67 -1.23,5.15 0,0 1.2,1.23 3.68,1.61l0 -0.54 -1.05 -0.44c-0.55,-0.23 -0.91,-0.77 -0.91,-1.36l0 -0.25c-0.4,0 -0.73,-0.33 -0.73,-0.73 0,-0.41 0.33,-0.74 0.73,-0.74l0 -0.49c0,-0.68 0.55,-1.22 1.23,-1.22l0.32 0c0.33,-1.92 1.56,-3.19 1.89,-3.19z"/>
  <path fill="#6E4439" fill-rule="nonzero" d="M5.18 5.86l0 1.62c0,0 1.75,0.02 3.44,-0.19l0.73 -0.54 0 0.43c0.81,-0.15 1.54,-0.36 1.96,-0.68l0 -0.64 -6.13 0z"/>
  <path fill="#5E342E" fill-rule="nonzero" d="M6.32 5.86l-1.14 0 0 1.62c0,0 0.39,0.01 0.98,-0.01 -0.02,-0.58 0.04,-1.12 0.16,-1.61z"/>
  <rect fill="none" width="16.25" height="17.29"/>
 </g>
</svg>
