<?xml version="1.0" encoding="UTF-8"?>
<!DOCTYPE svg PUBLIC "-//W3C//DTD SVG 1.0//EN" "http://www.w3.org/TR/2001/REC-SVG-20010904/DTD/svg10.dtd">
<!-- Creator: CorelDRAW 2020 (64 Bit) -->
<svg xmlns="http://www.w3.org/2000/svg" xml:space="preserve" width="339px" height="360px" version="1.0" shape-rendering="geometricPrecision" text-rendering="geometricPrecision" image-rendering="optimizeQuality" fill-rule="evenodd" clip-rule="evenodd"
viewBox="0 0 9.91 10.55"
 xmlns:xlink="http://www.w3.org/1999/xlink"
 xmlns:xodm="http://www.corel.com/coreldraw/odm/2003">
 <g id="Camada_x0020_1">
  <metadata id="CorelCorpID_0Corel-Layer"/>
  <path fill="none" d="M9.91 10.55l-9.91 0 0 -10.55 9.91 0 0 10.55zm-5.85 -3.54l0 0.48 0 0.01 0 0 0 0c0,0.01 0,0.01 0,0.02l0 0 0 0c0,0.01 0,0.02 -0.01,0.02l0 0.01 0 0 0 0c-0.02,0.08 -0.07,0.15 -0.14,0.2l0 0c-0.01,0.01 -0.03,0.02 -0.06,0.02l-0.75 0.28c-0.41,0.15 -0.69,0.55 -0.69,0.99l0 1.21c0,0.16 0.14,0.3 0.3,0.3l4.49 0c0.17,0 0.3,-0.14 0.3,-0.3l0 -1.21c0,-0.44 -0.27,-0.84 -0.69,-0.99l-0.75 -0.28c-0.12,-0.04 -0.21,-0.15 -0.21,-0.28l0 -0.48c-0.18,0.07 0.62,-0.26 0.65,-0.27 0.33,-0.14 0.55,-0.47 0.55,-0.83l0 -0.15c0.25,0 0.45,-0.2 0.45,-0.45 0,-0.25 -0.2,-0.45 -0.45,-0.45l0 0 0 -0.89c0,-0.42 -0.33,-0.75 -0.74,-0.75l-2.7 0 -0.15 0.01c-0.34,0.07 -0.59,0.37 -0.59,0.74l-0.01 0.89c-0.25,0 -0.45,0.2 -0.45,0.45 0,0.25 0.2,0.45 0.45,0.45l0 0.15c0,0.36 0.22,0.69 0.55,0.83l0.65 0.27z"/>
  <g id="_1775947454880">
   <path fill="#8D5F3D" fill-rule="nonzero" d="M2.86 4.79l-0.45 -0.67c0,0.98 -0.45,3.59 -0.45,3.59 0,0 -0.71,0.26 -0.29,1.79 0,0 0.15,-0.61 0.44,-0.9 0.33,-0.32 0.25,-0.57 0.15,-0.74l1.67 -0.9 -0.52 -0.22c-0.33,-0.14 -0.55,-0.47 -0.55,-0.83l0 -0.15c-0.25,0 -0.45,-0.2 -0.45,-0.45 0,-0.25 0.2,-0.45 0.45,-0.45l0 -0.07z"/>
   <path fill="#FFB04D" fill-rule="nonzero" d="M2.28 8.03l-0.41 -0.2c-0.07,-0.04 -0.1,-0.13 -0.07,-0.2l0 0c0.04,-0.08 0.13,-0.11 0.2,-0.07l0.42 0.2c0.07,0.04 0.1,0.13 0.06,0.2l0 0c-0.03,0.08 -0.12,0.11 -0.2,0.07z"/>
  </g>
  <g id="_1775947458816">
   <path fill="#9D6E48" fill-rule="nonzero" d="M7.95 7.71c0,0 -0.45,-2.61 -0.45,-3.59l-0.45 0.66 0 0.08 0 0c0.25,0 0.45,0.2 0.45,0.45 0,0.25 -0.2,0.45 -0.45,0.45l0 0.15c0,0.36 -0.22,0.69 -0.55,0.83l-0.52 0.22 1.67 0.9c-0.09,0.17 -0.18,0.42 0.15,0.74 0.29,0.29 0.45,0.9 0.45,0.9 0.41,-1.53 -0.3,-1.79 -0.3,-1.79z"/>
   <path fill="#FFB04D" fill-rule="nonzero" d="M7.63 8.03l0.41 -0.2c0.08,-0.04 0.11,-0.13 0.07,-0.2l0 0c-0.04,-0.08 -0.13,-0.11 -0.2,-0.07l-0.41 0.2c-0.08,0.04 -0.11,0.13 -0.07,0.2l0 0c0.04,0.08 0.12,0.11 0.2,0.07z"/>
  </g>
  <g id="_1775947460064">
   <path fill="#9D6E48" fill-rule="nonzero" d="M2.56 4.98c0,0 0,0 0,0 0,0 0,0 0,0z"/>
   <path fill="#9D6E48" fill-rule="nonzero" d="M5.7 1.87c-0.48,0 -0.74,0.15 -0.74,0.15 0,0 -0.27,-0.15 -0.75,-0.15 -0.49,0 -2.33,0.94 -1.65,3.11 0.23,0.62 0.6,0.93 0.6,0.93 -0.02,-0.12 0,-0.26 0.05,-0.42 0.12,-0.43 0.44,-0.79 0.84,-0.98 0.49,-0.24 0.91,-0.56 0.91,-0.99 0,1.03 2.39,1.46 2.39,1.46 0.69,-2.17 -1.16,-3.11 -1.65,-3.11z"/>
  </g>
  <g id="_1775947461744">
   <path fill="#8D5F3D" fill-rule="nonzero" d="M4.96 2.02c0,0 -0.27,-0.15 -0.75,-0.15 -0.49,0 -2.33,0.94 -1.65,3.11 0.24,0.65 0.6,0.93 0.6,0.93 -0.93,-2.85 1.52,-3.83 1.8,-3.89z"/>
  </g>
 </g>
</svg>
