<?xml version="1.0" encoding="UTF-8"?>
<!DOCTYPE svg PUBLIC "-//W3C//DTD SVG 1.0//EN" "http://www.w3.org/TR/2001/REC-SVG-20010904/DTD/svg10.dtd">
<!-- Creator: CorelDRAW 2020 (64 Bit) -->
<svg xmlns="http://www.w3.org/2000/svg" xml:space="preserve" width="339px" height="360px" version="1.0" shape-rendering="geometricPrecision" text-rendering="geometricPrecision" image-rendering="optimizeQuality" fill-rule="evenodd" clip-rule="evenodd"
viewBox="0 0 11.99 12.75"
 xmlns:xlink="http://www.w3.org/1999/xlink"
 xmlns:xodm="http://www.corel.com/coreldraw/odm/2003">
 <g id="Camada_x0020_1">
  <metadata id="CorelCorpID_0Corel-Layer"/>
  <path fill="#9A6C52" fill-rule="nonzero" d="M4 3.97c-0.32,0.14 -0.54,0.45 -0.54,0.82l0 1.09 0.18 0c0.2,0 0.36,-0.16 0.36,-0.36l0 -0.36c0,-0.01 0,-0.02 0,-0.02l0 0 0 -1.17zm3.98 1.17c0,0 0,0.01 0,0.02l0 0.36c0,0.2 0.16,0.36 0.36,0.36l0.19 0 0 -1.09c0,-0.37 -0.23,-0.68 -0.55,-0.82l0 1.17 0 0z"/>
  <rect fill="none" width="11.99" height="12.75"/>
 </g>
</svg>
