<?xml version="1.0" encoding="UTF-8"?>
<!DOCTYPE svg PUBLIC "-//W3C//DTD SVG 1.0//EN" "http://www.w3.org/TR/2001/REC-SVG-20010904/DTD/svg10.dtd">
<!-- Creator: CorelDRAW 2020 (64 Bit) -->
<svg xmlns="http://www.w3.org/2000/svg" xml:space="preserve" width="339px" height="360px" version="1.0" shape-rendering="geometricPrecision" text-rendering="geometricPrecision" image-rendering="optimizeQuality" fill-rule="evenodd" clip-rule="evenodd"
viewBox="0 0 13.13 13.98"
 xmlns:xlink="http://www.w3.org/1999/xlink"
 xmlns:xodm="http://www.corel.com/coreldraw/odm/2003">
 <g id="Camada_x0020_1">
  <metadata id="CorelCorpID_0Corel-Layer"/>
  <path fill="#623F33" fill-rule="nonzero" d="M3.67 6.46c0,-0.01 0,-0.01 0,-0.01 0.01,0 0.01,0 0.01,0 0,0 0.01,0 0.01,0 0,0 0,0 0.01,0 0,0 0,0 0,0 0.01,0 0.01,0 0.01,0 0,-0.01 0.01,-0.01 0.01,-0.01 0,0 0,0 0,0 0.01,0 0.01,0 0.01,0 0.01,0 0.01,0 0.01,0 0,0 0.01,0 0.01,0 0,0 0,0 0,0 0.01,0 0.01,0 0.01,0 0,0 0.01,0 0.01,0 0,0 0,0 0.01,-0.01l0 0c0.01,0 0.01,0 0.01,0l0.01 0c0,0 0,0 0.01,0l0 0c0.01,0 0.01,0 0.02,0l0 -0.83c0,-0.02 0,-0.03 0,-0.05 0,0 0,0 0,0 0,-0.01 0,-0.01 0,-0.02 0,0 0,0 0,-0.01 0,0 0,-0.01 0,-0.01 0,-0.01 0,-0.01 0,-0.01 0,-0.01 0,-0.01 0,-0.02 0,0 0,0 0,0 0,-0.01 0,-0.02 0,-0.02 0,0 0,0 0,-0.01 0.01,-0.02 0.01,-0.05 0.02,-0.08 0,0 0,0 0,0 0,-0.01 0,-0.02 0,-0.02 0,0 0,-0.01 0,-0.01 0.01,0 0.01,-0.01 0.01,-0.02 0,0 0,0 0,0 0,-0.01 0,-0.01 0,-0.02 0,0 0.01,0 0.01,0 0,-0.01 0,-0.01 0,-0.02 0,0 0,0 0,0 0.01,-0.04 0.02,-0.07 0.04,-0.1l0 -0.01c0,0 0,-0.01 0.01,-0.01l0 -0.01c0,0 0,-0.01 0.01,-0.02l0 0c0.16,-0.34 0.49,-0.58 0.87,-0.58l3.53 0c0.54,0 0.98,0.47 0.98,1.05l0 0.83c0.07,0 0.14,0.02 0.2,0.04l0.1 -1.83c0.05,-0.95 -0.67,-1.76 -1.57,-1.76l-2.95 0c-0.9,0 -1.61,0.81 -1.56,1.76l0.14 1.82z"/>
  <rect fill="none" width="13.13" height="13.98"/>
 </g>
</svg>
