<?xml version="1.0" encoding="UTF-8"?>
<!DOCTYPE svg PUBLIC "-//W3C//DTD SVG 1.0//EN" "http://www.w3.org/TR/2001/REC-SVG-20010904/DTD/svg10.dtd">
<!-- Creator: CorelDRAW 2020 (64 Bit) -->
<svg xmlns="http://www.w3.org/2000/svg" xml:space="preserve" width="339px" height="360px" version="1.0" shape-rendering="geometricPrecision" text-rendering="geometricPrecision" image-rendering="optimizeQuality" fill-rule="evenodd" clip-rule="evenodd"
viewBox="0 0 11.02 11.73"
 xmlns:xlink="http://www.w3.org/1999/xlink"
 xmlns:xodm="http://www.corel.com/coreldraw/odm/2003">
 <g id="Camada_x0020_1">
  <metadata id="CorelCorpID_0Corel-Layer"/>
  <path fill="#9D6E48" fill-rule="nonzero" d="M8.5 3.74c0,-0.26 -0.17,-0.62 -0.66,-0.83 -0.87,-0.37 -1.97,-0.48 -2.33,-0.83l0 0c0,0 0,0 0,0 0,0 0,0 0,0l0 0c-0.36,0.35 -1.46,0.46 -2.33,0.83 -0.49,0.21 -0.65,0.57 -0.66,0.83 -0.02,0.4 0.17,1.37 0.27,1.86 0.09,-0.12 0.23,-0.19 0.39,-0.19l0 -0.34c0,-0.46 0.37,-0.83 0.83,-0.83l3 0c0.46,0 0.83,0.37 0.83,0.83l0 0.34c0.16,0 0.3,0.07 0.39,0.19 0.1,-0.49 0.29,-1.46 0.27,-1.86z"/>
  <path fill="#8D5F3D" fill-rule="nonzero" d="M5.51 2.08l0 0c-0.36,0.35 -1.46,0.46 -2.33,0.83 -0.49,0.21 -0.65,0.57 -0.66,0.83 -0.02,0.4 0.17,1.37 0.27,1.86 0.09,-0.12 0.23,-0.19 0.39,-0.19l0 -0.34c0,-0.46 0.37,-0.83 0.83,-0.83l0.35 0c0.1,-0.99 1.15,-1.5 1.15,-2.16 0,0 0,0 0,0 0,0 0,0 0,0z"/>
  <path fill="#9D6E48" fill-rule="nonzero" d="M6.3 4.16c0.23,0.16 0.74,0.56 1.04,1.08 0,0 0.01,-0.58 -0.31,-1.08 0,0 -0.73,0 -0.73,0z"/>
  <rect fill="none" width="11.02" height="11.73"/>
 </g>
</svg>
