<?xml version="1.0" encoding="UTF-8"?>
<!DOCTYPE svg PUBLIC "-//W3C//DTD SVG 1.0//EN" "http://www.w3.org/TR/2001/REC-SVG-20010904/DTD/svg10.dtd">
<!-- Creator: CorelDRAW 2020 (64 Bit) -->
<svg xmlns="http://www.w3.org/2000/svg" xml:space="preserve" width="339px" height="360px" version="1.0" shape-rendering="geometricPrecision" text-rendering="geometricPrecision" image-rendering="optimizeQuality" fill-rule="evenodd" clip-rule="evenodd"
viewBox="0 0 14.53 15.46"
 xmlns:xlink="http://www.w3.org/1999/xlink"
 xmlns:xodm="http://www.corel.com/coreldraw/odm/2003">
 <g id="Camada_x0020_1">
  <metadata id="CorelCorpID_0Corel-Layer"/>
  <path fill="#734A3E" fill-rule="nonzero" d="M3.7 7.35c-0.11,-0.5 -0.38,-1.71 -0.38,-2.2 0,-1.32 1.09,-1.31 1.09,-1.31l0 0c0.64,-1.08 3.07,-1.1 3.07,-1.1l0.22 0.44c1.21,-0.38 2.85,-0.44 2.85,-0.44 0,0 0.32,0.44 0.44,1.1 0.21,1.1 -0.07,2.87 -0.18,3.5l0 0c0,-0.01 0,-0.01 -0.01,-0.01l0 0c0,-0.01 0,-0.01 -0.01,-0.02l0 0 0 0 0 0c0,0 0,0 -0.01,-0.01l0 0c0,0 -0.01,0 -0.01,-0.01 0,0 0,0 0,0 0,0 -0.01,0 -0.01,-0.01 0,0 0,0 0,0 -0.01,0 -0.01,0 -0.01,-0.01 0,0 -0.01,0 -0.01,0 0,0 0,0 -0.01,-0.01l0 0 0 0 0 0c0,0 0,0 0,0l0 0c0,0 0,0 -0.01,-0.01l0 0 0 0 0 0 0 0 0 0 0 0 0 0 0 0 0 0 0 0 0 0 0 0 0 0 0 0 0 0 0 0 0 0 0 0 0 0 0 0 0 0 0 0 0 0 0 0 0 0 0 0 0 0 0 0 0 0 0 0 0 0 0 0 0 0 0 0 0 0 0 0c0,0 -0.01,0 -0.01,0l0 0 0 -0.01 0 0c0,0 0,0 0,0l0 0 0 0 0 0 0 0 0 0 0 0 0 0 0 0c-0.01,0 -0.01,0 -0.01,0l0 0 0 0 0 0 0 0c-0.01,0 -0.01,-0.01 -0.01,-0.01l0 0 0 0 0 0 0 0 0 0c0,0 0,0 -0.01,0l0 0 0 0 0 0 0 0c0,0 0,0 0,0l0 0 0 0 0 0c0,-0.01 -0.01,-0.01 -0.01,-0.01l0 0c0,0 0,0 -0.01,0l0 0 0 0c0,-0.01 0,-0.01 0,-0.01l0 0 0 0c-0.01,0 -0.01,0 -0.01,0l0 0c0,0 0,0 -0.01,-0.01l0 0c0,0 0,0 0,0l0 0c-0.01,0 -0.01,0 -0.01,0l0 0c0,0 -0.01,-0.01 -0.01,-0.01l0 0c0,0 0,0 0,0l0 0c-0.01,0 -0.01,0 -0.01,0l0 0c-0.01,0 -0.01,-0.01 -0.01,-0.01l0 0c0,0 -0.01,0 -0.01,0 0,0 0,0 0,0l0 0c-0.01,0 -0.01,-0.01 -0.01,-0.01 -0.01,0 -0.01,0 -0.01,0 0,0 -0.01,0 -0.01,0 0,0 0,0 0,0l0 0c-0.01,-0.01 -0.01,-0.01 -0.01,-0.01 -0.01,0 -0.01,0 -0.01,0l-0.03 -0.01c0,0 0,0 0,0 0,0 -0.01,0 -0.01,0l0 0c0,0 0,0 0,0 -0.01,0 -0.01,0 -0.02,-0.01l0 0 0 0c0,0 0,0 0,0l0 0 0 0c0,0 -0.01,0 -0.01,0l0 0c0,0 0,0 -0.01,0 0,0 0,0 -0.01,0l0 0 0 0c0,0 0,0 0,0l0 0c-0.01,0 -0.01,0 -0.02,-0.01 0,0 0,0 0,0l0 0c0,0 -0.01,0 -0.01,0l0 0c0,0 0,0 0,0 -0.01,0 -0.01,0 -0.02,0l0 0 0 0c0,0 0,0 0,0l0 0 0 0c-0.01,0 -0.01,0 -0.02,0l0 0 0 0c0,0 0,0 0,0l0 0 0 0c0,0 -0.01,0 -0.01,0l0 0 0 0c0,0 0,0 0,0l0 0 0 0c-0.01,0 -0.01,0 -0.02,0l0 0 0 0 0 0c0,0 0,0 0,0l0 0 0 0 0 0 0 0c-0.01,0 -0.01,0 -0.02,0l0 -0.44c0,-0.61 -0.49,-1.1 -1.09,-1.1l-3.95 0c-0.61,0 -1.1,0.49 -1.1,1.1l0 0.44c0,0 -0.01,0 -0.01,0l0 0 0 0 0 0c0,0 0,0 0,0l0 0 0 0c-0.01,0 -0.01,0 -0.02,0l0 0 0 0c0,0 0,0 0,0l0 0c-0.01,0 -0.01,0 -0.02,0l0 0 0 0c0,0 0,0 0,0l0 0 0 0c0,0 -0.01,0 -0.01,0l0 0c0,0 0,0 0,0 -0.01,0 -0.01,0 -0.02,0l0 0 0 0c0,0 0,0 0,0l0 0 0 0c-0.01,0 -0.01,0 -0.02,0 0,0 0,0 0,0l0 0 0 0c0,0.01 -0.01,0.01 -0.01,0.01l0 0 0 0c0,0 0,0 0,0l0 0 0 0c-0.01,0 -0.01,0 -0.02,0l0 0c0,0 0,0 0,0 0,0 -0.01,0 -0.01,0l0 0c0,0 0,0 -0.01,0l0 0c0,0.01 0,0.01 -0.01,0.01l0 0c0,0 0,0 0,0 -0.01,0 -0.01,0 -0.01,0l0 0c-0.01,0 -0.01,0 -0.01,0l0 0c0,0 -0.01,0 -0.01,0.01l0 0c0,0 0,0 0,0l0 0c-0.01,0 -0.01,0 -0.02,0 0,0 0,0 0,0l0 0c0,0 -0.01,0 -0.01,0.01l0 0c0,0 0,0 0,0 -0.01,0 -0.01,0 -0.01,0 -0.01,0 -0.01,0 -0.01,0l0 0c0,0 -0.01,0.01 -0.01,0.01 0,0 0,0 0,0 -0.01,0 -0.01,0 -0.01,0l0 0c-0.01,0 -0.01,0.01 -0.01,0.01l0 0c0,0 -0.01,0 -0.01,0l0 0c0,0 0,0 0,0 -0.01,0 -0.01,0.01 -0.01,0.01l0 0c0,0 -0.01,0 -0.01,0 0,0 0,0 -0.01,0.01 0,0 0,0 0,0l0 0c-0.01,0 -0.01,0 -0.01,0l0 0c0,0 0,0 -0.01,0.01l0 0c0,0 0,0 0,0l0 0c-0.01,0 -0.01,0 -0.01,0l0 0 0 0.01c0,0 0,0 -0.01,0l0 0c0,0 0,0 -0.01,0l0 0 0 0c0,0 0,0.01 0,0.01l0 0c0,0 -0.01,0 -0.01,0l0 0 0 0 0 0 0 0 0 0c0,0 0,0 0,0.01l0 0 0 0c-0.01,0 -0.01,0 -0.01,0 0,0 0,0 -0.01,0.01 0,0 0,0 0,0l0 0 0 0c0,0 0,0 0,0l0 0 0 0 0 0 0 0 0 0 0 0 0 0 0 0 0 0 0 0 0 0 0 0 0 0 0 0 0 0 0 0 0 0 0 0 0 0 0 0 0 0 0 0 -0.01 0 0 0 0 0c0,0.01 0,0.01 -0.01,0.01l0 0c0,0 0,0 0,0l0 0 0 0 0 0 0 0 0 0 0 0 0 0 0 0 0 0 0 0 0 0 0 0 0 0 0 0 0 0 0 0 0 0 0 0 0 0 0 0 0 0c0,0.01 -0.01,0.01 -0.01,0.01l0 0c0,0 0,0 0,0l0 0 0 0 0 0 0 0 0 0 0 0 0 0 0 0 0 0 0 0 0 0 0 0 0 0 0 0 0 0 0 0 0 0c0,0.01 -0.01,0.01 -0.01,0.01l0 0 0 0 0 0c-0.01,0.01 -0.01,0.01 -0.01,0.01l0 0 0 0 0 0 0 0 0 0 0 0 0 0 0 0 0 0 0 0 0 0 0 0 0 0 0 0 0 0 0 0 0 0 0 0 0 0 0 0 0 0 0 0 0 0 0 0 0 0 0 0 0 0 0 0 0 0 0 0 0 0 0 0 0 0 0 0 -0.01 0 0 0 0 0 0 0 0 0 0 0 0 0 0 0 0 0 0 0 0 0 0 0 0 0 0 0 0 0 0 0 0 0 0 0c0,0.01 0,0.01 0,0.01 0,0 -0.01,0 -0.01,0.01l0 0 0 0 0 0c0,0 0,0 0,0 -0.01,0 -0.01,0.01 -0.01,0.01 0,0 0,0 -0.01,0l0 0.01 -0.01 0.01c0,0 0,0 0,0zm6.88 -0.18l0 0c-0.01,0 -0.01,0 -0.01,0l0.01 0zm-0.07 -0.02l0 0c0,0 0.01,0 0,0zm-6.55 0.02l0 0c-0.01,0 -0.01,0 -0.01,0l0.01 0zm-0.05 0.02c0,0 0,0 0,0l0 0 0 0zm-0.01 0.01c0,0 -0.01,0 -0.01,0l0 0 0.01 0z"/>
  <path fill="#623F33" fill-rule="nonzero" d="M7.48 2.74c0,0 -2.42,0 -3.07,1.1l0 0c0,0 -1.09,-0.01 -1.09,1.31 0,1.32 -0.02,1.98 0.87,1.98l0 -0.44c0,-0.61 0.49,-1.1 1.1,-1.1l1.32 0c0,0 2.21,-1.13 3.94,-2.85 0,0 -1.64,0.06 -2.85,0.44l-0.22 -0.44z"/>
  <rect fill="none" width="14.53" height="15.46"/>
 </g>
</svg>
