<?xml version="1.0" encoding="UTF-8"?>
<!DOCTYPE svg PUBLIC "-//W3C//DTD SVG 1.0//EN" "http://www.w3.org/TR/2001/REC-SVG-20010904/DTD/svg10.dtd">
<!-- Creator: CorelDRAW 2020 (64 Bit) -->
<svg xmlns="http://www.w3.org/2000/svg" xml:space="preserve" width="339px" height="360px" version="1.0" shape-rendering="geometricPrecision" text-rendering="geometricPrecision" image-rendering="optimizeQuality" fill-rule="evenodd" clip-rule="evenodd"
viewBox="0 0 13.13 13.98"
 xmlns:xlink="http://www.w3.org/1999/xlink"
 xmlns:xodm="http://www.corel.com/coreldraw/odm/2003">
 <g id="Camada_x0020_1">
  <metadata id="CorelCorpID_0Corel-Layer"/>
  <path fill="#9A6C52" fill-rule="nonzero" d="M8.35 4.26l-3.57 0c-0.54,0 -0.99,0.45 -0.99,0.99l0 1.19 0.2 0c0.22,0 0.4,-0.17 0.4,-0.39l0 -0.4c0,-0.22 0.17,-0.4 0.39,-0.4l3.57 0c0.22,0 0.4,0.18 0.4,0.4l0 0.4c0,0.22 0.18,0.39 0.39,0.39l0.2 0 0 -1.19c0,-0.54 -0.44,-0.99 -0.99,-0.99z"/>
  <path fill="#6E4439" fill-rule="nonzero" d="M7.95 5.25l-2.97 0c-0.33,0 -0.59,-0.26 -0.59,-0.59l0 -0.24c0,-0.74 0.58,-1.35 1.32,-1.38 1.31,-0.06 3.16,-0.21 3.63,-0.56 0,0 0.96,2.77 -1.39,2.77z"/>
  <path fill="#5E342E" fill-rule="nonzero" d="M6.29 4.4c1.79,-0.28 3.05,-1.57 3.05,-1.92 -0.47,0.35 -2.32,0.5 -3.63,0.56 -0.74,0.03 -1.32,0.64 -1.32,1.38l0 0.24c0,0.33 0.26,0.59 0.59,0.59l0.6 0c0,-0.42 0.3,-0.78 0.71,-0.85z"/>
  <rect fill="none" width="13.13" height="13.98"/>
 </g>
</svg>
