<?xml version="1.0" encoding="UTF-8"?>
<!DOCTYPE svg PUBLIC "-//W3C//DTD SVG 1.0//EN" "http://www.w3.org/TR/2001/REC-SVG-20010904/DTD/svg10.dtd">
<!-- Creator: CorelDRAW 2020 (64 Bit) -->
<svg xmlns="http://www.w3.org/2000/svg" xml:space="preserve" width="339px" height="360px" version="1.0" shape-rendering="geometricPrecision" text-rendering="geometricPrecision" image-rendering="optimizeQuality" fill-rule="evenodd" clip-rule="evenodd"
viewBox="0 0 10.53 11.2"
 xmlns:xlink="http://www.w3.org/1999/xlink"
 xmlns:xodm="http://www.corel.com/coreldraw/odm/2003">
 <g id="Camada_x0020_1">
  <metadata id="CorelCorpID_0Corel-Layer"/>
  <path fill="#FF9656" fill-rule="nonzero" d="M5.27 1.99l-0.01 0c-1.52,0 -3.01,1.15 -3.01,2.7 0,2.05 1.11,3.02 1.11,3.02 0,0 -0.23,0.47 -0.3,0.89l0.12 0c0.03,-0.02 0.07,-0.03 0.11,-0.05l0.57 -0.21c-0.04,-0.34 -0.03,-0.63 -0.03,-0.63 0,0 0.19,-0.04 0.48,-0.11l0 -0.16 -0.68 -0.28 0 0 -0.02 -0.01 0 0 -0.02 -0.01 0 0 -0.01 0 0 0 -0.02 -0.01 0 0 -0.01 -0.01 0 0 -0.02 -0.01 0 0 -0.02 -0.01 0 0 -0.01 -0.01 0 0 -0.02 -0.01 0 0 -0.01 -0.01 0 0 -0.02 -0.01 0 0 -0.01 -0.01 0 0 -0.01 -0.01 0 0 -0.02 -0.01 0 0 -0.01 -0.01 0 0 -0.01 -0.01 -0.01 0 -0.01 -0.01 0 0 -0.01 -0.01 -0.01 -0.01 0 0 -0.02 -0.01 -0.01 -0.02 0 0 -0.01 -0.01 -0.01 -0.01 0 0 -0.02 -0.01 0 0 -0.01 -0.02 0 0 -0.01 -0.01 0 0 -0.01 -0.01 0 0 -0.01 -0.02 -0.01 -0.01 0 0 -0.01 -0.01 -0.01 -0.02 0 0 -0.01 -0.01 0 0 -0.01 -0.02 -0.01 -0.01 -0.01 -0.02 0 0 -0.01 -0.01 0 -0.02 -0.01 -0.01 -0.01 -0.02 0 0 -0.01 -0.01 0 0 -0.01 -0.02 0 -0.02 -0.01 -0.01 -0.01 -0.02 0 -0.01 -0.01 -0.02 0 0 0 -0.02 -0.01 -0.01 0 -0.02 -0.01 -0.02 0 -0.01 -0.01 -0.02 0 -0.02 0 -0.01 -0.01 -0.02 0 -0.02 0 -0.02 0 -0.01 -0.01 -0.02 0 -0.02 0 -0.02 0 -0.02 0 -0.01 0 -0.02 0 -0.16c-0.26,0 -0.48,-0.21 -0.48,-0.48 0,-0.26 0.22,-0.47 0.48,-0.47l0 -0.32c0,-0.44 0.36,-1.11 0.79,-1.11l2.86 0c0.44,0 0.8,0.67 0.8,1.11l0 0.32c0.2,0 0.38,0.12 0.44,0.3 0.13,-0.24 0.2,-0.5 0.2,-0.78 0,-1.53 -1.34,-2.7 -2.86,-2.7z"/>
  <path fill="#FF9656" fill-rule="nonzero" d="M2.72 3.68l0 1.61c2.48,-0.3 3.66,-0.82 4.19,-1.18 0.04,0.58 0.03,1.46 -0.24,2.33 0,0 0.95,-1.33 0.8,-2.76l-4.75 0 0 0z"/>
  <path fill="#EF8C56" fill-rule="nonzero" d="M6.6 2.3c-0.41,-0.2 -0.86,-0.31 -1.33,-0.31l-0.01 0c-1.52,0 -3.01,1.15 -3.01,2.7 0,2.05 1.11,3.02 1.11,3.02 0,0 -0.23,0.47 -0.3,0.89l0.12 0 0 0 0 0 0 0 0 0 0.01 0 0 0 0 0 0 -0.01 0.01 0 0 0 0 0 0 0 0 0 0.01 0 0 0 0 0 0 0 0 0 0 0 0 -0.01 0.01 0 0 0 0 0 0 0 0 0 0 0 0.01 0 0 0 0 0 0 0 0 0 0 0 0.01 0 0 -0.01 0 0 0 0 0 0 0.01 0 0 0 0 0 0 0 0 0 0 0 0 0 0.02 -0.01 0 0 0 0 0 0 0.02 -0.01 0 0 0 0 0 0 0.57 -0.21c-0.04,-0.34 -0.03,-0.63 -0.03,-0.63 0,0 0.19,-0.04 0.48,-0.11l0 -0.16 -0.68 -0.28 -0.02 -0.01 -0.02 -0.01 -0.01 0 -0.02 -0.01 -0.01 -0.01 -0.02 -0.01 -0.02 -0.01 -0.01 -0.01 -0.02 -0.01 -0.01 -0.01 -0.02 -0.01 -0.01 -0.01 -0.01 -0.01 -0.02 -0.01 -0.01 -0.01 -0.02 -0.01 -0.01 -0.01 -0.01 -0.01 -0.01 -0.01 -0.02 -0.01 -0.01 -0.02 -0.01 -0.01 -0.01 -0.01 -0.02 -0.01 -0.01 -0.02 -0.01 -0.01 -0.01 -0.01 -0.01 -0.02 -0.01 -0.01 -0.01 -0.01 -0.01 -0.02 -0.01 -0.01 -0.01 -0.02 -0.01 -0.01 -0.01 -0.02 -0.01 -0.01 0 -0.02 -0.01 -0.01 -0.01 -0.02 -0.01 -0.01 -0.01 -0.02 0 -0.02 -0.01 -0.01 -0.01 -0.02 0 -0.01 -0.01 -0.02 0 -0.02 -0.01 -0.01 0 -0.02 -0.01 -0.02 0 -0.01 -0.01 -0.02 0 -0.02 0 -0.01 -0.01 -0.02 0 -0.02 0 -0.02 0 -0.01 -0.01 -0.02 0 -0.02 0 -0.02 0 -0.02 0 -0.01 0 -0.02 0 -0.16c-0.26,0 -0.48,-0.21 -0.48,-0.48 0,-0.14 0.06,-0.27 0.16,-0.35l0 0 0 0c0.09,-0.08 0.19,-0.12 0.31,-0.12l0.01 -0.01 0 -0.31c0,-0.44 0.36,-1.11 0.79,-1.11l1.66 0c0.48,-0.41 0.9,-0.89 1.11,-1.44z"/>
  <rect fill="none" width="10.53" height="11.2"/>
  <g id="_1775958767712">
   <path fill="#76AB5F" fill-rule="nonzero" d="M3.83 7.87l-0.47 0c-0.09,0 -0.16,-0.07 -0.16,-0.16l0 0c0,-0.09 0.07,-0.16 0.16,-0.16l0.47 0c0.09,0 0.16,0.07 0.16,0.16l0 0c0,0.09 -0.07,0.16 -0.16,0.16z"/>
  </g>
  <path fill="#EF8C56" fill-rule="nonzero" d="M2.72 3.68l0 1.61 0 0c0,0 1.65,-0.58 2.84,-1.61 0,0 -2.84,0 -2.84,0z"/>
 </g>
</svg>
