<?xml version="1.0" encoding="UTF-8"?>
<!DOCTYPE svg PUBLIC "-//W3C//DTD SVG 1.0//EN" "http://www.w3.org/TR/2001/REC-SVG-20010904/DTD/svg10.dtd">
<!-- Creator: CorelDRAW 2020 (64 Bit) -->
<svg xmlns="http://www.w3.org/2000/svg" xml:space="preserve" width="339px" height="360px" version="1.0" shape-rendering="geometricPrecision" text-rendering="geometricPrecision" image-rendering="optimizeQuality" fill-rule="evenodd" clip-rule="evenodd"
viewBox="0 0 11.02 11.73"
 xmlns:xlink="http://www.w3.org/1999/xlink"
 xmlns:xodm="http://www.corel.com/coreldraw/odm/2003">
 <g id="Camada_x0020_1">
  <metadata id="CorelCorpID_0Corel-Layer"/>
  <path fill="#623F33" fill-rule="nonzero" d="M8.47 4.55c0.13,-0.12 0.2,-0.29 0.2,-0.47 0,-0.32 -0.23,-0.59 -0.53,-0.65 0.02,-0.06 0.03,-0.12 0.03,-0.19 0,-0.36 -0.3,-0.66 -0.66,-0.66 -0.14,0 -0.27,0.04 -0.38,0.11 -0.09,-0.26 -0.33,-0.44 -0.62,-0.44 -0.17,0 -0.31,0.06 -0.43,0.16 -0.12,-0.2 -0.33,-0.33 -0.57,-0.33 -0.24,0 -0.45,0.13 -0.57,0.33 -0.12,-0.1 -0.26,-0.16 -0.43,-0.16 -0.29,0 -0.53,0.18 -0.62,0.44 -0.11,-0.07 -0.24,-0.11 -0.38,-0.11 -0.36,0 -0.66,0.3 -0.66,0.66 0,0.07 0.01,0.13 0.03,0.19 -0.3,0.06 -0.53,0.33 -0.53,0.65 0,0.18 0.08,0.35 0.2,0.47 -0.02,0.06 -0.03,0.12 -0.03,0.19 0,0.19 0.07,0.35 0.19,0.47 -0.01,0.07 -0.03,0.13 -0.03,0.2 0,0.09 0.02,0.18 0.06,0.27 0.08,-0.16 0.25,-0.27 0.44,-0.27l0 -0.34c0.01,0 0.01,0 0.01,0l0 0c0.01,0 0.01,0 0.02,0l0 0c0,0 0.01,0 0.01,0l0 0c0,0 0.01,0 0.01,0l0 0c0.01,0 0.01,0 0.02,0l0 0c0,0 0,0 0.01,0l0 0c0,0 0.01,0 0.01,0l0 0c0,0 0.01,-0.01 0.01,-0.01l0 0c0.01,0 0.01,0 0.01,0l0 0c0.01,0 0.01,0 0.02,0l0 0c0,0 0,0 0.01,0l0 0c0,-0.01 0.01,-0.01 0.01,-0.01l0 0c0,0 0.01,0 0.01,0l0 0c0.01,0 0.01,0 0.01,-0.01l0 0c0.01,0 0.01,0 0.01,0l0 0c0.01,0 0.01,0 0.02,0l0 0c0,-0.01 0,-0.01 0.01,-0.01l0 0c0,0 0,0 0.01,0l0 0c0,-0.01 0.01,-0.01 0.01,-0.01l0 0c0,0 0.01,0 0.01,-0.01 0,0 0.01,0 0.01,0l0 0c0,0 0.01,-0.01 0.01,-0.01l0 0c0,0 0.01,0 0.01,0l0 0c0,-0.01 0.01,-0.01 0.01,-0.01l0 0c0,0 0.01,-0.01 0.01,-0.01l0 0c0,0 0.01,0 0.01,0 0,-0.01 0.01,-0.01 0.01,-0.01l0 0c0,0 0.01,-0.01 0.01,-0.01l0 0c0,0 0.01,0 0.01,-0.01l0 0c0,0 0,0 0.01,-0.01l0 0c0,0 0,0 0.01,0l0 0c0,-0.01 0,-0.01 0,-0.01l0 0c0.01,0 0.01,-0.01 0.01,-0.01 0.01,0 0.01,-0.01 0.01,-0.01 0,0 0.01,-0.01 0.01,-0.01l0 0c0,0 0,0 0.01,-0.01 0,0 0,0 0,-0.01l0 0c0.01,0 0.01,0 0.01,-0.01l0 0c0,0 0.01,0 0.01,-0.01l0 0c0,0 0,0 0.01,-0.01 0,0 0,0 0,-0.01 0,0 0.01,0 0.01,-0.01 0,0 0,0 0,-0.01 0.01,0 0.01,0 0.01,-0.01l0 0c0,0 0,0 0.01,-0.01l0 0c0,0 0,0 0,-0.01l0 0c0,0 0.01,-0.01 0.01,-0.01 0,0 0,-0.01 0,-0.01 0,0 0,-0.01 0.01,-0.01 0,-0.01 0,-0.01 0,-0.01 0,-0.01 0,-0.01 0,-0.01 0.01,-0.01 0.01,-0.01 0.01,-0.02 0,0 0,0 0,-0.01 0,0 0,-0.01 0.01,-0.01 0,0 0,-0.01 0,-0.01 0,-0.01 0,-0.01 0,-0.01 0,-0.01 0,-0.01 0,-0.02 0,0 0,0 0.01,-0.01 0,0 0,-0.01 0,-0.01 0,-0.01 0,-0.01 0,-0.01 0,-0.01 0,-0.01 0,-0.02 0,0 0,0 0,-0.01 0,0 0,-0.01 0,-0.01 0,-0.01 0,-0.01 0,-0.01 0,-0.06 -0.01,-0.12 -0.03,-0.17 0.01,0 0.02,0 0.03,0 0.19,0 0.35,-0.1 0.43,-0.26 0.11,0.16 0.29,0.26 0.49,0.26 0.23,0 0.44,-0.14 0.53,-0.35 0.09,0.11 0.23,0.18 0.38,0.18 0.17,0 0.31,-0.08 0.4,-0.2 0.14,0.12 0.32,0.2 0.52,0.2 0.17,0 0.32,-0.06 0.45,-0.15 0.07,0.19 0.25,0.32 0.46,0.32 0.01,0 0.02,0 0.03,0 -0.02,0.05 -0.03,0.11 -0.03,0.17 0,0.27 0.22,0.49 0.5,0.49l0 0.34c0.19,0 0.36,0.11 0.44,0.27 0.04,-0.09 0.06,-0.18 0.06,-0.27 0,-0.07 -0.01,-0.13 -0.03,-0.2 0.12,-0.12 0.19,-0.28 0.19,-0.47 0,-0.07 -0.01,-0.13 -0.03,-0.19z"/>
  <rect fill="none" width="11.02" height="11.73"/>
 </g>
</svg>
