<?xml version="1.0" encoding="UTF-8"?>
<!DOCTYPE svg PUBLIC "-//W3C//DTD SVG 1.0//EN" "http://www.w3.org/TR/2001/REC-SVG-20010904/DTD/svg10.dtd">
<!-- Creator: CorelDRAW 2020 (64 Bit) -->
<svg xmlns="http://www.w3.org/2000/svg" xml:space="preserve" width="339px" height="360px" version="1.0" shape-rendering="geometricPrecision" text-rendering="geometricPrecision" image-rendering="optimizeQuality" fill-rule="evenodd" clip-rule="evenodd"
viewBox="0 0 16.25 17.29"
 xmlns:xlink="http://www.w3.org/1999/xlink"
 xmlns:xodm="http://www.corel.com/coreldraw/odm/2003">
 <g id="Camada_x0020_1">
  <metadata id="CorelCorpID_0Corel-Layer"/>
  <g id="_1774394638896">
   <path fill="#6E4439" fill-rule="nonzero" d="M10.82 4.05c0,0 0.72,-0.98 1.96,-0.98 1.25,0 1.97,0.94 1.97,2.2 0,1.29 -1.43,4.75 -0.74,6.87 0,0 -1.84,-0.63 -2.45,-3.19 -0.56,-2.34 0.24,-3.92 0.24,-3.92l-0.98 -0.98z"/>
  </g>
  <g id="_1774394641488">
   <path fill="#5E342E" fill-rule="nonzero" d="M11.65 4.29c0,0 0.81,-0.58 1.38,-0.24 1.25,0.74 0.23,2.78 0,3.92 -0.31,1.54 -0.18,3.01 0.98,4.17 0,0 -1.84,-0.63 -2.45,-3.19 -0.56,-2.34 0.09,-3.92 0.09,-3.92l0 -0.74z"/>
  </g>
  <g id="_1774394639232">
   <path fill="#BD445A" fill-rule="nonzero" d="M11.93 4.62l0 0c0.1,-0.09 0.11,-0.24 0.02,-0.35l-0.6 -0.66c-0.09,-0.1 -0.24,-0.11 -0.34,-0.02l0 0c-0.11,0.09 -0.11,0.24 -0.02,0.34l0.59 0.67c0.09,0.1 0.25,0.11 0.35,0.02z"/>
  </g>
  <g id="_1774394639904">
   <path fill="#6E4439" fill-rule="nonzero" d="M5.43 4.05c0,0 -0.72,-0.98 -1.96,-0.98 -1.25,0 -1.97,0.94 -1.97,2.2 0,1.29 1.43,4.75 0.74,6.87 0,0 1.84,-0.63 2.45,-3.19 0.56,-2.34 -0.24,-3.92 -0.24,-3.92l0.98 -0.98z"/>
  </g>
  <g id="_1774394643984">
   <path fill="#5E342E" fill-rule="nonzero" d="M4.6 4.29c0,0 -0.81,-0.58 -1.38,-0.24 -1.25,0.74 -0.23,2.78 0,3.92 0.31,1.54 0.18,3.01 -0.98,4.17 0,0 1.84,-0.63 2.45,-3.19 0.56,-2.34 -0.09,-3.92 -0.09,-3.92l0 -0.74z"/>
  </g>
  <g id="_1774394649072">
   <path fill="#BD445A" fill-rule="nonzero" d="M4.32 4.62l0 0c-0.1,-0.09 -0.11,-0.24 -0.02,-0.35l0.6 -0.66c0.09,-0.1 0.24,-0.11 0.34,-0.02l0 0c0.11,0.09 0.11,0.24 0.02,0.34l-0.59 0.67c-0.09,0.1 -0.25,0.11 -0.35,0.02z"/>
  </g>
  <path fill="#6E4439" fill-rule="nonzero" d="M9.35 3.07c-0.8,0 -1.22,0.24 -1.22,0.24 0,0 -0.43,-0.24 -1.23,-0.24 -0.8,0 -3.82,1.53 -2.7,5.09 0,0 3.93,-0.7 3.93,-2.4 0,1.7 3.92,2.4 3.92,2.4 1.12,-3.56 -1.9,-5.09 -2.7,-5.09z"/>
  <g id="_1774394619744">
   <path fill="#653C34" fill-rule="nonzero" d="M8.13 3.31l0 0c0,0 -0.43,-0.24 -1.23,-0.24 -0.8,0 -3.82,1.53 -2.7,5.09 0,0 0.48,-0.09 1.1,-0.27 -0.7,-3.19 2.06,-4.57 2.83,-4.58z"/>
  </g>
  <rect fill="none" width="16.25" height="17.29"/>
 </g>
</svg>
