<?xml version="1.0" encoding="UTF-8"?>
<!DOCTYPE svg PUBLIC "-//W3C//DTD SVG 1.0//EN" "http://www.w3.org/TR/2001/REC-SVG-20010904/DTD/svg10.dtd">
<!-- Creator: CorelDRAW 2020 (64 Bit) -->
<svg xmlns="http://www.w3.org/2000/svg" xml:space="preserve" width="339px" height="360px" version="1.0" shape-rendering="geometricPrecision" text-rendering="geometricPrecision" image-rendering="optimizeQuality" fill-rule="evenodd" clip-rule="evenodd"
viewBox="0 0 14.53 15.46"
 xmlns:xlink="http://www.w3.org/1999/xlink"
 xmlns:xodm="http://www.corel.com/coreldraw/odm/2003">
 <g id="Camada_x0020_1">
  <metadata id="CorelCorpID_0Corel-Layer"/>
  <path fill="#9D6E48" fill-rule="nonzero" d="M5.15 5.62c0.04,0.04 0.63,0.6 1.45,0.63l0 -0.44c0,0 0.57,0.73 1.97,0.91l0 -0.91 0.44 0.88 1.45 -0.73 0 -0.99c0,-1.06 -0.85,-1.92 -1.91,-1.92l-2.57 0c-1.06,0 -1.92,0.86 -1.92,1.92l0 1.64 1.09 -0.99c0,0 0,0 0,0z"/>
  <path fill="#8D5F3D" fill-rule="nonzero" d="M5.79 3.06c-0.97,0.09 -1.73,0.91 -1.73,1.91l0 1.64 1.09 -0.99c0,0 0,0 0,0 0.04,0.04 0.63,0.6 1.45,0.63 -0.52,-0.94 -0.77,-2.48 -0.81,-3.19z"/>
  <rect fill="none" width="14.53" height="15.46"/>
 </g>
</svg>
