<?xml version="1.0" encoding="UTF-8"?>
<!DOCTYPE svg PUBLIC "-//W3C//DTD SVG 1.0//EN" "http://www.w3.org/TR/2001/REC-SVG-20010904/DTD/svg10.dtd">
<!-- Creator: CorelDRAW 2020 (64 Bit) -->
<svg xmlns="http://www.w3.org/2000/svg" xml:space="preserve" width="339px" height="360px" version="1.0" shape-rendering="geometricPrecision" text-rendering="geometricPrecision" image-rendering="optimizeQuality" fill-rule="evenodd" clip-rule="evenodd"
viewBox="0 0 11.99 12.75"
 xmlns:xlink="http://www.w3.org/1999/xlink"
 xmlns:xodm="http://www.corel.com/coreldraw/odm/2003">
 <g id="Camada_x0020_1">
  <metadata id="CorelCorpID_0Corel-Layer"/>
  <path fill="#623F33" fill-rule="nonzero" d="M9.91 6.15c0.15,-0.1 0.24,-0.26 0.24,-0.45 0,-0.29 -0.22,-0.52 -0.5,-0.54 0.09,-0.1 0.14,-0.22 0.14,-0.37 0,-0.3 -0.24,-0.54 -0.54,-0.54 -0.01,0 -0.02,0 -0.04,0.01 0.03,-0.06 0.04,-0.12 0.04,-0.19 0,-0.3 -0.24,-0.54 -0.54,-0.54 0,-0.3 -0.25,-0.54 -0.55,-0.54 -0.14,0 -0.27,0.05 -0.36,0.14 0,0 0,-0.01 0,-0.01 0,-0.01 0,-0.03 0,-0.04 0,-0.35 -0.28,-0.64 -0.63,-0.64 -0.13,0 -0.24,0.04 -0.34,0.1 -0.09,-0.16 -0.27,-0.28 -0.48,-0.28 -0.14,0 -0.26,0.06 -0.36,0.14 -0.09,-0.08 -0.22,-0.14 -0.36,-0.14 -0.2,0 -0.38,0.12 -0.47,0.28 -0.1,-0.06 -0.22,-0.1 -0.34,-0.1 -0.35,0 -0.64,0.29 -0.64,0.64 0,0.02 0.01,0.03 0.01,0.05 -0.1,-0.09 -0.23,-0.14 -0.37,-0.14 -0.3,0 -0.54,0.24 -0.54,0.54 -0.3,0 -0.54,0.24 -0.54,0.54 0,0.07 0.01,0.13 0.03,0.19 -0.01,-0.01 -0.02,-0.01 -0.03,-0.01 -0.3,0 -0.55,0.24 -0.55,0.54 0,0.15 0.06,0.27 0.15,0.37 -0.28,0.02 -0.51,0.25 -0.51,0.54 0,0.19 0.1,0.35 0.25,0.45 -0.15,0.1 -0.25,0.26 -0.25,0.45 0,0.3 0.25,0.55 0.54,0.55 0.02,0 0.03,-0.01 0.04,-0.01 -0.02,0.06 -0.04,0.12 -0.04,0.19 0,0.3 0.25,0.54 0.55,0.54 0.06,0 0.12,-0.01 0.18,-0.03 0,0.01 0,0.02 0,0.03 0,0.3 0.24,0.54 0.54,0.54 0.16,0 0.3,-0.07 0.4,-0.17 0.07,0.2 0.27,0.35 0.51,0.35 0.13,0 0.25,-0.04 0.34,-0.12l-0.76 -0.32c-0.41,-0.17 -0.67,-0.57 -0.67,-1l0 -0.18c-0.3,0 -0.54,-0.25 -0.54,-0.55 0,-0.3 0.24,-0.54 0.54,-0.54l0 -0.36c0,-0.5 0.41,-0.91 0.9,-0.91l3.26 0c0.5,0 0.91,0.41 0.91,0.91l0 0.36c0.29,0 0.54,0.24 0.54,0.54 0,0.3 -0.25,0.55 -0.54,0.55l0 0.18c0,0.43 -0.27,0.83 -0.67,1l-0.77 0.32c0.1,0.08 0.22,0.12 0.35,0.12 0.23,0 0.43,-0.15 0.51,-0.35 0.1,0.1 0.24,0.17 0.39,0.17 0.3,0 0.55,-0.24 0.55,-0.54 0,-0.01 -0.01,-0.02 -0.01,-0.03 0.06,0.02 0.12,0.03 0.19,0.03 0.3,0 0.54,-0.24 0.54,-0.54 0,-0.07 -0.01,-0.13 -0.03,-0.19 0.01,0 0.02,0.01 0.03,0.01 0.3,0 0.54,-0.25 0.54,-0.55 0,-0.19 -0.09,-0.35 -0.24,-0.45z"/>
  <rect fill="none" width="11.99" height="12.75"/>
 </g>
</svg>
