<?xml version="1.0" encoding="UTF-8"?>
<!DOCTYPE svg PUBLIC "-//W3C//DTD SVG 1.0//EN" "http://www.w3.org/TR/2001/REC-SVG-20010904/DTD/svg10.dtd">
<!-- Creator: CorelDRAW 2020 (64 Bit) -->
<svg xmlns="http://www.w3.org/2000/svg" xml:space="preserve" width="339px" height="360px" version="1.0" shape-rendering="geometricPrecision" text-rendering="geometricPrecision" image-rendering="optimizeQuality" fill-rule="evenodd" clip-rule="evenodd"
viewBox="0 0 11.02 11.73"
 xmlns:xlink="http://www.w3.org/1999/xlink"
 xmlns:xodm="http://www.corel.com/coreldraw/odm/2003">
 <g id="Camada_x0020_1">
  <metadata id="CorelCorpID_0Corel-Layer"/>
  <g id="_1774439906832">
   <path fill="#9D6E48" fill-rule="nonzero" d="M8.34 2.91c0,0 -0.06,-0.04 -0.17,-0.11 -0.03,-0.38 -0.16,-0.55 -0.16,-0.55l-0.61 0.2c-0.53,-0.19 -1.27,-0.37 -2.22,-0.37 0,0 -0.11,0.11 -0.33,0.17 0,0 -0.57,-0.13 -1.17,-0.17l-0.33 0.83c0,0 -0.83,-0.01 -0.83,1 0,0.37 0.2,1.29 0.29,1.67 0.09,-0.11 0.22,-0.17 0.37,-0.17l0 -0.34c0,-0.45 0.37,-0.82 0.82,-0.83 -0.13,0.28 -0.15,0.5 -0.15,0.5 0.41,-0.28 0.95,-0.5 1.66,-0.5l1.5 0c0.46,0 0.83,0.37 0.83,0.83l0 0.34c0.16,0 0.3,0.07 0.39,0.19 0.15,-0.36 0.48,-1.41 0.11,-2.69z"/>
  </g>
  <g id="_1774439908896">
   <path fill="#8D5F3D" fill-rule="nonzero" d="M8.01 2.25l-0.61 0.2c-0.53,-0.19 -1.27,-0.37 -2.22,-0.37 0,0 -0.11,0.11 -0.33,0.17 0,0 -0.57,-0.13 -1.17,-0.17l-0.33 0.83c0,0 -0.83,-0.01 -0.83,1 0,0.37 0.2,1.29 0.29,1.67 0.09,-0.11 0.22,-0.17 0.37,-0.17l0 -0.34c0,-0.43 0.34,-0.78 0.76,-0.82 -0.04,0.12 -0.09,0.3 -0.09,0.49 0.65,-0.83 1.58,-1.13 2.33,-1.33 0.73,-0.2 0.83,-0.5 0.83,-0.5 0,0 0.73,-0.04 1,-0.66z"/>
  </g>
  <rect fill="none" width="11.02" height="11.73"/>
 </g>
</svg>
