<?xml version="1.0" encoding="UTF-8"?>
<!DOCTYPE svg PUBLIC "-//W3C//DTD SVG 1.0//EN" "http://www.w3.org/TR/2001/REC-SVG-20010904/DTD/svg10.dtd">
<!-- Creator: CorelDRAW 2020 (64 Bit) -->
<svg xmlns="http://www.w3.org/2000/svg" xml:space="preserve" width="339px" height="360px" version="1.0" shape-rendering="geometricPrecision" text-rendering="geometricPrecision" image-rendering="optimizeQuality" fill-rule="evenodd" clip-rule="evenodd"
viewBox="0 0 16.25 17.29"
 xmlns:xlink="http://www.w3.org/1999/xlink"
 xmlns:xodm="http://www.corel.com/coreldraw/odm/2003">
 <g id="Camada_x0020_1">
  <metadata id="CorelCorpID_0Corel-Layer"/>
  <path fill="#FFC85C" fill-rule="nonzero" d="M11.07 10.79c0.01,0.43 0.12,0.9 0.24,1.35l0.49 0c0.14,-0.49 0.26,-1.01 0.25,-1.47 -0.01,-0.56 -0.12,-1.04 -0.19,-1.29 -0.09,0.04 -0.19,0.06 -0.3,0.06l0 0.25c0,0.43 -0.19,0.82 -0.49,1.1z"/>
  <path fill="#F6B45E" fill-rule="nonzero" d="M4.39 9.38c-0.07,0.25 -0.18,0.73 -0.19,1.29 -0.01,0.46 0.11,0.98 0.25,1.47l0.49 0c0.12,-0.45 0.23,-0.92 0.24,-1.35 -0.3,-0.28 -0.49,-0.68 -0.49,-1.1l0 -0.25c-0.11,0 -0.21,-0.02 -0.3,-0.06z"/>
  <path fill="#00A1B4" fill-rule="nonzero" d="M4.94 12.63l-0.49 0c-0.14,0 -0.25,-0.11 -0.25,-0.24l0 0c0,-0.14 0.11,-0.25 0.25,-0.25l0.49 0c0.13,0 0.24,0.11 0.24,0.25l0 0c0,0.13 -0.11,0.24 -0.24,0.24z"/>
  <g>
   <path fill="#F6B45E" fill-rule="nonzero" d="M4.94 12.63c0,0 0.43,0.74 -0.25,1.72 -0.67,-0.98 -0.24,-1.72 -0.24,-1.72l0.49 0zm0 0l0 0 0 0z"/>
  </g>
  <path fill="#00A1B4" fill-rule="nonzero" d="M11.31 12.63l0.49 0c0.14,0 0.25,-0.11 0.25,-0.24l0 0c0,-0.14 -0.11,-0.25 -0.25,-0.25l-0.49 0c-0.13,0 -0.24,0.11 -0.24,0.25l0 0c0,0.13 0.11,0.24 0.24,0.24z"/>
  <g>
   <path fill="#FFC85C" fill-rule="nonzero" d="M11.31 12.63c0,0 -0.43,0.74 0.25,1.72 0.67,-0.98 0.24,-1.72 0.24,-1.72l-0.49 0zm0 0l0 0 0 0z"/>
  </g>
  <path fill="#FFC85C" fill-rule="nonzero" d="M9.35 3.07c-0.8,0 -1.22,0.24 -1.22,0.24 0,0 -0.43,-0.24 -1.23,-0.24 -0.8,0 -3.82,1.53 -2.7,5.09 0,0 3.93,-0.7 3.93,-2.4 0,1.7 3.92,2.4 3.92,2.4 1.12,-3.56 -1.9,-5.09 -2.7,-5.09z"/>
  <path fill="#F6B45E" fill-rule="nonzero" d="M8.13 3.31l0 0c0,0 -0.43,-0.24 -1.23,-0.24 -0.8,0 -3.82,1.53 -2.7,5.09 0,0 0.48,-0.09 1.1,-0.27 -0.7,-3.19 2.06,-4.57 2.83,-4.58z"/>
  <rect fill="none" width="16.25" height="17.29"/>
 </g>
</svg>
