<?xml version="1.0" encoding="UTF-8"?>
<!DOCTYPE svg PUBLIC "-//W3C//DTD SVG 1.0//EN" "http://www.w3.org/TR/2001/REC-SVG-20010904/DTD/svg10.dtd">
<!-- Creator: CorelDRAW 2020 (64 Bit) -->
<svg xmlns="http://www.w3.org/2000/svg" xml:space="preserve" width="339px" height="360px" version="1.0" shape-rendering="geometricPrecision" text-rendering="geometricPrecision" image-rendering="optimizeQuality" fill-rule="evenodd" clip-rule="evenodd"
viewBox="0 0 14.53 15.46"
 xmlns:xlink="http://www.w3.org/1999/xlink"
 xmlns:xodm="http://www.corel.com/coreldraw/odm/2003">
 <g id="Camada_x0020_1">
  <metadata id="CorelCorpID_0Corel-Layer"/>
  <path fill="#6E4439" fill-rule="nonzero" d="M10.77 4.06c-0.18,-0.35 -0.73,-0.88 -1.97,-0.88l0 2.41 0.44 0c0.6,0 1.09,0.49 1.09,1.1l0 0.44c0.18,0 0.35,0.07 0.47,0.19 0.07,-0.71 0.25,-2.73 -0.03,-3.26z"/>
  <path fill="#6E4439" fill-rule="nonzero" d="M6.83 2.74c-4.94,0 -3.07,7.89 -3.07,7.89l0.87 0.22c0.02,-1.46 0.19,-3.12 0.88,-3.72 1.04,-0.91 3.5,-0.83 3.95,-1.76 0.34,-0.71 0,-1.89 -0.22,-2.19 0,0 -0.31,-0.44 -2.41,-0.44z"/>
  <path fill="#5E342E" fill-rule="nonzero" d="M5.73 6.03c1.84,-0.89 2.85,-1.08 2.63,-3.07 0,-0.04 -0.01,-0.07 -0.02,-0.11 -0.35,-0.06 -0.84,-0.11 -1.51,-0.11 -4.94,0 -3.07,7.89 -3.07,7.89l0.43 0.11c-0.03,-1.45 -0.17,-3.88 1.54,-4.71z"/>
  <rect fill="none" width="14.53" height="15.46"/>
 </g>
</svg>
