<?xml version="1.0" encoding="UTF-8"?>
<!DOCTYPE svg PUBLIC "-//W3C//DTD SVG 1.0//EN" "http://www.w3.org/TR/2001/REC-SVG-20010904/DTD/svg10.dtd">
<!-- Creator: CorelDRAW 2020 (64 Bit) -->
<svg xmlns="http://www.w3.org/2000/svg" xml:space="preserve" width="339px" height="360px" version="1.0" shape-rendering="geometricPrecision" text-rendering="geometricPrecision" image-rendering="optimizeQuality" fill-rule="evenodd" clip-rule="evenodd"
viewBox="0 0 13.13 13.98"
 xmlns:xlink="http://www.w3.org/1999/xlink"
 xmlns:xodm="http://www.corel.com/coreldraw/odm/2003">
 <g id="Camada_x0020_1">
  <metadata id="CorelCorpID_0Corel-Layer"/>
  <path fill="#5E342E" fill-rule="nonzero" d="M4.41 8.87c-0.18,0.6 -0.44,1.24 -0.55,1.8l0.23 -0.12c0.07,-0.03 0.14,0 0.17,0.06l0.85 -0.31c0.16,-0.05 0.27,-0.21 0.27,-0.38l0 -0.64 -0.86 -0.35c-0.04,-0.02 -0.08,-0.04 -0.11,-0.06z"/>
  <path fill="#6E4439" fill-rule="nonzero" d="M9.28 10.67c-0.12,-0.56 -0.38,-1.2 -0.55,-1.8 -0.04,0.02 -0.08,0.04 -0.12,0.06l-0.85 0.35 0 0.64c0,0.17 0.11,0.33 0.27,0.38l0.84 0.31c0.03,-0.06 0.11,-0.09 0.17,-0.06l0.24 0.12z"/>
  <path fill="#6E4439" fill-rule="nonzero" d="M7.56 2.48c-0.64,0 -0.99,0.2 -0.99,0.2 0,0 -0.35,-0.2 -0.99,-0.2 -0.65,0 -3.09,1.24 -2.18,4.11 0,0 3.17,-0.56 3.17,-1.93 0,1.37 3.17,1.93 3.17,1.93 0.91,-2.87 -1.54,-4.11 -2.18,-4.11z"/>
  <path fill="#5E342E" fill-rule="nonzero" d="M6.57 2.68l0 0c0,0 -0.35,-0.2 -0.99,-0.2 -0.65,0 -3.09,1.24 -2.18,4.11 0,0 0.38,-0.06 0.88,-0.21 -0.56,-2.58 1.67,-3.7 2.29,-3.7z"/>
  <rect fill="none" width="13.13" height="13.98"/>
 </g>
</svg>
