<?xml version="1.0" encoding="UTF-8"?>
<!DOCTYPE svg PUBLIC "-//W3C//DTD SVG 1.0//EN" "http://www.w3.org/TR/2001/REC-SVG-20010904/DTD/svg10.dtd">
<!-- Creator: CorelDRAW 2020 (64 Bit) -->
<svg xmlns="http://www.w3.org/2000/svg" xml:space="preserve" width="339px" height="360px" version="1.0" shape-rendering="geometricPrecision" text-rendering="geometricPrecision" image-rendering="optimizeQuality" fill-rule="evenodd" clip-rule="evenodd"
viewBox="0 0 11.99 12.75"
 xmlns:xlink="http://www.w3.org/1999/xlink"
 xmlns:xodm="http://www.corel.com/coreldraw/odm/2003">
 <g id="Camada_x0020_1">
  <metadata id="CorelCorpID_0Corel-Layer"/>
  <g id="_1775675866576">
   <g>
    <path fill="#9D6E48" fill-rule="nonzero" d="M3.1 5.52c-0.54,0 -1.63,0.2 -1.63,1.81 0,1.6 -0.36,3.61 -0.36,3.61 0,0 1.81,-0.19 1.81,-2.35 0,-2.01 0.36,-2.35 0.36,-2.35l-0.18 -0.72z"/>
   </g>
   <g>
    <path fill="#8D5F3D" fill-rule="nonzero" d="M2.92 8.59c0,-2.01 0.36,-2.35 0.36,-2.35l-0.36 -0.54c-0.21,0.03 -1.01,0.03 -0.91,1.45 0.11,1.41 0.64,2.85 -0.9,3.79 0,0 1.81,-0.19 1.81,-2.35z"/>
   </g>
   <g>
    <path fill="#6AA2DE" fill-rule="nonzero" d="M3.31 6.08l-0.22 -0.62c-0.04,-0.1 -0.14,-0.15 -0.23,-0.11 -0.1,0.03 -0.15,0.14 -0.11,0.23l0.22 0.62c0.04,0.09 0.14,0.14 0.23,0.11 0.1,-0.04 0.15,-0.14 0.11,-0.23z"/>
   </g>
   <g>
    <path fill="#9D6E48" fill-rule="nonzero" d="M8.89 5.52c0.54,0 1.62,0.2 1.62,1.81 0,1.6 0.37,3.61 0.37,3.61 0,0 -1.81,-0.19 -1.81,-2.35 0,-2.01 -0.36,-2.35 -0.36,-2.35l0.18 -0.72z"/>
   </g>
   <g>
    <path fill="#8D5F3D" fill-rule="nonzero" d="M9.07 8.59c0,-2.01 -0.36,-2.35 -0.36,-2.35l0.36 -0.54c0.21,0.03 1.01,0.03 0.9,1.45 -0.1,1.41 -0.63,2.85 0.91,3.79 0,0 -1.81,-0.19 -1.81,-2.35z"/>
   </g>
   <g>
    <path fill="#6AA2DE" fill-rule="nonzero" d="M8.67 6.08l0.23 -0.62c0.03,-0.1 0.14,-0.15 0.23,-0.11 0.09,0.03 0.14,0.14 0.11,0.23l-0.23 0.62c-0.03,0.09 -0.14,0.14 -0.23,0.11 -0.09,-0.04 -0.14,-0.14 -0.11,-0.23z"/>
   </g>
   <path fill="#9D6E48" fill-rule="nonzero" d="M6.9 2.26c-0.59,0 -0.91,0.18 -0.91,0.18 0,0 -0.31,-0.18 -0.9,-0.18 -0.59,0 -2.82,1.13 -1.99,3.76 0,0 2.89,-0.52 2.89,-1.77 0,1.25 2.9,1.77 2.9,1.77 0.83,-2.63 -1.41,-3.76 -1.99,-3.76z"/>
   <g>
    <path fill="#8D5F3D" fill-rule="nonzero" d="M5.99 2.44l0 0c0,0 -0.31,-0.18 -0.9,-0.18 -0.59,0 -2.82,1.13 -1.99,3.76 0,0 0.35,-0.07 0.81,-0.2 -0.52,-2.35 1.52,-3.37 2.08,-3.38z"/>
   </g>
  </g>
  <rect fill="none" width="11.99" height="12.75"/>
 </g>
</svg>
