<?xml version="1.0" encoding="UTF-8"?>
<!DOCTYPE svg PUBLIC "-//W3C//DTD SVG 1.0//EN" "http://www.w3.org/TR/2001/REC-SVG-20010904/DTD/svg10.dtd">
<!-- Creator: CorelDRAW 2020 (64 Bit) -->
<svg xmlns="http://www.w3.org/2000/svg" xml:space="preserve" width="339px" height="360px" version="1.0" shape-rendering="geometricPrecision" text-rendering="geometricPrecision" image-rendering="optimizeQuality" fill-rule="evenodd" clip-rule="evenodd"
viewBox="0 0 11.02 11.73"
 xmlns:xlink="http://www.w3.org/1999/xlink"
 xmlns:xodm="http://www.corel.com/coreldraw/odm/2003">
 <g id="Camada_x0020_1">
  <metadata id="CorelCorpID_0Corel-Layer"/>
  <path fill="#FF9656" fill-rule="nonzero" d="M3.3 7.05l-0.95 -0.31c0,0 -0.03,-0.72 0.17,-1.17l-0.5 -0.99c0,0 0.25,-0.37 0.83,-0.67l-0.17 -1.16 1.5 -0.34 0 -0.33c0,0 1.86,0.11 2.49,0.33l0.84 -0.33 0 1 0.99 -0.17c0,0 0.21,0.58 0,1.33l0.67 0.83 -0.5 0.5 0.17 1 -1.11 0.46c0.07,-0.14 0.11,-0.3 0.11,-0.46l0 -0.17c0.27,0 0.5,-0.22 0.5,-0.49 0,-0.28 -0.23,-0.5 -0.5,-0.5l0 -0.34c0,-0.46 -0.37,-0.83 -0.83,-0.83l-3 0c-0.46,0 -0.83,0.37 -0.83,0.83l0 0.34c-0.27,0 -0.5,0.22 -0.5,0.5 0,0.27 0.23,0.49 0.5,0.49l0 0.17c0,0.17 0.05,0.34 0.12,0.48z"/>
  <path fill="#EF8C56" fill-rule="nonzero" d="M6.18 4.24c0,0 0.02,-1.7 -2,-2.16l0 0.33 -1.5 0.34 0.17 1.16c-0.04,0.02 -0.07,0.04 -0.11,0.06 -0.38,0.22 -0.6,0.46 -0.69,0.56 -0.02,0.03 -0.03,0.05 -0.03,0.05l0.5 0.99c-0.01,0.02 -0.02,0.03 -0.02,0.05 -0.14,0.34 -0.15,0.82 -0.15,1.02 0,0.02 0,0.04 0,0.05 0,0.03 0,0.05 0,0.05l0.95 0.31c-0.07,-0.14 -0.12,-0.31 -0.12,-0.48l0 -0.17c-0.27,0 -0.5,-0.22 -0.5,-0.49 0,-0.28 0.23,-0.5 0.5,-0.5l0 -0.34c0,-0.46 0.37,-0.83 0.83,-0.83l2.17 0z"/>
  <path fill="#EF8C56" fill-rule="nonzero" d="M3.76 4.18c-0.1,0.4 -0.08,0.89 -0.08,0.89 0.17,-0.31 0.66,-0.74 0.98,-0.89 0,0 -0.9,0 -0.9,0z"/>
  <rect fill="none" width="11.02" height="11.73"/>
 </g>
</svg>
