<?xml version="1.0" encoding="UTF-8"?>
<!DOCTYPE svg PUBLIC "-//W3C//DTD SVG 1.0//EN" "http://www.w3.org/TR/2001/REC-SVG-20010904/DTD/svg10.dtd">
<!-- Creator: CorelDRAW 2020 (64 Bit) -->
<svg xmlns="http://www.w3.org/2000/svg" xml:space="preserve" width="339px" height="360px" version="1.0" shape-rendering="geometricPrecision" text-rendering="geometricPrecision" image-rendering="optimizeQuality" fill-rule="evenodd" clip-rule="evenodd"
viewBox="0 0 23.45 24.95"
 xmlns:xlink="http://www.w3.org/1999/xlink"
 xmlns:xodm="http://www.corel.com/coreldraw/odm/2003">
 <g id="Camada_x0020_1">
  <metadata id="CorelCorpID_0Corel-Layer"/>
  <rect fill="none" width="23.45" height="24.95"/>
  <g id="_1774469331952">
   <path fill="#734A3E" fill-rule="nonzero" d="M12.81 4.66c-0.82,0 -1.05,0.36 -1.05,0.36 0,0 -0.24,-0.36 -1.06,-0.36 -2.36,0 -5.28,3.12 -5.28,5.04 0,0.87 0.29,1.62 0.61,2.17 0.19,-0.23 0.48,-0.37 0.8,-0.37l0 -0.72c0,-1 0.79,-1.8 1.76,-1.8l6.33 0c0.98,0 1.76,0.8 1.76,1.8l0 0.72c0.32,0 0.61,0.14 0.8,0.37 0.32,-0.55 0.61,-1.3 0.61,-2.17 0,-1.92 -2.92,-5.04 -5.28,-5.04z"/>
   <path fill="#623F33" fill-rule="nonzero" d="M10.7 4.66c-2.36,0 -5.28,3.12 -5.28,5.04 0,0.87 0.29,1.62 0.61,2.17 0.19,-0.23 0.48,-0.37 0.8,-0.37l0 -0.72c0,-0.89 0.62,-1.63 1.45,-1.78 0.9,-2.99 2.92,-4.13 3.48,-3.98 0,0 -0.24,-0.36 -1.06,-0.36z"/>
   <path fill="#734A3E" fill-rule="nonzero" d="M6.95 8.78l0 0c-0.08,0.13 -0.11,0.28 -0.08,0.43 0.05,0.31 0.16,0.92 0.31,1.57 0,0 0.19,-0.31 0.48,-0.72 0.06,0.36 0.11,0.63 0.16,0.82 0.04,0.17 0.07,0.26 0.07,0.26 2.81,-3.27 3.87,-1.8 3.87,-1.8 0,0 1.05,-1.47 3.87,1.8 0,0 0.12,-0.4 0.22,-1.08 0.3,0.41 0.48,0.72 0.48,0.72 0.15,-0.65 0.26,-1.26 0.32,-1.57 0.02,-0.15 -0.01,-0.3 -0.09,-0.43l0 0c-0.11,-0.16 -0.28,-0.25 -0.47,-0.25l-8.66 0c-0.19,0 -0.37,0.09 -0.48,0.25z"/>
   <path fill="#623F33" fill-rule="nonzero" d="M7.43 8.53c-0.19,0 -0.37,0.09 -0.48,0.25 -0.08,0.13 -0.11,0.28 -0.08,0.43 0.05,0.31 0.16,0.92 0.31,1.57 0,0 0.19,-0.31 0.48,-0.72 0.06,0.36 0.11,0.63 0.16,0.82 0.04,0.17 0.07,0.26 0.07,0.26 0.08,-1.01 0.28,-1.87 0.55,-2.61l-1.01 0 0 0z"/>
  </g>
 </g>
</svg>
