<?xml version="1.0" encoding="UTF-8"?>
<!DOCTYPE svg PUBLIC "-//W3C//DTD SVG 1.0//EN" "http://www.w3.org/TR/2001/REC-SVG-20010904/DTD/svg10.dtd">
<!-- Creator: CorelDRAW 2020 (64 Bit) -->
<svg xmlns="http://www.w3.org/2000/svg" xml:space="preserve" width="339px" height="360px" version="1.0" shape-rendering="geometricPrecision" text-rendering="geometricPrecision" image-rendering="optimizeQuality" fill-rule="evenodd" clip-rule="evenodd"
viewBox="0 0 16.79 17.87"
 xmlns:xlink="http://www.w3.org/1999/xlink"
 xmlns:xodm="http://www.corel.com/coreldraw/odm/2003">
 <g id="Camada_x0020_1">
  <metadata id="CorelCorpID_0Corel-Layer"/>
  <rect fill="none" width="16.79" height="17.87"/>
  <g id="_1774450586512">
   <path fill="#734A3E" fill-rule="nonzero" d="M11.56 3.75c-0.41,-0.26 -0.88,-0.4 -1.36,-0.4l-0.02 0 0 3.09 0.5 0c0.7,0 1.26,0.58 1.26,1.29l0 0.52 0 0c0.21,0 0.4,0.09 0.54,0.23l0.27 -2.18c0.12,-1.01 -0.34,-2.01 -1.19,-2.55z"/>
   <path fill="#623F33" fill-rule="nonzero" d="M3.98 5.53c0.01,0 0.01,0.01 0.01,0.01l0.36 2.94c0.13,-0.14 0.32,-0.23 0.53,-0.23l0 -0.52c0,-0.62 0.44,-1.14 1.01,-1.26l0 -2.35 -0.62 0c-0.75,0 -1.37,0.65 -1.29,1.41z"/>
   <path fill="#734A3E" fill-rule="nonzero" d="M10.18 3.35l-3.53 0c-0.84,0 -1.51,0.69 -1.51,1.55l0 0c0,1.49 1.38,2.39 2.52,2.83 0,0 -0.13,-0.23 -0.3,-0.58 1.01,0.34 2.56,0.58 4.68,0.58 0,0 0,-0.55 0,-0.74 0,-3.76 -1.86,-3.64 -1.86,-3.64z"/>
  </g>
 </g>
</svg>
