<?xml version="1.0" encoding="UTF-8"?>
<!DOCTYPE svg PUBLIC "-//W3C//DTD SVG 1.0//EN" "http://www.w3.org/TR/2001/REC-SVG-20010904/DTD/svg10.dtd">
<!-- Creator: CorelDRAW 2020 (64 Bit) -->
<svg xmlns="http://www.w3.org/2000/svg" xml:space="preserve" width="339px" height="360px" version="1.0" shape-rendering="geometricPrecision" text-rendering="geometricPrecision" image-rendering="optimizeQuality" fill-rule="evenodd" clip-rule="evenodd"
viewBox="0 0 11.23 11.95"
 xmlns:xlink="http://www.w3.org/1999/xlink"
 xmlns:xodm="http://www.corel.com/coreldraw/odm/2003">
 <g id="Camada_x0020_1">
  <metadata id="CorelCorpID_0Corel-Layer"/>
  <rect fill="none" width="11.23" height="11.95"/>
  <path fill="#9D6E48" fill-rule="nonzero" d="M5.61 2.12c-1.04,0 -3.39,0.55 -3.39,3.56 0,0.71 0.15,1.54 0.51,2.54 0.62,0.11 1.24,0.18 1.87,0.22l0 -0.5 -0.73 -0.31c-0.38,-0.16 -0.63,-0.53 -0.63,-0.94l0 -0.17c-0.28,0 -0.51,-0.22 -0.51,-0.5 0,-0.28 0.23,-0.51 0.51,-0.51l0.01 -1.02c0,-0.41 0.29,-0.75 0.67,-0.83l0.17 -0.02 3.05 0c0.47,0 0.85,0.38 0.85,0.85l0 1.02 0 0c0.28,0 0.5,0.23 0.5,0.51 0,0.28 -0.22,0.5 -0.5,0.5l0 0.17c0,0.41 -0.25,0.78 -0.63,0.94 -0.03,0.01 -0.94,0.39 -0.73,0.31l0 0.5c0.62,-0.04 1.25,-0.11 1.86,-0.22 0.36,-1 0.51,-1.83 0.51,-2.54 0,-3.01 -2.34,-3.56 -3.39,-3.56z"/>
  <path fill="#8D5F3D" fill-rule="nonzero" d="M2.22 5.68c0,0.71 0.15,1.54 0.51,2.54 0.62,0.11 1.24,0.18 1.87,0.22l0 -0.5 -0.73 -0.31c-0.38,-0.16 -0.63,-0.53 -0.63,-0.94l0 -0.17c-0.28,0 -0.51,-0.22 -0.51,-0.5 0,-0.28 0.23,-0.51 0.51,-0.51l0.01 -1.02c0,-0.41 0.29,-0.75 0.67,-0.83l0.17 -0.02 0.39 0c0.03,-0.46 0.09,-0.93 0.2,-1.4 -1.11,0.29 -2.46,1.16 -2.46,3.44z"/>
  <path fill="#9D6E48" fill-rule="nonzero" d="M3.18 4.34l0 0.66c0,0 0.7,0.27 1.91,0.17l0.18 -0.68 0.17 0.68c0.48,-0.04 0.7,-0.17 0.7,-0.17l0.17 -0.34 0.17 0.51c0,0 0.63,-0.01 1.05,-0.17l0.17 -0.34 0.35 0.85 0 -1.21c0,0 -0.72,-1.02 -2.5,-1.02 -1.78,0 -2.37,1.06 -2.37,1.06z"/>
  <path fill="#8D5F3D" fill-rule="nonzero" d="M5.01 3.32c-1.36,0.18 -1.83,1.02 -1.83,1.02l0 0.66c0,0 0.44,0.17 1.22,0.19 0,0 0,-1.12 0.61,-1.87z"/>
  <g id="_1774246810016">
   <path fill="#FFC84A" fill-rule="nonzero" d="M7.98 4.49c-0.06,0 -0.11,-0.03 -0.14,-0.08 -0.36,-0.56 -1.25,-0.94 -2.23,-0.94 -0.97,0 -1.86,0.38 -2.22,0.94 -0.05,0.08 -0.16,0.1 -0.24,0.05 -0.07,-0.05 -0.1,-0.15 -0.05,-0.23 0.43,-0.66 1.41,-1.09 2.51,-1.09 1.1,0 2.09,0.43 2.51,1.09 0.05,0.08 0.03,0.18 -0.05,0.23 -0.03,0.02 -0.06,0.03 -0.09,0.03z"/>
  </g>
 </g>
</svg>
