<?xml version="1.0" encoding="UTF-8"?>
<!DOCTYPE svg PUBLIC "-//W3C//DTD SVG 1.0//EN" "http://www.w3.org/TR/2001/REC-SVG-20010904/DTD/svg10.dtd">
<!-- Creator: CorelDRAW 2020 (64 Bit) -->
<svg xmlns="http://www.w3.org/2000/svg" xml:space="preserve" width="339px" height="360px" version="1.0" shape-rendering="geometricPrecision" text-rendering="geometricPrecision" image-rendering="optimizeQuality" fill-rule="evenodd" clip-rule="evenodd"
viewBox="0 0 12.94 13.77"
 xmlns:xlink="http://www.w3.org/1999/xlink"
 xmlns:xodm="http://www.corel.com/coreldraw/odm/2003">
 <g id="Camada_x0020_1">
  <metadata id="CorelCorpID_0Corel-Layer"/>
  <rect fill="none" width="12.94" height="13.77"/>
  <path fill="#9D6E48" fill-rule="nonzero" d="M9.6 4.2c-0.61,-1.29 -1.76,-1.76 -3.13,-1.76 -1.37,0 -2.51,0.47 -3.12,1.76 -0.61,1.29 -0.41,3.58 -1.18,5.08 0,0 0.78,0.7 2.24,1.1l0.62 -0.23c0.03,-0.01 0.06,-0.02 0.08,-0.04l0 0c0.09,-0.05 0.16,-0.15 0.18,-0.25 0,0 0,-0.01 0,-0.01 0,0 0,-0.01 0,-0.02 0.01,0 0.01,-0.01 0.01,-0.01 0,0 0,-0.01 0,-0.01 0,-0.01 0,-0.01 0,-0.02l0 0 0 0 0 0 0 0 0 0 0 -0.01 0 0 0 0 0 0 0 0 0 0 0 0 0 0 0 0 0 0 0 0 0 0 0 0 0 0 0 0 0 0 0 0 0 0 0 -0.63 -0.84 -0.35 -0.02 -0.01 -0.02 -0.01 -0.02 -0.01 -0.02 -0.01 -0.02 -0.01 -0.02 -0.01 -0.02 -0.01 -0.02 -0.01 -0.02 -0.01 -0.02 -0.01 -0.01 -0.02 -0.02 -0.01 -0.02 -0.01 -0.02 -0.01 -0.01 -0.02 -0.02 -0.01 -0.02 -0.02 -0.01 -0.01 -0.02 -0.01 -0.01 -0.02 0 0 -0.02 -0.01 -0.01 -0.02 -0.02 -0.01 -0.01 -0.02 -0.02 -0.02 -0.01 -0.01 -0.01 -0.02 -0.02 -0.02 0 0 -0.01 -0.01 -0.01 -0.02 -0.02 -0.02 -0.01 -0.01 0 0 -0.01 -0.02 0 0 -0.01 -0.02 -0.01 -0.02 -0.01 -0.02 -0.01 -0.02 -0.01 -0.01 -0.01 -0.02 -0.01 -0.02 0 0 -0.01 -0.02 0 0 -0.01 -0.02 0 0 -0.01 -0.02 0 -0.02 0 0 -0.01 -0.02 0 0 -0.01 -0.02 -0.01 -0.02 0 0 0 -0.02 -0.01 -0.02 0 -0.02 -0.01 -0.02 0 -0.02 0 0 -0.01 -0.03 0 -0.02 -0.01 -0.02 0 -0.02 0 -0.02 -0.01 -0.02 0 -0.02 0 -0.03 0 -0.02 0 -0.02 0 0 0 -0.02 0 -0.02 0 -0.2c-0.33,0 -0.59,-0.26 -0.59,-0.59 0,-0.32 0.26,-0.58 0.59,-0.58l0 -0.39 0 -0.02 0 -0.01 0 -0.02 0 0 0 -0.03 0 0 0 0 0 -0.02 0 -0.01 0 -0.01 0 -0.01 0.01 -0.01 0 -0.01 0 0 0 -0.01 0 -0.01 0 -0.01 0.01 -0.02 0 0 0 -0.02 0 0 0.01 -0.02 0 -0.02 0 0 0 -0.02 0.01 0 0 -0.01 0.01 -0.02 0 -0.02 0 0 0.01 -0.01 0 -0.01c0.14,-0.37 0.5,-0.63 0.91,-0.63l3.52 0c0.54,0 0.97,0.44 0.97,0.98l0 0.39c0.33,0 0.59,0.26 0.59,0.58 0,0.33 -0.26,0.59 -0.59,0.59l0 0.2c0,0.47 -0.28,0.9 -0.72,1.08l-0.84 0.35 0 0.63c0,0.17 0.11,0.32 0.27,0.37l0.62 0.23c1.46,-0.4 2.24,-1.1 2.24,-1.1 -0.77,-1.5 -0.56,-3.79 -1.17,-5.08z"/>
  <path fill="#8D5F3D" fill-rule="nonzero" d="M5.38 4.98c0.19,-0.99 0.67,-1.89 1.46,-2.52 -0.12,-0.01 -0.24,-0.02 -0.37,-0.02 -1.37,0 -2.51,0.47 -3.12,1.76 -0.61,1.29 -0.41,3.58 -1.18,5.08 0,0 0.8,0.69 2.26,1.09l0.6 -0.22c0.03,-0.01 0.06,-0.02 0.08,-0.04l0 0c0.09,-0.05 0.16,-0.15 0.18,-0.25 0,0 0,-0.01 0,-0.01 0,0 0,-0.01 0,-0.02 0.01,0 0.01,-0.01 0.01,-0.01 0,0 0,-0.01 0,-0.01 0,-0.01 0,-0.01 0,-0.02l0 0 0 0 0 0 0 0 0 0 0 -0.01 0 0 0 0 0 0 0 0 0 0 0 0 0 0 0 0 0 0 0 0 0 0 0 0 0 0 0 0 0 0 0 -0.01 0 -0.07 0 -0.08 0 -0.08 0 -0.08 0 -0.08 0 -0.09 0 -0.09 0 -0.05 -0.84 -0.35 -0.02 -0.01 -0.02 -0.01 -0.02 -0.01 -0.02 -0.01 -0.02 -0.01 -0.02 -0.01 -0.02 -0.01 -0.02 -0.01 -0.02 -0.01 -0.02 -0.01 -0.01 -0.02 -0.02 -0.01 -0.02 -0.01 -0.02 -0.01 -0.01 -0.02 -0.02 -0.01 -0.02 -0.02 -0.01 -0.01 -0.02 -0.01 -0.01 -0.02 0 0 -0.02 -0.01 -0.01 -0.02 -0.02 -0.01 -0.01 -0.02 -0.02 -0.02 -0.01 -0.01 -0.01 -0.02 -0.02 -0.02 0 0 -0.01 -0.01 -0.01 -0.02 -0.02 -0.02 -0.01 -0.01 0 0 -0.01 -0.02 0 0 -0.01 -0.02 -0.01 -0.02 -0.01 -0.02 -0.01 -0.02 -0.01 -0.01 -0.01 -0.02 -0.01 -0.02 0 0 -0.01 -0.02 0 0 -0.01 -0.02 0 0 -0.01 -0.02 0 -0.02 0 0 -0.01 -0.02 0 0 -0.01 -0.02 -0.01 -0.02 0 0 0 -0.02 -0.01 -0.02 0 -0.02 -0.01 -0.02 0 -0.02 0 0 -0.01 -0.03 0 -0.02 -0.01 -0.02 0 -0.02 0 -0.02 -0.01 -0.02 0 -0.02 0 -0.03 0 -0.02 0 -0.02 0 0 0 -0.02 0 -0.02 0 -0.2c-0.33,0 -0.59,-0.26 -0.59,-0.59 0,-0.32 0.26,-0.58 0.59,-0.58l0 -0.39 0 -0.02 0 -0.01 0 -0.02 0 0 0 -0.03 0 0 0 0 0 -0.02 0 -0.01 0 -0.01 0 -0.01 0.01 -0.01 0 -0.01 0 0 0 -0.01 0 -0.01 0 -0.01 0.01 -0.02 0 0 0 -0.02 0 0 0.01 -0.02 0 -0.02 0 0 0 -0.02 0.01 0 0 -0.01 0.01 -0.02 0 -0.02 0 0 0.01 -0.01 0 -0.01c0.14,-0.37 0.5,-0.63 0.91,-0.63l0.67 0z"/>
  <path fill="#9D6E48" fill-rule="nonzero" d="M4.13 5.96c0,0 1.24,0.12 1.95,-0.2 0.1,-0.04 0.39,-0.68 0.39,-0.68l0 0.88c0,0 0.9,-0.05 1.83,-0.42l0 -0.7 -4.31 0c0.09,0.44 0.14,1.12 0.14,1.12z"/>
  <g id="_1774244174560">
   <g>
    <path fill="#BD445A" fill-rule="nonzero" d="M8.91 4.97c0,0.27 -0.53,0.48 -0.79,0.48 -0.26,0 -0.48,-0.21 -0.48,-0.48 0,-0.26 0.22,-0.47 0.48,-0.47 0.26,0 0.79,0.21 0.79,0.47z"/>
   </g>
  </g>
  <g id="_1774244175088">
   <g>
    <path fill="#BD445A" fill-rule="nonzero" d="M8.91 4.97c0,-0.26 0.53,-0.47 0.8,-0.47 0.26,0 0.47,0.21 0.47,0.47 0,0.27 -0.21,0.48 -0.47,0.48 -0.27,0 -0.8,-0.21 -0.8,-0.48z"/>
   </g>
  </g>
  <g id="_1774244175328">
   <g>
    <path fill="#FF6473" fill-rule="nonzero" d="M8.91 4.97c0.23,0.13 0.15,0.7 0.02,0.93 -0.13,0.23 -0.43,0.3 -0.65,0.17 -0.23,-0.13 -0.31,-0.42 -0.18,-0.65 0.13,-0.23 0.58,-0.58 0.81,-0.45z"/>
   </g>
  </g>
  <g id="_1774244175376">
   <g>
    <path fill="#FF6473" fill-rule="nonzero" d="M8.91 4.97c-0.23,-0.13 -0.15,-0.69 -0.01,-0.92 0.13,-0.23 0.42,-0.31 0.65,-0.18 0.22,0.13 0.3,0.43 0.17,0.65 -0.13,0.23 -0.58,0.58 -0.81,0.45z"/>
   </g>
  </g>
  <g id="_1774244175856">
   <g>
    <path fill="#F05467" fill-rule="nonzero" d="M8.91 4.97c-0.23,0.13 -0.15,0.7 -0.01,0.93 0.13,0.23 0.42,0.3 0.65,0.17 0.22,-0.13 0.3,-0.42 0.17,-0.65 -0.13,-0.23 -0.58,-0.58 -0.81,-0.45z"/>
   </g>
  </g>
  <g id="_1774244176912">
   <g>
    <path fill="#F05467" fill-rule="nonzero" d="M8.91 4.97c0.23,-0.13 0.15,-0.69 0.02,-0.92 -0.13,-0.23 -0.43,-0.31 -0.65,-0.18 -0.23,0.13 -0.31,0.43 -0.18,0.65 0.13,0.23 0.58,0.58 0.81,0.45z"/>
   </g>
  </g>
  <g id="_1774244176432">
   <g>
    <circle fill="white" fill-rule="nonzero" cx="8.91" cy="4.97" r="0.32"/>
   </g>
  </g>
  <path fill="#8D5F3D" fill-rule="nonzero" d="M3.99 4.84c0.09,0.44 0.14,1.12 0.14,1.12 0,0 0.56,0.05 1.14,-0.01 0,0 0,-0.01 0,-0.02 0,-0.37 0.05,-0.74 0.13,-1.09l-1.41 0z"/>
 </g>
</svg>
