<?xml version="1.0" encoding="UTF-8"?>
<!DOCTYPE svg PUBLIC "-//W3C//DTD SVG 1.0//EN" "http://www.w3.org/TR/2001/REC-SVG-20010904/DTD/svg10.dtd">
<!-- Creator: CorelDRAW 2020 (64 Bit) -->
<svg xmlns="http://www.w3.org/2000/svg" xml:space="preserve" width="339px" height="360px" version="1.0" shape-rendering="geometricPrecision" text-rendering="geometricPrecision" image-rendering="optimizeQuality" fill-rule="evenodd" clip-rule="evenodd"
viewBox="0 0 12.02 12.79"
 xmlns:xlink="http://www.w3.org/1999/xlink"
 xmlns:xodm="http://www.corel.com/coreldraw/odm/2003">
 <g id="Camada_x0020_1">
  <metadata id="CorelCorpID_0Corel-Layer"/>
  <rect fill="none" width="12.02" height="12.79"/>
  <path fill="#FF9656" fill-rule="nonzero" d="M3.6 7.69l-1.04 -0.34c0,0 -0.03,-0.79 0.19,-1.27l-0.55 -1.09c0,0 0.27,-0.39 0.91,-0.72l-0.18 -1.27 1.63 -0.37 0 -0.36c0,0 2.03,0.12 2.72,0.36l0.91 -0.36 0 1.09 1.09 -0.18c0,0 0.22,0.63 0,1.45l0.72 0.91 -0.54 0.54 0.18 1.09 -1.21 0.49c0.08,-0.15 0.12,-0.32 0.12,-0.49l0 -0.18c0.3,0 0.55,-0.25 0.55,-0.55 0,-0.3 -0.25,-0.54 -0.55,-0.54l0 -0.36c0,-0.51 -0.4,-0.91 -0.91,-0.91l-3.26 0c-0.5,0 -0.91,0.4 -0.91,0.91l0 0.36c-0.3,0 -0.54,0.24 -0.54,0.54 0,0.3 0.24,0.55 0.54,0.55l0 0.18c0,0.18 0.05,0.36 0.13,0.52z"/>
  <path fill="#EF8C56" fill-rule="nonzero" d="M6.74 4.63c0,0 0.03,-1.86 -2.18,-2.36l0 0.36 -1.63 0.37 0.18 1.27c-0.04,0.02 -0.08,0.04 -0.12,0.06 -0.42,0.24 -0.66,0.5 -0.75,0.61 -0.03,0.03 -0.04,0.05 -0.04,0.05l0.55 1.09c-0.01,0.01 -0.02,0.03 -0.02,0.05 -0.15,0.37 -0.17,0.9 -0.17,1.12 0,0.02 0,0.03 0,0.05 0,0.03 0,0.05 0,0.05l1.04 0.34c-0.08,-0.16 -0.13,-0.34 -0.13,-0.52l0 -0.18c-0.3,0 -0.54,-0.25 -0.54,-0.55 0,-0.3 0.24,-0.54 0.54,-0.54l0 -0.36c0,-0.51 0.41,-0.91 0.91,-0.91l2.36 0z"/>
  <path fill="#EF8C56" fill-rule="nonzero" d="M4.1 4.56c-0.1,0.43 -0.08,0.98 -0.08,0.98 0.18,-0.35 0.71,-0.81 1.06,-0.98 0,0 -0.98,0 -0.98,0z"/>
 </g>
</svg>
