<?xml version="1.0" encoding="UTF-8"?>
<!DOCTYPE svg PUBLIC "-//W3C//DTD SVG 1.0//EN" "http://www.w3.org/TR/2001/REC-SVG-20010904/DTD/svg10.dtd">
<!-- Creator: CorelDRAW 2020 (64 Bit) -->
<svg xmlns="http://www.w3.org/2000/svg" xml:space="preserve" width="339px" height="360px" version="1.0" shape-rendering="geometricPrecision" text-rendering="geometricPrecision" image-rendering="optimizeQuality" fill-rule="evenodd" clip-rule="evenodd"
viewBox="0 0 12.94 13.77"
 xmlns:xlink="http://www.w3.org/1999/xlink"
 xmlns:xodm="http://www.corel.com/coreldraw/odm/2003">
 <g id="Camada_x0020_1">
  <metadata id="CorelCorpID_0Corel-Layer"/>
  <rect fill="none" width="12.94" height="13.77"/>
  <path fill="#E69F5F" fill-rule="nonzero" d="M10.57 12.21c0,0 -0.26,0.11 -0.78,0.23l0 -0.64c0,-0.58 -0.36,-1.09 -0.89,-1.29l-0.99 -0.36c-0.16,-0.05 -0.27,-0.2 -0.27,-0.37l0 -0.63c-0.24,0.1 0.81,-0.34 0.84,-0.35 0.44,-0.18 0.72,-0.61 0.72,-1.08l0 -0.2c0.33,0 0.59,-0.26 0.59,-0.58 0,-0.33 -0.26,-0.59 -0.59,-0.59l0.01 0 0 -1.17c0,-0.54 -0.44,-0.98 -0.98,-0.98l-3.51 0 -0.2 0.02c-0.44,0.09 -0.78,0.48 -0.78,0.96l0 1.17c-0.33,0 -0.59,0.26 -0.59,0.59 0,0.32 0.26,0.58 0.59,0.58l0 0.2c0,0.47 0.28,0.9 0.72,1.08l0.84 0.35 0 0.63 0 0.01 0 0 0 0c0,0.01 0,0.01 0,0.02l0 0.01 0 0c0,0.01 -0.01,0.02 -0.01,0.03l0 0.01 0 0 0 0c-0.02,0.11 -0.09,0.2 -0.18,0.25l0 0c-0.02,0.02 -0.05,0.03 -0.08,0.04l-0.98 0.36c-0.54,0.2 -0.9,0.71 -0.9,1.29l0 0.64c-0.51,-0.12 -0.78,-0.23 -0.78,-0.23l0.52 -6.46c0.14,-1.87 1.71,-3.31 3.58,-3.31l0 0c1.88,0 3.44,1.44 3.59,3.31l0.51 6.46z"/>
  <path fill="#E09156" fill-rule="nonzero" d="M7.52 2.6c-0.34,-0.1 -0.69,-0.16 -1.05,-0.16l0 0c-1.87,0 -3.44,1.44 -3.58,3.31l-0.52 6.46c0,0 0.27,0.11 0.78,0.23l0 -0.64c0,-0.58 0.36,-1.09 0.9,-1.29l0.98 -0.36c0.03,-0.01 0.06,-0.02 0.08,-0.04l0 0c0.05,-0.03 0.09,-0.07 0.12,-0.11l0.07 -0.22 0 -0.63 -0.84 -0.35c-0.44,-0.18 -0.72,-0.61 -0.72,-1.08l0 -0.2c-0.33,0 -0.59,-0.26 -0.59,-0.58 0,-0.33 0.26,-0.59 0.59,-0.59l0 -1.17c0,-0.48 0.34,-0.87 0.78,-0.96l0.2 -0.02 2.3 0 0.5 -1.6z"/>
  <path fill="#E69F5F" fill-rule="nonzero" d="M3.34 5.2l0.01 1.3c1.84,0 3.37,-0.58 4.37,-1.1 -0.31,0.34 -0.78,0.8 -1.44,1.34 0,0 1.73,-0.69 2.71,-1.55l0 0c0,-1.28 -1.03,-2.31 -2.31,-2.31l-1.03 0c-1.28,0 -2.32,1.04 -2.31,2.32z"/>
  <path fill="#E09156" fill-rule="nonzero" d="M7.39 2.99c-0.22,-0.07 -0.46,-0.11 -0.71,-0.11l-1.03 0c-1.28,0 -2.32,1.04 -2.31,2.32l0.01 1.3c0.53,0 1.04,-0.05 1.52,-0.13 1.77,-1.36 2.52,-3.37 2.52,-3.38z"/>
 </g>
</svg>
