<?xml version="1.0" encoding="UTF-8"?>
<!DOCTYPE svg PUBLIC "-//W3C//DTD SVG 1.0//EN" "http://www.w3.org/TR/2001/REC-SVG-20010904/DTD/svg10.dtd">
<!-- Creator: CorelDRAW 2020 (64 Bit) -->
<svg xmlns="http://www.w3.org/2000/svg" xml:space="preserve" width="339px" height="360px" version="1.0" shape-rendering="geometricPrecision" text-rendering="geometricPrecision" image-rendering="optimizeQuality" fill-rule="evenodd" clip-rule="evenodd"
viewBox="0 0 14.01 14.91"
 xmlns:xlink="http://www.w3.org/1999/xlink"
 xmlns:xodm="http://www.corel.com/coreldraw/odm/2003">
 <g id="Camada_x0020_1">
  <metadata id="CorelCorpID_0Corel-Layer"/>
  <rect fill="none" width="14.01" height="14.91"/>
  <path fill="#734A3E" fill-rule="nonzero" d="M3.57 7.09c-0.11,-0.48 -0.37,-1.65 -0.37,-2.12 0,-1.28 1.06,-1.27 1.06,-1.27l0 0c0.62,-1.06 3.59,-1.06 3.59,-1.06l-0.42 0.43c1.16,-0.37 3.38,-0.43 3.38,-0.43l-0.21 0.85c0.53,0.88 0.03,2.95 -0.15,3.6 -0.12,-0.13 -0.29,-0.22 -0.48,-0.22l0 -0.42c0,-0.58 -0.48,-1.06 -1.06,-1.06l-3.81 0c-0.58,0 -1.06,0.48 -1.06,1.06l0 0.42c-0.18,0 -0.35,0.09 -0.47,0.22z"/>
  <path fill="#623F33" fill-rule="nonzero" d="M7.85 2.64c0,0 -2.97,0 -3.59,1.06l0 0c0,0 -1.06,-0.01 -1.06,1.27 0,0.47 0.26,1.64 0.37,2.12 0.12,-0.13 0.29,-0.22 0.47,-0.22l0 -0.42c0,-0.58 0.48,-1.06 1.06,-1.06l2.05 0c1.23,-0.75 2.57,-1.69 3.66,-2.75 0,0 -2.22,0.06 -3.38,0.43l0.42 -0.43z"/>
 </g>
</svg>
