<?xml version="1.0" encoding="UTF-8"?>
<!DOCTYPE svg PUBLIC "-//W3C//DTD SVG 1.0//EN" "http://www.w3.org/TR/2001/REC-SVG-20010904/DTD/svg10.dtd">
<!-- Creator: CorelDRAW 2020 (64 Bit) -->
<svg xmlns="http://www.w3.org/2000/svg" xml:space="preserve" width="339px" height="360px" version="1.0" shape-rendering="geometricPrecision" text-rendering="geometricPrecision" image-rendering="optimizeQuality" fill-rule="evenodd" clip-rule="evenodd"
viewBox="0 0 9.91 10.55"
 xmlns:xlink="http://www.w3.org/1999/xlink"
 xmlns:xodm="http://www.corel.com/coreldraw/odm/2003">
 <g id="Camada_x0020_1">
  <metadata id="CorelCorpID_0Corel-Layer"/>
  <rect fill="none" width="9.91" height="10.55"/>
  <path fill="#9D6E48" fill-rule="nonzero" d="M7.35 3.22c-0.47,-0.99 -1.35,-1.35 -2.39,-1.35 -1.05,0 -1.93,0.36 -2.4,1.35 -0.46,0.99 -0.18,1.62 -0.75,3.14 0,0 0.73,0.75 2.25,0.98l0 -0.33 -0.65 -0.27c-0.33,-0.14 -0.55,-0.47 -0.55,-0.83l0 -0.15c-0.25,0 -0.45,-0.2 -0.45,-0.45 0,-0.25 0.2,-0.45 0.45,-0.45l0 -0.3c0,-0.41 0.34,-0.74 0.75,-0.74l2.69 0c0.42,0 0.75,0.33 0.75,0.74l0 0.3c0.25,0 0.45,0.2 0.45,0.45 0,0.25 -0.2,0.45 -0.45,0.45l0 0.15c0,0.36 -0.22,0.69 -0.55,0.83l-0.65 0.27 0 0.33c1.52,-0.23 2.25,-0.98 2.25,-0.98 -0.56,-1.52 -0.28,-2.15 -0.75,-3.14z"/>
  <path fill="#8D5F3D" fill-rule="nonzero" d="M4.96 1.87c-1.05,0 -1.93,0.36 -2.4,1.35 -0.46,0.99 -0.18,1.62 -0.75,3.14 0,0 0.73,0.75 2.25,0.98l0 -0.33 -0.65 -0.27c-0.33,-0.14 -0.55,-0.47 -0.55,-0.83l0 -0.15c-0.25,0 -0.45,-0.2 -0.45,-0.45 0,-0.25 0.2,-0.45 0.45,-0.45l0 -0.3c0,-0.41 0.34,-0.74 0.75,-0.74l0.22 0c0.23,-1.17 0.93,-1.95 1.13,-1.95z"/>
  <g id="_1775825436528">
   <path fill="#9D6E48" fill-rule="nonzero" d="M3.16 3.97l0 0.59c0,0 1.07,0.02 2.1,-0.11l0.44 -0.33 0 0.26c0.5,-0.09 0.94,-0.22 1.2,-0.41l0 0c0,-0.25 -0.2,-0.45 -0.45,-0.45l-2.84 0c-0.25,0 -0.45,0.2 -0.45,0.45z"/>
  </g>
  <path fill="#8D5F3D" fill-rule="nonzero" d="M3.61 3.52c-0.25,0 -0.45,0.2 -0.45,0.45l0 0.59c0,0 0.24,0.01 0.6,0 0,-0.38 0.06,-0.73 0.14,-1.04l-0.29 0 0 0z"/>
 </g>
</svg>
